<svg width="52" height="112" viewBox="0 0 52 112" fill="none" xmlns="http://www.w3.org/2000/svg">
<g clip-path="url(#clip0_25_496)">
<path d="M10.199 90.9453C9.8495 94.3922 9.87333 97.8232 10.2704 101.262C10.6834 104.812 11.4856 108.283 12.248 111.77C12.2639 111.833 12.3592 111.817 12.3513 111.754C11.6603 105.749 10.4134 99.777 10.7867 93.7012C11.1838 87.2443 12.6451 80.8747 14.8372 74.799C17.0371 68.7153 20.0313 63.0525 23.5894 57.6678C27.0998 52.3465 30.9676 47.2636 34.2001 41.7597C37.8932 35.4775 41.5307 29.1317 44.5725 22.5C46.1133 19.1484 47.4635 15.7015 48.5674 12.1832C49.6793 8.64098 50.1241 5.01143 51.0057 1.42158C51.0533 1.22303 50.7753 1.10389 50.7039 1.30244C49.6476 4.25691 49.1154 7.35435 48.21 10.3644C47.2649 13.5254 46.1371 16.6149 44.8426 19.6488C42.2217 25.8119 38.9416 31.6732 35.59 37.463C32.3655 43.0304 28.8312 48.3119 25.1778 53.6014C21.5959 58.7876 18.292 64.085 15.7823 69.8828C12.8834 76.578 10.9217 83.6942 10.191 90.9533L10.199 90.9453Z" fill="#EDE9E3"/>
<path d="M9.37299 90.8022C9.09501 94.2571 9.18237 97.6881 9.6589 101.119C10.1434 104.653 11.4776 108.188 12.3116 111.658C12.3275 111.722 12.4228 111.706 12.4148 111.642C11.6047 105.654 9.57948 100.285 9.82569 94.2094C10.0878 87.7445 11.4777 80.5489 13.5505 74.4255C15.6234 68.3022 18.6494 62.7188 22.0963 57.2547C25.5035 51.8699 28.0211 48.2959 31.7936 42.5299C35.7806 36.4304 39.9184 28.4406 42.8253 21.7454C44.2946 18.362 45.5732 14.8913 46.6137 11.3491C47.6541 7.78309 48.0274 4.13764 48.8295 0.531914C48.8772 0.333359 48.5913 0.222168 48.5198 0.420723C47.5191 3.39902 47.0505 6.5044 46.2166 9.53036C45.335 12.7072 44.2707 15.8205 43.0397 18.8782C40.5379 25.089 37.3849 31.0218 34.1525 36.8751C31.0391 42.4982 27.2587 47.6923 23.7165 53.0533C20.2378 58.3189 16.9339 63.7593 14.5433 69.6126C11.7874 76.3634 9.96865 83.5193 9.38093 90.7943L9.37299 90.8022Z" fill="#EDE9E3"/>
<path d="M48.1544 1.54845C48.0194 3.00186 47.3285 4.50293 47.384 5.95634C47.384 6.05164 47.5191 6.05959 47.5667 5.99605C48.1147 5.36068 48.1544 4.37586 48.3689 3.58959C48.623 2.67624 48.7024 1.73907 48.9407 0.833664C49.0519 0.420674 49.5205 0.8019 49.8382 0.936916C50.4815 1.20695 50.4338 1.61994 50.3465 2.19178C50.2273 2.96216 49.7985 3.69284 50.0526 4.46323C50.0685 4.50294 50.1241 4.50293 50.1479 4.47116C50.4577 4.06612 50.5927 3.50222 50.7674 3.02569C50.9183 2.62064 51.2201 1.81055 51.1327 1.36579C50.9739 0.515978 49.7746 0.158588 49.036 0.00768786C48.2259 -0.159097 48.1862 1.00045 48.1386 1.54051L48.1544 1.54845Z" fill="#EDE9E3"/>
<path d="M13.0661 100.023C12.5499 101.929 12.2004 103.899 12.0257 105.869C11.9463 106.758 11.9463 107.664 11.986 108.561C12.0416 109.641 12.0019 110.833 12.3037 111.873C12.3434 112 12.5102 112 12.534 111.873C12.6928 111.039 12.5737 110.142 12.5578 109.3C12.5419 108.299 12.5419 107.306 12.6293 106.306C12.7961 104.272 13.217 102.263 13.773 100.301C14.2892 98.4587 14.9802 96.6717 15.7744 94.9324C16.243 93.9237 16.7671 92.9389 17.3072 91.97C17.7599 91.1758 18.3 90.4213 18.6097 89.5476C18.6971 89.2935 18.3715 88.9996 18.157 89.214C16.8942 90.461 16.1159 92.3671 15.3614 93.9476C14.4242 95.9013 13.6379 97.9345 13.074 100.031L13.0661 100.023Z" fill="#EDE9E3"/>
<path d="M19.4595 88.1335C19.4674 88.2368 19.6262 88.3003 19.6977 88.2288C20.3807 87.5617 20.8334 86.6245 21.4609 85.8938C22.2392 84.9964 23.1843 84.2657 23.9388 83.3524C24.1215 83.122 23.8356 82.7487 23.5735 82.8996C22.5728 83.4715 21.7706 84.3213 21.0082 85.1711C20.3331 85.9256 19.3483 87.0454 19.4515 88.1335L19.4595 88.1335Z" fill="#EDE9E3"/>
<path d="M25.2097 81.883C26.6234 80.2549 28.0926 78.6426 29.3793 76.9113C30.793 74.9972 32.1987 73.0832 33.6283 71.185C35.0579 69.2868 36.5272 67.4125 37.8932 65.4746C39.1481 63.7035 40.7286 61.6306 41.3242 59.518C41.4196 59.1844 41.0304 58.97 40.8001 59.2321C40.0535 60.0739 39.5452 61.1223 38.9654 62.0833C38.3857 63.0443 37.7662 63.9894 37.1308 64.9107C35.7806 66.8645 34.3034 68.7309 32.8659 70.629C31.4363 72.5272 30.0385 74.4492 28.6645 76.395C27.4255 78.1423 25.7021 79.7148 24.9555 81.756C24.8999 81.9227 25.1064 82.018 25.2097 81.8989L25.2097 81.883Z" fill="#EDE9E3"/>
<path d="M40.808 28.9408C43.0318 32.7689 43.9372 37.2483 44.1437 41.6323C44.2548 44.0467 44.1437 46.4691 43.8498 48.8597C43.548 51.2979 42.8967 53.6488 42.452 56.0632C42.4281 56.2061 42.6505 56.3014 42.73 56.1664C43.9451 54.1094 44.4375 51.6474 44.779 49.3124C45.1444 46.8344 45.2476 44.3009 45.1444 41.807C44.9538 37.2244 44.0722 32.4036 41.5704 28.4801C41.2924 28.0513 40.5459 28.504 40.808 28.9487L40.808 28.9408Z" fill="#EDE9E3"/>
<path d="M4.02792 95.0354C4.31384 96.5206 4.98892 97.8787 5.62429 99.2448C6.29937 100.69 7.02211 102.112 7.74484 103.541C8.48346 105.011 9.21414 106.48 9.96864 107.941C10.6755 109.315 11.1838 110.84 12.2957 111.952C12.4307 112.087 12.6293 111.928 12.526 111.762C11.7238 110.483 11.2314 109.022 10.5881 107.655C9.88922 106.17 9.17443 104.693 8.45963 103.208C7.81632 101.882 7.18095 100.555 6.5694 99.213C5.91021 97.7675 5.39397 96.2347 4.62358 94.8448C4.4568 94.543 3.94056 94.6463 4.01204 95.0275L4.02792 95.0354Z" fill="#EDE9E3"/>
<path d="M3.71027 62.4648C3.36081 64.0214 2.86046 65.5384 2.50306 67.0871C1.78033 70.2322 1.29586 73.4328 1.04965 76.6494C0.66843 81.5656 0.549297 87.4984 3.20197 91.8586C3.26551 91.9618 3.40052 91.8586 3.36875 91.7554C1.83592 86.7756 1.64531 81.5259 2.10596 76.3635C2.36805 73.4011 2.82869 70.4625 3.472 67.5636C3.78175 66.1579 4.17885 64.7839 4.52831 63.386C4.86982 62.0121 5.08426 60.5984 5.44959 59.2403C5.52902 58.9464 5.13191 58.6684 4.94924 58.9623C4.25828 60.0583 3.99618 61.2099 3.71821 62.4568L3.71027 62.4648Z" fill="#EDE9E3"/>
<path d="M6.45027 55.317C6.41056 55.4917 6.65676 55.6823 6.76001 55.4838C8.69789 51.9654 10.469 48.4312 12.8993 45.2067C15.4408 41.8471 18.4588 38.8609 21.723 36.2082C25.019 33.5317 28.6168 31.3397 32.3575 29.3462C34.2875 28.3137 36.1777 27.2098 38.1791 26.3123C39.7358 25.6055 41.2368 24.8351 41.9516 23.199C42.1263 22.794 41.5466 22.5001 41.2924 22.8337C40.1011 24.3903 38.3935 25.0416 36.686 25.8517C34.6369 26.8286 32.6831 27.9961 30.6817 29.0683C27.0919 30.9823 23.7006 33.2538 20.5634 35.8349C17.4184 38.4241 14.5671 41.3706 12.0971 44.619C9.69066 47.7879 7.39538 51.4174 6.45027 55.317Z" fill="#EDE9E3"/>
<path d="M33.2471 42.8716C35.1453 44.5553 36.8925 46.3185 38.4254 48.4072C39.4261 49.7653 40.3156 51.2029 40.9907 52.7516C41.3243 53.514 41.6419 54.2924 41.8802 55.0945C42.0152 55.5631 42.182 55.9364 42.5553 56.2541C42.6903 56.3732 42.8809 56.2223 42.865 56.0635C42.4759 52.9581 40.6889 50.0671 38.9257 47.5654C37.5041 45.5401 35.7409 43.5943 33.6998 42.1091C33.5807 42.3712 33.4218 42.6333 33.2471 42.8636L33.2471 42.8716Z" fill="#EDE9E3"/>
<path d="M32.985 43.1969C33.6601 44.0467 34.4384 44.8488 35.0579 45.7145C36.0666 47.1203 36.8846 48.6452 37.6312 50.2018C38.3698 51.7426 38.9734 53.3231 39.5373 54.9354C39.8152 55.7296 40.0932 56.5238 40.3712 57.318C40.6095 58.0169 40.6174 58.9064 40.9986 59.5338C41.086 59.6848 41.3242 59.6768 41.3481 59.4783C41.5149 58.0487 40.9113 56.6826 40.4665 55.3404C39.8867 53.5931 39.2831 51.8697 38.5366 50.186C37.8535 48.6531 37.0514 47.1679 36.146 45.7542C35.4471 44.6662 34.6052 43.3398 33.5727 42.3947C33.4139 42.6806 33.2074 42.9507 33.0009 43.1969L32.985 43.1969Z" fill="#EDE9E3"/>
<path d="M17.5454 66.976C18.0696 67.5399 18.6017 68.1038 19.0624 68.7233C20.0075 70.002 20.7382 71.4077 21.3576 72.8691C21.9851 74.3463 22.4854 75.8712 23.0096 77.3961C23.5258 78.8892 23.9706 80.6444 24.9793 81.8993C25.0904 82.0343 25.3128 81.931 25.289 81.7643C25.011 80.1679 24.3042 78.5795 23.8356 77.0308C23.3352 75.3788 22.7396 73.7506 22.0724 72.1543C21.4688 70.7247 20.6984 69.3904 19.801 68.1356C19.2927 67.4287 18.7129 66.6504 18.0617 65.9832C17.9028 66.3248 17.7201 66.6583 17.5454 66.9919L17.5454 66.976Z" fill="#EDE9E3"/>
<path d="M17.2516 67.5316C17.7202 68.302 18.1729 69.0724 18.5461 69.8904C19.2848 71.4868 19.9201 73.1308 20.492 74.7907C21.0559 76.4268 21.5403 78.0788 22.1201 79.7069C22.5172 80.8188 22.8667 82.4469 23.8277 83.2173C24.0024 83.3523 24.2089 83.1458 24.1453 82.9632C23.637 81.5653 23.0732 80.2152 22.6443 78.7856C22.1757 77.2131 21.7071 75.6405 21.1909 74.0759C20.3331 71.4947 19.2768 68.9374 17.6407 66.7691C17.5057 67.0233 17.3707 67.2774 17.2436 67.5316L17.2516 67.5316Z" fill="#EDE9E3"/>
<path d="M14.2812 74.1555C14.2653 74.2667 14.2495 74.3858 14.2415 74.497C14.6307 75.0609 15.0516 75.6089 15.4011 76.1728C16.2032 77.4515 16.8783 78.8096 17.4819 80.1915C18.0379 81.4781 18.4747 82.8045 18.7924 84.1705C19.0862 85.4254 19.0227 86.8391 19.5151 88.0304C19.5627 88.1416 19.7295 88.1336 19.7692 88.0304C20.1981 86.8788 19.8804 85.5286 19.6581 84.3691C19.3801 82.9236 18.9274 81.5178 18.3953 80.1597C17.8314 78.7143 17.1007 77.3403 16.3144 76.0139C15.8061 75.1641 15.2661 74.2111 14.5989 73.4248C14.5195 73.6869 14.4242 73.941 14.2733 74.1714L14.2812 74.1555Z" fill="#EDE9E3"/>
<path d="M14.2812 74.1555C14.2494 74.3937 14.2256 74.632 14.2335 74.8703C14.5671 75.4659 14.9086 76.0537 15.1945 76.6652C15.7823 77.9518 16.235 79.302 16.5924 80.668C17.3786 83.5987 17.5057 86.6723 18.1887 89.6109C18.2205 89.7459 18.427 89.8333 18.5144 89.6903C19.1736 88.5863 18.57 86.7676 18.3952 85.5922C18.149 83.8925 17.8869 82.1929 17.466 80.5251C17.1007 79.0796 16.6003 77.6659 16.0046 76.2999C15.6075 75.3945 15.1628 74.3937 14.5592 73.5598C14.4877 73.7663 14.4003 73.9728 14.2812 74.1555Z" fill="#EDE9E3"/>
<path d="M4.43301 95.2262C5.69581 94.6623 6.47414 93.2724 7.2763 92.2002C8.02286 91.1915 8.92032 90.3973 9.78601 89.5316C9.73836 89.1981 9.73041 88.8724 9.7463 88.5389C8.65823 89.1425 7.76871 90.1352 7.00626 91.0962C6.48208 91.7554 6.00555 92.4543 5.49726 93.1215C5.03661 93.741 4.52831 94.281 4.1868 94.9799C4.11532 95.1308 4.29799 95.2738 4.43301 95.2182L4.43301 95.2262Z" fill="#EDE9E3"/>
<path d="M3.45614 92.089C4.01209 91.7713 4.4489 91.3027 4.94132 90.8897C5.48932 90.437 6.12469 90.032 6.74418 89.6825C7.66547 89.1504 8.71383 89.1504 9.73837 89.0551C9.72248 88.7215 9.73837 88.38 9.77808 88.0464C7.22071 87.975 4.46479 89.6825 3.20199 91.7792C3.10668 91.9381 3.24964 92.2081 3.45614 92.0969L3.45614 92.089Z" fill="#EDE9E3"/>
<path d="M1.43881 84.6154C1.29585 86.1165 1.66913 87.6652 2.02653 89.1186C2.28862 90.1988 2.38392 91.6919 3.06694 92.6052C3.22579 92.8117 3.5117 92.7243 3.60701 92.5179C3.94852 91.8428 4.57595 91.3345 4.70302 90.58C4.71891 90.4926 4.59978 90.4291 4.53624 90.4926C4.13119 90.8659 3.71026 91.2948 3.37669 91.7475C3.27344 91.3742 3.24961 90.9453 3.17019 90.6038C3.01929 89.9367 2.85251 89.2854 2.69367 88.6262C2.36804 87.284 2.2092 85.8703 1.74061 84.5678C1.69296 84.4248 1.47058 84.4725 1.45469 84.6154L1.43881 84.6154Z" fill="#EDE9E3"/>
<path d="M5.2431 59.558C5.86259 59.2324 6.37882 58.7559 6.9586 58.3588C7.7687 57.8028 8.62645 57.3342 9.50008 56.8815C11.1918 56.0158 12.9311 55.2613 14.734 54.6657C17.8076 53.6491 20.9924 53.4108 24.1771 53.0375C24.2883 52.7516 24.4075 52.4657 24.5345 52.1877C21.2306 52.148 17.8314 52.7993 14.7101 53.7444C12.7802 54.3321 10.9297 55.174 9.13475 56.0794C7.7131 56.7942 5.73551 57.7075 4.90159 59.1291C4.77451 59.3515 4.96512 59.693 5.2431 59.5501L5.2431 59.558Z" fill="#EDE9E3"/>
<path d="M6.59328 55.6901C7.28425 55.3327 7.90373 54.8562 8.60264 54.5147C9.37303 54.1334 10.207 53.8713 11.0329 53.649C12.669 53.2042 14.3686 53.0057 16.0524 52.8071C17.9664 52.5847 19.8725 52.3465 21.8025 52.4338C22.6205 52.4656 23.4624 52.5927 24.3122 52.68C24.4551 52.3385 24.614 52.0049 24.7728 51.6714C23.6689 51.5443 22.5331 51.5284 21.5007 51.4887C19.5231 51.4093 17.5217 51.7111 15.5599 51.9494C13.8365 52.1558 12.1051 52.3941 10.4452 52.8945C9.06328 53.3154 6.87125 53.919 6.27559 55.4042C6.20411 55.5789 6.40267 55.7854 6.58534 55.698L6.59328 55.6901Z" fill="#EDE9E3"/>
<path d="M12.7485 79.7076C13.7016 82.0982 14.6149 84.4729 15.2106 87.0223C15.6871 89.0476 15.9889 91.1125 16.1874 93.1934C16.2828 92.9551 16.386 92.7248 16.4972 92.4945C16.386 90.636 16.1239 88.7775 15.7268 86.9429C15.1232 84.1473 14.2734 81.2087 12.955 78.6275C12.9073 78.9928 12.8359 79.3502 12.7564 79.7156L12.7485 79.7076Z" fill="#EDE9E3"/>
<path d="M12.3753 81.2401C13.1933 83.5115 14.0431 85.7512 14.4561 88.1736C14.8135 90.2623 15.3456 92.3591 15.5839 94.4717C15.703 94.2493 15.8142 94.019 15.9333 93.7966C15.7666 91.8746 15.3297 89.9605 15.0041 88.0862C14.5435 85.4176 13.8049 82.5585 12.693 79.9932C12.5977 80.3982 12.4944 80.8112 12.3832 81.2321L12.3753 81.2401Z" fill="#EDE9E3"/>
<path d="M11.8431 83.8136C12.4229 85.267 12.955 86.7443 13.368 88.2533C14.0511 90.7312 14.5117 93.2807 14.9009 95.8301C14.9962 95.6315 15.0835 95.433 15.1788 95.2424C14.9962 92.8518 14.607 90.4771 14.0034 88.15C13.6142 86.6331 13.0742 85.1558 12.5023 83.7024C12.3594 83.3292 12.2164 82.94 12.0735 82.5429C11.994 82.9638 11.9146 83.3927 11.8352 83.8136L11.8431 83.8136Z" fill="#EDE9E3"/>
<path d="M11.168 86.5774C11.7557 87.9435 12.3196 89.3175 12.7961 90.7312C13.4633 92.7564 14.0113 94.8214 14.4481 96.9102C14.5355 96.6798 14.6308 96.4495 14.734 96.2192C14.1145 92.542 13.1138 88.8489 11.4936 85.4973C11.4063 85.8626 11.2951 86.22 11.1759 86.5774L11.168 86.5774Z" fill="#EDE9E3"/>
<path d="M16.8784 68.8981C17.1326 69.3269 17.3867 69.7638 17.625 70.2006C18.4589 71.7493 19.2055 73.3457 19.817 74.9976C20.9051 77.9362 21.5246 81.1369 22.7477 84.0278C22.843 83.9325 22.9383 83.8293 23.0336 83.734C22.6762 82.4473 22.2632 81.1766 21.9058 79.89C21.4213 78.1665 20.9289 76.451 20.3412 74.7594C19.7614 73.0995 18.999 71.5031 18.1889 69.9464C17.8791 69.3508 17.5694 68.7392 17.2517 68.1356C17.1326 68.3898 17.0055 68.6439 16.8864 68.8981L16.8784 68.8981Z" fill="#EDE9E3"/>
<path d="M16.5686 69.581C16.4495 69.859 16.3383 70.137 16.2192 70.4149C16.5607 70.955 16.8943 71.4951 17.1881 72.051C17.9664 73.5044 18.6177 75.0293 19.2134 76.5622C19.8646 78.2379 20.3491 79.9614 20.9527 81.6451C21.3339 82.7094 21.7469 83.7736 22.0408 84.8696C22.1281 84.7505 22.2155 84.6314 22.3108 84.5202C22.1281 83.7021 21.866 82.892 21.596 82.0978C20.9924 80.3029 20.5 78.4842 19.8646 76.6972C19.269 75.0134 18.5621 73.3774 17.752 71.7969C17.3867 71.0741 16.9975 70.3117 16.5607 69.5731L16.5686 69.581Z" fill="#EDE9E3"/>
<path d="M15.7109 71.6774C15.8777 71.9633 16.0444 72.2493 16.2033 72.5352C17.0769 74.0839 17.895 75.6882 18.5859 77.3243C19.7614 80.112 20.3173 83.0744 21.1671 85.9653C21.2465 85.878 21.3339 85.7827 21.4133 85.6953C20.9209 82.7726 20.1744 79.8499 19.1022 77.094C18.4509 75.442 17.6249 73.8377 16.7831 72.2731C16.5448 71.8283 16.2986 71.3439 16.0365 70.8594C15.9253 71.1294 15.8141 71.3995 15.7109 71.6774Z" fill="#EDE9E3"/>
<path d="M15.0596 73.3455C16.1795 75.2119 17.2358 77.118 18.1412 79.1114C19.2213 81.502 20.0155 84.0117 20.635 86.5532C20.7144 86.4579 20.8018 86.3626 20.8812 86.2673C19.9996 81.4464 18.0379 76.6653 15.3694 72.5354C15.2661 72.8054 15.1629 73.0754 15.0596 73.3455Z" fill="#EDE9E3"/>
<path d="M30.0305 48.0975C30.1734 48.2881 30.3164 48.4787 30.4593 48.6693C31.7698 50.4722 32.842 52.4736 33.9221 54.4194C35.6853 57.6122 37.1387 60.9638 38.2982 64.4106C38.3777 64.3153 38.4571 64.22 38.5365 64.1327C37.639 60.7731 36.3604 57.5486 34.7243 54.4512C33.7712 52.6325 32.7308 50.8216 31.603 49.1061C31.2456 48.5661 30.8723 48.0419 30.4832 47.5177C30.3402 47.7083 30.1893 47.8989 30.0384 48.0896L30.0305 48.0975Z" fill="#EDE9E3"/>
<path d="M29.2362 49.1383C29.4586 49.448 29.6889 49.7498 29.9113 50.0596C31.2138 51.8783 32.3892 53.7765 33.4694 55.7302C35.161 58.7959 36.4715 62.0125 37.5993 65.3164C37.6707 65.229 37.7502 65.1337 37.8216 65.0464C37.8614 64.9828 37.909 64.9272 37.9567 64.8637C37.1148 61.5757 35.6932 58.4385 34.0968 55.4523C33.0643 53.5303 31.8968 51.6877 30.6578 49.9007C30.3481 49.448 30.0225 49.0033 29.6968 48.5664C29.5539 48.765 29.395 48.9556 29.2441 49.1383L29.2362 49.1383Z" fill="#EDE9E3"/>
<path d="M28.5294 50.242C28.9901 50.7265 29.4507 51.2268 29.8399 51.759C31.1027 53.4665 32.0001 55.325 32.9214 57.2311C34.351 60.2094 35.6853 63.2274 36.8528 66.3169C36.9401 66.1819 37.0275 66.0469 37.1228 65.9198C36.1539 62.8462 34.9069 59.8838 33.525 56.9611C32.699 55.2217 31.8889 53.4983 30.8009 51.9099C30.237 51.0918 29.5937 50.3214 28.9186 49.5749C28.7756 49.7893 28.6485 50.0117 28.5294 50.242Z" fill="#EDE9E3"/>
<path d="M25.4876 54.2371C25.7576 54.5945 26.0197 54.9519 26.2818 55.3252C27.5526 57.1439 28.6883 59.0659 29.7287 61.0276C31.2615 63.9583 32.4608 67.0398 33.4139 70.1929C33.525 70.0102 33.6442 69.8355 33.7554 69.6528C32.9929 66.5633 31.7857 63.593 30.3641 60.7417C29.3872 58.8038 28.2674 56.9295 27.0602 55.1266C26.7107 54.6104 26.3533 54.0862 25.988 53.57C25.8212 53.7924 25.6623 54.0147 25.4876 54.2292L25.4876 54.2371Z" fill="#EDE9E3"/>
<path d="M24.6378 55.3727C24.8284 55.6268 25.0111 55.881 25.1858 56.1351C26.528 58.0889 27.6399 60.1856 28.7121 62.2903C30.1655 65.1495 31.8016 68.1278 32.7467 71.249C32.8659 71.0584 32.9929 70.8599 33.1121 70.6692C32.302 67.7624 30.8088 64.9986 29.5222 62.3379C28.5771 60.3842 27.5685 58.4622 26.4407 56.6117C26.0356 55.9525 25.6067 55.3092 25.162 54.6738C24.9873 54.9041 24.8125 55.1344 24.6378 55.3727Z" fill="#EDE9E3"/>
<path d="M23.9072 56.3894C24.1137 56.723 24.3202 57.0645 24.5346 57.3981C25.7815 59.3757 27.0999 61.2659 28.18 63.3547C29.697 66.3092 30.8565 69.3828 31.9684 72.4961C32.0796 72.3214 32.1908 72.1466 32.302 71.9719C31.4443 68.8983 30.245 65.9518 28.8551 63.0608C27.9259 61.123 26.7743 59.2883 25.5591 57.5252C25.1461 56.9295 24.7729 56.318 24.3996 55.6985C24.2328 55.9288 24.066 56.1591 23.9151 56.3974L23.9072 56.3894Z" fill="#EDE9E3"/>
<path d="M23.5418 56.9613C23.4544 57.1043 23.3591 57.2472 23.2718 57.3981C23.7245 57.9859 24.1692 58.5895 24.5743 59.2089C25.7656 61.0356 26.7425 62.9973 27.6558 64.9749C28.9901 67.8897 30.0067 70.9395 30.9995 73.9893C31.1027 73.8304 31.2139 73.6636 31.3171 73.5048C30.5229 70.3835 29.4984 67.3258 28.2276 64.3554C27.4255 62.489 26.4645 60.7021 25.3923 58.9786C24.9078 58.1923 24.3757 57.3664 23.788 56.5722C23.7006 56.6992 23.6212 56.8263 23.5418 56.9534L23.5418 56.9613Z" fill="#EDE9E3"/>
<path d="M22.3823 58.8829C22.7873 59.3912 23.1844 59.9074 23.5497 60.4475C24.6934 62.171 25.6703 64.0215 26.5678 65.8879C28.0053 68.89 29.149 72.0271 30.2132 75.1802C30.3164 75.0293 30.4197 74.8704 30.5309 74.7116C29.6572 71.5903 28.6009 68.5406 27.2746 65.5702C26.4486 63.7117 25.4797 61.9248 24.3837 60.2013C23.9389 59.4945 23.4465 58.732 22.9144 57.9934C22.7397 58.2873 22.5649 58.5811 22.3902 58.8829L22.3823 58.8829Z" fill="#EDE9E3"/>
<path d="M21.4292 60.5908C21.7707 61.0674 22.1122 61.5518 22.4379 62.0363C23.6371 63.8392 24.757 65.6897 25.7894 67.5799C27.3382 70.4152 28.2118 73.473 29.3078 76.4751C29.4111 76.3321 29.5143 76.1812 29.6176 76.0383C28.7916 73.0362 27.9259 70.0817 26.4725 67.2781C25.5591 65.5149 24.5346 63.8153 23.4703 62.1395C22.962 61.3453 22.4537 60.5193 21.9057 59.7093C21.7469 60.0031 21.5881 60.297 21.4292 60.5908Z" fill="#EDE9E3"/>
<path d="M20.7541 61.917C21.2385 62.6636 21.723 63.4022 22.1836 64.1567C23.24 65.9119 24.2327 67.6989 25.2175 69.4938C26.1468 71.1775 26.9807 72.8772 27.7034 74.6641C28.0688 75.5695 28.3626 76.4829 28.6247 77.4121C28.7677 77.2215 28.9027 77.0309 29.0457 76.8403C28.9106 76.2526 28.7439 75.6728 28.5374 75.0851C27.8464 73.179 27.0601 71.3046 26.0753 69.5256C25.019 67.6274 24.0262 65.6975 22.9302 63.8231C22.3822 62.8859 21.8263 61.9249 21.2227 60.9957C21.0638 61.2975 20.9129 61.6073 20.762 61.9091L20.7541 61.917Z" fill="#EDE9E3"/>
<path d="M40.2361 30.4264C40.6412 30.8553 41.0462 31.2842 41.4354 31.729C42.4599 32.8964 43.2303 34.2545 44.1516 35.5015C44.1119 35.3029 44.0801 35.1044 44.0484 34.9137C43.3574 33.7145 42.73 32.4914 41.8643 31.3874C41.4513 30.8712 41.0304 30.355 40.5856 29.8625C40.4744 30.0532 40.3553 30.2358 40.2361 30.4264Z" fill="#EDE9E3"/>
<path d="M39.6088 31.3875C40.4268 32.2134 41.2448 33.0474 41.9835 33.9607C42.8968 35.0885 43.699 36.3036 44.4773 37.5347C44.4376 37.2488 44.3899 36.9708 44.3502 36.6849C43.1192 34.5564 41.7214 32.5629 39.99 30.8236C39.8709 31.0142 39.7438 31.1968 39.6167 31.3795L39.6088 31.3875Z" fill="#EDE9E3"/>
<path d="M39.0131 32.4359C41.1654 34.6597 43.0715 37.0423 44.7552 39.6553C44.7235 39.3455 44.6838 39.0358 44.6441 38.726C43.9849 37.5744 43.2542 36.4705 42.46 35.3983C41.5307 34.1434 40.5062 32.9045 39.3546 31.8164C39.2434 32.0229 39.1322 32.2373 39.021 32.4438L39.0131 32.4359Z" fill="#EDE9E3"/>
<path d="M38.3777 33.6909C39.3705 34.644 40.3473 35.6129 41.221 36.7089C42.5235 38.3291 43.691 40.0685 44.7235 41.8872C44.7393 41.6728 44.7632 41.4583 44.7791 41.2518C43.9848 39.6078 43.0397 38.0432 41.9278 36.5739C40.9986 35.3508 39.9423 34.0483 38.7589 32.9205C38.6318 33.1747 38.5048 33.4288 38.3777 33.6909Z" fill="#EDE9E3"/>
<path d="M37.925 34.6755C39.2433 36.0098 40.5061 37.3679 41.6498 38.8848C42.7617 40.37 43.7624 41.9426 44.6917 43.5469C44.6758 43.261 44.6678 42.975 44.6758 42.6812C43.0397 39.4646 40.8953 36.3513 38.2506 33.9607C38.1394 34.199 38.0282 34.4293 37.925 34.6755Z" fill="#EDE9E3"/>
<path d="M1.41505 83.0825C3.07496 81.8594 4.98107 80.962 6.8157 80.0327C8.18175 79.3418 9.57957 78.7461 11.025 78.2378C11.3983 78.1028 11.7716 77.9837 12.1449 77.8645C12.2402 77.5786 12.3275 77.2848 12.4229 76.9909C10.2944 77.666 8.19764 78.5555 6.28358 79.6118C4.63956 80.5252 2.83669 81.3988 1.3674 82.6298C1.38328 82.7807 1.39917 82.9316 1.41505 83.0746L1.41505 83.0825Z" fill="#EDE9E3"/>
<path d="M1.27204 81.6846C2.72545 80.7236 4.29799 79.8817 5.75935 79.0478C8.07051 77.7294 10.4611 76.5539 12.9152 75.5056C12.9867 75.2991 13.0502 75.0926 13.1217 74.894C10.3499 75.863 7.76076 77.2449 5.21928 78.7222C3.90883 79.4846 2.51895 80.2709 1.24027 81.1922C1.24821 81.351 1.2641 81.5178 1.27998 81.6846L1.27204 81.6846Z" fill="#EDE9E3"/>
<path d="M1.18466 79.699C1.18466 79.8102 1.18466 79.9293 1.18466 80.0405C3.19402 78.746 5.38604 77.6817 7.43512 76.5222C9.373 75.4261 11.4141 74.5763 13.4791 73.7901C13.5744 73.4883 13.6776 73.1865 13.7809 72.8926C11.4777 73.663 9.24592 74.7034 7.15714 75.9027C5.64019 76.7684 4.16296 77.7214 2.66983 78.6268C2.16154 78.9366 1.66118 79.2543 1.18466 79.5878C1.18466 79.6275 1.18466 79.6672 1.18466 79.707L1.18466 79.699Z" fill="#EDE9E3"/>
<path d="M1.33554 78.0394C1.94709 77.6026 2.65394 77.269 3.28931 76.9672C4.43298 76.4192 5.60047 75.9427 6.7362 75.3629C9.08707 74.1557 11.5571 73.2821 13.9874 72.3052C14.0906 72.0193 14.1939 71.7254 14.3051 71.4474C11.3426 72.2258 8.49141 73.6633 5.84668 75.1247C4.56005 75.8315 2.72542 76.4351 1.39114 77.4358C1.37526 77.6423 1.35937 77.8409 1.33554 78.0474L1.33554 78.0394Z" fill="#EDE9E3"/>
<path d="M1.49442 75.744C3.46407 74.4733 5.91024 73.7426 8.01491 72.9325C10.1513 72.1145 12.3434 71.495 14.5275 70.8596C14.6545 70.534 14.7816 70.2163 14.9166 69.8986C12.4625 70.5022 10.0402 71.3361 7.72899 72.2812C6.23587 72.8928 4.73481 73.5282 3.2814 74.2191C2.67779 74.505 2.08214 74.8227 1.52619 75.196C1.51824 75.3787 1.5103 75.5613 1.49442 75.752L1.49442 75.744Z" fill="#EDE9E3"/>
<path d="M1.62155 73.5918C3.76593 72.1066 6.53773 71.2727 8.97597 70.6135C10.6518 70.1608 12.3514 69.7875 14.0589 69.4301C14.4402 69.3507 14.8214 69.2792 15.2026 69.2157C15.3376 68.898 15.4806 68.5803 15.6235 68.2706C13.0821 68.7074 10.5485 69.4222 8.15793 70.1131C5.98178 70.7406 3.52766 71.5745 1.67714 73.0279C1.66126 73.2185 1.64538 73.4012 1.62949 73.5918L1.62155 73.5918Z" fill="#EDE9E3"/>
<path d="M1.82802 71.7729C4.25037 70.4069 7.18102 69.6921 9.79398 69.0567C11.8113 68.5723 13.8365 68.1672 15.8618 67.7304C16.0047 67.4365 16.1397 67.1427 16.2906 66.8488C13.8206 67.2777 11.3745 67.8178 8.94417 68.469C6.60919 69.0964 4.01211 69.8271 1.92333 71.1852C1.89156 71.3758 1.85979 71.5665 1.82802 71.765L1.82802 71.7729Z" fill="#EDE9E3"/>
<path d="M2.15368 69.9305C3.18616 69.5175 4.18687 69.049 5.21935 68.6201C6.84748 67.945 8.65829 67.5558 10.3738 67.1349C12.4785 66.6187 14.599 66.3169 16.7275 66.0151C16.9102 65.6656 17.0928 65.3241 17.2834 64.9826C14.9008 65.197 12.4943 65.7609 10.2388 66.301C8.67417 66.6822 7.11752 67.127 5.58468 67.6353C4.40131 68.0244 3.33706 68.6836 2.27281 69.3269C2.2331 69.5334 2.19339 69.732 2.15368 69.9385L2.15368 69.9305Z" fill="#EDE9E3"/>
<path d="M2.54276 67.9604C3.37668 67.6031 4.24238 67.3171 5.10013 67.0392C6.81563 66.4912 8.51525 65.9273 10.2546 65.4348C12.8199 64.7042 15.417 64.2276 18.014 63.7432C18.2205 63.4017 18.435 63.0681 18.6494 62.7266C15.6314 62.9966 12.5975 63.9258 9.76216 64.7598C8.09431 65.2522 6.43441 65.7843 4.79833 66.3641C4.05971 66.6262 3.34492 66.92 2.67778 67.2774C2.63807 67.5077 2.59041 67.7301 2.54276 67.9604Z" fill="#EDE9E3"/>
<path d="M2.8843 66.0864C8.06257 63.5847 13.8365 62.6951 19.4437 61.5515C19.6343 61.2735 19.8328 61.0035 20.0314 60.7334C16.8545 61.1226 13.6935 61.8215 10.612 62.6634C8.03875 63.3623 5.32254 64.22 2.96372 65.5702C2.9399 65.7449 2.90813 65.9117 2.8843 66.0864Z" fill="#EDE9E3"/>
<path d="M13.1614 44.214C15.5759 43.9042 18.0538 43.8566 20.4126 43.801C23.653 43.7216 26.8775 43.9519 30.102 44.2378C30.1973 44.0551 30.2926 43.8804 30.3959 43.7136C26.9649 43.245 23.4703 43.1021 20.0155 43.2291C17.887 43.3086 15.695 43.4118 13.5506 43.7295C13.4235 43.8963 13.2885 44.0551 13.1535 44.214L13.1614 44.214Z" fill="#EDE9E3"/>
<path d="M14.2654 42.8002C16.8069 42.6175 19.3722 42.8081 21.9137 42.8558C24.7966 42.9113 27.6399 43.1099 30.4673 43.5864C30.5785 43.4117 30.6818 43.237 30.8009 43.0622C27.9338 42.3474 24.9158 42.2998 21.9772 42.268C19.5072 42.2442 17.0451 42.1251 14.5989 42.3475C14.4878 42.4984 14.3845 42.6413 14.2733 42.7922L14.2654 42.8002Z" fill="#EDE9E3"/>
<path d="M15.4408 41.2119C18.3158 41.0133 21.318 41.4025 24.1136 41.752C26.4168 42.0458 28.7121 42.4191 31.0074 42.7686C31.1265 42.6018 31.2377 42.435 31.3568 42.2682C28.8471 41.8076 26.3215 41.3946 23.78 41.1007C21.1353 40.791 18.3952 40.5448 15.7267 40.8307C15.6314 40.9577 15.5361 41.0848 15.4408 41.2119Z" fill="#EDE9E3"/>
<path d="M16.5925 39.7585C19.3404 39.679 22.0646 39.9808 24.7808 40.4653C27.0602 40.8704 29.3316 41.474 31.619 41.9028C31.7619 41.6963 31.9049 41.4978 32.0479 41.2913C29.6652 40.7195 27.2349 40.2668 24.8364 39.8776C22.2314 39.4567 19.6105 39.2184 16.9816 39.3216C16.8466 39.4646 16.7195 39.6155 16.5925 39.7585Z" fill="#EDE9E3"/>
<path d="M18.2126 38.0508C18.1015 38.1619 17.9903 38.2731 17.8791 38.3843C20.8494 38.5511 23.7642 38.7814 26.7107 39.3136C28.6566 39.663 30.6024 40.1237 32.5561 40.5049C32.6117 40.4175 32.6594 40.3381 32.707 40.2507C32.7865 40.1078 32.8738 39.9728 32.9453 39.8298C31.0154 39.4486 29.0775 39.0991 27.1476 38.7497C24.1851 38.2096 21.2704 37.9396 18.2921 37.9555C18.2603 37.9872 18.2365 38.0111 18.2047 38.0349L18.2126 38.0508Z" fill="#EDE9E3"/>
<path d="M19.1577 37.1851C22.0248 37.4154 24.8919 37.5663 27.7193 38.1143C29.5619 38.4717 31.3807 38.9403 33.2073 39.3691C33.3106 39.1706 33.4138 38.9641 33.5171 38.7576C31.7381 38.3287 29.959 37.9316 28.1641 37.5822C25.297 37.0183 22.406 36.9627 19.5072 36.8674C19.388 36.9706 19.2689 37.0818 19.1498 37.1851L19.1577 37.1851Z" fill="#EDE9E3"/>
<path d="M20.6349 35.954C20.6349 35.954 20.6111 35.9779 20.5952 35.9858C23.2797 35.9143 25.8767 36.5179 28.4897 37.1056C30.2449 37.5028 31.9922 37.9158 33.7394 38.3208C33.8427 38.1143 33.9459 37.9078 34.0571 37.7013C32.2304 37.2486 30.3799 36.8753 28.5453 36.4862C26.0991 35.962 23.6768 35.4934 21.1909 35.5569C21.0082 35.684 20.8176 35.819 20.6349 35.954Z" fill="#EDE9E3"/>
<path d="M22.2234 34.8186C24.7172 34.8901 27.3143 35.6605 29.7128 36.1926C31.2456 36.5262 32.7705 36.8994 34.2954 37.2568C34.4146 37.0345 34.5416 36.82 34.6687 36.6056C33.0485 36.2005 31.4204 35.8352 29.7843 35.4857C27.5367 35.0172 25.0984 34.3977 22.7555 34.4056C22.5808 34.5486 22.406 34.6915 22.2234 34.8265L22.2234 34.8186Z" fill="#EDE9E3"/>
<path d="M33.7395 65.0938C33.6839 65.2447 33.6998 65.4274 33.7554 65.5783C33.8666 65.8722 34.1049 66.1025 34.4146 66.1581C34.7244 66.2216 34.9785 65.9675 35.1056 65.7213C35.3677 65.2209 35.0818 64.522 34.4623 64.5299C34.1049 64.5379 33.8348 64.7523 33.7475 65.0938L33.7395 65.0938Z" fill="#EDE9E3"/>
<path d="M32.7388 62.5919C32.6753 62.7428 32.6912 62.9255 32.7547 63.0764C32.8659 63.3623 33.1042 63.6005 33.406 63.6561C33.7157 63.7197 33.9698 63.4655 34.0969 63.2193C34.359 62.711 34.0731 62.0201 33.4536 62.028C33.0962 62.028 32.8262 62.2504 32.7388 62.5919Z" fill="#EDE9E3"/>
<path d="M31.5872 59.9234C31.5316 60.0743 31.5395 60.257 31.6031 60.4079C31.7143 60.7018 31.9525 60.9321 32.2623 60.9877C32.572 61.0512 32.8262 60.7971 32.9532 60.5509C33.2153 60.0505 32.9294 59.3516 32.3099 59.3595C31.9525 59.3595 31.6825 59.5819 31.5951 59.9234L31.5872 59.9234Z" fill="#EDE9E3"/>
<path d="M30.3801 57.5411C30.3245 57.692 30.3403 57.8747 30.3959 58.0256C30.5071 58.3194 30.7454 58.5498 31.0472 58.6054C31.3569 58.6689 31.6111 58.4147 31.7382 58.1685C32.0002 57.6682 31.7143 56.9693 31.0948 56.9772C30.7374 56.9772 30.4674 57.1996 30.3801 57.5332L30.3801 57.5411Z" fill="#EDE9E3"/>
<path d="M29.1808 55.2774C29.1252 55.4283 29.1411 55.611 29.1967 55.7619C29.3078 56.0558 29.5461 56.2861 29.8479 56.3417C30.1577 56.4052 30.4118 56.1511 30.5389 55.9049C30.793 55.4045 30.515 54.7056 29.8956 54.7135C29.5382 54.7215 29.2681 54.9359 29.1808 55.2774Z" fill="#EDE9E3"/>
<path d="M27.6955 53.0694C27.632 53.2203 27.6479 53.403 27.7035 53.5539C27.8147 53.8478 28.0529 54.0781 28.3627 54.1337C28.6724 54.1972 28.9266 53.9431 29.0536 53.6969C29.3078 53.1965 29.0298 52.4976 28.4103 52.5055C28.0529 52.5135 27.7829 52.7279 27.6955 53.0694Z" fill="#EDE9E3"/>
<path d="M9.36512 79.7711C9.30158 80.1206 9.62721 80.4859 9.97667 80.4541C10.0799 80.4541 10.1673 80.3906 10.2388 80.3191C10.342 80.2556 10.4135 80.1523 10.4532 80.0332C10.5326 79.8108 10.4691 79.5884 10.2864 79.4455C9.96872 79.1913 9.42866 79.366 9.35718 79.7711L9.36512 79.7711Z" fill="#EDE9E3"/>
<path d="M7.62574 80.4142C7.56221 80.7636 7.88783 81.129 8.23729 81.0972C8.34054 81.0972 8.4279 81.0416 8.49938 80.9622C8.60262 80.8986 8.6741 80.7954 8.71381 80.6763C8.79324 80.4539 8.7297 80.2315 8.54703 80.0885C8.22935 79.8344 7.68928 80.0091 7.6178 80.4142L7.62574 80.4142Z" fill="#EDE9E3"/>
<path d="M6.0691 81.2008C6.00557 81.5502 6.33119 81.9156 6.68065 81.8838C6.7839 81.8759 6.87126 81.8203 6.94274 81.7488C7.04598 81.6853 7.11746 81.582 7.15717 81.4629C7.2366 81.2484 7.17306 81.0181 6.99039 80.8672C6.6727 80.6131 6.13264 80.7878 6.06116 81.1928L6.0691 81.2008Z" fill="#EDE9E3"/>
<path d="M4.50453 82.0187C4.44099 82.3681 4.76662 82.7334 5.11607 82.7017C5.21932 82.7017 5.30668 82.6381 5.37816 82.5667C5.47347 82.5031 5.55289 82.3999 5.5926 82.2807C5.67202 82.0584 5.60848 81.836 5.42582 81.693C5.10813 81.4389 4.56807 81.6136 4.49659 82.0107L4.50453 82.0187Z" fill="#EDE9E3"/>
<path d="M2.86842 82.932C2.81282 83.2814 3.13051 83.6467 3.47996 83.6229C3.57527 83.6229 3.67057 83.5594 3.74205 83.4879C3.83736 83.4244 3.91678 83.3211 3.95649 83.2099C4.03591 82.9875 3.97237 82.7652 3.7897 82.6143C3.47202 82.3601 2.93195 82.5348 2.86048 82.9399L2.86842 82.932Z" fill="#EDE9E3"/>
<path d="M26.9014 45.2462C26.8378 45.5956 27.1635 45.961 27.5129 45.9292C27.6162 45.9292 27.7035 45.8657 27.775 45.7942C27.8783 45.7307 27.9497 45.6274 27.9894 45.5083C28.0689 45.2938 28.0053 45.0635 27.8227 44.9126C27.505 44.6585 26.9649 44.8332 26.9014 45.2383L26.9014 45.2462Z" fill="#EDE9E3"/>
<path d="M24.7332 45.0636C24.6696 45.413 24.9953 45.7784 25.3447 45.7466C25.44 45.7466 25.5353 45.6831 25.6068 45.6116C25.7021 45.548 25.7815 45.4448 25.8212 45.3336C25.9007 45.1112 25.8371 44.8888 25.6545 44.7379C25.3368 44.4838 24.7967 44.6585 24.7252 45.0636L24.7332 45.0636Z" fill="#EDE9E3"/>
<path d="M22.557 44.9921C22.4935 45.3416 22.8191 45.699 23.1686 45.6751C23.2718 45.6672 23.3592 45.6116 23.4307 45.5401C23.5339 45.4766 23.6054 45.3733 23.6451 45.2542C23.7245 45.0318 23.661 44.8094 23.4783 44.6585C23.1606 44.4044 22.6206 44.5791 22.5491 44.9842L22.557 44.9921Z" fill="#EDE9E3"/>
<path d="M20.5397 44.8966C20.4762 45.246 20.8018 45.6114 21.1433 45.5796C21.2465 45.5796 21.3339 45.524 21.4054 45.4446C21.5007 45.3811 21.5801 45.2778 21.6198 45.1587C21.6992 44.9363 21.6357 44.7139 21.453 44.563C21.1354 44.3089 20.5953 44.4836 20.5238 44.8886L20.5397 44.8966Z" fill="#EDE9E3"/>
<path d="M18.5383 44.9443C18.4747 45.2858 18.8004 45.6511 19.1498 45.6273C19.2451 45.6273 19.3404 45.5638 19.4119 45.4923C19.5072 45.4288 19.5866 45.3255 19.6263 45.2064C19.7058 44.984 19.6422 44.7616 19.4675 44.6187C19.1498 44.3645 18.6098 44.5392 18.5383 44.9443Z" fill="#EDE9E3"/>
<path d="M16.5131 45.0716C16.4495 45.4211 16.7752 45.7864 17.1246 45.7626C17.2199 45.7626 17.3152 45.699 17.3867 45.6276C17.49 45.564 17.5614 45.4608 17.6011 45.3416C17.6806 45.1272 17.617 44.8969 17.4344 44.746C17.1167 44.4918 16.5766 44.6666 16.5051 45.0716L16.5131 45.0716Z" fill="#EDE9E3"/>
<path d="M14.2814 45.1508C14.2178 45.4923 14.5435 45.8577 14.8929 45.8339C14.9882 45.8259 15.0835 45.7783 15.155 45.6988C15.2583 45.6353 15.3297 45.5321 15.3695 45.4129C15.4489 45.1985 15.3853 44.9682 15.2027 44.8173C14.885 44.5631 14.3449 44.7378 14.2734 45.1429L14.2814 45.1508Z" fill="#EDE9E3"/>
</g>
<defs>
<clipPath id="clip0_25_496">
<rect width="50.3293" height="112" fill="white" transform="translate(51.1646 112) rotate(-180)"/>
</clipPath>
</defs>
</svg>
