<svg width="52" height="112" viewBox="0 0 52 112" fill="none" xmlns="http://www.w3.org/2000/svg">
<g clip-path="url(#clip0_25_403)">
<path d="M41.8009 21.0547C42.1504 17.6078 42.1265 14.1768 41.7294 10.7378C41.3165 7.1877 40.5143 3.71699 39.7519 0.230389C39.736 0.166852 39.6407 0.182736 39.6486 0.246273C40.3396 6.25053 41.5865 12.223 41.2132 18.2987C40.8161 24.7557 39.3547 31.1253 37.1627 37.201C34.9627 43.2847 31.9686 48.9475 28.4105 54.3322C24.9001 59.6535 21.0322 64.7364 17.7998 70.2403C14.1067 76.5225 10.4692 82.8683 7.42736 89.5C5.88658 92.8516 4.53642 96.2985 3.43247 99.8168C2.32057 103.359 1.87581 106.989 0.994229 110.578C0.946577 110.777 1.22455 110.896 1.29603 110.698C2.35233 107.743 2.88446 104.646 3.78986 101.636C4.73498 98.4746 5.86276 95.3851 7.15733 92.3512C9.77823 86.1881 13.0583 80.3268 16.4099 74.537C19.6344 68.9696 23.1687 63.6881 26.8221 58.3986C30.404 53.2124 33.7079 47.915 36.2176 42.1172C39.1165 35.422 41.0782 28.3058 41.8089 21.0467L41.8009 21.0547Z" fill="#EDE9E3"/>
<path d="M42.6269 21.1978C42.9049 17.7429 42.8175 14.3119 42.341 10.8809C41.8565 7.34668 40.5222 3.81243 39.6883 0.341717C39.6724 0.27818 39.5771 0.294064 39.5851 0.357601C40.3952 6.34597 42.4204 11.7149 42.1742 17.7906C41.9121 24.2555 40.5222 31.4511 38.4493 37.5745C36.3764 43.6978 33.3505 49.2812 29.9036 54.7453C26.4964 60.1301 23.9788 63.7041 20.2062 69.4701C16.2193 75.5696 12.0814 83.5594 9.17462 90.2546C7.70532 93.638 6.42664 97.1087 5.38622 100.651C4.3458 104.217 3.97252 107.862 3.17036 111.468C3.12271 111.667 3.40863 111.778 3.48011 111.579C4.48082 108.601 4.9494 105.496 5.78333 102.47C6.6649 99.2928 7.72915 96.1795 8.96018 93.1217C11.462 86.911 14.615 80.9782 17.8474 75.1249C20.9607 69.5018 24.7412 64.3077 28.2834 58.9467C31.7621 53.6811 35.066 48.2407 37.4566 42.3874C40.2125 35.6366 42.0312 28.4807 42.619 21.2057L42.6269 21.1978Z" fill="#EDE9E3"/>
<path d="M3.84544 110.452C3.98046 108.998 4.67142 107.497 4.61583 106.044C4.61583 105.948 4.48081 105.94 4.43316 106.004C3.88515 106.639 3.84544 107.624 3.631 108.41C3.37686 109.324 3.29744 110.261 3.05917 111.166C2.94798 111.579 2.4794 111.198 2.16171 111.063C1.5184 110.793 1.56605 110.38 1.65341 109.808C1.77255 109.038 2.20142 108.307 1.94727 107.537C1.93139 107.497 1.87579 107.497 1.85197 107.529C1.54222 107.934 1.40721 108.498 1.23248 108.974C1.08158 109.379 0.779778 110.189 0.867142 110.634C1.02598 111.484 2.22525 111.841 2.96387 111.992C3.77396 112.159 3.81367 111 3.86133 110.459L3.84544 110.452Z" fill="#EDE9E3"/>
<path d="M38.9338 11.9767C39.45 10.0706 39.7995 8.10095 39.9742 6.1313C40.0536 5.24178 40.0536 4.33638 40.0139 3.43891C39.9583 2.35878 39.998 1.16746 39.6962 0.127044C39.6565 -3.02568e-05 39.4897 -3.02568e-05 39.4659 0.127044C39.3071 0.960968 39.4262 1.85843 39.4421 2.7003C39.458 3.701 39.458 4.69377 39.3706 5.69448C39.2038 7.72767 38.7829 9.73703 38.2269 11.6987C37.7107 13.5413 37.0197 15.3283 36.2255 17.0676C35.7569 18.0763 35.2327 19.0611 34.6927 20.03C34.24 20.8242 33.6999 21.5787 33.3902 22.4524C33.3028 22.7065 33.6284 23.0004 33.8429 22.786C35.1057 21.539 35.884 19.6329 36.6385 18.0524C37.5757 16.0987 38.3619 14.0655 38.9258 11.9688L38.9338 11.9767Z" fill="#EDE9E3"/>
<path d="M32.5404 23.8665C32.5325 23.7632 32.3736 23.6997 32.3022 23.7712C31.6191 24.4383 31.1664 25.3755 30.539 26.1062C29.7607 27.0036 28.8156 27.7343 28.0611 28.6476C27.8784 28.878 28.1643 29.2513 28.4264 29.1004C29.4271 28.5285 30.2293 27.6787 30.9917 26.8289C31.6668 26.0744 32.6516 24.9546 32.5484 23.8665H32.5404Z" fill="#EDE9E3"/>
<path d="M26.7902 30.117C25.3765 31.7451 23.9072 33.3574 22.6206 35.0887C21.2069 37.0028 19.8011 38.9168 18.3716 40.815C16.942 42.7132 15.4727 44.5875 14.1066 46.5254C12.8518 48.2965 11.2713 50.3694 10.6756 52.482C10.5803 52.8156 10.9695 53.03 11.1998 52.7679C11.9464 51.9261 12.4547 50.8777 13.0344 49.9167C13.6142 48.9557 14.2337 48.0106 14.8691 47.0893C16.2192 45.1355 17.6965 43.2691 19.134 41.371C20.5636 39.4728 21.9614 37.5508 23.3354 35.605C24.5744 33.8577 26.2978 32.2852 27.0444 30.244C27.1 30.0773 26.8935 29.9819 26.7902 30.1011V30.117Z" fill="#EDE9E3"/>
<path d="M11.1919 83.0592C8.96813 79.2311 8.06272 74.7517 7.85623 70.3677C7.74504 67.9533 7.85623 65.5309 8.15009 63.1403C8.45189 60.7021 9.10314 58.3512 9.5479 55.9368C9.57173 55.7939 9.34935 55.6986 9.26993 55.8336C8.05478 57.8906 7.56237 60.3526 7.22086 62.6876C6.85552 65.1656 6.75227 67.6991 6.85552 70.193C7.04613 74.7756 7.92771 79.5964 10.4295 83.5199C10.7075 83.9487 11.454 83.496 11.1919 83.0513V83.0592Z" fill="#EDE9E3"/>
<path d="M47.972 16.9646C47.686 15.4794 47.011 14.1213 46.3756 12.7552C45.7005 11.3098 44.9778 9.88813 44.255 8.45854C43.5164 6.98925 42.7857 5.51995 42.0312 4.0586C41.3244 2.68461 40.8161 1.15972 39.7042 0.0478218C39.5692 -0.0871945 39.3706 0.0716482 39.4739 0.238433C40.276 1.51712 40.7684 2.97847 41.4118 4.34452C42.1107 5.8297 42.8255 7.30693 43.5402 8.79211C44.1836 10.1184 44.8189 11.4448 45.4305 12.787C46.0897 14.2325 46.6059 15.7653 47.3763 17.1552C47.5431 17.457 48.0593 17.3537 47.9878 16.9725L47.972 16.9646Z" fill="#EDE9E3"/>
<path d="M48.2896 49.5352C48.6391 47.9786 49.1394 46.4616 49.4968 44.9129C50.2196 41.7678 50.704 38.5672 50.9502 35.3506C51.3314 30.4344 51.4506 24.5016 48.7979 20.1414C48.7344 20.0382 48.5994 20.1414 48.6311 20.2446C50.164 25.2244 50.3546 30.4741 49.8939 35.6365C49.6318 38.5989 49.1712 41.5375 48.5279 44.4364C48.2181 45.8421 47.821 47.2161 47.4716 48.614C47.1301 49.9879 46.9156 51.4016 46.5503 52.7597C46.4709 53.0536 46.868 53.3316 47.0506 53.0377C47.7416 51.9417 48.0037 50.7901 48.2817 49.5432L48.2896 49.5352Z" fill="#EDE9E3"/>
<path d="M45.5496 56.683C45.5893 56.5083 45.3431 56.3177 45.2399 56.5162C43.302 60.0346 41.5309 63.5688 39.1006 66.7933C36.5591 70.1529 33.5411 73.1391 30.2769 75.7918C26.9809 78.4683 23.3831 80.6603 19.6424 82.6538C17.7124 83.6863 15.8222 84.7902 13.8208 85.6877C12.2641 86.3945 10.7631 87.1649 10.0483 88.801C9.87354 89.206 10.4533 89.4999 10.7075 89.1663C11.8988 87.6097 13.6063 86.9584 15.3139 86.1483C17.363 85.1714 19.3167 84.0039 21.3182 82.9317C24.908 81.0177 28.2993 78.7462 31.4364 76.165C34.5815 73.5759 37.4327 70.6294 39.9028 67.381C42.3092 64.2121 44.6045 60.5826 45.5496 56.683Z" fill="#EDE9E3"/>
<path d="M18.7529 69.1284C16.8547 67.4447 15.1075 65.6815 13.5746 63.5928C12.5739 62.2347 11.6844 60.7971 11.0093 59.2484C10.6757 58.486 10.3581 57.7076 10.1198 56.9055C9.98477 56.4369 9.81799 56.0636 9.44471 55.7459C9.30969 55.6268 9.11908 55.7777 9.13497 55.9365C9.52413 59.0419 11.3111 61.9329 13.0743 64.4346C14.4959 66.4599 16.2591 68.4057 18.3002 69.8909C18.4193 69.6288 18.5782 69.3667 18.7529 69.1364V69.1284Z" fill="#EDE9E3"/>
<path d="M19.0149 68.8031C18.3398 67.9533 17.5615 67.1512 16.942 66.2855C15.9333 64.8797 15.1153 63.3548 14.3687 61.7982C13.6301 60.2574 13.0265 58.6769 12.4626 57.0646C12.1846 56.2704 11.9067 55.4762 11.6287 54.682C11.3904 53.9831 11.3825 53.0936 11.0013 52.4662C10.9139 52.3152 10.6756 52.3232 10.6518 52.5217C10.485 53.9513 11.0886 55.3174 11.5334 56.6596C12.1132 58.4069 12.7168 60.1303 13.4633 61.814C14.1463 63.3469 14.9485 64.8321 15.8539 66.2458C16.5528 67.3338 17.3947 68.6602 18.4272 69.6053C18.586 69.3194 18.7925 69.0493 18.999 68.8031H19.0149Z" fill="#EDE9E3"/>
<path d="M34.4545 45.024C33.9303 44.4601 33.3982 43.8962 32.9375 43.2767C31.9924 41.998 31.2617 40.5923 30.6422 39.1309C30.0148 37.6537 29.5145 36.1288 28.9903 34.6039C28.474 33.1108 28.0293 31.3556 27.0206 30.1007C26.9094 29.9657 26.6871 30.069 26.7109 30.2357C26.9889 31.8321 27.6957 33.4205 28.1643 34.9692C28.6646 36.6212 29.2603 38.2494 29.9274 39.8457C30.531 41.2753 31.3014 42.6096 32.1989 43.8644C32.7072 44.5713 33.287 45.3496 33.9382 46.0168C34.0971 45.6752 34.2797 45.3417 34.4545 45.0081V45.024Z" fill="#EDE9E3"/>
<path d="M34.7483 44.4684C34.2797 43.698 33.827 42.9276 33.4537 42.1096C32.7151 40.5132 32.0797 38.8692 31.5079 37.2093C30.944 35.5732 30.4596 33.9212 29.8798 32.2931C29.4827 31.1812 29.1332 29.5531 28.1722 28.7827C27.9975 28.6477 27.791 28.8542 27.8545 29.0368C28.3628 30.4347 28.9267 31.7848 29.3556 33.2144C29.8242 34.7869 30.2928 36.3595 30.809 37.9241C31.6668 40.5053 32.7231 43.0626 34.3591 45.2309C34.4942 44.9767 34.6292 44.7226 34.7562 44.4684H34.7483Z" fill="#EDE9E3"/>
<path d="M37.7186 37.8445C37.7345 37.7333 37.7504 37.6142 37.7584 37.503C37.3692 36.9391 36.9483 36.3911 36.5988 35.8272C35.7967 34.5485 35.1216 33.1904 34.518 31.8085C33.962 30.5219 33.5252 29.1955 33.2075 27.8295C32.9137 26.5746 32.9772 25.1609 32.4848 23.9696C32.4371 23.8584 32.2703 23.8664 32.2306 23.9696C31.8018 25.1212 32.1194 26.4714 32.3418 27.6309C32.6198 29.0764 33.0725 30.4822 33.6046 31.8403C34.1685 33.2857 34.8992 34.6597 35.6855 35.9861C36.1938 36.8359 36.7338 37.7889 37.401 38.5752C37.4804 38.3131 37.5757 38.059 37.7266 37.8286L37.7186 37.8445Z" fill="#EDE9E3"/>
<path d="M37.7187 37.8445C37.7504 37.6063 37.7743 37.368 37.7663 37.1297C37.4328 36.5341 37.0912 35.9463 36.8053 35.3348C36.2176 34.0482 35.7649 32.698 35.4075 31.332C34.6212 28.4013 34.4942 25.3277 33.8111 22.3891C33.7794 22.2541 33.5729 22.1667 33.4855 22.3097C32.8263 23.4137 33.4299 25.2324 33.6046 26.4078C33.8509 28.1075 34.1129 29.8071 34.5339 31.4749C34.8992 32.9204 35.3996 34.3341 35.9952 35.7001C36.3923 36.6055 36.8371 37.6063 37.4407 38.4402C37.5122 38.2337 37.5995 38.0272 37.7187 37.8445Z" fill="#EDE9E3"/>
<path d="M47.5669 16.7738C46.3041 17.3377 45.5257 18.7276 44.7236 19.7998C43.977 20.8085 43.0796 21.6027 42.2139 22.4684C42.2615 22.8019 42.2695 23.1276 42.2536 23.4611C43.3417 22.8575 44.2312 21.8648 44.9936 20.9038C45.5178 20.2446 45.9943 19.5457 46.5026 18.8785C46.9633 18.259 47.4716 17.719 47.8131 17.0201C47.8846 16.8692 47.7019 16.7262 47.5669 16.7818V16.7738Z" fill="#EDE9E3"/>
<path d="M48.5437 19.911C47.9878 20.2287 47.551 20.6973 47.0586 21.1103C46.5106 21.563 45.8752 21.968 45.2557 22.3175C44.3344 22.8496 43.286 22.8496 42.2615 22.9449C42.2774 23.2785 42.2615 23.62 42.2218 23.9536C44.7792 24.025 47.5351 22.3175 48.7979 20.2208C48.8932 20.0619 48.7502 19.7919 48.5437 19.9031V19.911Z" fill="#EDE9E3"/>
<path d="M50.5611 27.3846C50.704 25.8835 50.3307 24.3348 49.9734 22.8814C49.7113 21.8012 49.616 20.3081 48.9329 19.3948C48.7741 19.1883 48.4882 19.2756 48.3929 19.4821C48.0514 20.1572 47.4239 20.6655 47.2969 21.42C47.281 21.5074 47.4001 21.5709 47.4636 21.5074C47.8687 21.1341 48.2896 20.7052 48.6232 20.2525C48.7264 20.6258 48.7503 21.0547 48.8297 21.3962C48.9806 22.0633 49.1474 22.7146 49.3062 23.3738C49.6318 24.716 49.7907 26.1297 50.2593 27.4322C50.3069 27.5752 50.5293 27.5275 50.5452 27.3846H50.5611Z" fill="#EDE9E3"/>
<path d="M46.7568 52.442C46.1373 52.7676 45.6211 53.2441 45.0413 53.6412C44.2312 54.1972 43.3734 54.6658 42.4998 55.1185C40.8081 55.9842 39.0688 56.7387 37.2659 57.3343C34.1923 58.3509 31.0075 58.5892 27.8227 58.9625C27.7115 59.2484 27.5924 59.5343 27.4653 59.8123C30.7693 59.852 34.1685 59.2007 37.2898 58.2556C39.2197 57.6679 41.0702 56.826 42.8651 55.9206C44.2868 55.2058 46.2644 54.2925 47.0983 52.8709C47.2254 52.6485 47.0348 52.307 46.7568 52.4499V52.442Z" fill="#EDE9E3"/>
<path d="M45.4066 56.3099C44.7156 56.6673 44.0961 57.1438 43.3972 57.4853C42.6269 57.8666 41.7929 58.1287 40.9669 58.351C39.3309 58.7958 37.6312 58.9943 35.9475 59.1929C34.0335 59.4153 32.1273 59.6535 30.1974 59.5662C29.3794 59.5344 28.5375 59.4073 27.6877 59.32C27.5447 59.6615 27.3859 59.9951 27.2271 60.3286C28.331 60.4557 29.4667 60.4716 30.4992 60.5113C32.4768 60.5907 34.4782 60.2889 36.4399 60.0506C38.1634 59.8442 39.8948 59.6059 41.5547 59.1055C42.9366 58.6846 45.1286 58.081 45.7243 56.5958C45.7958 56.4211 45.5972 56.2146 45.4145 56.302L45.4066 56.3099Z" fill="#EDE9E3"/>
<path d="M39.2514 32.2924C38.2983 29.9018 37.385 27.5271 36.7893 24.9777C36.3128 22.9524 36.011 20.8875 35.8124 18.8066C35.7171 19.0449 35.6139 19.2752 35.5027 19.5055C35.6139 21.364 35.876 23.2225 36.2731 25.0571C36.8767 27.8527 37.7265 30.7913 39.0449 33.3725C39.0925 33.0072 39.164 32.6498 39.2434 32.2844L39.2514 32.2924Z" fill="#EDE9E3"/>
<path d="M39.6246 30.7599C38.8066 28.4885 37.9568 26.2488 37.5438 23.8264C37.1864 21.7377 36.6542 19.6409 36.416 17.5283C36.2968 17.7507 36.1857 17.981 36.0665 18.2034C36.2333 20.1254 36.6701 22.0395 36.9958 23.9138C37.4564 26.5824 38.195 29.4415 39.3069 32.0068C39.4022 31.6018 39.5055 31.1888 39.6167 30.7679L39.6246 30.7599Z" fill="#EDE9E3"/>
<path d="M40.1567 28.1864C39.577 26.733 39.0448 25.2557 38.6319 23.7467C37.9488 21.2688 37.4882 18.7193 37.099 16.1699C37.0037 16.3685 36.9164 16.567 36.821 16.7576C37.0037 19.1482 37.3929 21.5229 37.9965 23.85C38.3856 25.3669 38.9257 26.8442 39.4975 28.2976C39.6405 28.6708 39.7835 29.06 39.9264 29.4571C40.0058 29.0362 40.0853 28.6073 40.1647 28.1864H40.1567Z" fill="#EDE9E3"/>
<path d="M40.8319 25.4226C40.2442 24.0565 39.6803 22.6825 39.2038 21.2688C38.5366 19.2436 37.9886 17.1786 37.5518 15.0898C37.4644 15.3202 37.3691 15.5505 37.2659 15.7808C37.8854 19.458 38.8861 23.1511 40.5063 26.5027C40.5936 26.1374 40.7048 25.78 40.8239 25.4226H40.8319Z" fill="#EDE9E3"/>
<path d="M35.1216 43.1019C34.8674 42.6731 34.6133 42.2362 34.375 41.7994C33.5411 40.2507 32.7945 38.6543 32.183 37.0024C31.0949 34.0638 30.4754 30.8631 29.2523 27.9722C29.157 28.0675 29.0617 28.1707 28.9664 28.266C29.3238 29.5527 29.7368 30.8234 30.0942 32.11C30.5787 33.8335 31.0711 35.549 31.6588 37.2406C32.2386 38.9005 33.001 40.4969 33.8111 42.0536C34.1209 42.6492 34.4306 43.2608 34.7483 43.8644C34.8674 43.6102 34.9945 43.3561 35.1136 43.1019H35.1216Z" fill="#EDE9E3"/>
<path d="M35.4314 42.419C35.5505 42.141 35.6617 41.863 35.7808 41.5851C35.4393 41.045 35.1057 40.5049 34.8119 39.949C34.0336 38.4956 33.3823 36.9707 32.7866 35.4378C32.1354 33.7621 31.6509 32.0386 31.0473 30.3549C30.6661 29.2906 30.2531 28.2264 29.9592 27.1304C29.8719 27.2495 29.7845 27.3686 29.6892 27.4798C29.8719 28.2979 30.134 29.108 30.404 29.9022C31.0076 31.6971 31.5 33.5158 32.1354 35.3028C32.731 36.9866 33.4379 38.6226 34.248 40.2031C34.6133 40.9259 35.0025 41.6883 35.4393 42.4269L35.4314 42.419Z" fill="#EDE9E3"/>
<path d="M36.2891 40.3226C36.1223 40.0367 35.9556 39.7507 35.7967 39.4648C34.9231 37.9161 34.105 36.3118 33.4141 34.6757C32.2386 31.888 31.6827 28.9256 30.8329 26.0347C30.7535 26.122 30.6661 26.2173 30.5867 26.3047C31.0791 29.2274 31.8256 32.1501 32.8978 34.906C33.5491 36.558 34.3751 38.1623 35.2169 39.7269C35.4552 40.1717 35.7014 40.6561 35.9635 41.1406C36.0747 40.8706 36.1859 40.6005 36.2891 40.3226Z" fill="#EDE9E3"/>
<path d="M36.9404 38.6545C35.8205 36.7881 34.7642 34.882 33.8588 32.8886C32.7787 30.498 31.9845 27.9883 31.365 25.4468C31.2856 25.5421 31.1982 25.6374 31.1188 25.7327C32.0004 30.5536 33.9621 35.3347 36.6306 39.4646C36.7339 39.1946 36.8371 38.9246 36.9404 38.6545Z" fill="#EDE9E3"/>
<path d="M21.9694 63.9025C21.8264 63.7119 21.6835 63.5213 21.5405 63.3307C20.2301 61.5278 19.1579 59.5264 18.0778 57.5806C16.3146 54.3878 14.8612 51.0362 13.7016 47.5894C13.6222 47.6847 13.5428 47.78 13.4634 47.8673C14.3608 51.2269 15.6395 54.4514 17.2756 57.5488C18.2287 59.3675 19.2691 61.1784 20.3969 62.8939C20.7543 63.4339 21.1275 63.9581 21.5167 64.4823C21.6597 64.2917 21.8106 64.1011 21.9615 63.9104L21.9694 63.9025Z" fill="#EDE9E3"/>
<path d="M22.7637 62.8617C22.5413 62.552 22.311 62.2502 22.0886 61.9404C20.7861 60.1217 19.6107 58.2235 18.5305 56.2698C16.8388 53.2041 15.5284 49.9875 14.4006 46.6836C14.3291 46.771 14.2497 46.8663 14.1782 46.9536C14.1385 47.0172 14.0909 47.0728 14.0432 47.1363C14.8851 50.4243 16.3067 53.5615 17.9031 56.5477C18.9356 58.4697 20.1031 60.3123 21.342 62.0993C21.6518 62.552 21.9774 62.9967 22.303 63.4336C22.446 63.235 22.6048 63.0444 22.7557 62.8617H22.7637Z" fill="#EDE9E3"/>
<path d="M23.4705 61.758C23.0098 61.2735 22.5492 60.7732 22.16 60.241C20.8972 58.5335 19.9998 56.675 19.0785 54.7689C17.6489 51.7906 16.3146 48.7726 15.1471 45.6831C15.0597 45.8181 14.9724 45.9531 14.8771 46.0802C15.846 49.1538 17.0929 52.1162 18.4749 55.0389C19.3008 56.7783 20.1109 58.5017 21.199 60.0901C21.7629 60.9082 22.4062 61.6786 23.0813 62.4251C23.2243 62.2107 23.3513 61.9883 23.4705 61.758Z" fill="#EDE9E3"/>
<path d="M26.5123 57.7629C26.2422 57.4055 25.9801 57.0481 25.7181 56.6748C24.4473 54.8561 23.3116 52.9341 22.2712 50.9724C20.7383 48.0417 19.5391 44.9602 18.586 41.8071C18.4748 41.9898 18.3557 42.1645 18.2445 42.3472C19.007 45.4367 20.2142 48.407 21.6358 51.2583C22.6127 53.1962 23.7325 55.0705 24.9397 56.8734C25.2892 57.3896 25.6466 57.9138 26.0119 58.43C26.1787 58.2076 26.3375 57.9853 26.5123 57.7708V57.7629Z" fill="#EDE9E3"/>
<path d="M27.3621 56.6273C27.1715 56.3732 26.9888 56.119 26.8141 55.8649C25.4718 53.9111 24.3599 51.8144 23.2878 49.7097C21.8344 46.8505 20.1983 43.8722 19.2532 40.751C19.134 40.9416 19.0069 41.1401 18.8878 41.3308C19.6979 44.2376 21.191 47.0014 22.4777 49.6621C23.4228 51.6158 24.4314 53.5378 25.5592 55.3883C25.9643 56.0475 26.3931 56.6908 26.8379 57.3262C27.0126 57.0959 27.1874 56.8656 27.3621 56.6273Z" fill="#EDE9E3"/>
<path d="M28.0927 55.6106C27.8862 55.277 27.6797 54.9355 27.4653 54.6019C26.2184 52.6243 24.9 50.7341 23.8198 48.6453C22.3029 45.6908 21.1433 42.6172 20.0314 39.5039C19.9203 39.6786 19.8091 39.8534 19.6979 40.0281C20.5556 43.1017 21.7549 46.0482 23.1448 48.9392C24.074 50.877 25.2256 52.7117 26.4408 54.4748C26.8537 55.0705 27.227 55.682 27.6003 56.3015C27.7671 56.0712 27.9339 55.8409 28.0848 55.6026L28.0927 55.6106Z" fill="#EDE9E3"/>
<path d="M28.4581 55.0387C28.5455 54.8957 28.6408 54.7528 28.7281 54.6019C28.2754 54.0141 27.8307 53.4105 27.4256 52.7911C26.2343 50.9644 25.2574 49.0027 24.3441 47.0251C23.0098 44.1103 21.9932 41.0605 21.0004 38.0107C20.8972 38.1696 20.786 38.3364 20.6827 38.4952C21.477 41.6165 22.5015 44.6742 23.7722 47.6446C24.5744 49.511 25.5354 51.2979 26.6076 53.0214C27.092 53.8077 27.6242 54.6336 28.2119 55.4278C28.2992 55.3008 28.3787 55.1737 28.4581 55.0466V55.0387Z" fill="#EDE9E3"/>
<path d="M29.6176 53.1171C29.2126 52.6088 28.8155 52.0926 28.4501 51.5525C27.3065 49.829 26.3296 47.9785 25.4321 46.1121C23.9946 43.11 22.8509 39.9729 21.7867 36.8198C21.6834 36.9707 21.5802 37.1296 21.469 37.2884C22.3426 40.4097 23.3989 43.4594 24.7253 46.4298C25.5513 48.2883 26.5202 50.0752 27.6162 51.7987C28.061 52.5055 28.5534 53.268 29.0855 54.0066C29.2602 53.7127 29.435 53.4189 29.6097 53.1171H29.6176Z" fill="#EDE9E3"/>
<path d="M30.5707 51.4092C30.2292 50.9326 29.8876 50.4482 29.562 49.9637C28.3628 48.1608 27.2429 46.3103 26.2104 44.4201C24.6617 41.5848 23.7881 38.527 22.6921 35.5249C22.5888 35.6679 22.4856 35.8188 22.3823 35.9617C23.2083 38.9638 24.074 41.9183 25.5274 44.7219C26.4408 46.4851 27.4653 48.1847 28.5295 49.8605C29.0378 50.6547 29.5461 51.4807 30.0941 52.2907C30.253 51.9969 30.4118 51.703 30.5707 51.4092Z" fill="#EDE9E3"/>
<path d="M31.2458 50.083C30.7613 49.3364 30.2769 48.5978 29.8162 47.8433C28.7599 46.0881 27.7672 44.3011 26.7823 42.5062C25.8531 40.8225 25.0192 39.1228 24.2964 37.3359C23.9311 36.4305 23.6372 35.5171 23.3752 34.5879C23.2322 34.7785 23.0972 34.9691 22.9542 35.1597C23.0892 35.7474 23.256 36.3272 23.4625 36.9149C24.1535 38.821 24.9398 40.6954 25.9246 42.4744C26.9809 44.3726 27.9737 46.3025 29.0697 48.1769C29.6177 49.1141 30.1736 50.0751 30.7772 51.0043C30.9361 50.7025 31.087 50.3927 31.2379 50.0909L31.2458 50.083Z" fill="#EDE9E3"/>
<path d="M11.7637 81.5736C11.3587 81.1447 10.9536 80.7158 10.5645 80.271C9.53994 79.1036 8.76955 77.7455 7.84827 76.4985C7.88798 76.6971 7.91975 76.8956 7.95151 77.0863C8.64248 78.2855 9.26991 79.5086 10.1356 80.6126C10.5486 81.1288 10.9695 81.645 11.4143 82.1374C11.5255 81.9468 11.6446 81.7642 11.7637 81.5736Z" fill="#EDE9E3"/>
<path d="M12.3911 80.6125C11.5731 79.7866 10.755 78.9526 10.0164 78.0393C9.10307 76.9115 8.30091 75.6964 7.52258 74.4653C7.56229 74.7512 7.60995 75.0292 7.64966 75.3151C8.88069 77.4436 10.2785 79.4371 12.0099 81.1764C12.129 80.9858 12.2561 80.8032 12.3832 80.6205L12.3911 80.6125Z" fill="#EDE9E3"/>
<path d="M12.9868 79.5641C10.8345 77.3403 8.92836 74.9577 7.24463 72.3447C7.2764 72.6545 7.31611 72.9642 7.35582 73.274C8.01502 74.4256 8.74569 75.5295 9.53991 76.6017C10.4691 77.8566 11.4937 79.0955 12.6453 80.1836C12.7565 79.9771 12.8677 79.7627 12.9789 79.5562L12.9868 79.5641Z" fill="#EDE9E3"/>
<path d="M13.6222 78.3091C12.6294 77.356 11.6525 76.3871 10.7789 75.2911C9.47639 73.6709 8.3089 71.9315 7.27642 70.1128C7.26054 70.3272 7.23671 70.5417 7.22083 70.7482C8.01504 72.3922 8.96015 73.9568 10.0721 75.4261C11.0013 76.6492 12.0576 77.9517 13.241 79.0795C13.368 78.8253 13.4951 78.5712 13.6222 78.3091Z" fill="#EDE9E3"/>
<path d="M14.0749 77.3245C12.7565 75.9902 11.4937 74.6321 10.3501 73.1152C9.23817 71.63 8.23746 70.0574 7.30823 68.4531C7.32411 68.739 7.33205 69.025 7.32411 69.3188C8.96019 72.5354 11.1046 75.6487 13.7493 78.0393C13.8605 77.801 13.9717 77.5707 14.0749 77.3245Z" fill="#EDE9E3"/>
<path d="M50.5848 28.9175C48.9249 30.1406 47.0188 31.038 45.1842 31.9673C43.8181 32.6582 42.4203 33.2539 40.9748 33.7622C40.6016 33.8972 40.2283 34.0163 39.855 34.1355C39.7597 34.4214 39.6723 34.7152 39.577 35.0091C41.7055 34.334 43.8022 33.4445 45.7163 32.3882C47.3603 31.4748 49.1632 30.6012 50.6325 29.3702C50.6166 29.2193 50.6007 29.0684 50.5848 28.9254V28.9175Z" fill="#EDE9E3"/>
<path d="M50.7278 30.3154C49.2744 31.2764 47.7019 32.1183 46.2405 32.9522C43.9294 34.2706 41.5388 35.4461 39.0847 36.4944C39.0132 36.7009 38.9497 36.9074 38.8782 37.106C41.65 36.137 44.2391 34.7551 46.7806 33.2778C48.091 32.5154 49.4809 31.7291 50.7596 30.8078C50.7517 30.649 50.7358 30.4822 50.7199 30.3154H50.7278Z" fill="#EDE9E3"/>
<path d="M50.8152 32.301C50.8152 32.1898 50.8152 32.0707 50.8152 31.9595C48.8059 33.254 46.6138 34.3183 44.5648 35.4778C42.6269 36.5739 40.5858 37.4237 38.5208 38.2099C38.4255 38.5117 38.3222 38.8135 38.219 39.1074C40.5222 38.337 42.754 37.2966 44.8427 36.0973C46.3597 35.2316 47.8369 34.2786 49.33 33.3732C49.8383 33.0634 50.3387 32.7457 50.8152 32.4122C50.8152 32.3725 50.8152 32.3328 50.8152 32.293V32.301Z" fill="#EDE9E3"/>
<path d="M50.6643 33.9606C50.0528 34.3974 49.3459 34.731 48.7106 35.0328C47.5669 35.5808 46.3994 36.0573 45.2637 36.6371C42.9128 37.8443 40.4428 38.7179 38.0125 39.6948C37.9093 39.9807 37.806 40.2746 37.6948 40.5526C40.6572 39.7742 43.5085 38.3367 46.1532 36.8753C47.4398 36.1685 49.2745 35.5649 50.6087 34.5642C50.6246 34.3577 50.6405 34.1591 50.6643 33.9526V33.9606Z" fill="#EDE9E3"/>
<path d="M50.5055 36.256C48.5358 37.5267 46.0896 38.2574 43.985 39.0675C41.8485 39.8855 39.6565 40.505 37.4724 41.1404C37.3453 41.466 37.2183 41.7837 37.0833 42.1014C39.5374 41.4978 41.9597 40.6639 44.2709 39.7188C45.764 39.1072 47.2651 38.4718 48.7185 37.7809C49.3221 37.495 49.9177 37.1773 50.4737 36.804C50.4816 36.6213 50.4896 36.4387 50.5055 36.248V36.256Z" fill="#EDE9E3"/>
<path d="M50.3783 38.4082C48.234 39.8934 45.4621 40.7273 43.0239 41.3865C41.3481 41.8392 39.6485 42.2125 37.9409 42.5699C37.5597 42.6493 37.1785 42.7208 36.7973 42.7843C36.6623 43.102 36.5193 43.4197 36.3763 43.7294C38.9178 43.2926 41.4514 42.5778 43.842 41.8869C46.0181 41.2594 48.4722 40.4255 50.3227 38.9721C50.3386 38.7815 50.3545 38.5988 50.3704 38.4082H50.3783Z" fill="#EDE9E3"/>
<path d="M50.1719 40.2271C47.7495 41.5931 44.8189 42.3079 42.2059 42.9433C40.1886 43.4277 38.1633 43.8328 36.1381 44.2696C35.9951 44.5635 35.8601 44.8573 35.7092 45.1512C38.1792 44.7223 40.6254 44.1822 43.0557 43.531C45.3907 42.9036 47.9878 42.1729 50.0766 40.8148C50.1083 40.6242 50.1401 40.4335 50.1719 40.235V40.2271Z" fill="#EDE9E3"/>
<path d="M49.8462 42.0695C48.8137 42.4825 47.813 42.951 46.7805 43.3799C45.1524 44.055 43.3416 44.4442 41.6261 44.8651C39.5214 45.3813 37.4009 45.6831 35.2724 45.9849C35.0897 46.3344 34.907 46.6759 34.7164 47.0174C37.0991 46.803 39.5055 46.2391 41.7611 45.699C43.3257 45.3178 44.8824 44.873 46.4152 44.3647C47.5986 43.9756 48.6628 43.3164 49.7271 42.6731C49.7668 42.4666 49.8065 42.268 49.8462 42.0615V42.0695Z" fill="#EDE9E3"/>
<path d="M49.4571 44.0396C48.6232 44.3969 47.7575 44.6829 46.8997 44.9608C45.1842 45.5088 43.4846 46.0727 41.7453 46.5652C39.18 47.2958 36.5829 47.7724 33.9858 48.2568C33.7793 48.5983 33.5649 48.9319 33.3505 49.2734C36.3685 49.0034 39.4024 48.0742 42.2377 47.2402C43.9056 46.7478 45.5655 46.2157 47.2016 45.6359C47.9402 45.3738 48.655 45.08 49.3221 44.7226C49.3618 44.4923 49.4095 44.2699 49.4571 44.0396Z" fill="#EDE9E3"/>
<path d="M49.1156 45.9136C43.9373 48.4153 38.1634 49.3049 32.5562 50.4485C32.3656 50.7265 32.1671 50.9965 31.9685 51.2666C35.1454 50.8774 38.3063 50.1785 41.3879 49.3366C43.9611 48.6377 46.6773 47.78 49.0362 46.4298C49.06 46.2551 49.0917 46.0883 49.1156 45.9136Z" fill="#EDE9E3"/>
<path d="M38.8384 67.786C36.424 68.0958 33.9461 68.1434 31.5873 68.199C28.3469 68.2784 25.1224 68.0481 21.8979 67.7622C21.8026 67.9449 21.7073 68.1196 21.604 68.2864C25.035 68.755 28.5295 68.8979 31.9844 68.7709C34.1129 68.6914 36.3049 68.5882 38.4493 68.2705C38.5763 68.1037 38.7114 67.9449 38.8464 67.786H38.8384Z" fill="#EDE9E3"/>
<path d="M37.7345 69.1998C35.193 69.3825 32.6277 69.1919 30.0862 69.1442C27.2032 69.0887 24.3599 68.8901 21.5325 68.4136C21.4214 68.5883 21.3181 68.763 21.199 68.9378C24.0661 69.6526 27.0841 69.7002 30.0227 69.732C32.4927 69.7558 34.9548 69.8749 37.4009 69.6525C37.5121 69.5016 37.6154 69.3587 37.7266 69.2078L37.7345 69.1998Z" fill="#EDE9E3"/>
<path d="M36.5591 70.7881C33.6841 70.9867 30.6819 70.5975 27.8863 70.248C25.5831 69.9542 23.2878 69.5809 20.9925 69.2314C20.8734 69.3982 20.7622 69.565 20.6431 69.7318C23.1528 70.1924 25.6784 70.6054 28.2199 70.8993C30.8646 71.209 33.6046 71.4552 36.2732 71.1693C36.3685 71.0423 36.4638 70.9152 36.5591 70.7881Z" fill="#EDE9E3"/>
<path d="M35.4074 72.2415C32.6594 72.321 29.9353 72.0192 27.2191 71.5347C24.9397 71.1296 22.6682 70.526 20.3809 70.0972C20.2379 70.3037 20.095 70.5022 19.952 70.7087C22.3347 71.2805 24.765 71.7332 27.1635 72.1224C29.7685 72.5433 32.3894 72.7816 35.0183 72.6784C35.1533 72.5354 35.2803 72.3845 35.4074 72.2415Z" fill="#EDE9E3"/>
<path d="M33.7872 73.9492C33.8984 73.8381 34.0096 73.7269 34.1208 73.6157C31.1504 73.4489 28.2357 73.2186 25.2891 72.6864C23.3433 72.337 21.3975 71.8763 19.4437 71.4951C19.3881 71.5825 19.3405 71.6619 19.2928 71.7493C19.2134 71.8922 19.126 72.0272 19.0546 72.1702C20.9845 72.5514 22.9224 72.9009 24.8523 73.2503C27.8147 73.7904 30.7295 74.0604 33.7078 74.0445C33.7396 74.0128 33.7634 73.9889 33.7952 73.9651L33.7872 73.9492Z" fill="#EDE9E3"/>
<path d="M32.8422 74.8149C29.9751 74.5846 27.1079 74.4337 24.2805 73.8857C22.438 73.5283 20.6192 73.0597 18.7925 72.6309C18.6893 72.8294 18.586 73.0359 18.4828 73.2424C20.2618 73.6713 22.0409 74.0684 23.8358 74.4178C26.7029 74.9817 29.5938 75.0373 32.4927 75.1326C32.6118 75.0294 32.731 74.9182 32.8501 74.8149H32.8422Z" fill="#EDE9E3"/>
<path d="M31.365 76.046C31.365 76.046 31.3888 76.0221 31.4047 76.0142C28.7202 76.0857 26.1231 75.4821 23.5102 74.8944C21.755 74.4972 20.0077 74.0842 18.2604 73.6792C18.1572 73.8857 18.0539 74.0922 17.9427 74.2987C19.7694 74.7514 21.62 75.1247 23.4546 75.5138C25.9008 76.038 28.3231 76.5066 30.809 76.4431C30.9917 76.316 31.1823 76.181 31.365 76.046Z" fill="#EDE9E3"/>
<path d="M29.7765 77.1814C27.2827 77.1099 24.6856 76.3395 22.2871 75.8074C20.7542 75.4738 19.2293 75.1006 17.7045 74.7432C17.5853 74.9655 17.4583 75.18 17.3312 75.3944C18.9514 75.7995 20.5795 76.1648 22.2156 76.5143C24.4632 76.9828 26.9015 77.6023 29.2444 77.5944C29.4191 77.4514 29.5938 77.3085 29.7765 77.1735V77.1814Z" fill="#EDE9E3"/>
<path d="M18.2603 46.9062C18.3159 46.7553 18.3 46.5726 18.2445 46.4217C18.1333 46.1278 17.895 45.8975 17.5853 45.8419C17.2755 45.7784 17.0214 46.0325 16.8943 46.2787C16.6322 46.7791 16.9181 47.478 17.5376 47.4701C17.895 47.4621 18.165 47.2477 18.2524 46.9062H18.2603Z" fill="#EDE9E3"/>
<path d="M19.2611 49.4081C19.3246 49.2572 19.3087 49.0745 19.2452 48.9236C19.134 48.6377 18.8957 48.3995 18.5939 48.3439C18.2842 48.2803 18.03 48.5345 17.903 48.7807C17.6409 49.289 17.9268 49.9799 18.5463 49.972C18.9037 49.972 19.1737 49.7496 19.2611 49.4081Z" fill="#EDE9E3"/>
<path d="M20.4127 52.0766C20.4683 51.9257 20.4603 51.743 20.3968 51.5921C20.2856 51.2982 20.0473 51.0679 19.7376 51.0123C19.4279 50.9488 19.1737 51.2029 19.0466 51.4491C18.7845 51.9495 19.0705 52.6484 19.6899 52.6405C20.0473 52.6405 20.3174 52.4181 20.4047 52.0766H20.4127Z" fill="#EDE9E3"/>
<path d="M21.6198 54.4589C21.6754 54.308 21.6595 54.1253 21.6039 53.9744C21.4928 53.6806 21.2545 53.4502 20.9527 53.3946C20.6429 53.3311 20.3888 53.5853 20.2617 53.8315C19.9996 54.3318 20.2855 55.0307 20.905 55.0228C21.2624 55.0228 21.5325 54.8004 21.6198 54.4668V54.4589Z" fill="#EDE9E3"/>
<path d="M22.8191 56.7226C22.8747 56.5717 22.8588 56.389 22.8032 56.2381C22.692 55.9442 22.4538 55.7139 22.152 55.6583C21.8422 55.5948 21.5881 55.8489 21.461 56.0951C21.2069 56.5955 21.4848 57.2944 22.1043 57.2865C22.4617 57.2785 22.7317 57.0641 22.8191 56.7226Z" fill="#EDE9E3"/>
<path d="M24.3043 58.9306C24.3679 58.7797 24.352 58.597 24.2964 58.4461C24.1852 58.1522 23.9469 57.9219 23.6372 57.8663C23.3275 57.8028 23.0733 58.0569 22.9462 58.3031C22.6921 58.8035 22.9701 59.5024 23.5895 59.4945C23.9469 59.4865 24.217 59.2721 24.3043 58.9306Z" fill="#EDE9E3"/>
<path d="M42.6348 32.2289C42.6983 31.8794 42.3727 31.5141 42.0232 31.5459C41.92 31.5459 41.8326 31.6094 41.7611 31.6809C41.6579 31.7444 41.5864 31.8477 41.5467 31.9668C41.4673 32.1892 41.5308 32.4116 41.7135 32.5545C42.0312 32.8087 42.5712 32.634 42.6427 32.2289H42.6348Z" fill="#EDE9E3"/>
<path d="M44.3741 31.5858C44.4377 31.2364 44.112 30.871 43.7626 30.9028C43.6593 30.9028 43.572 30.9584 43.5005 31.0378C43.3973 31.1014 43.3258 31.2046 43.2861 31.3237C43.2066 31.5461 43.2702 31.7685 43.4528 31.9115C43.7705 32.1656 44.3106 31.9909 44.3821 31.5858H44.3741Z" fill="#EDE9E3"/>
<path d="M45.9308 30.7992C45.9943 30.4498 45.6687 30.0844 45.3192 30.1162C45.216 30.1241 45.1286 30.1797 45.0571 30.2512C44.9539 30.3147 44.8824 30.418 44.8427 30.5371C44.7633 30.7516 44.8268 30.9819 45.0095 31.1328C45.3272 31.3869 45.8672 31.2122 45.9387 30.8072L45.9308 30.7992Z" fill="#EDE9E3"/>
<path d="M47.4954 29.9813C47.5589 29.6319 47.2333 29.2666 46.8838 29.2983C46.7806 29.2983 46.6932 29.3619 46.6217 29.4333C46.5264 29.4969 46.447 29.6001 46.4073 29.7193C46.3279 29.9416 46.3914 30.164 46.5741 30.307C46.8917 30.5611 47.4318 30.3864 47.5033 29.9893L47.4954 29.9813Z" fill="#EDE9E3"/>
<path d="M49.1315 29.068C49.1871 28.7186 48.8694 28.3533 48.5199 28.3771C48.4246 28.3771 48.3293 28.4406 48.2578 28.5121C48.1625 28.5756 48.0831 28.6789 48.0434 28.7901C47.964 29.0125 48.0275 29.2348 48.2102 29.3857C48.5279 29.6399 49.0679 29.4652 49.1394 29.0601L49.1315 29.068Z" fill="#EDE9E3"/>
<path d="M25.0985 66.7538C25.162 66.4044 24.8364 66.039 24.487 66.0708C24.3837 66.0708 24.2963 66.1343 24.2249 66.2058C24.1216 66.2693 24.0501 66.3726 24.0104 66.4917C23.931 66.7062 23.9945 66.9365 24.1772 67.0874C24.4949 67.3415 25.035 67.1668 25.0985 66.7617V66.7538Z" fill="#EDE9E3"/>
<path d="M27.2667 66.9364C27.3303 66.587 27.0046 66.2216 26.6552 66.2534C26.5599 66.2534 26.4646 66.3169 26.3931 66.3884C26.2978 66.452 26.2184 66.5552 26.1786 66.6664C26.0992 66.8888 26.1628 67.1112 26.3454 67.2621C26.6631 67.5162 27.2032 67.3415 27.2747 66.9364H27.2667Z" fill="#EDE9E3"/>
<path d="M29.4429 67.0079C29.5064 66.6584 29.1808 66.301 28.8313 66.3249C28.7281 66.3328 28.6407 66.3884 28.5692 66.4599C28.466 66.5234 28.3945 66.6267 28.3548 66.7458C28.2754 66.9682 28.3389 67.1906 28.5216 67.3415C28.8393 67.5956 29.3793 67.4209 29.4508 67.0158L29.4429 67.0079Z" fill="#EDE9E3"/>
<path d="M31.4602 67.1034C31.5237 66.754 31.1981 66.3886 30.8566 66.4204C30.7533 66.4204 30.666 66.476 30.5945 66.5554C30.4992 66.6189 30.4198 66.7222 30.3801 66.8413C30.3006 67.0637 30.3642 67.2861 30.5468 67.437C30.8645 67.6911 31.4046 67.5164 31.4761 67.1114L31.4602 67.1034Z" fill="#EDE9E3"/>
<path d="M33.4616 67.0557C33.5251 66.7142 33.1995 66.3489 32.8501 66.3727C32.7548 66.3727 32.6594 66.4362 32.588 66.5077C32.4927 66.5712 32.4132 66.6745 32.3735 66.7936C32.2941 67.016 32.3576 67.2384 32.5324 67.3813C32.8501 67.6355 33.3901 67.4608 33.4616 67.0557Z" fill="#EDE9E3"/>
<path d="M35.4868 66.9284C35.5503 66.5789 35.2247 66.2136 34.8753 66.2374C34.78 66.2374 34.6847 66.301 34.6132 66.3724C34.5099 66.436 34.4384 66.5392 34.3987 66.6584C34.3193 66.8728 34.3829 67.1031 34.5655 67.254C34.8832 67.5082 35.4233 67.3334 35.4947 66.9284H35.4868Z" fill="#EDE9E3"/>
<path d="M37.7185 66.8492C37.782 66.5077 37.4564 66.1423 37.107 66.1661C37.0116 66.1741 36.9163 66.2217 36.8449 66.3012C36.7416 66.3647 36.6701 66.4679 36.6304 66.5871C36.551 66.8015 36.6145 67.0318 36.7972 67.1827C37.1149 67.4369 37.655 67.2622 37.7264 66.8571L37.7185 66.8492Z" fill="#EDE9E3"/>
</g>
<defs>
<clipPath id="clip0_25_403">
<rect width="50.3293" height="112" fill="white" transform="translate(0.835327)"/>
</clipPath>
</defs>
</svg>
