<svg width="48" height="46" viewBox="0 0 48 46" fill="none" xmlns="http://www.w3.org/2000/svg">
<g clip-path="url(#clip0_32_1663)">
<path d="M10.0789 18.8535H5.07106C4.87152 18.8535 4.70605 18.6881 4.70605 18.4885C4.70605 18.289 4.87152 18.1235 5.07106 18.1235H10.0789C10.2784 18.1235 10.4439 18.289 10.4439 18.4885C10.4439 18.6881 10.2784 18.8535 10.0789 18.8535Z" fill="url(#paint0_linear_32_1663)"/>
<path d="M10.0789 31.8526H5.07106C4.87152 31.8526 4.70605 31.6871 4.70605 31.4876C4.70605 31.288 4.87152 31.1226 5.07106 31.1226H10.0789C10.2784 31.1226 10.4439 31.288 10.4439 31.4876C10.4439 31.6871 10.2784 31.8526 10.0789 31.8526Z" fill="url(#paint1_linear_32_1663)"/>
<path d="M5.51396 13.9917C2.86162 13.9917 0.905216 13.7581 0.535349 13.1108C-0.345519 11.5827 -0.209252 5.96168 1.49408 2.66694C2.34088 1.02687 3.45535 0.1314 4.80342 0.00973335C4.88129 0.00486667 4.96402 0 5.05162 0C9.85503 0 23.0534 11.3491 23.6228 11.8406C23.7299 11.9331 23.7737 12.084 23.7348 12.2202C23.6958 12.3565 23.5742 12.4587 23.433 12.4782C19.9777 12.9259 11.169 13.9917 5.51882 13.9917H5.51396ZM5.08082 0.730001C5.00782 0.730001 4.93482 0.730001 4.86669 0.739734C3.78629 0.837068 2.86649 1.60114 2.14135 3.00274C0.467216 6.24394 0.462349 11.5243 1.16802 12.7458C1.78608 13.8165 12.3614 13.14 22.5132 11.8601C19.7976 9.57275 9.02283 0.730001 5.08082 0.730001Z" fill="url(#paint2_linear_32_1663)"/>
<path d="M23.3795 12.4781C23.3795 12.4781 23.3503 12.4781 23.3357 12.4781C9.42675 10.7553 3.97121 5.61608 4.14641 3.25088C4.19508 2.59388 4.69148 2.19481 5.40688 2.18994C8.23928 2.24834 22.9512 11.4172 23.579 11.8065C23.725 11.899 23.7883 12.0742 23.7299 12.2396C23.6764 12.3856 23.5401 12.483 23.3844 12.483L23.3795 12.4781ZM5.36308 2.91994C4.90075 2.91994 4.88128 3.19734 4.87155 3.30441C4.76448 4.80335 8.76002 9.57269 21.7248 11.5194C16.7852 8.49715 7.35842 2.95888 5.38741 2.91994C5.37768 2.91994 5.36795 2.91994 5.36308 2.91994Z" fill="url(#paint3_linear_32_1663)"/>
<path d="M42.486 13.9917C36.8407 13.9917 28.0271 12.9259 24.5718 12.4782C24.4306 12.4587 24.309 12.3565 24.27 12.2202C24.2311 12.084 24.27 11.9331 24.382 11.8406C24.9514 11.3491 38.1498 0 42.9532 0C43.0359 0 43.1187 0 43.2014 0.00973335C44.5495 0.1314 45.6639 1.02687 46.5107 2.66694C48.2141 5.96168 48.3504 11.5827 47.4695 13.1108C47.0947 13.7532 45.1432 13.9917 42.4909 13.9917H42.486ZM25.4867 11.8601C35.6435 13.14 46.2139 13.8165 46.8319 12.7458C47.5376 11.5243 47.5328 6.24394 45.8586 3.00274C45.1335 1.59627 44.2137 0.837068 43.1284 0.739734C43.0603 0.734868 42.9873 0.730001 42.9143 0.730001C38.9771 0.730001 28.2023 9.57275 25.4819 11.8601H25.4867Z" fill="url(#paint4_linear_32_1663)"/>
<path d="M25.2191 11.9671C25.0634 11.9671 24.9271 11.8698 24.8736 11.7238C24.8152 11.5632 24.8784 11.3831 25.0293 11.2906C25.6279 10.9208 39.7656 2.24834 42.598 2.18994C42.6126 2.18994 42.6223 2.18994 42.6369 2.18994C43.3718 2.18994 43.8779 2.61821 43.9266 3.28981C44.0726 5.34841 39.7072 10.181 25.2678 11.9671C25.2532 11.9671 25.2386 11.9671 25.224 11.9671H25.2191ZM42.6418 2.91994C42.6418 2.91994 42.6223 2.91994 42.6126 2.91994C40.6562 2.95888 31.6772 8.13215 26.9078 11.0035C39.5758 9.11035 43.3037 4.77901 43.2015 3.33848C43.1917 3.23141 43.1723 2.91508 42.6418 2.91508V2.91994Z" fill="url(#paint5_linear_32_1663)"/>
<path d="M26.465 10.4193C26.2654 10.4193 26.1 10.2539 26.1 10.0543V9.85481C26.1 8.52134 25.0147 7.44094 23.6861 7.44094C22.3575 7.44094 21.2722 8.52621 21.2722 9.85481V10.0543C21.2722 10.2539 21.1068 10.4193 20.9072 10.4193C20.7077 10.4193 20.5422 10.2539 20.5422 10.0543V9.85481C20.5422 8.12227 21.9536 6.71094 23.6861 6.71094C25.4186 6.71094 26.83 8.12227 26.83 9.85481V10.0543C26.83 10.2539 26.6645 10.4193 26.465 10.4193Z" fill="url(#paint6_linear_32_1663)"/>
<path d="M16.9603 36.5684C16.8289 36.5684 16.7073 36.5003 16.644 36.3835L14.6049 32.7383L11.0376 36.4565C10.9354 36.5635 10.7748 36.5976 10.6385 36.5441C10.5023 36.4857 10.4098 36.3543 10.4098 36.2034V14.1866C10.4098 13.987 10.5753 13.8216 10.7748 13.8216C10.9743 13.8216 11.1398 13.987 11.1398 14.1866V35.2933L14.4248 31.8721C14.5075 31.7893 14.6146 31.7455 14.7363 31.765C14.8531 31.7796 14.9504 31.8477 15.0088 31.9499L16.6051 34.8018V13.5344C16.6051 13.3349 16.7705 13.1694 16.9701 13.1694C17.1696 13.1694 17.3351 13.3349 17.3351 13.5344V36.2034C17.3351 36.3689 17.2231 36.5149 17.0625 36.5587C17.0333 36.5684 16.9993 36.5684 16.9701 36.5684H16.9603Z" fill="url(#paint7_linear_32_1663)"/>
<path d="M42.0432 45.4205H5.07106C4.87152 45.4205 4.70605 45.255 4.70605 45.0555V14.7361C4.70605 14.5366 4.87152 14.3711 5.07106 14.3711C5.27059 14.3711 5.43606 14.5366 5.43606 14.7361V44.6905H41.6782V14.7361C41.6782 14.5366 41.8436 14.3711 42.0432 14.3711C42.2427 14.3711 42.4082 14.5366 42.4082 14.7361V45.0555C42.4082 45.255 42.2427 45.4205 42.0432 45.4205Z" fill="url(#paint8_linear_32_1663)"/>
<path d="M42.0432 18.5811H16.9603C16.7608 18.5811 16.5953 18.4156 16.5953 18.2161C16.5953 18.0165 16.7608 17.8511 16.9603 17.8511H42.0432C42.2427 17.8511 42.4082 18.0165 42.4082 18.2161C42.4082 18.4156 42.2427 18.5811 42.0432 18.5811Z" fill="url(#paint9_linear_32_1663)"/>
<path d="M42.0432 31.5796H16.9603C16.7608 31.5796 16.5953 31.4141 16.5953 31.2146C16.5953 31.0151 16.7608 30.8496 16.9603 30.8496H42.0432C42.2427 30.8496 42.4082 31.0151 42.4082 31.2146C42.4082 31.4141 42.2427 31.5796 42.0432 31.5796Z" fill="url(#paint10_linear_32_1663)"/>
<path d="M42.0432 39.0357H5.07106C4.87152 39.0357 4.70605 38.8702 4.70605 38.6707C4.70605 38.4711 4.87152 38.3057 5.07106 38.3057H42.0432C42.2427 38.3057 42.4082 38.4711 42.4082 38.6707C42.4082 38.8702 42.2427 39.0357 42.0432 39.0357Z" fill="url(#paint11_linear_32_1663)"/>
</g>
<defs>
<linearGradient id="paint0_linear_32_1663" x1="4.70605" y1="18.4885" x2="10.4439" y2="18.4885" gradientUnits="userSpaceOnUse">
<stop stop-color="#A1732F"/>
<stop offset="0.1" stop-color="#A97A34"/>
<stop offset="0.25" stop-color="#BF9044"/>
<stop offset="0.44" stop-color="#E4B35D"/>
<stop offset="0.55" stop-color="#FDCB6E"/>
<stop offset="0.6" stop-color="#EDBB63"/>
<stop offset="0.71" stop-color="#CD9A4E"/>
<stop offset="0.81" stop-color="#B78340"/>
<stop offset="0.91" stop-color="#A97537"/>
<stop offset="1" stop-color="#A57134"/>
</linearGradient>
<linearGradient id="paint1_linear_32_1663" x1="-1.83885e-05" y1="31.4876" x2="0.486649" y2="31.4876" gradientUnits="userSpaceOnUse">
<stop stop-color="#A1732F"/>
<stop offset="0.1" stop-color="#A97A34"/>
<stop offset="0.25" stop-color="#BF9044"/>
<stop offset="0.44" stop-color="#E4B35D"/>
<stop offset="0.55" stop-color="#FDCB6E"/>
<stop offset="0.6" stop-color="#EDBB63"/>
<stop offset="0.71" stop-color="#CD9A4E"/>
<stop offset="0.81" stop-color="#B78340"/>
<stop offset="0.91" stop-color="#A97537"/>
<stop offset="1" stop-color="#A57134"/>
</linearGradient>
<linearGradient id="paint2_linear_32_1663" x1="1.51339e-05" y1="6.99341" x2="23.7445" y2="6.99341" gradientUnits="userSpaceOnUse">
<stop stop-color="#A1732F"/>
<stop offset="0.1" stop-color="#A97A34"/>
<stop offset="0.25" stop-color="#BF9044"/>
<stop offset="0.44" stop-color="#E4B35D"/>
<stop offset="0.55" stop-color="#FDCB6E"/>
<stop offset="0.6" stop-color="#EDBB63"/>
<stop offset="0.71" stop-color="#CD9A4E"/>
<stop offset="0.81" stop-color="#B78340"/>
<stop offset="0.91" stop-color="#A97537"/>
<stop offset="1" stop-color="#A57134"/>
</linearGradient>
<linearGradient id="paint3_linear_32_1663" x1="4.14155" y1="7.33402" x2="23.7445" y2="7.33402" gradientUnits="userSpaceOnUse">
<stop stop-color="#A1732F"/>
<stop offset="0.1" stop-color="#A97A34"/>
<stop offset="0.25" stop-color="#BF9044"/>
<stop offset="0.44" stop-color="#E4B35D"/>
<stop offset="0.55" stop-color="#FDCB6E"/>
<stop offset="0.6" stop-color="#EDBB63"/>
<stop offset="0.71" stop-color="#CD9A4E"/>
<stop offset="0.81" stop-color="#B78340"/>
<stop offset="0.91" stop-color="#A97537"/>
<stop offset="1" stop-color="#A57134"/>
</linearGradient>
<linearGradient id="paint4_linear_32_1663" x1="24.2554" y1="6.99341" x2="48" y2="6.99341" gradientUnits="userSpaceOnUse">
<stop stop-color="#A1732F"/>
<stop offset="0.1" stop-color="#A97A34"/>
<stop offset="0.25" stop-color="#BF9044"/>
<stop offset="0.44" stop-color="#E4B35D"/>
<stop offset="0.55" stop-color="#FDCB6E"/>
<stop offset="0.6" stop-color="#EDBB63"/>
<stop offset="0.71" stop-color="#CD9A4E"/>
<stop offset="0.81" stop-color="#B78340"/>
<stop offset="0.91" stop-color="#A97537"/>
<stop offset="1" stop-color="#A57134"/>
</linearGradient>
<linearGradient id="paint5_linear_32_1663" x1="24.8541" y1="7.08095" x2="43.9315" y2="7.08095" gradientUnits="userSpaceOnUse">
<stop stop-color="#A1732F"/>
<stop offset="0.1" stop-color="#A97A34"/>
<stop offset="0.25" stop-color="#BF9044"/>
<stop offset="0.44" stop-color="#E4B35D"/>
<stop offset="0.55" stop-color="#FDCB6E"/>
<stop offset="0.6" stop-color="#EDBB63"/>
<stop offset="0.71" stop-color="#CD9A4E"/>
<stop offset="0.81" stop-color="#B78340"/>
<stop offset="0.91" stop-color="#A97537"/>
<stop offset="1" stop-color="#A57134"/>
</linearGradient>
<linearGradient id="paint6_linear_32_1663" x1="20.5422" y1="8.56514" x2="26.83" y2="8.56514" gradientUnits="userSpaceOnUse">
<stop stop-color="#A1732F"/>
<stop offset="0.1" stop-color="#A97A34"/>
<stop offset="0.25" stop-color="#BF9044"/>
<stop offset="0.44" stop-color="#E4B35D"/>
<stop offset="0.55" stop-color="#FDCB6E"/>
<stop offset="0.6" stop-color="#EDBB63"/>
<stop offset="0.71" stop-color="#CD9A4E"/>
<stop offset="0.81" stop-color="#B78340"/>
<stop offset="0.91" stop-color="#A97537"/>
<stop offset="1" stop-color="#A57134"/>
</linearGradient>
<linearGradient id="paint7_linear_32_1663" x1="10.4049" y1="24.8689" x2="17.3253" y2="24.8689" gradientUnits="userSpaceOnUse">
<stop stop-color="#A1732F"/>
<stop offset="0.1" stop-color="#A97A34"/>
<stop offset="0.25" stop-color="#BF9044"/>
<stop offset="0.44" stop-color="#E4B35D"/>
<stop offset="0.55" stop-color="#FDCB6E"/>
<stop offset="0.6" stop-color="#EDBB63"/>
<stop offset="0.71" stop-color="#CD9A4E"/>
<stop offset="0.81" stop-color="#B78340"/>
<stop offset="0.91" stop-color="#A97537"/>
<stop offset="1" stop-color="#A57134"/>
</linearGradient>
<linearGradient id="paint8_linear_32_1663" x1="-1.90082e-05" y1="29.8958" x2="42.4082" y2="29.8958" gradientUnits="userSpaceOnUse">
<stop stop-color="#A1732F"/>
<stop offset="0.1" stop-color="#A97A34"/>
<stop offset="0.25" stop-color="#BF9044"/>
<stop offset="0.44" stop-color="#E4B35D"/>
<stop offset="0.55" stop-color="#FDCB6E"/>
<stop offset="0.6" stop-color="#EDBB63"/>
<stop offset="0.71" stop-color="#CD9A4E"/>
<stop offset="0.81" stop-color="#B78340"/>
<stop offset="0.91" stop-color="#A97537"/>
<stop offset="1" stop-color="#A57134"/>
</linearGradient>
<linearGradient id="paint9_linear_32_1663" x1="16.5953" y1="18.2161" x2="42.4082" y2="18.2161" gradientUnits="userSpaceOnUse">
<stop stop-color="#A1732F"/>
<stop offset="0.1" stop-color="#A97A34"/>
<stop offset="0.25" stop-color="#BF9044"/>
<stop offset="0.44" stop-color="#E4B35D"/>
<stop offset="0.55" stop-color="#FDCB6E"/>
<stop offset="0.6" stop-color="#EDBB63"/>
<stop offset="0.71" stop-color="#CD9A4E"/>
<stop offset="0.81" stop-color="#B78340"/>
<stop offset="0.91" stop-color="#A97537"/>
<stop offset="1" stop-color="#A57134"/>
</linearGradient>
<linearGradient id="paint10_linear_32_1663" x1="16.5953" y1="31.2146" x2="42.4082" y2="31.2146" gradientUnits="userSpaceOnUse">
<stop stop-color="#A1732F"/>
<stop offset="0.1" stop-color="#A97A34"/>
<stop offset="0.25" stop-color="#BF9044"/>
<stop offset="0.44" stop-color="#E4B35D"/>
<stop offset="0.55" stop-color="#FDCB6E"/>
<stop offset="0.6" stop-color="#EDBB63"/>
<stop offset="0.71" stop-color="#CD9A4E"/>
<stop offset="0.81" stop-color="#B78340"/>
<stop offset="0.91" stop-color="#A97537"/>
<stop offset="1" stop-color="#A57134"/>
</linearGradient>
<linearGradient id="paint11_linear_32_1663" x1="-1.90082e-05" y1="38.6707" x2="42.4082" y2="38.6707" gradientUnits="userSpaceOnUse">
<stop stop-color="#A1732F"/>
<stop offset="0.1" stop-color="#A97A34"/>
<stop offset="0.25" stop-color="#BF9044"/>
<stop offset="0.44" stop-color="#E4B35D"/>
<stop offset="0.55" stop-color="#FDCB6E"/>
<stop offset="0.6" stop-color="#EDBB63"/>
<stop offset="0.71" stop-color="#CD9A4E"/>
<stop offset="0.81" stop-color="#B78340"/>
<stop offset="0.91" stop-color="#A97537"/>
<stop offset="1" stop-color="#A57134"/>
</linearGradient>
<clipPath id="clip0_32_1663">
<rect width="48" height="45.4207" fill="white"/>
</clipPath>
</defs>
</svg>
