<svg width="84" height="24" viewBox="0 0 84 24" fill="none" xmlns="http://www.w3.org/2000/svg">
<g clip-path="url(#clip0_25_36)">
<path d="M70.2584 11.7432C72.5837 11.0359 74.8123 10.0864 76.9245 8.89462C79.1142 7.6641 81.1489 6.20104 83.203 4.76705C83.2418 4.73798 83.203 4.67984 83.1643 4.70891C79.4533 6.78239 75.9168 9.21436 71.8861 10.6193C67.5938 12.1114 63.0593 12.8962 58.5248 13.1191C53.9806 13.3419 49.5042 12.935 45.0472 12.092C40.6484 11.2588 36.2979 10.1251 31.8506 9.52441C26.7735 8.8268 21.677 8.197 16.5515 8.0226C13.9548 7.93539 11.3581 7.99353 8.78077 8.22607C6.18408 8.4683 3.70366 9.15623 1.13604 9.56317C1.00039 9.58255 0.990703 9.79571 1.13604 9.79571C3.33547 9.67944 5.49615 9.18529 7.6859 8.95275C9.99191 8.71053 12.2979 8.60394 14.6136 8.62332C19.3226 8.65239 24.0121 9.18529 28.6726 9.79571C33.149 10.3771 37.5381 11.2394 41.9564 12.1792C46.2971 13.0997 50.6185 13.807 55.0561 13.8555C60.1817 13.9136 65.3266 13.2644 70.239 11.7723L70.2584 11.7432Z" fill="#0E2025"/>
<path d="M70.394 12.3246C72.7097 11.5688 74.9091 10.5805 77.0117 9.34032C79.1723 8.07104 81.1005 6.23979 83.1255 4.76705C83.1643 4.73798 83.1255 4.67984 83.0868 4.70891C79.4243 6.8599 76.4885 9.63099 72.4868 11.1134C68.2236 12.6928 63.1853 13.7489 58.6508 14.0589C54.1162 14.3787 49.6786 13.9233 45.2022 13.1772C40.784 12.4312 37.79 11.7626 33.023 10.8809C27.9846 9.95073 21.6867 9.42752 16.5611 9.3597C13.9644 9.32094 11.3677 9.43721 8.79044 9.7182C6.19375 10.0089 3.73271 10.7549 1.17477 11.2103C1.03913 11.2394 1.03913 11.4526 1.18446 11.4429C3.3839 11.2878 5.5252 10.7452 7.71494 10.4739C10.0113 10.1833 12.3173 10.0282 14.6427 9.99918C19.3516 9.93136 24.0508 10.3771 28.7307 10.8906C33.2168 11.3847 37.6156 12.4215 42.0533 13.2644C46.4037 14.0977 50.8316 14.7662 55.2789 14.7275C60.4045 14.6887 65.5397 13.9233 70.4134 12.3343L70.394 12.3246Z" fill="#0E2025"/>
<path d="M1.99845 11.3654C2.97705 11.0553 4.13975 11.0941 5.06022 10.6678C5.11835 10.6387 5.08928 10.5515 5.04084 10.5321C4.47887 10.348 3.8297 10.5903 3.25804 10.6678C2.59917 10.755 1.96938 10.9488 1.32021 11.0456C1.01984 11.0844 1.1458 10.6775 1.1458 10.4352C1.1458 9.94109 1.42679 9.86357 1.82404 9.76668C2.35695 9.63103 2.94798 9.71823 3.37431 9.34036C3.39368 9.32098 3.37431 9.28222 3.35493 9.27253C3.00612 9.17564 2.60886 9.24347 2.25037 9.26285C1.95 9.27253 1.33959 9.3016 1.07798 9.47601C0.564455 9.80544 0.661346 10.6871 0.767927 11.2007C0.884196 11.7723 1.63995 11.4817 2.00814 11.3654H1.99845Z" fill="#0E2025"/>
<path d="M75.3742 7.43159C76.7501 7.24749 78.1259 6.94713 79.4437 6.52081C80.0444 6.32703 80.6257 6.0848 81.1974 5.8135C81.8853 5.48407 82.6702 5.18371 83.2612 4.70894C83.329 4.6508 83.2903 4.54422 83.1934 4.5636C82.612 4.68956 82.0597 5.0093 81.5171 5.24184C80.8777 5.52283 80.2285 5.79412 79.5599 6.00728C78.1938 6.45298 76.7792 6.71459 75.3549 6.889C74.0178 7.05371 72.671 7.09247 71.3339 7.04402C70.549 7.01495 69.7739 6.94713 68.9988 6.85024C68.3593 6.77273 67.7198 6.62739 67.0803 6.66615C66.8865 6.67583 66.7897 6.96651 66.9834 7.05371C68.1364 7.53817 69.5801 7.51879 70.8106 7.58661C72.3318 7.66413 73.8627 7.62537 75.3742 7.4219V7.43159Z" fill="#0E2025"/>
<path d="M65.9273 6.50141C65.9951 6.46266 65.9951 6.34639 65.9273 6.31732C65.3072 6.05571 64.5805 6.01696 63.941 5.8038C63.1465 5.54219 62.4198 5.12556 61.6156 4.88333C61.4219 4.82519 61.2475 5.11587 61.4219 5.24183C62.0613 5.73597 62.8365 6.02665 63.5922 6.28825C64.2608 6.52079 65.2588 6.85991 65.937 6.49172L65.9273 6.50141Z" fill="#0E2025"/>
<path d="M60.3173 4.46669C58.8736 3.99192 57.4396 3.46871 55.9572 3.11021C54.3294 2.71295 52.7113 2.32539 51.0932 1.90876C49.4751 1.49212 47.8667 1.05611 46.239 0.687924C44.7468 0.358493 42.9737 -0.106586 41.4428 0.0775078C41.2006 0.106575 41.1715 0.416628 41.4041 0.494141C42.1501 0.746058 42.9737 0.794504 43.7488 0.910774C44.5337 1.02704 45.3088 1.17238 46.0839 1.3371C47.7214 1.68591 49.3298 2.14129 50.9479 2.54824C52.566 2.96487 54.1937 3.34275 55.8215 3.71094C57.2846 4.04037 58.7767 4.73798 60.2979 4.66047C60.4142 4.66047 60.4239 4.49576 60.3173 4.457V4.46669Z" fill="#0E2025"/>
<path d="M21.7546 8.70085C23.6343 6.22043 26.2988 4.41825 29.0796 3.10052C30.6104 2.37384 32.2091 1.79249 33.8466 1.32741C35.5131 0.862332 37.2087 0.649171 38.8947 0.280984C39.0012 0.261605 38.9915 0.0872007 38.8947 0.0678224C37.2281 -0.164717 35.5035 0.184092 33.8951 0.600725C32.1898 1.03674 30.5232 1.65684 28.9245 2.40291C25.9984 3.76907 23.1207 5.64877 21.2507 8.33266C21.0473 8.62333 21.5414 8.99152 21.7643 8.70085H21.7546Z" fill="#0E2025"/>
<path d="M74.5895 14.6403C75.4712 14.0493 76.1688 13.2451 76.8858 12.4602C77.6416 11.627 78.3682 10.7743 79.1046 9.92169C79.8507 9.03998 80.6064 8.16796 81.3525 7.28625C82.0501 6.45298 82.9028 5.70692 83.3194 4.68956C83.3678 4.5636 83.2128 4.47639 83.1353 4.58298C82.5249 5.44531 81.711 6.17199 80.994 6.94713C80.2189 7.79977 79.4534 8.67179 78.688 9.53413C78.0001 10.3093 77.3121 11.0844 76.6048 11.8401C75.8394 12.6637 74.9964 13.4098 74.2988 14.2818C74.1438 14.4756 74.3569 14.776 74.5798 14.6306L74.5895 14.6403Z" fill="#0E2025"/>
<path d="M53.5446 23.6706C54.6492 23.4768 55.7634 23.3896 56.868 23.2055C59.1062 22.8276 61.3153 22.2656 63.4663 21.5583C66.7606 20.4732 70.6363 18.9423 72.7485 16.0452C72.7969 15.9774 72.6904 15.9193 72.6322 15.9677C69.8224 18.3125 66.4602 19.8627 62.9915 20.9576C61.0053 21.5874 58.9705 22.0816 56.9164 22.4497C55.9185 22.6241 54.9205 22.7404 53.9225 22.8954C52.9439 23.0505 51.9653 23.2927 50.977 23.4187C50.7638 23.4477 50.696 23.7772 50.9382 23.8159C51.8296 23.9612 52.6532 23.8159 53.5446 23.6706Z" fill="#0E2025"/>
<path d="M48.1769 23.8353C48.3028 23.8159 48.3513 23.6027 48.2059 23.5931C45.3961 23.2927 42.625 23.0989 39.883 22.4013C37.015 21.6649 34.2633 20.5216 31.6569 19.1167C29.0311 17.7021 26.6282 15.958 24.3222 14.0783C23.1305 13.1094 21.9096 12.1793 20.776 11.1328C19.8943 10.3092 18.9932 9.54381 17.7336 9.53412C17.4235 9.53412 17.3945 9.98951 17.6755 10.0573C19.0029 10.4061 19.8943 11.3363 20.8826 12.2277C22.0743 13.2935 23.3533 14.243 24.5935 15.2507C26.8026 17.0626 29.2055 18.6419 31.7247 19.979C34.2536 21.3161 36.9375 22.3625 39.7183 23.0892C42.4215 23.7965 45.3961 24.2907 48.1866 23.845L48.1769 23.8353Z" fill="#0E2025"/>
<path d="M32.8389 9.83446C33.4106 8.14855 34.0888 6.54015 35.0287 4.97051C35.6391 3.95315 36.327 2.98424 37.1506 2.13159C37.5575 1.70527 37.9742 1.28864 38.4296 0.920449C38.7009 0.707288 38.8946 0.494127 39.0012 0.164696C39.04 0.0484262 38.8946 -0.038776 38.7978 0.0193588C36.889 1.11423 35.5034 3.05206 34.3504 4.87362C33.4203 6.34637 32.6355 8.0129 32.2285 9.73757C32.432 9.73757 32.6451 9.77632 32.8389 9.82477V9.83446Z" fill="#0E2025"/>
<path d="M33.1198 9.91198C33.488 9.24343 33.7981 8.52644 34.1953 7.88695C34.8348 6.85021 35.6003 5.91037 36.4045 4.99959C37.199 4.10819 38.071 3.28461 38.9624 2.48041C39.3984 2.08316 39.8441 1.6859 40.2801 1.29834C40.6677 0.949527 41.2393 0.707299 41.5494 0.290666C41.6172 0.193775 41.5494 0.0387483 41.4137 0.0775049C40.4448 0.35849 39.7181 1.12393 38.9721 1.7731C37.9935 2.62575 37.0439 3.47839 36.1525 4.42793C35.3387 5.29026 34.6023 6.21073 33.9337 7.17964C33.4202 7.92571 32.7904 8.83649 32.4513 9.75696C32.6838 9.78602 32.9164 9.84416 33.1198 9.91198Z" fill="#0E2025"/>
<path d="M52.7211 13.4776C52.9439 12.9834 53.1668 12.4893 53.4381 12.0242C54.0097 11.065 54.7267 10.2027 55.5019 9.40815C56.2964 8.60396 57.149 7.85789 57.9823 7.11183C58.8155 6.37545 59.8329 5.61001 60.3755 4.61203C60.4336 4.50545 60.3077 4.37949 60.2011 4.44731C59.2419 5.05773 58.3989 5.94913 57.5269 6.67582C56.5967 7.45095 55.6956 8.27452 54.843 9.13686C54.0775 9.91199 53.4187 10.7743 52.847 11.6948C52.5273 12.218 52.1785 12.7994 51.9169 13.4098C52.1785 13.4195 52.4401 13.4485 52.7114 13.4679L52.7211 13.4776Z" fill="#0E2025"/>
<path d="M53.1667 13.5164C53.5349 13.0028 53.9128 12.499 54.3391 12.0339C55.1723 11.1231 56.0637 10.2705 56.9842 9.43724C57.8853 8.63304 58.8348 7.8676 59.7359 7.05371C60.3463 6.50143 61.3153 5.82319 61.5478 4.99961C61.5866 4.84458 61.4025 4.76707 61.2959 4.86396C60.5304 5.57127 59.8038 6.29795 58.9899 6.96651C58.0985 7.69319 57.2071 8.42957 56.335 9.18532C54.8914 10.4352 53.5155 11.8111 52.5563 13.4679C52.7597 13.4873 52.9535 13.5067 53.157 13.5164H53.1667Z" fill="#0E2025"/>
<path d="M58.2729 13.652C58.3504 13.6326 58.4279 13.6132 58.5054 13.5842C58.767 13.1772 59.0092 12.7606 59.2805 12.373C59.8909 11.501 60.5886 10.6968 61.3249 9.93137C62.0032 9.22406 62.7492 8.58458 63.5534 8.00323C64.2898 7.47033 65.22 7.13121 65.8595 6.48204C65.9176 6.4239 65.8595 6.31732 65.7819 6.31732C64.9196 6.34639 64.1251 6.92774 63.4372 7.38313C62.5748 7.95479 61.79 8.63303 61.0536 9.34033C60.2688 10.0961 59.5712 10.939 58.9317 11.8208C58.5151 12.3827 58.05 12.9931 57.7206 13.6326C57.9144 13.6132 58.1081 13.6036 58.2922 13.6326L58.2729 13.652Z" fill="#0E2025"/>
<path d="M58.2729 13.652C58.4377 13.6132 58.6024 13.5551 58.7477 13.497C59.0481 13.1191 59.3387 12.7315 59.6488 12.3924C60.327 11.656 61.0828 11.0069 61.8676 10.3964C63.5535 9.08841 65.5204 8.17763 67.2354 6.93742C67.3129 6.87928 67.3129 6.72426 67.1966 6.70488C66.3052 6.57892 65.2879 7.46063 64.5709 7.89664C63.5341 8.51675 62.5071 9.14654 61.5382 9.87323C60.6952 10.503 59.9201 11.2103 59.1934 11.9661C58.7186 12.4699 58.1857 13.0319 57.8079 13.652C57.9629 13.6423 58.1179 13.6423 58.2729 13.6714V13.652Z" fill="#0E2025"/>
<path d="M74.5991 14.3303C73.8918 13.6714 72.7775 13.5357 71.8667 13.3129C71.0141 13.0997 70.2486 12.7315 69.4541 12.4118C69.2507 12.5281 69.0472 12.625 68.8243 12.7025C69.5123 13.2451 70.394 13.5551 71.2272 13.7877C71.7989 13.9524 72.3802 14.0686 72.9519 14.214C73.4751 14.3496 73.9693 14.524 74.5119 14.5628C74.6281 14.5628 74.6766 14.4078 74.5991 14.3399V14.3303Z" fill="#0E2025"/>
<path d="M72.8357 15.8127C72.4772 15.5317 72.0606 15.3864 71.6537 15.1732C71.208 14.9407 70.7816 14.6403 70.3844 14.3302C69.7933 13.8749 69.5027 13.1966 69.1635 12.5571C68.9504 12.654 68.7275 12.7315 68.495 12.7994C69.1442 14.4756 70.9948 15.803 72.7001 16.0549C72.826 16.0743 72.9617 15.9096 72.8357 15.803V15.8127Z" fill="#0E2025"/>
<path d="M68.5337 19.1458C69.5511 18.826 70.4522 18.1671 71.2951 17.547C71.9249 17.082 72.8648 16.6169 73.2717 15.929C73.3686 15.7739 73.233 15.6092 73.0683 15.5995C72.5353 15.5608 72.0412 15.2895 71.518 15.4154C71.4599 15.4348 71.4502 15.522 71.5083 15.5511C71.8571 15.7158 72.2447 15.8708 72.6419 15.9677C72.4288 16.1324 72.1575 16.2681 71.954 16.4134C71.5664 16.6944 71.1886 16.9754 70.801 17.2564C70.0162 17.8377 69.1441 18.3222 68.4272 18.981C68.3496 19.0585 68.4368 19.1845 68.5337 19.1554V19.1458Z" fill="#0E2025"/>
<path d="M51.2483 23.4671C50.8704 23.1571 50.415 22.9536 50.0081 22.6823C49.4267 22.3044 48.8938 21.8781 48.3609 21.4324C47.3435 20.5701 46.3843 19.6496 45.5026 18.6419C44.0105 16.9173 42.9931 14.9213 41.8886 12.9544C41.6754 12.9544 41.4525 12.9544 41.2394 12.9544C42.1114 15.1054 43.4485 17.1304 44.9116 18.9035C45.8127 19.9984 46.8591 20.9673 47.9346 21.8878C48.7872 22.6145 49.9112 23.6512 51.0545 23.8062C51.2289 23.8353 51.4033 23.6125 51.2386 23.4671H51.2483Z" fill="#0E2025"/>
<path d="M48.3803 23.6415C47.9637 23.2927 47.4889 23.0214 47.0723 22.6532C46.6169 22.2559 46.2196 21.7909 45.8514 21.3161C45.1151 20.3762 44.5337 19.3201 43.9427 18.2834C43.2741 17.111 42.6056 15.9289 42.1405 14.65C41.9467 14.1171 41.7917 13.526 41.6173 12.9544C41.3557 12.9544 41.0941 12.9544 40.8422 12.9253C41.0553 13.681 41.3557 14.4174 41.6076 15.0957C42.0921 16.4037 42.8284 17.6148 43.5164 18.826C44.1171 19.8821 44.7372 20.9479 45.5123 21.8877C46.1615 22.6726 47.1498 23.9322 48.264 23.9128C48.3997 23.9128 48.4772 23.7287 48.3706 23.6318L48.3803 23.6415Z" fill="#0E2025"/>
</g>
<defs>
<clipPath id="clip0_25_36">
<rect width="82.6387" height="24" fill="white" transform="translate(0.680664)"/>
</clipPath>
</defs>
</svg>
