<svg width="86" height="24" viewBox="0 0 86 24" fill="none" xmlns="http://www.w3.org/2000/svg">
<g clip-path="url(#clip0_25_59)">
<path d="M13.835 11.7432C11.435 11.0359 9.13503 10.0864 6.95503 8.89463C4.69503 7.66411 2.59504 6.20105 0.475037 4.76705C0.435037 4.73799 0.475038 4.67985 0.515038 4.70892C4.34504 6.78239 7.99504 9.21437 12.155 10.6193C16.585 12.1114 21.265 12.8962 25.945 13.1191C30.635 13.3419 35.255 12.935 39.855 12.092C44.395 11.2588 48.885 10.1251 53.475 9.52442C58.715 8.8268 63.975 8.197 69.265 8.0226C71.945 7.9354 74.625 7.99353 77.285 8.22607C79.965 8.4683 82.525 9.15623 85.175 9.56317C85.315 9.58255 85.325 9.79571 85.175 9.79571C82.905 9.67944 80.675 9.18529 78.415 8.95275C76.035 8.71053 73.655 8.60395 71.265 8.62332C66.405 8.65239 61.565 9.1853 56.755 9.79571C52.135 10.3771 47.605 11.2394 43.045 12.1792C38.565 13.0997 34.105 13.807 29.525 13.8555C24.235 13.9136 18.925 13.2644 13.855 11.7723L13.835 11.7432Z" fill="#0E2025"/>
<path d="M13.695 12.3246C11.305 11.5688 9.03499 10.5805 6.86499 9.34033C4.63499 8.07105 2.64499 6.2398 0.554993 4.76705C0.514993 4.73799 0.554986 4.67985 0.594986 4.70892C4.37499 6.85991 7.40499 9.631 11.535 11.1134C15.935 12.6928 21.135 13.7489 25.815 14.0589C30.495 14.3787 35.075 13.9233 39.695 13.1772C44.255 12.4312 47.345 11.7626 52.265 10.8809C57.465 9.95074 63.965 9.42752 69.255 9.3597C71.935 9.32094 74.615 9.43721 77.275 9.7182C79.955 10.0089 82.495 10.7549 85.135 11.2103C85.275 11.2394 85.275 11.4526 85.125 11.4429C82.855 11.2878 80.645 10.7452 78.385 10.4739C76.015 10.1833 73.635 10.0282 71.235 9.99918C66.375 9.93136 61.525 10.3771 56.695 10.8906C52.065 11.3847 47.525 12.4215 42.945 13.2644C38.455 14.0977 33.885 14.7662 29.295 14.7275C24.005 14.6887 18.705 13.9233 13.675 12.3343L13.695 12.3246Z" fill="#0E2025"/>
<path d="M84.285 11.3654C83.275 11.0553 82.075 11.0941 81.125 10.6678C81.065 10.6387 81.095 10.5515 81.145 10.5321C81.725 10.348 82.395 10.5903 82.985 10.6678C83.665 10.755 84.315 10.9488 84.985 11.0456C85.295 11.0844 85.165 10.6775 85.165 10.4352C85.165 9.94109 84.875 9.86357 84.465 9.76668C83.915 9.63103 83.305 9.71823 82.865 9.34036C82.845 9.32098 82.865 9.28222 82.885 9.27253C83.245 9.17564 83.655 9.24347 84.025 9.26285C84.335 9.27253 84.965 9.3016 85.235 9.47601C85.765 9.80544 85.665 10.6871 85.555 11.2007C85.435 11.7723 84.655 11.4817 84.275 11.3654L84.285 11.3654Z" fill="#0E2025"/>
<path d="M8.55508 7.43159C7.13508 7.24749 5.71508 6.94713 4.35508 6.52081C3.73508 6.32703 3.13508 6.0848 2.54508 5.8135C1.83508 5.48407 1.02508 5.18371 0.415075 4.70894C0.345075 4.65081 0.385075 4.54422 0.485075 4.5636C1.08508 4.68956 1.65508 5.0093 2.21508 5.24184C2.87508 5.52283 3.54508 5.79412 4.23508 6.00728C5.64508 6.45298 7.10508 6.71459 8.57508 6.889C9.95508 7.05371 11.3451 7.09247 12.7251 7.04402C13.5351 7.01495 14.3351 6.94713 15.1351 6.85024C15.7951 6.77273 16.4551 6.62739 17.1151 6.66615C17.3151 6.67583 17.4151 6.96651 17.2151 7.05371C16.0251 7.53817 14.5351 7.51879 13.2651 7.58661C11.6951 7.66413 10.1151 7.62537 8.55508 7.4219L8.55508 7.43159Z" fill="#0E2025"/>
<path d="M18.305 6.50141C18.235 6.46266 18.235 6.34639 18.305 6.31732C18.945 6.05571 19.695 6.01696 20.355 5.8038C21.175 5.54219 21.925 5.12556 22.755 4.88333C22.955 4.82519 23.135 5.11587 22.955 5.24183C22.295 5.73597 21.495 6.02665 20.715 6.28825C20.025 6.52079 18.995 6.85991 18.295 6.49173L18.305 6.50141Z" fill="#0E2025"/>
<path d="M24.095 4.46669C25.585 3.99192 27.065 3.46871 28.595 3.11021C30.275 2.71296 31.945 2.32539 33.615 1.90876C35.285 1.49212 36.945 1.05611 38.625 0.687924C40.165 0.358493 41.995 -0.106586 43.575 0.0775078C43.825 0.106575 43.855 0.416628 43.615 0.494141C42.845 0.746059 41.995 0.794504 41.195 0.910774C40.385 1.02704 39.585 1.17238 38.785 1.3371C37.095 1.68591 35.435 2.1413 33.765 2.54824C32.095 2.96487 30.415 3.34275 28.735 3.71094C27.225 4.04037 25.685 4.73799 24.115 4.66047C23.995 4.66047 23.985 4.49576 24.095 4.457L24.095 4.46669Z" fill="#0E2025"/>
<path d="M63.895 8.70066C61.955 6.22024 59.205 4.41806 56.335 3.10034C54.755 2.37366 53.105 1.79231 51.415 1.32723C49.695 0.86215 47.945 0.648989 46.205 0.280802C46.095 0.261424 46.105 0.0870192 46.205 0.0676409C47.925 -0.164899 49.705 0.18391 51.365 0.600543C53.125 1.03655 54.845 1.65666 56.495 2.40272C59.515 3.76889 62.485 5.64858 64.415 8.33248C64.625 8.62315 64.115 8.99134 63.885 8.70066L63.895 8.70066Z" fill="#0E2025"/>
<path d="M9.36508 14.6403C8.45508 14.0493 7.73507 13.2451 6.99507 12.4602C6.21507 11.627 5.46507 10.7743 4.70507 9.92169C3.93507 9.03998 3.15507 8.16796 2.38507 7.28625C1.66507 6.45298 0.785074 5.70692 0.355074 4.68956C0.305074 4.5636 0.465076 4.4764 0.545076 4.58298C1.17508 5.44531 2.01508 6.17199 2.75508 6.94713C3.55508 7.79977 4.34507 8.67179 5.13507 9.53413C5.84507 10.3093 6.55508 11.0844 7.28508 11.8401C8.07508 12.6637 8.94507 13.4098 9.66507 14.2818C9.82507 14.4756 9.60508 14.776 9.37508 14.6306L9.36508 14.6403Z" fill="#0E2025"/>
<path d="M31.085 23.6706C29.945 23.4768 28.795 23.3896 27.655 23.2055C25.345 22.8276 23.065 22.2656 20.845 21.5583C17.445 20.4732 13.445 18.9423 11.265 16.0452C11.215 15.9774 11.325 15.9193 11.385 15.9677C14.285 18.3125 17.755 19.8627 21.335 20.9576C23.385 21.5874 25.485 22.0816 27.605 22.4497C28.635 22.6241 29.665 22.7404 30.695 22.8954C31.705 23.0505 32.715 23.2927 33.735 23.4187C33.955 23.4477 34.025 23.7772 33.775 23.8159C32.855 23.9612 32.005 23.8159 31.085 23.6706Z" fill="#0E2025"/>
<path d="M36.6251 23.8353C36.4951 23.8159 36.4451 23.6028 36.5951 23.5931C39.4951 23.2927 42.3551 23.0989 45.1851 22.4013C48.1451 21.6649 50.9851 20.5216 53.6751 19.1167C56.3851 17.7021 58.8651 15.958 61.2451 14.0783C62.4751 13.1094 63.7351 12.1793 64.9051 11.1328C65.8151 10.3092 66.7451 9.54381 68.0451 9.53412C68.3651 9.53412 68.3951 9.98951 68.1051 10.0573C66.7351 10.4061 65.8151 11.3363 64.7951 12.2277C63.5651 13.2935 62.2451 14.243 60.9651 15.2507C58.6851 17.0626 56.2051 18.6419 53.6051 19.979C50.9951 21.3161 48.2251 22.3625 45.3551 23.0892C42.5651 23.7965 39.4951 24.2907 36.6151 23.845L36.6251 23.8353Z" fill="#0E2025"/>
<path d="M52.455 9.83452C51.865 8.14861 51.165 6.54021 50.195 4.97057C49.565 3.95321 48.855 2.9843 48.005 2.13165C47.585 1.70533 47.155 1.2887 46.685 0.92051C46.405 0.707349 46.205 0.494188 46.095 0.164758C46.055 0.0484879 46.205 -0.0387144 46.305 0.0194204C48.275 1.11429 49.705 3.05212 50.895 4.87368C51.855 6.34643 52.665 8.01296 53.085 9.73763C52.875 9.73763 52.655 9.77638 52.455 9.82483L52.455 9.83452Z" fill="#0E2025"/>
<path d="M52.165 9.91198C51.785 9.24343 51.465 8.52644 51.055 7.88695C50.395 6.85021 49.605 5.91037 48.775 4.99959C47.955 4.10819 47.055 3.28461 46.135 2.48041C45.685 2.08316 45.225 1.6859 44.775 1.29834C44.375 0.949528 43.785 0.7073 43.465 0.290667C43.395 0.193775 43.465 0.0387491 43.605 0.0775057C44.605 0.358491 45.355 1.12393 46.125 1.7731C47.135 2.62575 48.115 3.47839 49.035 4.42793C49.875 5.29026 50.635 6.21073 51.325 7.17964C51.855 7.92571 52.505 8.83649 52.855 9.75696C52.615 9.78602 52.375 9.84416 52.165 9.91198Z" fill="#0E2025"/>
<path d="M31.935 13.4776C31.705 12.9834 31.475 12.4893 31.195 12.0242C30.605 11.065 29.865 10.2027 29.065 9.40815C28.245 8.60396 27.365 7.85789 26.505 7.11183C25.645 6.37545 24.595 5.61001 24.035 4.61203C23.975 4.50545 24.105 4.37949 24.215 4.44731C25.205 5.05773 26.075 5.94913 26.975 6.67582C27.935 7.45095 28.865 8.27452 29.745 9.13686C30.535 9.91199 31.215 10.7743 31.805 11.6948C32.135 12.218 32.495 12.7994 32.765 13.4098C32.495 13.4195 32.225 13.4485 31.945 13.4679L31.935 13.4776Z" fill="#0E2025"/>
<path d="M31.475 13.5164C31.095 13.0028 30.705 12.499 30.265 12.0339C29.405 11.1231 28.485 10.2705 27.535 9.43724C26.605 8.63304 25.625 7.8676 24.695 7.05371C24.065 6.50143 23.065 5.82319 22.825 4.99961C22.785 4.84458 22.975 4.76707 23.085 4.86396C23.875 5.57127 24.625 6.29796 25.465 6.96651C26.385 7.69319 27.305 8.42957 28.205 9.18532C29.695 10.4352 31.115 11.8111 32.105 13.4679C31.895 13.4873 31.695 13.5067 31.485 13.5164L31.475 13.5164Z" fill="#0E2025"/>
<path d="M26.205 13.652C26.125 13.6326 26.045 13.6132 25.965 13.5842C25.695 13.1772 25.445 12.7606 25.165 12.373C24.535 11.501 23.815 10.6968 23.055 9.93137C22.355 9.22406 21.585 8.58458 20.755 8.00323C19.995 7.47033 19.035 7.13121 18.375 6.48204C18.315 6.4239 18.375 6.31732 18.455 6.31732C19.345 6.34639 20.165 6.92774 20.875 7.38313C21.765 7.95479 22.575 8.63303 23.335 9.34033C24.145 10.0961 24.865 10.939 25.525 11.8208C25.955 12.3827 26.435 12.9931 26.775 13.6326C26.575 13.6132 26.375 13.6036 26.185 13.6326L26.205 13.652Z" fill="#0E2025"/>
<path d="M26.2051 13.652C26.0351 13.6132 25.8651 13.5551 25.7151 13.497C25.4051 13.1191 25.1051 12.7315 24.7851 12.3924C24.0851 11.656 23.3051 11.0069 22.4951 10.3964C20.7551 9.08841 18.7251 8.17763 16.9551 6.93742C16.8751 6.87928 16.8751 6.72426 16.9951 6.70488C17.9151 6.57892 18.9651 7.46063 19.7051 7.89664C20.7751 8.51675 21.8351 9.14654 22.8351 9.87323C23.7051 10.503 24.5051 11.2103 25.2551 11.9661C25.7451 12.4699 26.2951 13.0319 26.6851 13.652C26.5251 13.6423 26.3651 13.6423 26.2051 13.6714L26.2051 13.652Z" fill="#0E2025"/>
<path d="M9.35506 14.3303C10.0851 13.6714 11.2351 13.5357 12.1751 13.3129C13.0551 13.0997 13.8451 12.7315 14.6651 12.4118C14.8751 12.5281 15.0851 12.625 15.3151 12.7025C14.6051 13.2451 13.6951 13.5551 12.8351 13.7877C12.2451 13.9524 11.6451 14.0686 11.0551 14.214C10.5151 14.3496 10.0051 14.524 9.44507 14.5628C9.32507 14.5628 9.27506 14.4078 9.35506 14.3399L9.35506 14.3303Z" fill="#0E2025"/>
<path d="M11.175 15.8127C11.545 15.5317 11.975 15.3864 12.395 15.1732C12.855 14.9407 13.295 14.6403 13.705 14.3302C14.315 13.8749 14.615 13.1966 14.965 12.5571C15.185 12.654 15.415 12.7315 15.655 12.7994C14.985 14.4756 13.075 15.803 11.315 16.0549C11.185 16.0743 11.045 15.9096 11.175 15.803L11.175 15.8127Z" fill="#0E2025"/>
<path d="M15.615 19.1458C14.565 18.826 13.635 18.1671 12.765 17.547C12.115 17.082 11.145 16.6169 10.725 15.929C10.625 15.7739 10.765 15.6092 10.935 15.5995C11.485 15.5608 11.995 15.2895 12.535 15.4154C12.595 15.4348 12.605 15.522 12.545 15.5511C12.185 15.7158 11.785 15.8708 11.375 15.9677C11.595 16.1324 11.875 16.2681 12.085 16.4134C12.485 16.6944 12.875 16.9754 13.275 17.2564C14.085 17.8377 14.985 18.3222 15.725 18.981C15.805 19.0585 15.715 19.1845 15.615 19.1554L15.615 19.1458Z" fill="#0E2025"/>
<path d="M33.455 23.4671C33.845 23.1571 34.315 22.9536 34.735 22.6823C35.335 22.3044 35.885 21.8781 36.435 21.4324C37.485 20.5701 38.475 19.6496 39.385 18.6419C40.925 16.9173 41.975 14.9213 43.115 12.9544C43.335 12.9544 43.565 12.9544 43.785 12.9544C42.885 15.1054 41.505 17.1304 39.995 18.9035C39.065 19.9984 37.985 20.9673 36.875 21.8878C35.995 22.6145 34.835 23.6512 33.655 23.8062C33.475 23.8353 33.295 23.6125 33.465 23.4671L33.455 23.4671Z" fill="#0E2025"/>
<path d="M36.4151 23.6415C36.8451 23.2927 37.3351 23.0214 37.7651 22.6532C38.2351 22.2559 38.6451 21.7909 39.0251 21.3161C39.7851 20.3762 40.3851 19.3201 40.9951 18.2834C41.6851 17.111 42.3751 15.9289 42.8551 14.65C43.0551 14.1171 43.2151 13.526 43.3951 12.9544C43.6651 12.9544 43.9351 12.9544 44.1951 12.9253C43.9751 13.681 43.6651 14.4174 43.4051 15.0957C42.9051 16.4037 42.1451 17.6148 41.4351 18.826C40.8151 19.8821 40.1751 20.9479 39.3751 21.8877C38.7051 22.6726 37.6851 23.9322 36.5351 23.9128C36.3951 23.9128 36.3151 23.7287 36.4251 23.6318L36.4151 23.6415Z" fill="#0E2025"/>
</g>
<defs>
<clipPath id="clip0_25_59">
<rect width="85.29" height="24" fill="white" transform="matrix(-1 8.74228e-08 8.74228e-08 1 85.645 0)"/>
</clipPath>
</defs>
</svg>
