<svg width="138" height="112" viewBox="0 0 138 112" fill="none" xmlns="http://www.w3.org/2000/svg">
<g clip-path="url(#clip0_25_31)">
<path opacity="0.32" d="M1.90001 -11.07C3.50001 -7.04999 4.28003 -2.76999 5.60003 1.34001C6.03003 2.68001 6.48001 4.01001 6.93001 5.34001C9.03001 8.06001 11.49 10.67 14.16 12.8C17.12 15.17 20.48 16.58 23.84 18.25C25.37 19.01 26.79 19.96 28.28 20.78C29.81 21.63 31.44 22.27 32.94 23.16C34.57 24.12 36.73 26.72 34.67 28.34C32.85 29.77 29.06 28 27.4 27.19C24.25 25.65 22.01 23.25 19.35 21.07C16.58 18.8 13.95 16.59 11.62 13.86C10.56 12.62 9.61002 11.28 8.77002 9.88001C8.52002 9.47001 8.30003 9.04001 8.07003 8.61001C8.67003 10.32 9.27002 12.02 9.91002 13.71C11.17 17.07 12.53 20.4 13.97 23.69C17.22 25.17 20.18 27.62 23.13 29.6C26.61 31.94 29.94 34.6 33.2 37.25C35.95 39.48 38.53 42.11 40.46 45.11C41.06 46.04 43.99 50.95 41.82 51.77C40.29 52.35 38.37 50.66 37.27 49.8C34.45 47.59 32.01 44.84 29.62 42.18C26.84 39.09 24.31 35.81 21.76 32.53C19.71 29.9 17.41 27.21 14.64 25.27C16.4 29.24 18.28 33.16 20.29 37.02C22.03 40.37 23.9 43.63 25.9 46.81C25.93 46.82 25.97 46.83 26.01 46.86C28.89 48.92 31.86 51.02 35.11 52.47C38.43 53.95 42.02 54.75 45.49 55.81C48 56.59 60.43 60.35 56.42 64.72C54.95 66.33 51.41 65.52 49.63 65.1C46.46 64.34 43.51 62.96 40.75 61.24C37.93 59.48 35.38 57.26 32.88 55.09C31.5 53.89 30.17 52.64 28.89 51.33C32.18 56.1 35.79 60.62 39.77 64.83C42.63 66.12 45.97 66.31 48.94 67.34C52.46 68.56 56.28 69.01 59.99 68.79C63.04 68.61 66.06 68.27 69.08 68.96C71.27 69.46 74.4 70.94 74.59 73.49C74.76 75.89 71.87 76.58 70.03 76.76C68.51 76.91 66.97 76.59 65.5 76.22C63.62 75.74 61.67 75.68 59.79 75.21C56.25 74.34 52.72 73.02 49.4 71.53C47.8 70.81 46.25 70.01 44.7 69.19C44.2 68.92 43.72 68.62 43.24 68.31C45.73 70.71 48.35 72.99 51.11 75.14C53.74 77.18 56.49 79.04 59.33 80.74C60.75 81.02 62.42 80.95 63.79 80.92C65.7 80.88 67.61 80.95 69.52 80.92C73.24 80.87 76.75 80.45 80.36 79.59C83.39 78.86 86.69 78.12 89.79 78.94C91.67 79.44 93.58 80.76 94.19 82.68C94.91 84.91 91.59 85.76 90.11 86.03C86.8 86.62 83.22 85.93 79.92 85.61C76.21 85.24 72.5 84.89 68.8 84.5C67.56 84.37 66.32 84.2 65.1 83.93C70.3 86.56 75.73 88.72 81.29 90.5C82.36 90.14 83.43 89.9 84.47 89.35C85.76 88.67 86.97 87.91 88.39 87.5C91.77 86.51 95.31 86.73 98.77 86.25C102.05 85.79 105.3 84.87 108.61 84.74C110.77 84.65 113.77 85.71 114.53 87.96C115.16 89.86 112.42 90.87 111.09 91.25C108.14 92.09 104.66 92.28 101.62 91.94C98.23 91.55 94.84 91.09 91.43 91.02C89.41 90.98 87.31 91.47 85.24 91.7C86.45 92.05 87.68 92.39 88.9 92.7C93.11 93.78 97.38 94.64 101.67 95.38C102.49 95.28 103.31 95.13 103.99 95.09C105.97 94.98 107.96 95.04 109.95 95.12C114.16 95.29 118.32 95.05 122.53 94.99C126.24 94.94 130.09 95.25 133.6 96.5C135.46 97.14 138.51 98.86 137.93 101.36C137.34 103.85 134.14 104.36 131.99 104.27C128.65 104.13 125.5 102.6 122.32 101.72C118.35 100.62 114.28 100.01 110.24 99.22C108.33 98.85 106.48 98.2 104.66 97.52C103.84 97.21 102.99 96.95 102.15 96.68C96.95 95.81 91.79 94.76 86.69 93.41C87.39 94.03 88.07 94.68 88.75 95.27C90.11 96.46 91.51 97.57 93.09 98.47C96.38 100.34 100.49 101.42 104.24 101.71C107.43 101.96 110.64 101.76 113.68 102.91C115.39 103.56 118.22 105.39 116.52 107.42C115.07 109.15 112.28 109.35 110.23 109.19C106.49 108.91 103.02 108.35 99.58 106.78C96.38 105.32 93.56 103.19 90.99 100.8C88.5 98.49 86.18 95.83 84.57 92.82C83.38 92.49 82.2 92.14 81.02 91.77C77.17 90.56 73.38 89.15 69.68 87.53C70.8 88.7 71.9 89.89 73.04 91.05C75.94 94.01 78.84 97.1 82.25 99.48C85.34 101.63 88.79 103.22 91.97 105.25C93.63 106.31 96.9 108.98 95.33 111.27C94.63 112.29 92.68 111.98 91.7 111.85C89.98 111.63 88.39 110.84 86.88 110.03C83.73 108.33 81 105.67 78.6 103.06C75.95 100.18 73.54 97.03 71.28 93.85C70.28 92.45 69.26 91.04 68.42 89.53C67.7 88.23 67 86.92 65.99 85.82C63.31 84.52 60.69 83.11 58.13 81.57C54 79.08 50.12 76.2 46.47 73.04C47.68 75.39 48.6 77.9 50.17 80.05C52.48 83.21 55.69 85.61 58.62 88.15C61.41 90.57 63.94 93.11 65.92 96.25C67.47 98.69 69.58 102 67.8 104.88C65.79 108.13 62.86 104.69 61.47 102.78C59.01 99.41 57.01 95.7 54.62 92.27C50.08 85.76 45.2 78.9 44.01 70.85C42.53 69.5 41.1 68.1 39.7 66.68C37.82 64.77 36.04 62.79 34.34 60.75C34.75 61.95 35.06 63.18 35.38 64.32C36.37 67.88 37.44 71.42 38.39 74.99C39.34 78.54 40.54 82.01 41.42 85.58C41.76 86.97 42.54 89.9 40.73 90.71C38.65 91.64 36.6 90.05 35.53 88.37C33.96 85.89 33.87 82.58 33.32 79.78C32.59 76.05 31.78 72.34 31.62 68.53C31.53 66.38 31.83 64.29 32.03 62.16C32.2 60.32 31.86 58.7 31.35 57C28.19 52.86 25.32 48.5 22.69 44C23.07 45.35 23.36 46.7 23.59 47.98C24.2 51.39 23.7 54.91 23.14 58.29C22.61 61.46 21.74 64.57 20.36 67.47C19.41 69.46 17.96 72.62 15.3 72.26C12.95 71.95 12.26 69.58 12.37 67.57C12.55 64.38 14.96 61.77 16.24 58.98C17.61 55.99 18.29 52.47 19.08 49.29C19.56 47.37 19.94 45.41 20.09 43.43C20.22 41.62 19.68 40.03 19.51 38.31C18.34 36.11 17.22 33.88 16.13 31.63C14.52 28.29 13.01 24.9 11.58 21.47C11.45 23.03 11.32 24.55 11.42 26.12C11.67 29.99 12.88 33.84 13.78 37.59C14.51 40.66 15.27 44 14.87 47.16C14.68 48.71 14.25 50.92 12.85 51.86C11.16 52.99 9.59001 50.63 9.04001 49.34C7.99001 46.88 8.13003 43.84 8.07003 41.22C7.99003 37.15 8.21002 33.06 8.72002 29.02C8.98002 26.92 9.15002 24.83 9.39002 22.73C9.55002 21.3 10.01 19.93 10.42 18.55C9.40002 16.01 8.42002 13.47 7.50002 10.9C6.55002 8.27001 5.64002 5.63001 4.80002 2.96001C5.27002 7.01001 5.44001 11.12 6.01001 15.15C6.43001 18.15 6.75002 21.21 6.17002 24.22C5.90002 25.63 4.90002 29.13 2.74002 28.39C0.330024 27.56 0.810017 24.67 0.670017 22.68C0.460017 19.56 0.440018 16.39 0.530018 13.26C0.630019 9.95001 1.68002 6.97001 2.27002 3.75001C2.58002 2.06001 2.45002 0.340007 2.50002 -1.36999C2.54002 -2.53999 2.80002 -3.71999 2.69002 -4.87999C2.24002 -6.88999 1.84002 -8.91999 1.42002 -10.93C1.37002 -11.2 1.77003 -11.34 1.88003 -11.08L1.90001 -11.07Z" fill="#67B7CD"/>
</g>
<defs>
<clipPath id="clip0_25_31">
<rect width="112" height="138" fill="white" transform="matrix(4.37114e-08 -1 -1 -4.37114e-08 138 112)"/>
</clipPath>
</defs>
</svg>
