<svg width="138" height="112" viewBox="0 0 138 112" fill="none" xmlns="http://www.w3.org/2000/svg">
<g clip-path="url(#clip0_25_28)">
<path opacity="0.32" d="M136.1 -11.07C134.5 -7.04999 133.72 -2.76999 132.4 1.34001C131.97 2.68001 131.52 4.01001 131.07 5.34001C128.97 8.06001 126.51 10.67 123.84 12.8C120.88 15.17 117.52 16.58 114.16 18.25C112.63 19.01 111.21 19.96 109.72 20.78C108.19 21.63 106.56 22.27 105.06 23.16C103.43 24.12 101.27 26.72 103.33 28.34C105.15 29.77 108.94 28 110.6 27.19C113.75 25.65 115.99 23.25 118.65 21.07C121.42 18.8 124.05 16.59 126.38 13.86C127.44 12.62 128.39 11.28 129.23 9.88001C129.48 9.47001 129.7 9.04001 129.93 8.61001C129.33 10.32 128.73 12.02 128.09 13.71C126.83 17.07 125.47 20.4 124.03 23.69C120.78 25.17 117.82 27.62 114.87 29.6C111.39 31.94 108.06 34.6 104.8 37.25C102.05 39.48 99.47 42.11 97.54 45.11C96.94 46.04 94.01 50.95 96.18 51.77C97.71 52.35 99.63 50.66 100.73 49.8C103.55 47.59 105.99 44.84 108.38 42.18C111.16 39.09 113.69 35.81 116.24 32.53C118.29 29.9 120.59 27.21 123.36 25.27C121.6 29.24 119.72 33.16 117.71 37.02C115.97 40.37 114.1 43.63 112.1 46.81C112.07 46.82 112.03 46.83 111.99 46.86C109.11 48.92 106.14 51.02 102.89 52.47C99.57 53.95 95.98 54.75 92.51 55.81C90 56.59 77.57 60.35 81.58 64.72C83.05 66.33 86.59 65.52 88.37 65.1C91.54 64.34 94.49 62.96 97.25 61.24C100.07 59.48 102.62 57.26 105.12 55.09C106.5 53.89 107.83 52.64 109.11 51.33C105.82 56.1 102.21 60.62 98.23 64.83C95.37 66.12 92.03 66.31 89.06 67.34C85.54 68.56 81.72 69.01 78.01 68.79C74.96 68.61 71.94 68.27 68.92 68.96C66.73 69.46 63.6 70.94 63.41 73.49C63.24 75.89 66.13 76.58 67.97 76.76C69.49 76.91 71.03 76.59 72.5 76.22C74.38 75.74 76.33 75.68 78.21 75.21C81.75 74.34 85.28 73.02 88.6 71.53C90.2 70.81 91.75 70.01 93.3 69.19C93.8 68.92 94.28 68.62 94.76 68.31C92.27 70.71 89.65 72.99 86.89 75.14C84.26 77.18 81.51 79.04 78.67 80.74C77.25 81.02 75.58 80.95 74.21 80.92C72.3 80.88 70.39 80.95 68.48 80.92C64.76 80.87 61.25 80.45 57.64 79.59C54.61 78.86 51.31 78.12 48.21 78.94C46.33 79.44 44.42 80.76 43.81 82.68C43.09 84.91 46.41 85.76 47.89 86.03C51.2 86.62 54.78 85.93 58.08 85.61C61.79 85.24 65.5 84.89 69.2 84.5C70.44 84.37 71.68 84.2 72.9 83.93C67.7 86.56 62.27 88.72 56.71 90.5C55.64 90.14 54.57 89.9 53.53 89.35C52.24 88.67 51.03 87.91 49.61 87.5C46.23 86.51 42.69 86.73 39.23 86.25C35.95 85.79 32.7 84.87 29.39 84.74C27.23 84.65 24.23 85.71 23.47 87.96C22.84 89.86 25.58 90.87 26.91 91.25C29.86 92.09 33.34 92.28 36.38 91.94C39.77 91.55 43.16 91.09 46.57 91.02C48.59 90.98 50.69 91.47 52.76 91.7C51.55 92.05 50.32 92.39 49.1 92.7C44.89 93.78 40.62 94.64 36.33 95.38C35.51 95.28 34.69 95.13 34.01 95.09C32.03 94.98 30.04 95.04 28.05 95.12C23.84 95.29 19.68 95.05 15.47 94.99C11.76 94.94 7.90998 95.25 4.39998 96.5C2.53998 97.14 -0.510017 98.86 0.0699833 101.36C0.659983 103.85 3.85998 104.36 6.00998 104.27C9.34998 104.13 12.5 102.6 15.68 101.72C19.65 100.62 23.72 100.01 27.76 99.22C29.67 98.85 31.52 98.2 33.34 97.52C34.16 97.21 35.01 96.95 35.85 96.68C41.05 95.81 46.21 94.76 51.31 93.41C50.61 94.03 49.93 94.68 49.25 95.27C47.89 96.46 46.49 97.57 44.91 98.47C41.62 100.34 37.51 101.42 33.76 101.71C30.57 101.96 27.36 101.76 24.32 102.91C22.61 103.56 19.78 105.39 21.48 107.42C22.93 109.15 25.72 109.35 27.77 109.19C31.51 108.91 34.98 108.35 38.42 106.78C41.62 105.32 44.44 103.19 47.01 100.8C49.5 98.49 51.82 95.83 53.43 92.82C54.62 92.49 55.8 92.14 56.98 91.77C60.83 90.56 64.62 89.15 68.32 87.53C67.2 88.7 66.1 89.89 64.96 91.05C62.06 94.01 59.16 97.1 55.75 99.48C52.66 101.63 49.21 103.22 46.03 105.25C44.37 106.31 41.1 108.98 42.67 111.27C43.37 112.29 45.32 111.98 46.3 111.85C48.02 111.63 49.61 110.84 51.12 110.03C54.27 108.33 57 105.67 59.4 103.06C62.05 100.18 64.46 97.03 66.72 93.85C67.72 92.45 68.74 91.04 69.58 89.53C70.3 88.23 71 86.92 72.01 85.82C74.69 84.52 77.31 83.11 79.87 81.57C84 79.08 87.88 76.2 91.53 73.04C90.32 75.39 89.4 77.9 87.83 80.05C85.52 83.21 82.31 85.61 79.38 88.15C76.59 90.57 74.06 93.11 72.08 96.25C70.53 98.69 68.42 102 70.2 104.88C72.21 108.13 75.14 104.69 76.53 102.78C78.99 99.41 80.99 95.7 83.38 92.27C87.92 85.76 92.8 78.9 93.99 70.85C95.47 69.5 96.9 68.1 98.3 66.68C100.18 64.77 101.96 62.79 103.66 60.75C103.25 61.95 102.94 63.18 102.62 64.32C101.63 67.88 100.56 71.42 99.61 74.99C98.66 78.54 97.46 82.01 96.58 85.58C96.24 86.97 95.46 89.9 97.27 90.71C99.35 91.64 101.4 90.05 102.47 88.37C104.04 85.89 104.13 82.58 104.68 79.78C105.41 76.05 106.22 72.34 106.38 68.53C106.47 66.38 106.17 64.29 105.97 62.16C105.8 60.32 106.14 58.7 106.65 57C109.81 52.86 112.68 48.5 115.31 44C114.93 45.35 114.64 46.7 114.41 47.98C113.8 51.39 114.3 54.91 114.86 58.29C115.39 61.46 116.26 64.57 117.64 67.47C118.59 69.46 120.04 72.62 122.7 72.26C125.05 71.95 125.74 69.58 125.63 67.57C125.45 64.38 123.04 61.77 121.76 58.98C120.39 55.99 119.71 52.47 118.92 49.29C118.44 47.37 118.06 45.41 117.91 43.43C117.78 41.62 118.32 40.03 118.49 38.31C119.66 36.11 120.78 33.88 121.87 31.63C123.48 28.29 124.99 24.9 126.42 21.47C126.55 23.03 126.68 24.55 126.58 26.12C126.33 29.99 125.12 33.84 124.22 37.59C123.49 40.66 122.73 44 123.13 47.16C123.32 48.71 123.75 50.92 125.15 51.86C126.84 52.99 128.41 50.63 128.96 49.34C130.01 46.88 129.87 43.84 129.93 41.22C130.01 37.15 129.79 33.06 129.28 29.02C129.02 26.92 128.85 24.83 128.61 22.73C128.45 21.3 127.99 19.93 127.58 18.55C128.6 16.01 129.58 13.47 130.5 10.9C131.45 8.27001 132.36 5.63001 133.2 2.96001C132.73 7.01001 132.56 11.12 131.99 15.15C131.57 18.15 131.25 21.21 131.83 24.22C132.1 25.63 133.1 29.13 135.26 28.39C137.67 27.56 137.19 24.67 137.33 22.68C137.54 19.56 137.56 16.39 137.47 13.26C137.37 9.95001 136.32 6.97001 135.73 3.75001C135.42 2.06001 135.55 0.340007 135.5 -1.36999C135.46 -2.53999 135.2 -3.71999 135.31 -4.87999C135.76 -6.88999 136.16 -8.91999 136.58 -10.93C136.63 -11.2 136.23 -11.34 136.12 -11.08L136.1 -11.07Z" fill="#FFC7C7"/>
</g>
<defs>
<clipPath id="clip0_25_28">
<rect width="112" height="138" fill="white" transform="translate(0 112) rotate(-90)"/>
</clipPath>
</defs>
</svg>
