<svg width="84" height="25" viewBox="0 0 84 25" fill="none" xmlns="http://www.w3.org/2000/svg">
<g clip-path="url(#clip0_32_1747)">
<path d="M13.9222 12.6643C11.5968 11.957 9.36834 11.0075 7.2561 9.8157C5.06636 8.58518 3.03165 7.12212 0.977547 5.68813C0.938789 5.65906 0.977547 5.60093 1.0163 5.62999C4.72725 7.70347 8.26378 10.1354 12.2945 11.5404C16.5868 13.0325 21.1213 13.8173 25.6558 14.0402C30.2 14.263 34.6764 13.8561 39.1334 13.0131C43.5322 12.1799 47.8827 11.0462 52.33 10.4455C57.4071 9.74788 62.5036 9.11808 67.6291 8.94368C70.2258 8.85648 72.8225 8.91461 75.3998 9.14715C77.9965 9.38938 80.4769 10.0773 83.0446 10.4843C83.1899 10.5036 83.1899 10.7168 83.0446 10.7168C80.8451 10.6005 78.6844 10.1064 76.4947 9.87384C74.1887 9.63161 71.8827 9.52503 69.567 9.5444C64.858 9.57347 60.1685 10.1064 55.508 10.7168C51.0316 11.2981 46.6425 12.1605 42.2242 13.1003C37.8835 14.0208 33.5621 14.7281 29.1245 14.7765C23.9989 14.8347 18.854 14.1855 13.9416 12.6934L13.9222 12.6643Z" fill="url(#paint0_linear_32_1747)"/>
<path d="M13.7867 13.2457C11.471 12.4899 9.27154 11.5016 7.169 10.2614C5.00832 8.99212 3.08018 7.16088 1.05515 5.68813C1.0164 5.65906 1.05515 5.60093 1.0939 5.62999C4.75639 7.78098 7.69221 10.5521 11.6938 12.0345C15.957 13.6138 20.9954 14.67 25.5299 14.98C30.0644 15.2998 34.5021 14.8444 38.9784 14.0983C43.3967 13.3522 46.3906 12.6837 51.1577 11.802C56.196 10.8718 62.494 10.3486 67.6195 10.2808C70.2162 10.242 72.8129 10.3583 75.3902 10.6393C77.9869 10.93 80.448 11.676 83.0059 12.1314C83.1415 12.1605 83.1415 12.3736 82.9962 12.3639C80.7968 12.2089 78.6555 11.6663 76.4657 11.395C74.1694 11.1044 71.8634 10.9493 69.538 10.9203C64.8291 10.8524 60.1298 11.2981 55.45 11.8117C50.9639 12.3058 46.565 13.3425 42.1274 14.1855C37.777 15.0188 33.3491 15.6873 28.9017 15.6486C23.7762 15.6098 18.6409 14.8444 13.7673 13.2553L13.7867 13.2457Z" fill="url(#paint1_linear_32_1747)"/>
<path d="M82.1822 12.2863C81.2036 11.9762 80.0409 12.015 79.1204 11.5887C79.0623 11.5596 79.0914 11.4724 79.1398 11.453C79.7018 11.2689 80.351 11.5112 80.9226 11.5887C81.5815 11.6759 82.2113 11.8697 82.8605 11.9665C83.1608 12.0053 83.0349 11.5984 83.0349 11.3561C83.0349 10.862 82.7539 10.7845 82.3566 10.6876C81.8237 10.5519 81.2327 10.6391 80.8064 10.2613C80.787 10.2419 80.8064 10.2031 80.8257 10.1934C81.1745 10.0965 81.5718 10.1644 81.9303 10.1837C82.2307 10.1934 82.8411 10.2225 83.1027 10.3969C83.6162 10.7263 83.5193 11.608 83.4127 12.1216C83.2965 12.6835 82.5407 12.4026 82.1725 12.2863H82.1822Z" fill="url(#paint2_linear_32_1747)"/>
<path d="M8.80644 8.35224C7.43058 8.16815 6.05472 7.86778 4.73699 7.44146C4.13627 7.24768 3.55492 7.00545 2.98326 6.73416C2.29533 6.40472 1.51051 6.10436 0.91947 5.62959C0.851645 5.57146 0.890402 5.46488 0.987293 5.48426C1.56864 5.61021 2.12093 5.92996 2.66352 6.1625C3.303 6.44348 3.95217 6.71478 4.62072 6.92794C5.98689 7.37364 7.40151 7.63525 8.82581 7.80965C10.1629 7.97437 11.5097 8.01312 12.8468 7.96468C13.6316 7.93561 14.4068 7.86778 15.1819 7.77089C15.8214 7.69338 16.4609 7.54804 17.1003 7.5868C17.2941 7.59649 17.391 7.88716 17.1972 7.97437C16.0442 8.45882 14.6005 8.43944 13.37 8.50727C11.8488 8.58478 10.3179 8.54602 8.80644 8.34255V8.35224Z" fill="url(#paint3_linear_32_1747)"/>
<path d="M18.2534 7.42207C18.1855 7.38331 18.1855 7.26704 18.2534 7.23797C18.8735 6.97637 19.6001 6.93761 20.2396 6.72445C21.0341 6.46284 21.7608 6.04621 22.565 5.80398C22.7588 5.74585 22.9332 6.03652 22.7588 6.16248C22.1193 6.65663 21.3442 6.9473 20.5884 7.20891C19.9199 7.44145 18.9219 7.78057 18.2437 7.41238L18.2534 7.42207Z" fill="url(#paint4_linear_32_1747)"/>
<path d="M23.8633 5.38747C25.307 4.9127 26.741 4.38948 28.2235 4.03099C29.8512 3.63373 31.4693 3.24616 33.0874 2.82953C34.7055 2.4129 36.3139 1.97689 37.9417 1.6087C39.4338 1.27927 41.2069 0.81419 42.7378 0.998284C42.98 1.02735 43.0091 1.3374 42.7862 1.41492C42.0402 1.66683 41.2166 1.71528 40.4415 1.83155C39.6566 1.94782 38.8815 2.09316 38.1064 2.25787C36.4689 2.60668 34.8605 3.06207 33.2424 3.46902C31.6243 3.88565 29.9966 4.26352 28.3688 4.63171C26.9057 4.96114 25.4136 5.65876 23.8924 5.58125C23.7761 5.58125 23.7664 5.41653 23.873 5.37778L23.8633 5.38747Z" fill="url(#paint5_linear_32_1747)"/>
<path d="M62.4261 9.62162C60.5464 7.1412 57.8819 5.33902 55.1011 4.0213C53.5702 3.29461 51.9715 2.71327 50.3341 2.24819C48.6675 1.78311 46.9719 1.56995 45.286 1.20176C45.1794 1.18238 45.1891 1.00798 45.286 0.988599C46.9525 0.756059 48.6772 1.10487 50.2856 1.5215C51.9909 1.95751 53.6574 2.57762 55.2561 3.32368C58.1823 4.68985 61.0599 6.56954 62.9299 9.25344C63.1334 9.54411 62.6393 9.9123 62.4164 9.62162H62.4261Z" fill="url(#paint6_linear_32_1747)"/>
<path d="M9.59119 15.5613C8.70948 14.9702 8.01186 14.166 7.29486 13.3812C6.53911 12.5479 5.81242 11.6953 5.07605 10.8427C4.32998 9.96094 3.57423 9.08892 2.82817 8.2072C2.13055 7.37394 1.2779 6.62787 0.861272 5.61052C0.812826 5.48456 0.967854 5.39735 1.04537 5.50393C1.65578 6.36627 2.46967 7.09295 3.18667 7.86808C3.9618 8.72073 4.72724 9.59275 5.49268 10.4551C6.18061 11.2302 6.86854 12.0053 7.57585 12.7611C8.34129 13.5847 9.18424 14.3307 9.88186 15.2028C10.0369 15.3965 9.82373 15.6969 9.60088 15.5516L9.59119 15.5613Z" fill="url(#paint7_linear_32_1747)"/>
<path d="M30.636 24.5914C29.5315 24.3976 28.4172 24.3104 27.3127 24.1263C25.0745 23.7484 22.8653 23.1864 20.7144 22.4791C17.4201 21.3939 13.5444 19.863 11.4322 16.966C11.3837 16.8982 11.4903 16.84 11.5484 16.8885C14.3583 19.2333 17.7204 20.7835 21.1891 21.8784C23.1754 22.5082 25.2101 23.0023 27.2642 23.3705C28.2622 23.5449 29.2602 23.6612 30.2582 23.8162C31.2368 23.9712 32.2154 24.2135 33.2037 24.3394C33.4168 24.3685 33.4846 24.6979 33.2424 24.7367C32.351 24.882 31.5274 24.7367 30.636 24.5914Z" fill="url(#paint8_linear_32_1747)"/>
<path d="M36.0038 24.7562C35.8778 24.7369 35.8294 24.5237 35.9747 24.514C38.7846 24.2137 41.5557 24.0199 44.2977 23.3223C47.1657 22.5859 49.9174 21.4426 52.5238 20.0376C55.1495 18.623 57.5524 16.879 59.8584 14.9993C61.0502 14.0304 62.271 13.1002 63.4047 12.0538C64.2864 11.2302 65.1875 10.4648 66.4471 10.4551C66.7571 10.4551 66.7862 10.9105 66.5052 10.9783C65.1778 11.3271 64.2864 12.2573 63.2981 13.1487C62.1063 14.2145 60.8274 15.164 59.5872 16.1717C57.378 17.9835 54.9751 19.5629 52.4559 20.9C49.9271 22.2371 47.2432 23.2835 44.4624 24.0102C41.7591 24.7175 38.7846 25.2116 35.9941 24.7659L36.0038 24.7562Z" fill="url(#paint9_linear_32_1747)"/>
<path d="M51.3417 10.7555C50.7701 9.06957 50.0918 7.46117 49.152 5.89153C48.5416 4.87417 47.8536 3.90526 47.0301 3.05261C46.6231 2.62629 46.2065 2.20966 45.7511 1.84147C45.4798 1.62831 45.286 1.41515 45.1794 1.08572C45.1407 0.969447 45.286 0.882244 45.3829 0.940379C47.2917 2.03525 48.6772 3.97308 49.8302 5.79464C50.7604 7.26739 51.5452 8.93392 51.9521 10.6586C51.7487 10.6586 51.5355 10.6973 51.3417 10.7458V10.7555Z" fill="url(#paint10_linear_32_1747)"/>
<path d="M51.0608 10.8328C50.6926 10.1642 50.3826 9.44721 49.9853 8.80773C49.3458 7.77099 48.5804 6.83114 47.7762 5.92036C46.9817 5.02896 46.1097 4.20539 45.2183 3.40119C44.7823 3.00393 44.3366 2.60668 43.9005 2.21911C43.513 1.8703 42.9413 1.62808 42.6313 1.21144C42.5634 1.11455 42.6313 0.959525 42.7669 0.998281C43.7358 1.27927 44.4625 2.04471 45.2086 2.69388C46.1872 3.54653 47.1367 4.39917 48.0281 5.3487C48.842 6.21104 49.5784 7.13151 50.2469 8.10042C50.7605 8.84648 51.3903 9.75726 51.7294 10.6777C51.4968 10.7068 51.2643 10.7649 51.0608 10.8328Z" fill="url(#paint11_linear_32_1747)"/>
<path d="M31.4596 14.3986C31.2367 13.9044 31.0139 13.4103 30.7426 12.9452C30.1709 11.986 29.4539 11.1236 28.6788 10.3291C27.8843 9.52491 27.0317 8.77885 26.1984 8.03279C25.3651 7.29641 24.3478 6.53097 23.8052 5.53299C23.747 5.42641 23.873 5.30045 23.9796 5.36827C24.9388 5.97869 25.7818 6.87009 26.6538 7.59678C27.5839 8.37191 28.485 9.19548 29.3377 10.0578C30.1031 10.8329 30.762 11.6953 31.3336 12.6157C31.6534 13.139 32.0022 13.7203 32.2638 14.3307C32.0022 14.3404 31.7406 14.3695 31.4693 14.3889L31.4596 14.3986Z" fill="url(#paint12_linear_32_1747)"/>
<path d="M31.014 14.4373C30.6458 13.9238 30.2679 13.42 29.8416 12.9549C29.0083 12.0441 28.1169 11.1915 27.1965 10.3582C26.2954 9.554 25.3458 8.78856 24.4447 7.97467C23.8343 7.42239 22.8654 6.74415 22.6329 5.92057C22.5941 5.76554 22.7782 5.68803 22.8848 5.78492C23.6502 6.49223 24.3769 7.21891 25.1908 7.88747C26.0822 8.61415 26.9736 9.35052 27.8456 10.1063C29.2893 11.3562 30.6652 12.732 31.6244 14.3889C31.4209 14.4083 31.2271 14.4276 31.0237 14.4373H31.014Z" fill="url(#paint13_linear_32_1747)"/>
<path d="M25.9078 14.573C25.8303 14.5536 25.7528 14.5342 25.6753 14.5051C25.4137 14.0982 25.1714 13.6816 24.9001 13.294C24.2897 12.422 23.5921 11.6178 22.8557 10.8523C22.1775 10.145 21.4314 9.50554 20.6272 8.92419C19.8908 8.39129 18.9607 8.05217 18.3212 7.403C18.2631 7.34486 18.3212 7.23828 18.3987 7.23828C19.261 7.26735 20.0556 7.8487 20.7435 8.30409C21.6058 8.87575 22.3906 9.55399 23.127 10.2613C23.9118 11.017 24.6095 11.86 25.2489 12.7417C25.6656 13.3037 26.1307 13.9141 26.4601 14.5536C26.2663 14.5342 26.0725 14.5245 25.8884 14.5536L25.9078 14.573Z" fill="url(#paint14_linear_32_1747)"/>
<path d="M25.9077 14.5731C25.743 14.5343 25.5783 14.4762 25.433 14.418C25.1326 14.0402 24.8419 13.6526 24.5319 13.3135C23.8536 12.5771 23.0979 11.9279 22.3131 11.3175C20.6271 10.0095 18.6602 9.09871 16.9453 7.8585C16.8678 7.80036 16.8678 7.64534 16.984 7.62596C17.8754 7.5 18.8928 8.38171 19.6098 8.81772C20.6465 9.43783 21.6736 10.0676 22.6425 10.7943C23.4854 11.4241 24.2606 12.1314 24.9873 12.8872C25.462 13.391 25.9949 13.953 26.3728 14.5731C26.2178 14.5634 26.0628 14.5634 25.9077 14.5925V14.5731Z" fill="url(#paint15_linear_32_1747)"/>
<path d="M9.5816 15.251C10.2889 14.5921 11.4032 14.4565 12.3139 14.2336C13.1666 14.0204 13.932 13.6523 14.7265 13.3325C14.93 13.4488 15.1335 13.5457 15.3563 13.6232C14.6684 14.1658 13.7867 14.4758 12.9534 14.7084C12.3818 14.8731 11.8004 14.9894 11.2288 15.1347C10.7055 15.2703 10.2114 15.4448 9.6688 15.4835C9.55253 15.4835 9.50408 15.3285 9.5816 15.2607V15.251Z" fill="url(#paint16_linear_32_1747)"/>
<path d="M11.3449 16.7336C11.7034 16.4526 12.1201 16.3073 12.527 16.0941C12.9727 15.8616 13.399 15.5612 13.7963 15.2511C14.3873 14.7958 14.678 14.1175 15.0171 13.478C15.2303 13.5749 15.4531 13.6524 15.6857 13.7203C15.0365 15.3965 13.1859 16.7239 11.4806 16.9758C11.3546 16.9952 11.219 16.8305 11.3449 16.7239V16.7336Z" fill="url(#paint17_linear_32_1747)"/>
<path d="M15.6469 20.0666C14.6296 19.7469 13.7285 19.088 12.8855 18.4679C12.2557 18.0029 11.3159 17.5378 10.9089 16.8499C10.8121 16.6948 10.9477 16.5301 11.1124 16.5204C11.6453 16.4817 12.1395 16.2104 12.6627 16.3363C12.7208 16.3557 12.7305 16.4429 12.6724 16.472C12.3236 16.6367 11.936 16.7917 11.5387 16.8886C11.7519 17.0533 12.0232 17.189 12.2267 17.3343C12.6142 17.6153 12.9921 17.8963 13.3797 18.1773C14.1645 18.7586 15.0365 19.2431 15.7535 19.9019C15.831 19.9794 15.7438 20.1054 15.6469 20.0763V20.0666Z" fill="url(#paint18_linear_32_1747)"/>
<path d="M32.9324 24.3882C33.3103 24.0782 33.7657 23.8747 34.1726 23.6034C34.754 23.2255 35.2869 22.7992 35.8198 22.3535C36.8371 21.4912 37.7964 20.5707 38.6781 19.563C40.1702 17.8383 41.1876 15.8424 42.2921 13.8755C42.5053 13.8755 42.7281 13.8755 42.9413 13.8755C42.0693 16.0265 40.7322 18.0515 39.2691 19.8246C38.368 20.9195 37.3216 21.8884 36.2461 22.8089C35.3934 23.5356 34.2695 24.5723 33.1262 24.7273C32.9518 24.7564 32.7774 24.5335 32.9421 24.3882H32.9324Z" fill="url(#paint19_linear_32_1747)"/>
<path d="M35.8004 24.5624C36.217 24.2136 36.6918 23.9423 37.1084 23.5741C37.5638 23.1768 37.961 22.7118 38.3292 22.237C39.0656 21.2971 39.6469 20.241 40.238 19.2043C40.9065 18.0319 41.5751 16.8498 42.0402 15.5709C42.2339 15.038 42.389 14.4469 42.5634 13.8753C42.825 13.8753 43.0866 13.8753 43.3385 13.8462C43.1253 14.6019 42.825 15.3383 42.5731 16.0166C42.0886 17.3246 41.3522 18.5357 40.6643 19.7469C40.0636 20.803 39.4435 21.8688 38.6683 22.8086C38.0192 23.5935 37.0309 24.8531 35.9166 24.8337C35.781 24.8337 35.7035 24.6496 35.81 24.5527L35.8004 24.5624Z" fill="url(#paint20_linear_32_1747)"/>
</g>
<defs>
<linearGradient id="paint0_linear_32_1747" x1="83.1415" y1="10.1936" x2="0.958179" y2="10.1936" gradientUnits="userSpaceOnUse">
<stop stop-color="#A1732F"/>
<stop offset="0.1" stop-color="#A97A34"/>
<stop offset="0.25" stop-color="#BF9044"/>
<stop offset="0.44" stop-color="#E4B35D"/>
<stop offset="0.55" stop-color="#FDCB6E"/>
<stop offset="0.6" stop-color="#EDBB63"/>
<stop offset="0.71" stop-color="#CD9A4E"/>
<stop offset="0.81" stop-color="#B78340"/>
<stop offset="0.91" stop-color="#A97537"/>
<stop offset="1" stop-color="#A57134"/>
</linearGradient>
<linearGradient id="paint1_linear_32_1747" x1="83.1222" y1="10.6296" x2="1.04546" y2="10.6296" gradientUnits="userSpaceOnUse">
<stop stop-color="#A1732F"/>
<stop offset="0.1" stop-color="#A97A34"/>
<stop offset="0.25" stop-color="#BF9044"/>
<stop offset="0.44" stop-color="#E4B35D"/>
<stop offset="0.55" stop-color="#FDCB6E"/>
<stop offset="0.6" stop-color="#EDBB63"/>
<stop offset="0.71" stop-color="#CD9A4E"/>
<stop offset="0.81" stop-color="#B78340"/>
<stop offset="0.91" stop-color="#A97537"/>
<stop offset="1" stop-color="#A57134"/>
</linearGradient>
<linearGradient id="paint2_linear_32_1747" x1="83.4999" y1="11.298" x2="79.0817" y2="11.298" gradientUnits="userSpaceOnUse">
<stop stop-color="#A1732F"/>
<stop offset="0.1" stop-color="#A97A34"/>
<stop offset="0.25" stop-color="#BF9044"/>
<stop offset="0.44" stop-color="#E4B35D"/>
<stop offset="0.55" stop-color="#FDCB6E"/>
<stop offset="0.6" stop-color="#EDBB63"/>
<stop offset="0.71" stop-color="#CD9A4E"/>
<stop offset="0.81" stop-color="#B78340"/>
<stop offset="0.91" stop-color="#A97537"/>
<stop offset="1" stop-color="#A57134"/>
</linearGradient>
<linearGradient id="paint3_linear_32_1747" x1="17.3038" y1="7.01514" x2="0.880713" y2="7.01514" gradientUnits="userSpaceOnUse">
<stop stop-color="#A1732F"/>
<stop offset="0.1" stop-color="#A97A34"/>
<stop offset="0.25" stop-color="#BF9044"/>
<stop offset="0.44" stop-color="#E4B35D"/>
<stop offset="0.55" stop-color="#FDCB6E"/>
<stop offset="0.6" stop-color="#EDBB63"/>
<stop offset="0.71" stop-color="#CD9A4E"/>
<stop offset="0.81" stop-color="#B78340"/>
<stop offset="0.91" stop-color="#A97537"/>
<stop offset="1" stop-color="#A57134"/>
</linearGradient>
<linearGradient id="paint4_linear_32_1747" x1="22.8363" y1="6.69538" x2="18.2049" y2="6.69538" gradientUnits="userSpaceOnUse">
<stop stop-color="#A1732F"/>
<stop offset="0.1" stop-color="#A97A34"/>
<stop offset="0.25" stop-color="#BF9044"/>
<stop offset="0.44" stop-color="#E4B35D"/>
<stop offset="0.55" stop-color="#FDCB6E"/>
<stop offset="0.6" stop-color="#EDBB63"/>
<stop offset="0.71" stop-color="#CD9A4E"/>
<stop offset="0.81" stop-color="#B78340"/>
<stop offset="0.91" stop-color="#A97537"/>
<stop offset="1" stop-color="#A57134"/>
</linearGradient>
<linearGradient id="paint5_linear_32_1747" x1="42.9413" y1="3.27523" x2="23.7955" y2="3.27523" gradientUnits="userSpaceOnUse">
<stop stop-color="#A1732F"/>
<stop offset="0.1" stop-color="#A97A34"/>
<stop offset="0.25" stop-color="#BF9044"/>
<stop offset="0.44" stop-color="#E4B35D"/>
<stop offset="0.55" stop-color="#FDCB6E"/>
<stop offset="0.6" stop-color="#EDBB63"/>
<stop offset="0.71" stop-color="#CD9A4E"/>
<stop offset="0.81" stop-color="#B78340"/>
<stop offset="0.91" stop-color="#A97537"/>
<stop offset="1" stop-color="#A57134"/>
</linearGradient>
<linearGradient id="paint6_linear_32_1747" x1="62.9881" y1="5.31964" x2="45.2085" y2="5.31964" gradientUnits="userSpaceOnUse">
<stop stop-color="#A1732F"/>
<stop offset="0.1" stop-color="#A97A34"/>
<stop offset="0.25" stop-color="#BF9044"/>
<stop offset="0.44" stop-color="#E4B35D"/>
<stop offset="0.55" stop-color="#FDCB6E"/>
<stop offset="0.6" stop-color="#EDBB63"/>
<stop offset="0.71" stop-color="#CD9A4E"/>
<stop offset="0.81" stop-color="#B78340"/>
<stop offset="0.91" stop-color="#A97537"/>
<stop offset="1" stop-color="#A57134"/>
</linearGradient>
<linearGradient id="paint7_linear_32_1747" x1="9.93031" y1="10.5326" x2="0.861273" y2="10.5326" gradientUnits="userSpaceOnUse">
<stop stop-color="#A1732F"/>
<stop offset="0.1" stop-color="#A97A34"/>
<stop offset="0.25" stop-color="#BF9044"/>
<stop offset="0.44" stop-color="#E4B35D"/>
<stop offset="0.55" stop-color="#FDCB6E"/>
<stop offset="0.6" stop-color="#EDBB63"/>
<stop offset="0.71" stop-color="#CD9A4E"/>
<stop offset="0.81" stop-color="#B78340"/>
<stop offset="0.91" stop-color="#A97537"/>
<stop offset="1" stop-color="#A57134"/>
</linearGradient>
<linearGradient id="paint8_linear_32_1747" x1="33.3878" y1="20.8417" x2="11.4128" y2="20.8417" gradientUnits="userSpaceOnUse">
<stop stop-color="#A1732F"/>
<stop offset="0.1" stop-color="#A97A34"/>
<stop offset="0.25" stop-color="#BF9044"/>
<stop offset="0.44" stop-color="#E4B35D"/>
<stop offset="0.55" stop-color="#FDCB6E"/>
<stop offset="0.6" stop-color="#EDBB63"/>
<stop offset="0.71" stop-color="#CD9A4E"/>
<stop offset="0.81" stop-color="#B78340"/>
<stop offset="0.91" stop-color="#A97537"/>
<stop offset="1" stop-color="#A57134"/>
</linearGradient>
<linearGradient id="paint9_linear_32_1747" x1="66.7087" y1="17.6832" x2="35.8875" y2="17.6832" gradientUnits="userSpaceOnUse">
<stop stop-color="#A1732F"/>
<stop offset="0.1" stop-color="#A97A34"/>
<stop offset="0.25" stop-color="#BF9044"/>
<stop offset="0.44" stop-color="#E4B35D"/>
<stop offset="0.55" stop-color="#FDCB6E"/>
<stop offset="0.6" stop-color="#EDBB63"/>
<stop offset="0.71" stop-color="#CD9A4E"/>
<stop offset="0.81" stop-color="#B78340"/>
<stop offset="0.91" stop-color="#A97537"/>
<stop offset="1" stop-color="#A57134"/>
</linearGradient>
<linearGradient id="paint10_linear_32_1747" x1="51.9521" y1="5.84308" x2="45.1794" y2="5.84308" gradientUnits="userSpaceOnUse">
<stop stop-color="#A1732F"/>
<stop offset="0.1" stop-color="#A97A34"/>
<stop offset="0.25" stop-color="#BF9044"/>
<stop offset="0.44" stop-color="#E4B35D"/>
<stop offset="0.55" stop-color="#FDCB6E"/>
<stop offset="0.6" stop-color="#EDBB63"/>
<stop offset="0.71" stop-color="#CD9A4E"/>
<stop offset="0.81" stop-color="#B78340"/>
<stop offset="0.91" stop-color="#A97537"/>
<stop offset="1" stop-color="#A57134"/>
</linearGradient>
<linearGradient id="paint11_linear_32_1747" x1="51.7294" y1="5.92036" x2="42.6022" y2="5.92036" gradientUnits="userSpaceOnUse">
<stop stop-color="#A1732F"/>
<stop offset="0.1" stop-color="#A97A34"/>
<stop offset="0.25" stop-color="#BF9044"/>
<stop offset="0.44" stop-color="#E4B35D"/>
<stop offset="0.55" stop-color="#FDCB6E"/>
<stop offset="0.6" stop-color="#EDBB63"/>
<stop offset="0.71" stop-color="#CD9A4E"/>
<stop offset="0.81" stop-color="#B78340"/>
<stop offset="0.91" stop-color="#A97537"/>
<stop offset="1" stop-color="#A57134"/>
</linearGradient>
<linearGradient id="paint12_linear_32_1747" x1="32.2444" y1="9.88341" x2="23.7761" y2="9.88341" gradientUnits="userSpaceOnUse">
<stop stop-color="#A1732F"/>
<stop offset="0.1" stop-color="#A97A34"/>
<stop offset="0.25" stop-color="#BF9044"/>
<stop offset="0.44" stop-color="#E4B35D"/>
<stop offset="0.55" stop-color="#FDCB6E"/>
<stop offset="0.6" stop-color="#EDBB63"/>
<stop offset="0.71" stop-color="#CD9A4E"/>
<stop offset="0.81" stop-color="#B78340"/>
<stop offset="0.91" stop-color="#A97537"/>
<stop offset="1" stop-color="#A57134"/>
</linearGradient>
<linearGradient id="paint13_linear_32_1747" x1="31.6147" y1="10.0869" x2="22.6232" y2="10.0869" gradientUnits="userSpaceOnUse">
<stop stop-color="#A1732F"/>
<stop offset="0.1" stop-color="#A97A34"/>
<stop offset="0.25" stop-color="#BF9044"/>
<stop offset="0.44" stop-color="#E4B35D"/>
<stop offset="0.55" stop-color="#FDCB6E"/>
<stop offset="0.6" stop-color="#EDBB63"/>
<stop offset="0.71" stop-color="#CD9A4E"/>
<stop offset="0.81" stop-color="#B78340"/>
<stop offset="0.91" stop-color="#A97537"/>
<stop offset="1" stop-color="#A57134"/>
</linearGradient>
<linearGradient id="paint14_linear_32_1747" x1="26.4795" y1="10.9105" x2="18.3115" y2="10.9105" gradientUnits="userSpaceOnUse">
<stop stop-color="#A1732F"/>
<stop offset="0.1" stop-color="#A97A34"/>
<stop offset="0.25" stop-color="#BF9044"/>
<stop offset="0.44" stop-color="#E4B35D"/>
<stop offset="0.55" stop-color="#FDCB6E"/>
<stop offset="0.6" stop-color="#EDBB63"/>
<stop offset="0.71" stop-color="#CD9A4E"/>
<stop offset="0.81" stop-color="#B78340"/>
<stop offset="0.91" stop-color="#A97537"/>
<stop offset="1" stop-color="#A57134"/>
</linearGradient>
<linearGradient id="paint15_linear_32_1747" x1="26.3728" y1="11.085" x2="16.8871" y2="11.085" gradientUnits="userSpaceOnUse">
<stop stop-color="#A1732F"/>
<stop offset="0.1" stop-color="#A97A34"/>
<stop offset="0.25" stop-color="#BF9044"/>
<stop offset="0.44" stop-color="#E4B35D"/>
<stop offset="0.55" stop-color="#FDCB6E"/>
<stop offset="0.6" stop-color="#EDBB63"/>
<stop offset="0.71" stop-color="#CD9A4E"/>
<stop offset="0.81" stop-color="#B78340"/>
<stop offset="0.91" stop-color="#A97537"/>
<stop offset="1" stop-color="#A57134"/>
</linearGradient>
<linearGradient id="paint16_linear_32_1747" x1="15.3563" y1="14.3983" x2="9.54284" y2="14.3983" gradientUnits="userSpaceOnUse">
<stop stop-color="#A1732F"/>
<stop offset="0.1" stop-color="#A97A34"/>
<stop offset="0.25" stop-color="#BF9044"/>
<stop offset="0.44" stop-color="#E4B35D"/>
<stop offset="0.55" stop-color="#FDCB6E"/>
<stop offset="0.6" stop-color="#EDBB63"/>
<stop offset="0.71" stop-color="#CD9A4E"/>
<stop offset="0.81" stop-color="#B78340"/>
<stop offset="0.91" stop-color="#A97537"/>
<stop offset="1" stop-color="#A57134"/>
</linearGradient>
<linearGradient id="paint17_linear_32_1747" x1="15.6857" y1="15.2318" x2="11.2965" y2="15.2318" gradientUnits="userSpaceOnUse">
<stop stop-color="#A1732F"/>
<stop offset="0.1" stop-color="#A97A34"/>
<stop offset="0.25" stop-color="#BF9044"/>
<stop offset="0.44" stop-color="#E4B35D"/>
<stop offset="0.55" stop-color="#FDCB6E"/>
<stop offset="0.6" stop-color="#EDBB63"/>
<stop offset="0.71" stop-color="#CD9A4E"/>
<stop offset="0.81" stop-color="#B78340"/>
<stop offset="0.91" stop-color="#A97537"/>
<stop offset="1" stop-color="#A57134"/>
</linearGradient>
<linearGradient id="paint18_linear_32_1747" x1="15.7826" y1="18.187" x2="10.8702" y2="18.187" gradientUnits="userSpaceOnUse">
<stop stop-color="#A1732F"/>
<stop offset="0.1" stop-color="#A97A34"/>
<stop offset="0.25" stop-color="#BF9044"/>
<stop offset="0.44" stop-color="#E4B35D"/>
<stop offset="0.55" stop-color="#FDCB6E"/>
<stop offset="0.6" stop-color="#EDBB63"/>
<stop offset="0.71" stop-color="#CD9A4E"/>
<stop offset="0.81" stop-color="#B78340"/>
<stop offset="0.91" stop-color="#A97537"/>
<stop offset="1" stop-color="#A57134"/>
</linearGradient>
<linearGradient id="paint19_linear_32_1747" x1="42.9316" y1="19.3014" x2="32.8646" y2="19.3014" gradientUnits="userSpaceOnUse">
<stop stop-color="#A1732F"/>
<stop offset="0.1" stop-color="#A97A34"/>
<stop offset="0.25" stop-color="#BF9044"/>
<stop offset="0.44" stop-color="#E4B35D"/>
<stop offset="0.55" stop-color="#FDCB6E"/>
<stop offset="0.6" stop-color="#EDBB63"/>
<stop offset="0.71" stop-color="#CD9A4E"/>
<stop offset="0.81" stop-color="#B78340"/>
<stop offset="0.91" stop-color="#A97537"/>
<stop offset="1" stop-color="#A57134"/>
</linearGradient>
<linearGradient id="paint20_linear_32_1747" x1="43.3385" y1="19.3496" x2="35.7519" y2="19.3496" gradientUnits="userSpaceOnUse">
<stop stop-color="#A1732F"/>
<stop offset="0.1" stop-color="#A97A34"/>
<stop offset="0.25" stop-color="#BF9044"/>
<stop offset="0.44" stop-color="#E4B35D"/>
<stop offset="0.55" stop-color="#FDCB6E"/>
<stop offset="0.6" stop-color="#EDBB63"/>
<stop offset="0.71" stop-color="#CD9A4E"/>
<stop offset="0.81" stop-color="#B78340"/>
<stop offset="0.91" stop-color="#A97537"/>
<stop offset="1" stop-color="#A57134"/>
</linearGradient>
<clipPath id="clip0_32_1747">
<rect width="82.6387" height="24" fill="white" transform="matrix(-1 0 0 1 83.5 0.920898)"/>
</clipPath>
</defs>
</svg>
