<svg width="112" height="56" viewBox="0 0 112 56" fill="none" xmlns="http://www.w3.org/2000/svg">
<g clip-path="url(#clip0_27_1107)">
<path d="M14.6618 17.239C11.8564 14.9482 9.33323 12.4001 7.09223 9.56151C4.77654 6.63991 2.80115 3.46932 0.792549 0.331922C0.751045 0.273822 0.834038 0.215722 0.875542 0.273822C4.80144 5.22061 8.29573 10.5575 13.0516 14.7656C18.1146 19.2476 23.908 22.8747 30.0168 25.7382C36.1339 28.61 42.5332 30.5771 49.14 31.93C55.6637 33.2663 62.2788 34.171 68.7362 35.8393C76.1066 37.7483 83.4853 39.7568 90.6316 42.4045C94.2504 43.7491 97.7862 45.2929 101.206 47.0774C104.642 48.8702 107.663 51.2274 110.958 53.236C111.141 53.3439 111.025 53.6427 110.817 53.5431C107.846 52.1404 105.173 50.248 102.285 48.6876C99.2553 47.0525 96.1345 45.6 92.939 44.3135C86.4484 41.699 79.6922 39.7817 72.936 37.989C66.4454 36.2626 59.9216 34.9678 53.3232 33.756C46.8409 32.5691 40.4914 31.1 34.3494 28.6681C27.2612 25.8627 20.5548 22.053 14.6452 17.2224L14.6618 17.239Z" fill="url(#paint0_linear_27_1107)"/>
<path d="M14.1554 17.9611C11.3998 15.6122 8.93475 13.0143 6.74355 10.1259C4.48596 7.15451 2.85916 3.55232 0.916962 0.373425C0.883766 0.315326 0.966766 0.257226 1.00826 0.315326C4.83456 5.33682 7.29966 10.8065 11.9725 15.1142C16.9442 19.6958 23.2854 23.9869 29.3361 26.9832C35.3951 29.9712 41.7529 31.8719 48.3348 33.3576C54.8337 34.8267 59.3323 35.5986 66.3872 37.0677C73.8406 38.6281 82.8046 41.4749 89.8928 44.272C93.4784 45.6913 96.9893 47.3015 100.376 49.1524C103.779 51.0199 106.75 53.4352 110.004 55.5019C110.178 55.6181 110.062 55.9086 109.863 55.809C106.924 54.3482 104.285 52.3977 101.43 50.7792C98.4335 49.086 95.3459 47.5671 92.1753 46.2225C85.7345 43.4752 79.0281 41.4252 72.3051 39.4913C65.8477 37.6321 59.2161 36.5863 52.6425 35.25C46.1851 33.9303 39.7194 32.3533 33.6272 29.7969C26.5971 26.8421 19.9737 22.8996 14.1554 17.9611Z" fill="url(#paint1_linear_27_1107)"/>
<path d="M108.775 55.2529C107.597 54.2735 105.987 53.6759 104.949 52.5637C104.883 52.489 104.974 52.3894 105.057 52.3977C105.937 52.4641 106.684 53.1613 107.431 53.5846C108.294 54.0743 109.041 54.7051 109.888 55.1948C110.269 55.4189 110.336 54.7881 110.477 54.4561C110.751 53.7838 110.41 53.5099 109.929 53.153C109.273 52.6716 108.418 52.4558 108.037 51.6922C108.02 51.6507 108.062 51.6092 108.103 51.6175C108.626 51.6839 109.149 52.0076 109.63 52.2234C110.045 52.4143 110.859 52.7878 111.124 53.1779C111.639 53.9249 111.016 55.0786 110.576 55.726C110.103 56.4398 109.215 55.6181 108.775 55.2612V55.2529Z" fill="url(#paint2_linear_27_1107)"/>
<path d="M10.072 8.41628C8.28747 7.38708 6.56937 6.19189 4.98407 4.87219C4.26197 4.27459 3.59798 3.60229 2.96718 2.91339C2.21188 2.07509 1.29889 1.22019 0.751087 0.224196C0.684689 0.0996965 0.809181 -0.0165033 0.925381 0.0581966C1.65578 0.556196 2.23679 1.30319 2.84269 1.94229C3.56479 2.69759 4.31178 3.42799 5.10858 4.10859C6.73538 5.48639 8.52818 6.65668 10.3874 7.70248C12.1304 8.68188 13.9647 9.49528 15.8322 10.1925C16.9278 10.5992 18.04 10.9312 19.1522 11.2466C20.0735 11.5039 21.0362 11.6616 21.8994 12.0766C22.1567 12.2011 22.1318 12.6576 21.8081 12.6576C19.9573 12.6659 17.9736 11.8359 16.2389 11.23C14.0975 10.483 12.0225 9.55338 10.0554 8.43288L10.072 8.41628Z" fill="url(#paint3_linear_27_1107)"/>
<path d="M23.5843 12.475C23.5179 12.392 23.5843 12.226 23.6922 12.226C24.6965 12.2177 25.7174 12.5746 26.7217 12.641C27.9584 12.7323 29.2034 12.5663 30.4318 12.6908C30.7389 12.724 30.8053 13.2137 30.4982 13.2967C29.3445 13.6121 28.1161 13.5789 26.9209 13.5125C25.8668 13.4544 24.3064 13.3548 23.5843 12.475Z" fill="url(#paint4_linear_27_1107)"/>
<path d="M32.457 12.8484C34.7063 13.0144 36.9805 13.1057 39.2132 13.446C41.67 13.8195 44.1268 14.193 46.5836 14.5416C49.0404 14.8902 51.5055 15.189 53.954 15.604C56.195 15.9858 58.8925 16.351 60.8928 17.4715C61.2082 17.6458 61.0754 18.094 60.7185 18.0691C59.5482 18.0027 58.3945 17.6043 57.2574 17.3221C56.1203 17.0399 54.9666 16.7992 53.8129 16.5917C51.3727 16.1518 48.8993 15.8613 46.4425 15.521C43.9774 15.1724 41.5289 14.7823 39.0804 14.3673C36.8726 13.9938 34.4407 14.11 32.3823 13.1472C32.2163 13.0725 32.2993 12.8401 32.4653 12.8567L32.457 12.8484Z" fill="url(#paint5_linear_27_1107)"/>
<path d="M83.1034 40.4374C81.9248 35.9637 79.2771 31.988 76.1895 28.5933C74.4963 26.7258 72.6205 25.0243 70.6285 23.4722C68.6033 21.8953 66.3872 20.6337 64.2707 19.1812C64.1462 19.0899 64.2458 18.8575 64.3952 18.899C66.8105 19.5215 68.9934 20.974 70.9771 22.4513C73.077 24.0117 75.0275 25.8045 76.7954 27.7301C80.049 31.2576 82.954 35.474 84.0081 40.2216C84.1243 40.7445 83.2362 40.9603 83.0951 40.4457L83.1034 40.4374Z" fill="url(#paint6_linear_27_1107)"/>
<path d="M7.08396 18.7828C6.20416 17.4797 5.68956 15.9692 5.15836 14.4918C4.58566 12.9231 4.07106 11.3378 3.54816 9.75247C3.00866 8.11737 2.46086 6.49057 1.93796 4.85547C1.44826 3.31168 0.692966 1.80938 0.692966 0.165982C0.692966 -0.0415174 0.95857 -0.0664174 1.00837 0.132782C1.36527 1.66828 2.07906 3.12078 2.61026 4.59817C3.19126 6.21667 3.75567 7.83517 4.32007 9.45367C4.82637 10.9062 5.34096 12.3587 5.88046 13.8029C6.46976 15.355 7.21676 16.8656 7.66496 18.4674C7.76455 18.816 7.30806 19.1148 7.07566 18.7828H7.08396Z" fill="url(#paint7_linear_27_1107)"/>
<path d="M30.9132 43.0852C29.5022 42.1971 28.0165 41.4501 26.5972 40.562C23.742 38.7775 21.0113 36.7606 18.4549 34.5694C14.5374 31.2162 10.0637 26.9168 8.81037 21.7376C8.77717 21.6131 8.95977 21.5965 9.00957 21.6878C11.5577 26.5018 15.2927 30.519 19.4509 33.9967C21.833 35.9887 24.3479 37.8147 26.9624 39.4913C28.224 40.2964 29.5437 41.0185 30.8302 41.7987C32.0918 42.5623 33.2953 43.4421 34.5818 44.1808C34.8557 44.3385 34.7727 44.8365 34.4158 44.7535C33.0961 44.4547 32.0586 43.799 30.9215 43.0769L30.9132 43.0852Z" fill="url(#paint8_linear_27_1107)"/>
<path d="M38.2173 46.3389C38.0596 46.2393 38.1011 45.9239 38.3169 45.982C42.3506 47.1523 46.2682 48.4554 50.4431 49.0364C54.8089 49.6423 59.2411 49.6174 63.6152 49.1609C68.0308 48.7044 72.3053 47.6586 76.5466 46.3721C78.7378 45.7081 80.9456 45.1271 83.087 44.3137C84.7553 43.6829 86.4402 43.1434 88.1749 43.8323C88.5982 43.9983 88.3907 44.6457 87.9591 44.5876C85.9339 44.3137 84.1909 45.1022 82.3234 45.7579C80.0907 46.5464 77.7833 47.1274 75.5174 47.8163C71.4504 49.053 67.2589 49.883 63.0342 50.2897C58.7929 50.7047 54.5101 50.63 50.2937 50.0573C46.1686 49.4929 41.7946 48.5052 38.2173 46.3223V46.3389Z" fill="url(#paint9_linear_27_1107)"/>
<path d="M67.2172 35.7398C67.3832 33.0921 67.3666 30.4942 66.9516 27.8216C66.686 26.0786 66.2876 24.3605 65.6402 22.7172C65.3248 21.9038 64.9845 21.0987 64.5695 20.3268C64.3205 19.8786 64.1711 19.4802 64.2126 18.9739C64.2292 18.783 64.4782 18.7581 64.5778 18.8826C66.5864 21.4639 67.3998 24.9166 67.9476 28.0706C68.3875 30.6187 68.5286 33.366 68.1219 35.9639C67.8397 35.856 67.5326 35.7813 67.2255 35.7398H67.2172Z" fill="url(#paint10_linear_27_1107)"/>
<path d="M66.7856 35.69C66.6528 34.5612 66.6362 33.3992 66.4536 32.3036C66.1548 30.5191 65.6402 28.7845 65.0343 27.083C64.445 25.3981 63.7146 23.7879 62.9427 22.1777C62.5609 21.3809 62.1791 20.5924 61.7973 19.7956C61.457 19.1067 60.8096 18.4427 60.627 17.6957C60.5855 17.5214 60.7598 17.3554 60.9258 17.4799C62.1044 18.4178 62.6688 19.8703 63.3328 21.19C64.196 22.9081 65.026 24.6262 65.7149 26.4273C66.3457 28.0707 66.8437 29.7472 67.2172 31.4736C67.4994 32.7933 67.8646 34.3952 67.7982 35.856C67.4662 35.7647 67.1176 35.7149 66.7856 35.69Z" fill="url(#paint11_linear_27_1107)"/>
<path d="M37.8021 29.5312C37.7689 28.7261 37.7523 27.921 37.6278 27.1242C37.3788 25.4808 36.8808 23.9038 36.2583 22.36C35.6275 20.8079 34.8722 19.3056 34.1418 17.7951C33.4197 16.3094 32.4486 14.6826 32.266 13.006C32.2494 12.8234 32.4901 12.7321 32.598 12.8815C33.5691 14.2676 34.2248 15.9608 35.0216 17.4548C35.8682 19.0484 36.6401 20.6917 37.329 22.36C37.9432 23.854 38.3582 25.4144 38.6238 27.008C38.7732 27.9044 38.9226 28.9087 38.9309 29.8881C38.5574 29.7553 38.1839 29.6391 37.8021 29.5312Z" fill="url(#paint12_linear_27_1107)"/>
<path d="M37.1796 29.3321C36.9555 28.4191 36.7231 27.5144 36.3994 26.6346C35.7603 24.9082 35.0217 23.2316 34.2166 21.5716C33.4281 19.9448 32.5566 18.3678 31.7847 16.7327C31.2618 15.6205 30.3073 14.1514 30.4567 12.8732C30.4816 12.6408 30.7887 12.6408 30.88 12.8317C31.5357 14.2427 32.1167 15.6537 32.8637 17.0315C33.6771 18.5421 34.4987 20.0444 35.2706 21.5799C36.5488 24.1197 37.661 26.7923 38.0428 29.5977C37.7523 29.5064 37.4701 29.4234 37.1879 29.3238L37.1796 29.3321Z" fill="url(#paint13_linear_27_1107)"/>
<path d="M30.0832 26.6264C29.9836 26.5517 29.8923 26.477 29.8093 26.4023C29.6848 25.6968 29.5852 24.983 29.4275 24.3024C29.0706 22.7586 28.5726 21.2646 27.9916 19.7955C27.4604 18.4343 26.7881 17.1312 26.0162 15.8863C25.3024 14.7409 24.2151 13.7449 23.7005 12.4999C23.6507 12.3837 23.7835 12.2675 23.8997 12.3173C25.07 12.8485 25.8336 14.0852 26.5225 15.1061C27.3857 16.376 28.0829 17.7537 28.7054 19.1564C29.3528 20.6421 29.8342 22.1942 30.2326 23.7629C30.4816 24.7672 30.7887 25.8711 30.88 26.9418C30.631 26.8007 30.3654 26.6928 30.0915 26.6264H30.0832Z" fill="url(#paint14_linear_27_1107)"/>
<path d="M30.0832 26.6264C29.884 26.477 29.6848 26.311 29.5188 26.1367C29.3196 25.4478 29.1453 24.7589 28.8963 24.1032C28.3817 22.7171 27.7094 21.3891 26.9707 20.1109C25.3854 17.3636 23.2025 14.9981 21.5425 12.3255C21.4678 12.201 21.5508 11.9852 21.7251 12.0267C23.0282 12.3504 23.9246 14.1432 24.6633 15.1475C25.734 16.5917 26.8047 18.0276 27.726 19.5797C28.5228 20.916 29.2034 22.327 29.7678 23.7795C30.1413 24.7423 30.5563 25.813 30.7223 26.8754C30.5148 26.7758 30.299 26.6845 30.0749 26.643L30.0832 26.6264Z" fill="url(#paint15_linear_27_1107)"/>
<path d="M7.24158 18.3429C8.59447 17.8283 10.1964 18.2765 11.5742 18.4757C12.869 18.6666 14.1223 18.5919 15.3922 18.5919C15.5997 18.8741 15.8321 19.1148 16.0894 19.3555C14.8444 19.7124 13.4417 19.6377 12.1801 19.4883C11.3086 19.3887 10.4371 19.2227 9.56557 19.1065C8.76877 18.9903 7.99687 18.9654 7.22497 18.6998C7.05897 18.6417 7.08387 18.401 7.23327 18.3429H7.24158Z" fill="url(#paint16_linear_27_1107)"/>
<path d="M8.83521 21.3806C9.48261 21.2063 10.1466 21.2312 10.8189 21.1731C11.5576 21.1067 12.3212 20.9324 13.0433 20.7332C14.114 20.4427 14.8942 19.6708 15.7242 18.9902C15.9649 19.2475 16.2222 19.4799 16.4961 19.704C14.6535 21.6462 11.3584 22.4264 8.87671 21.8039C8.68581 21.7541 8.59451 21.447 8.83521 21.3806Z" fill="url(#paint17_linear_27_1107)"/>
<path d="M12.869 28.3858C11.6489 27.3815 10.7857 25.9622 9.9723 24.6259C9.36641 23.6299 8.32891 22.4596 8.16291 21.281C8.12141 21.0071 8.4036 20.866 8.6277 20.9407C9.3747 21.1897 10.2213 21.0984 10.8687 21.5632C10.9434 21.613 10.9019 21.7458 10.8106 21.7541C10.2296 21.779 9.6071 21.7707 9.0261 21.6877C9.2253 22.0363 9.5241 22.3766 9.715 22.6837C10.0968 23.2896 10.4537 23.8872 10.8272 24.5014C11.5742 25.7381 12.5038 26.9001 13.118 28.2115C13.1844 28.3526 12.9852 28.4854 12.869 28.3858Z" fill="url(#paint18_linear_27_1107)"/>
<path d="M34.1917 44.1061C34.8889 43.8903 35.6276 43.8654 36.3414 43.7243C37.3457 43.5334 38.3334 43.2512 39.3045 42.9358C41.1969 42.3299 43.0395 41.5995 44.8074 40.7031C47.8369 39.1842 50.3684 37.0096 52.9912 34.9263C53.29 35.0508 53.5888 35.1753 53.8876 35.2832C51.4723 37.7483 48.4843 39.7818 45.4797 41.392C43.6205 42.388 41.6285 43.1267 39.6282 43.7907C38.0512 44.3052 35.9098 45.0937 34.2498 44.6705C33.9925 44.6041 33.8846 44.2057 34.1917 44.1061Z" fill="url(#paint19_linear_27_1107)"/>
<path d="M38.0511 45.957C38.823 45.708 39.6281 45.6084 40.4083 45.3345C41.2549 45.044 42.0683 44.629 42.8402 44.1808C44.3757 43.301 45.7784 42.1888 47.1728 41.0932C48.7498 39.8482 50.3351 38.6115 51.6963 37.1175C52.269 36.4867 52.8085 35.7729 53.3729 35.0757C53.7298 35.2251 54.095 35.3579 54.4602 35.4741C53.7464 36.3871 52.9081 37.2337 52.1777 38.0305C50.775 39.5494 49.0735 40.8027 47.4467 42.0809C46.0191 43.2014 44.5666 44.3053 42.9647 45.1602C41.6284 45.874 39.57 47.0443 38.0262 46.3886C37.8436 46.3139 37.8353 46.0068 38.0428 45.9487L38.0511 45.957Z" fill="url(#paint20_linear_27_1107)"/>
<path d="M24.8459 23.6631C23.7835 21.1897 22.7045 18.7661 21.2603 16.4421C20.1149 14.5912 18.8118 12.8399 17.4257 11.1633C17.6747 11.2629 17.9237 11.3625 18.1727 11.4538C19.4675 12.9146 20.6378 14.475 21.7085 16.1267C23.327 18.6416 24.8708 21.4387 25.8087 24.3271C25.5016 24.0947 25.1862 23.8789 24.8542 23.6714L24.8459 23.6631Z" fill="url(#paint21_linear_27_1107)"/>
<path d="M23.4432 22.8084C22.3642 20.5259 21.335 18.2434 19.8493 16.1435C18.5711 14.3341 17.4174 12.4002 16.0313 10.6572C16.2803 10.7402 16.5376 10.8232 16.7866 10.8979C18.0814 12.4417 19.177 14.1764 20.3224 15.8032C21.9575 18.1189 23.5179 20.7749 24.5886 23.489C24.2151 23.2566 23.8333 23.0325 23.4432 22.8001V22.8084Z" fill="url(#paint22_linear_27_1107)"/>
<path d="M21.1524 21.2978C20.505 19.7955 19.8079 18.3098 18.9945 16.8905C17.6665 14.5582 16.1227 12.3255 14.5291 10.1592C14.7449 10.2339 14.9524 10.3169 15.1682 10.3833C16.8033 12.2923 18.2724 14.3258 19.5423 16.4921C20.3723 17.9031 21.0611 19.3888 21.7251 20.8911C21.8911 21.2729 22.0737 21.6713 22.2646 22.0697C21.8911 21.8207 21.5177 21.5551 21.1442 21.3061L21.1524 21.2978Z" fill="url(#paint23_linear_27_1107)"/>
<path d="M18.6043 19.7539C18.0316 18.3097 17.434 16.8821 16.7369 15.4794C15.7326 13.4874 14.6038 11.5618 13.392 9.69434C13.6327 9.80224 13.8734 9.90184 14.1141 9.99314C16.3717 13.172 18.3636 16.6414 19.6418 20.31C19.3098 20.1108 18.9612 19.9199 18.6043 19.7539Z" fill="url(#paint24_linear_27_1107)"/>
<path d="M35.8933 28.6018C35.7605 28.0955 35.6277 27.5892 35.4866 27.0912C34.9554 25.3316 34.3246 23.5969 33.561 21.9286C32.1915 18.9572 30.2908 16.1352 29.0458 13.0891C29.1869 13.0891 29.328 13.0891 29.4691 13.0891C30.158 14.3009 30.7888 15.5542 31.4777 16.766C32.3907 18.3928 33.2954 20.0279 34.1171 21.7128C34.9139 23.3645 35.5281 25.1075 36.0842 26.8588C36.2917 27.5228 36.5158 28.2034 36.7316 28.8923C36.4577 28.7927 36.1755 28.7014 35.9016 28.6018H35.8933Z" fill="url(#paint25_linear_27_1107)"/>
<path d="M35.1545 28.3279C34.864 28.2117 34.5735 28.0872 34.283 27.971C34.1336 27.3236 33.9842 26.6762 33.785 26.0454C33.287 24.3937 32.6396 22.7918 31.9507 21.2148C31.1954 19.4967 30.2825 17.8616 29.4774 16.1684C28.9711 15.0977 28.4897 14.0104 27.8921 12.9812C28.0498 13.0061 28.1992 13.0227 28.3486 13.0476C28.8217 13.7863 29.2201 14.5748 29.6102 15.3633C30.4899 17.1312 31.4693 18.8493 32.3242 20.6338C33.1293 22.3187 33.8182 24.0451 34.3909 25.813C34.6482 26.6181 34.9304 27.473 35.1545 28.3362V28.3279Z" fill="url(#paint26_linear_27_1107)"/>
<path d="M32.9716 27.4066C32.8803 27.0746 32.7973 26.7426 32.706 26.4106C32.208 24.6178 31.627 22.8333 30.9215 21.1152C29.7263 18.1853 27.9501 15.5874 26.4479 12.8235C26.5724 12.8235 26.7052 12.8318 26.8296 12.8401C28.6307 15.3633 30.2326 18.0774 31.4776 20.9077C32.2163 22.6092 32.789 24.402 33.3285 26.1782C33.4779 26.6845 33.6522 27.2157 33.8265 27.7718C33.5443 27.6556 33.2621 27.5311 32.9799 27.4149L32.9716 27.4066Z" fill="url(#paint27_linear_27_1107)"/>
<path d="M31.2619 26.6513C30.7058 24.4435 30.0833 22.2523 29.2782 20.1109C28.3071 17.5462 27.0372 15.106 25.6179 12.7654C25.7507 12.7737 25.8835 12.7903 26.008 12.7986C28.9213 17.015 31.0046 21.995 32.0836 27.0165C31.8097 26.9003 31.5358 26.7758 31.2536 26.6513H31.2619Z" fill="url(#paint28_linear_27_1107)"/>
<path d="M60.984 34.2458C60.9508 33.9968 60.9093 33.7561 60.8761 33.5071C60.5192 31.208 59.8303 28.9338 59.1829 26.7011C58.1288 23.0408 56.7261 19.4884 55.0246 16.0854C55.1491 16.0937 55.2819 16.1103 55.4064 16.1186C57.2241 19.2643 58.6683 22.5926 59.739 26.0869C60.3698 28.137 60.9508 30.2452 61.3824 32.3451C61.5235 33.0091 61.6314 33.6731 61.7227 34.3454C61.4737 34.3122 61.2247 34.279 60.9674 34.2541L60.984 34.2458Z" fill="url(#paint29_linear_27_1107)"/>
<path d="M59.6229 34.0715C59.5648 33.6814 59.4984 33.283 59.4403 32.8929C59.0585 30.5855 58.5273 28.3113 57.8799 26.0703C56.8673 22.5594 55.448 19.2062 53.8461 15.936C53.9706 15.9443 54.0868 15.9609 54.2113 15.9692C54.286 15.9858 54.369 15.9941 54.4437 16.0024C56.2448 19.0568 57.523 22.4183 58.5439 25.813C59.1996 27.9959 59.6976 30.2203 60.1043 32.4613C60.2039 33.0257 60.2952 33.5901 60.3782 34.1545C60.1209 34.113 59.8719 34.0881 59.6229 34.0632V34.0715Z" fill="url(#paint30_linear_27_1107)"/>
<path d="M58.2864 33.7727C58.2698 33.0672 58.2367 32.37 58.1371 31.6811C57.8051 29.4816 57.0996 27.4481 56.3692 25.3648C55.2238 22.1112 53.9788 18.8908 52.5595 15.7451C52.7255 15.7783 52.8915 15.8115 53.0492 15.8447C54.6013 18.8327 55.8712 21.9452 57.0083 25.1241C57.6889 27.0165 58.3529 28.884 58.7264 30.8677C58.9173 31.8886 59.0086 32.9344 59.0667 33.9802C58.8094 33.9221 58.5438 33.8557 58.2948 33.7727H58.2864Z" fill="url(#paint31_linear_27_1107)"/>
<path d="M53.0908 33.0672C53.0244 32.6024 52.958 32.1376 52.875 31.6811C52.4683 29.3986 51.8956 27.141 51.2067 24.9166C50.1775 21.6215 48.7831 18.4592 47.1563 15.4131C47.3721 15.4629 47.5879 15.5127 47.812 15.5625C49.5301 18.4094 50.8415 21.497 51.8873 24.6593C52.6011 26.8173 53.1572 29.0251 53.5888 31.2495C53.7133 31.8886 53.8378 32.536 53.9457 33.1917C53.6635 33.1502 53.373 33.1087 53.0908 33.0672Z" fill="url(#paint32_linear_27_1107)"/>
<path d="M51.6134 32.8596C51.5636 32.5359 51.5138 32.2122 51.4557 31.8885C51.0075 29.4566 50.2771 27.0828 49.5135 24.7339C48.476 21.5467 47.48 18.1355 45.8781 15.1309C46.1105 15.1807 46.3429 15.2388 46.5753 15.2886C48.1191 18.0359 49.057 21.1815 50.0779 24.1031C50.8249 26.2445 51.4972 28.4108 52.0284 30.6186C52.2193 31.3988 52.377 32.1956 52.5181 32.9924C52.2193 32.9509 51.9122 32.9094 51.6134 32.8596Z" fill="url(#paint33_linear_27_1107)"/>
<path d="M50.3269 32.644C50.2273 32.2456 50.136 31.8389 50.0447 31.4405C49.5052 29.0584 49.0819 26.6847 48.3349 24.3524C47.2725 21.049 45.8532 17.9199 44.3841 14.7991C44.5916 14.8489 44.8074 14.8904 45.0149 14.9402C46.65 17.8452 47.9365 20.9079 49.0487 24.0785C49.7874 26.195 50.302 28.4027 50.7087 30.6022C50.8415 31.3409 51.0241 32.0713 51.1984 32.8017C50.9079 32.7519 50.6174 32.7021 50.3269 32.644Z" fill="url(#paint34_linear_27_1107)"/>
<path d="M49.638 32.5029C49.4637 32.4614 49.2894 32.4199 49.1234 32.3784C49.0238 31.6065 48.9076 30.8346 48.7499 30.071C48.2768 27.8383 47.5547 25.6637 46.7662 23.5306C45.5959 20.3849 44.0936 17.3886 42.5747 14.4006C42.7739 14.4421 42.9731 14.4836 43.1723 14.5251C44.8987 17.4135 46.3927 20.4347 47.646 23.5721C48.4345 25.5392 49.0404 27.581 49.5301 29.6394C49.7542 30.5773 49.97 31.5816 50.1194 32.6025C49.9617 32.5693 49.804 32.5361 49.6546 32.5029H49.638Z" fill="url(#paint35_linear_27_1107)"/>
<path d="M47.3637 31.9302C47.289 31.2579 47.1977 30.5773 47.0649 29.9133C46.6333 27.7885 45.986 25.7052 45.2722 23.6634C44.1185 20.3849 42.6411 17.2226 41.1056 14.1018C41.2965 14.135 41.4874 14.1765 41.6783 14.218C43.3383 17.1645 44.8157 20.2106 46.0274 23.3812C46.791 25.3732 47.3969 27.4067 47.8617 29.4817C48.0526 30.3366 48.2601 31.2579 48.4012 32.1958C48.0526 32.1045 47.704 32.0215 47.3554 31.9302H47.3637Z" fill="url(#paint36_linear_27_1107)"/>
<path d="M45.3967 31.3657C45.2971 30.7598 45.1892 30.1539 45.073 29.5564C44.6248 27.3403 44.0853 25.1491 43.4545 22.9828C42.5 19.7375 40.8898 16.8408 39.4788 13.8113C39.6614 13.8445 39.844 13.8777 40.0266 13.9026C41.6368 16.7329 43.1806 19.5549 44.1766 22.7006C44.8074 24.676 45.3054 26.6929 45.7536 28.7098C45.9694 29.6726 46.2018 30.6602 46.3927 31.6645C46.0607 31.5649 45.7204 31.4653 45.3884 31.3657H45.3967Z" fill="url(#paint37_linear_27_1107)"/>
<path d="M43.911 30.8926C43.7201 29.9879 43.5292 29.0749 43.3134 28.1785C42.7988 26.1035 42.2095 24.0451 41.6119 21.995C41.0475 20.0611 40.4167 18.1937 39.6282 16.3345C39.2298 15.3966 38.765 14.5002 38.2753 13.6204C38.516 13.6536 38.765 13.6951 39.0057 13.7283C39.3377 14.2595 39.6531 14.8156 39.927 15.3966C40.8234 17.3222 41.6285 19.281 42.2178 21.3227C42.8403 23.5056 43.5292 25.6636 44.1019 27.8631C44.3841 28.9587 44.6912 30.0875 44.9319 31.2163C44.5916 31.1084 44.2513 31.0005 43.911 30.876V30.8926Z" fill="url(#paint38_linear_27_1107)"/>
<path d="M81.5762 39.7735C81.5596 39.1593 81.543 38.5368 81.5015 37.9226C81.3936 36.3041 80.9703 34.7271 80.713 33.1252C80.8292 33.2995 80.9537 33.4655 81.0699 33.6398C81.4434 35.0342 81.8916 36.4037 82.0576 37.8562C82.1406 38.5451 82.1987 39.234 82.2402 39.9312C82.0161 39.8731 81.792 39.8233 81.5679 39.7735H81.5762Z" fill="url(#paint39_linear_27_1107)"/>
<path d="M80.4058 39.5244C80.4058 38.3043 80.3892 37.0925 80.2564 35.8724C80.0987 34.3618 79.7916 32.8678 79.4596 31.3904C79.6339 31.6311 79.8165 31.8718 79.9908 32.1125C80.6548 34.5942 81.0947 37.1008 81.0947 39.6655C80.8623 39.6157 80.6382 39.5742 80.4058 39.5327V39.5244Z" fill="url(#paint40_linear_27_1107)"/>
<path d="M79.1858 39.1841C79.136 35.9471 78.7874 32.7766 78.0902 29.606C78.2894 29.8633 78.4969 30.1206 78.6961 30.3779C79.0613 31.7142 79.3352 33.0754 79.5427 34.4531C79.7834 36.0716 79.9411 37.7399 79.8996 39.3999C79.6672 39.3252 79.4265 39.2588 79.1858 39.1841Z" fill="url(#paint41_linear_27_1107)"/>
<path d="M77.7914 38.7277C77.8246 37.2918 77.8246 35.8559 77.6669 34.3951C77.4345 32.2371 77.0112 30.0791 76.4219 27.9792C76.5962 28.1286 76.7622 28.2697 76.9365 28.4108C77.5673 30.2119 78.0238 32.0711 78.2811 33.9718C78.4969 35.5654 78.6712 37.3084 78.638 39.0099C78.3558 38.9186 78.0736 38.8273 77.7914 38.7277Z" fill="url(#paint42_linear_27_1107)"/>
<path d="M76.729 38.3375C76.7207 36.3787 76.646 34.4365 76.3721 32.4777C76.0982 30.5604 75.6749 28.6597 75.1769 26.7839C75.3761 27.008 75.5836 27.2238 75.8077 27.4313C76.9697 31.0169 77.6918 34.9013 77.5092 38.628C77.2519 38.5367 76.9946 38.4454 76.7373 38.3458L76.729 38.3375Z" fill="url(#paint43_linear_27_1107)"/>
<path d="M13.9813 29.5479C16.1144 29.2242 18.1894 28.4772 20.2229 27.8133C21.7418 27.3153 23.2109 26.7177 24.6551 26.0288C25.0286 25.8545 25.3938 25.6636 25.759 25.4727C26.0412 25.6138 26.3234 25.7632 26.6139 25.9043C24.5389 26.9833 22.3394 27.8714 20.1399 28.5022C18.2558 29.0416 16.2638 29.7305 14.2718 29.9048C14.1722 29.7886 14.0726 29.6641 13.9813 29.5396V29.5479Z" fill="url(#paint44_linear_27_1107)"/>
<path d="M14.9109 30.6852C16.7037 30.32 18.4799 29.7805 20.1731 29.3157C22.8623 28.5853 25.4934 27.6806 28.0746 26.6431C28.2738 26.7427 28.4813 26.8423 28.6805 26.9419C25.9166 28.2782 22.9785 29.1663 20.0154 29.9548C18.4882 30.3615 16.8697 30.8014 15.2512 31.067C15.135 30.9425 15.0271 30.8097 14.9192 30.6769L14.9109 30.6852Z" fill="url(#paint45_linear_27_1107)"/>
<path d="M16.3053 32.2122C16.2223 32.1292 16.1393 32.0379 16.0563 31.9549C18.4965 31.432 20.9035 30.5937 23.2773 29.938C25.5183 29.3155 27.6514 28.4357 29.7679 27.4895C30.0667 27.6389 30.3572 27.7883 30.656 27.9294C28.3818 29.0665 25.9665 29.938 23.5346 30.602C21.775 31.0751 19.9822 31.4735 18.206 31.9051C17.6001 32.0545 17.0025 32.1873 16.3966 32.2952C16.3634 32.262 16.3385 32.2371 16.3053 32.2122Z" fill="url(#paint46_linear_27_1107)"/>
<path d="M17.6499 33.3328C18.4218 33.2 19.202 32.9261 19.8826 32.6854C21.1359 32.2455 22.3477 31.7309 23.6176 31.3242C26.2487 30.4776 28.7138 29.299 31.237 28.22C31.5275 28.3528 31.818 28.4939 32.1085 28.6267C29.3446 30.2452 26.174 31.2827 23.1445 32.1625C21.6754 32.5858 19.866 33.5071 18.1396 33.7478C17.9819 33.6067 17.8159 33.4739 17.6499 33.3411V33.3328Z" fill="url(#paint47_linear_27_1107)"/>
<path d="M19.4676 34.9098C21.8662 34.3952 24.2151 33.1253 26.3648 32.1708C28.5477 31.1997 30.6227 30.0377 32.706 28.884C33.038 29.0251 33.37 29.1662 33.702 29.3073C31.4361 30.6768 29.0374 31.8471 26.6304 32.8597C25.0783 33.5071 23.5013 34.1462 21.9077 34.7189C21.252 34.9596 20.5715 35.1671 19.8909 35.2916C19.7498 35.1588 19.6003 35.0343 19.4592 34.9098H19.4676Z" fill="url(#paint48_linear_27_1107)"/>
<path d="M21.1442 36.4036C23.8251 35.9139 26.4894 34.478 28.7802 33.1667C30.3572 32.262 31.8844 31.2826 33.4033 30.2866C33.7436 30.0708 34.0756 29.8384 34.4076 29.606C34.7396 29.7388 35.0799 29.8716 35.4119 29.9961C33.2124 31.5482 30.8137 32.8928 28.5312 34.1544C26.4562 35.2997 24.0326 36.4949 21.5841 36.7854C21.4347 36.6609 21.2853 36.5364 21.1359 36.4036H21.1442Z" fill="url(#paint49_linear_27_1107)"/>
<path d="M22.6465 37.5906C25.4436 36.8104 28.1328 35.1753 30.5398 33.7062C32.3907 32.5774 34.1918 31.3739 36.0012 30.2036C36.3249 30.3198 36.6486 30.4277 36.9723 30.5356C34.8309 32.0462 32.6231 33.4572 30.3489 34.7686C28.166 36.0302 25.7009 37.408 23.1528 37.9475C22.9868 37.8313 22.8208 37.7068 22.6548 37.5906H22.6465Z" fill="url(#paint50_linear_27_1107)"/>
<path d="M24.2484 38.7195C25.3191 38.2547 26.4064 37.8646 27.4854 37.4247C29.1869 36.7192 30.8137 35.6734 32.3907 34.7189C34.3246 33.5486 36.1174 32.204 37.9101 30.8511C38.3002 30.9756 38.6903 31.0918 39.0887 31.1997C37.1631 32.8016 34.972 34.1628 32.9053 35.4327C31.4694 36.3125 29.992 37.1342 28.4814 37.8895C27.3194 38.4788 26.0412 38.7693 24.7796 39.0847C24.597 38.9685 24.4144 38.844 24.2401 38.7195H24.2484Z" fill="url(#paint51_linear_27_1107)"/>
<path d="M25.9914 39.8898C26.8712 39.5412 27.7261 39.1096 28.5644 38.678C30.2327 37.8148 31.9093 36.9765 33.561 36.0552C36.0012 34.694 38.2671 33.1336 40.5496 31.5732C40.9563 31.6728 41.363 31.7641 41.7697 31.8554C39.3461 33.8889 36.4079 35.441 33.7021 36.9184C32.1085 37.7899 30.49 38.6199 28.8466 39.4001C28.1079 39.7487 27.3692 40.0641 26.6056 40.2965C26.4064 40.1554 26.2072 40.0226 25.9997 39.8898H25.9914Z" fill="url(#paint52_linear_27_1107)"/>
<path d="M27.6265 41.0184C33.3037 39.043 38.2256 35.4325 43.2138 32.1375C43.5624 32.1956 43.9027 32.2536 44.2513 32.3034C41.6119 34.3618 38.7568 36.1795 35.8684 37.8395C33.4448 39.2256 30.8137 40.5951 28.0664 41.3421C27.9253 41.2342 27.7759 41.1263 27.6265 41.0184Z" fill="url(#paint53_linear_27_1107)"/>
<path d="M51.3892 49.584C53.4061 48.0319 55.2653 46.2308 57.0581 44.5376C59.5149 42.197 61.7227 39.6406 63.8973 37.051C64.0965 37.1174 64.304 37.1672 64.5032 37.2253C62.312 40.1054 59.8386 42.7946 57.1909 45.2514C55.5558 46.7703 53.8626 48.3058 52.0449 49.6587C51.8291 49.6338 51.6133 49.6089 51.3975 49.5923L51.3892 49.584Z" fill="url(#paint54_linear_27_1107)"/>
<path d="M53.2485 49.8081C55.2571 48.0651 57.0167 46.0316 58.8593 44.1143C60.9509 41.9397 62.9014 39.6987 64.636 37.2502C64.8435 37.3 65.051 37.3498 65.2668 37.3913C63.6732 40.039 61.4821 42.3049 59.3241 44.4961C57.5147 46.3387 55.7883 48.2477 53.8129 49.8911C53.622 49.8579 53.4311 49.833 53.2402 49.8081H53.2485Z" fill="url(#paint55_linear_27_1107)"/>
<path d="M55.2904 50.1152C57.5646 48.1398 59.4985 45.6333 61.2995 43.3093C62.7852 41.392 64.2045 39.4249 65.6404 37.4661C65.8479 37.5076 66.0637 37.5408 66.2712 37.574C64.7523 39.7652 63.1919 41.9315 61.5319 44.0314C59.8055 46.2142 57.963 48.422 55.7884 50.1816C55.6224 50.1567 55.4564 50.1318 55.2987 50.1152H55.2904Z" fill="url(#paint56_linear_27_1107)"/>
<path d="M57.2158 50.3477C59.2991 48.3806 61.0919 46.1396 62.7436 43.7741C64.1297 41.7904 65.3664 39.6656 66.7359 37.657C66.9932 37.6985 67.2505 37.7483 67.4995 37.7898C66.1632 39.9727 64.6941 42.0975 63.2167 44.1642C61.6065 46.3969 59.8386 48.5134 57.8217 50.3809C57.6142 50.3726 57.415 50.356 57.2075 50.3394L57.2158 50.3477Z" fill="url(#paint57_linear_27_1107)"/>
<path d="M59.6726 50.4058C59.5066 50.4058 59.3405 50.4058 59.1745 50.4058C61.2495 48.0901 63.2332 45.7661 65.0177 43.1848C66.188 41.4916 67.2919 39.7071 68.4539 37.9807C68.5535 38.0056 68.6531 38.0305 68.7527 38.0554C68.9187 38.0969 69.0847 38.1467 69.2424 38.1882C68.097 39.898 66.9184 41.5829 65.7564 43.2678C63.9636 45.8574 62.0131 48.2063 59.797 50.3892C59.7555 50.3892 59.7141 50.3892 59.6726 50.3892V50.4058Z" fill="url(#paint58_linear_27_1107)"/>
<path d="M61.009 50.3475C62.9595 48.0567 64.9681 45.824 66.653 43.334C67.7486 41.7072 68.7528 40.0223 69.782 38.354C70.0061 38.4287 70.2385 38.4951 70.4626 38.5698C69.4666 40.1966 68.4374 41.8068 67.3751 43.3921C65.6736 45.9319 63.582 48.0982 61.507 50.3143C61.341 50.3226 61.175 50.3309 61.009 50.3392V50.3475Z" fill="url(#paint59_linear_27_1107)"/>
<path d="M63.0094 50.1732C63.0094 50.1732 62.9762 50.1732 62.9596 50.1732C65.0014 48.2476 66.4705 45.8821 67.9645 43.5083C68.9605 41.9147 69.9482 40.3211 70.9442 38.7275C71.1766 38.8022 71.409 38.8769 71.6414 38.9516C70.6288 40.6365 69.5332 42.2799 68.4625 43.9233C67.0432 46.1228 65.599 48.2559 63.7149 50.0487C63.4825 50.0902 63.2501 50.1317 63.0094 50.1649V50.1732Z" fill="url(#paint60_linear_27_1107)"/>
<path d="M65.0261 49.833C66.8189 47.9323 68.1635 45.4506 69.5496 43.2843C70.4377 41.9065 71.2843 40.5038 72.1475 39.1094C72.3965 39.1841 72.6538 39.2505 72.9028 39.3169C72.0064 40.8109 71.0685 42.2883 70.114 43.7574C68.8026 45.766 67.458 48.0236 65.7233 49.75C65.4909 49.7749 65.2502 49.7998 65.0261 49.833Z" fill="url(#paint61_linear_27_1107)"/>
<path d="M51.1652 18.949C51.0075 18.8826 50.883 18.7332 50.8166 18.5838C50.6838 18.285 50.6921 17.9364 50.8747 17.6708C51.0573 17.3969 51.4308 17.3969 51.7047 17.4799C52.2691 17.6625 52.5762 18.3846 52.1031 18.8328C51.8292 19.0901 51.4806 19.1316 51.1569 18.949H51.1652Z" fill="url(#paint62_linear_27_1107)"/>
<path d="M52.2774 21.5386C52.1197 21.4722 51.9952 21.3228 51.9288 21.1734C51.796 20.8829 51.8043 20.526 51.9869 20.2604C52.1695 19.9865 52.543 19.9865 52.8252 20.0695C53.3896 20.2521 53.6967 20.9742 53.2236 21.4224C52.9497 21.6797 52.6011 21.7212 52.2857 21.5303L52.2774 21.5386Z" fill="url(#paint63_linear_27_1107)"/>
<path d="M53.3979 24.3606C53.2402 24.2942 53.1157 24.1448 53.0493 23.9954C52.9165 23.6966 52.9248 23.348 53.1074 23.0824C53.29 22.8085 53.6635 22.8085 53.9457 22.8998C54.5101 23.0824 54.8172 23.8045 54.3441 24.2527C54.0702 24.51 53.7216 24.5515 53.3979 24.3689V24.3606Z" fill="url(#paint64_linear_27_1107)"/>
<path d="M54.2528 27.0166C54.0951 26.9502 53.9706 26.8008 53.9042 26.6514C53.7714 26.3526 53.7797 26.004 53.954 25.7384C54.1366 25.4645 54.5101 25.4645 54.7923 25.5475C55.3567 25.7301 55.6638 26.4522 55.1907 26.9004C54.9168 27.1577 54.5682 27.1992 54.2528 27.0166Z" fill="url(#paint65_linear_27_1107)"/>
<path d="M55.0412 29.573C54.8835 29.5066 54.7673 29.3572 54.6926 29.2078C54.5598 28.9173 54.5681 28.5604 54.7424 28.2948C54.925 28.0209 55.2985 28.0126 55.5807 28.1039C56.1451 28.2865 56.4522 29.0086 55.9791 29.4651C55.7052 29.7224 55.3566 29.7639 55.0329 29.573H55.0412Z" fill="url(#paint66_linear_27_1107)"/>
<path d="M55.5808 32.3037C55.4231 32.2373 55.2986 32.0879 55.2322 31.9385C55.0994 31.6397 55.1077 31.2911 55.2903 31.0255C55.4729 30.7516 55.8464 30.7516 56.1286 30.8346C56.693 31.0172 56.9918 31.7393 56.527 32.1875C56.2531 32.4448 55.8962 32.4863 55.5808 32.2954V32.3037Z" fill="url(#paint67_linear_27_1107)"/>
<path d="M22.3061 26.1117C22.0073 25.9042 21.9741 25.3896 22.248 25.1572C22.3227 25.0908 22.4389 25.0576 22.5468 25.0576C22.6713 25.0327 22.8041 25.0576 22.9203 25.1074C23.1361 25.2153 23.2606 25.4228 23.2357 25.6635C23.1942 26.0868 22.663 26.3524 22.3144 26.1117H22.3061Z" fill="url(#paint68_linear_27_1107)"/>
<path d="M20.5465 26.9252C20.2477 26.7177 20.2145 26.2031 20.4884 25.9707C20.5631 25.9043 20.671 25.8711 20.7789 25.8711C20.9034 25.8462 21.0362 25.8711 21.1524 25.9209C21.3682 26.0288 21.4927 26.2363 21.4678 26.477C21.4263 26.9003 20.8951 27.1659 20.5465 26.9252Z" fill="url(#paint69_linear_27_1107)"/>
<path d="M18.8119 27.4894C18.5131 27.2819 18.4799 26.7673 18.7538 26.5349C18.8368 26.4685 18.9447 26.4353 19.0526 26.4353C19.1771 26.4104 19.3099 26.4353 19.4261 26.4851C19.6419 26.593 19.7664 26.8005 19.7415 27.0412C19.7 27.4645 19.1688 27.7301 18.8202 27.4894H18.8119Z" fill="url(#paint70_linear_27_1107)"/>
<path d="M17.0522 28.0456C16.7534 27.8381 16.7202 27.3235 16.9941 27.0911C17.0688 27.0247 17.185 26.9915 17.2846 26.9915C17.4091 26.9666 17.5419 26.9915 17.6581 27.0413C17.8739 27.1492 17.9984 27.3567 17.9735 27.5974C17.932 28.0207 17.4008 28.2946 17.0522 28.0456Z" fill="url(#paint71_linear_27_1107)"/>
<path d="M15.1682 28.5768C14.8694 28.361 14.8362 27.8547 15.1101 27.614C15.1848 27.5476 15.301 27.5144 15.4089 27.5144C15.5334 27.4895 15.6662 27.5144 15.7741 27.5642C15.9899 27.6721 16.1144 27.8796 16.0895 28.1203C16.048 28.5436 15.5168 28.8092 15.1682 28.5685V28.5768Z" fill="url(#paint72_linear_27_1107)"/>
<path d="M60.7765 38.6779C60.4777 38.4704 60.4445 37.9558 60.7184 37.7234C60.8014 37.657 60.9093 37.6238 61.0089 37.6238C61.1334 37.5989 61.2662 37.6238 61.3824 37.6736C61.5982 37.7815 61.7227 37.989 61.6978 38.2297C61.6563 38.653 61.1251 38.9186 60.7765 38.6779Z" fill="url(#paint73_linear_27_1107)"/>
<path d="M59.3075 40.4042C59.0087 40.1884 58.9755 39.6821 59.2494 39.4497C59.3241 39.3833 59.4403 39.3501 59.5399 39.3501C59.6644 39.3252 59.7972 39.3501 59.9134 39.3999C60.1292 39.5078 60.2537 39.7153 60.2288 39.956C60.1873 40.3793 59.6561 40.6449 59.3075 40.4042Z" fill="url(#paint74_linear_27_1107)"/>
<path d="M57.7552 42.0644C57.4564 41.8486 57.4232 41.3423 57.6971 41.1099C57.7801 41.0435 57.888 41.0103 57.9959 41.0103C58.1204 40.9854 58.2532 41.0103 58.3694 41.0601C58.5852 41.168 58.7097 41.3755 58.6848 41.6162C58.6433 42.0395 58.1121 42.3051 57.7635 42.0644H57.7552Z" fill="url(#paint75_linear_27_1107)"/>
<path d="M56.3361 43.633C56.0373 43.4255 56.0041 42.9109 56.278 42.6785C56.3527 42.6121 56.4606 42.5789 56.5685 42.5789C56.693 42.554 56.8258 42.5789 56.942 42.6287C57.1578 42.7366 57.2823 42.9441 57.2574 43.1848C57.2159 43.6081 56.6847 43.8737 56.3361 43.633Z" fill="url(#paint76_linear_27_1107)"/>
<path d="M54.8171 45.0687C54.5183 44.8612 54.4851 44.3467 54.759 44.1143C54.8337 44.0479 54.9499 44.0147 55.0578 44.023C55.1823 43.9981 55.3151 44.023 55.4313 44.0728C55.6471 44.1724 55.7716 44.3882 55.7467 44.6289C55.7052 45.0522 55.174 45.3178 54.8171 45.0771V45.0687Z" fill="url(#paint77_linear_27_1107)"/>
<path d="M53.2318 46.4716C52.933 46.2558 52.8998 45.7495 53.1737 45.5171C53.2484 45.4507 53.3646 45.4175 53.4642 45.4175C53.5887 45.3926 53.7215 45.4175 53.8377 45.4673C54.0535 45.5752 54.178 45.7827 54.1531 46.0234C54.1116 46.4467 53.5804 46.7123 53.2318 46.4716Z" fill="url(#paint78_linear_27_1107)"/>
<path d="M51.522 48.0651C51.2232 47.8576 51.19 47.343 51.4639 47.1106C51.5469 47.0442 51.6465 47.011 51.7627 47.011C51.8872 46.9861 52.02 47.011 52.1279 47.0608C52.3437 47.1604 52.4682 47.3762 52.4433 47.6169C52.4018 48.0402 51.8706 48.3058 51.5137 48.0651H51.522Z" fill="url(#paint79_linear_27_1107)"/>
</g>
<defs>
<linearGradient id="paint0_linear_27_1107" x1="55.9211" y1="53.5763" x2="55.9211" y2="0.248923" gradientUnits="userSpaceOnUse">
<stop stop-color="#A1732F"/>
<stop offset="0.1" stop-color="#A97A34"/>
<stop offset="0.25" stop-color="#BF9044"/>
<stop offset="0.44" stop-color="#E4B35D"/>
<stop offset="0.55" stop-color="#FDCB6E"/>
<stop offset="0.6" stop-color="#EDBB63"/>
<stop offset="0.71" stop-color="#CD9A4E"/>
<stop offset="0.81" stop-color="#B78340"/>
<stop offset="0.91" stop-color="#A97537"/>
<stop offset="1" stop-color="#A57134"/>
</linearGradient>
<linearGradient id="paint1_linear_27_1107" x1="55.4977" y1="55.8339" x2="55.4977" y2="0.298727" gradientUnits="userSpaceOnUse">
<stop stop-color="#A1732F"/>
<stop offset="0.1" stop-color="#A97A34"/>
<stop offset="0.25" stop-color="#BF9044"/>
<stop offset="0.44" stop-color="#E4B35D"/>
<stop offset="0.55" stop-color="#FDCB6E"/>
<stop offset="0.6" stop-color="#EDBB63"/>
<stop offset="0.71" stop-color="#CD9A4E"/>
<stop offset="0.81" stop-color="#B78340"/>
<stop offset="0.91" stop-color="#A97537"/>
<stop offset="1" stop-color="#A57134"/>
</linearGradient>
<linearGradient id="paint2_linear_27_1107" x1="108.111" y1="55.9999" x2="108.111" y2="51.6092" gradientUnits="userSpaceOnUse">
<stop stop-color="#A1732F"/>
<stop offset="0.1" stop-color="#A97A34"/>
<stop offset="0.25" stop-color="#BF9044"/>
<stop offset="0.44" stop-color="#E4B35D"/>
<stop offset="0.55" stop-color="#FDCB6E"/>
<stop offset="0.6" stop-color="#EDBB63"/>
<stop offset="0.71" stop-color="#CD9A4E"/>
<stop offset="0.81" stop-color="#B78340"/>
<stop offset="0.91" stop-color="#A97537"/>
<stop offset="1" stop-color="#A57134"/>
</linearGradient>
<linearGradient id="paint3_linear_27_1107" x1="11.4083" y1="12.6493" x2="11.4083" y2="0.0332964" gradientUnits="userSpaceOnUse">
<stop stop-color="#A1732F"/>
<stop offset="0.1" stop-color="#A97A34"/>
<stop offset="0.25" stop-color="#BF9044"/>
<stop offset="0.44" stop-color="#E4B35D"/>
<stop offset="0.55" stop-color="#FDCB6E"/>
<stop offset="0.6" stop-color="#EDBB63"/>
<stop offset="0.71" stop-color="#CD9A4E"/>
<stop offset="0.81" stop-color="#B78340"/>
<stop offset="0.91" stop-color="#A97537"/>
<stop offset="1" stop-color="#A57134"/>
</linearGradient>
<linearGradient id="paint4_linear_27_1107" x1="27.1201" y1="13.554" x2="27.1201" y2="12.226" gradientUnits="userSpaceOnUse">
<stop stop-color="#A1732F"/>
<stop offset="0.1" stop-color="#A97A34"/>
<stop offset="0.25" stop-color="#BF9044"/>
<stop offset="0.44" stop-color="#E4B35D"/>
<stop offset="0.55" stop-color="#FDCB6E"/>
<stop offset="0.6" stop-color="#EDBB63"/>
<stop offset="0.71" stop-color="#CD9A4E"/>
<stop offset="0.81" stop-color="#B78340"/>
<stop offset="0.91" stop-color="#A97537"/>
<stop offset="1" stop-color="#A57134"/>
</linearGradient>
<linearGradient id="paint5_linear_27_1107" x1="46.6749" y1="18.0691" x2="46.6749" y2="12.8484" gradientUnits="userSpaceOnUse">
<stop stop-color="#A1732F"/>
<stop offset="0.1" stop-color="#A97A34"/>
<stop offset="0.25" stop-color="#BF9044"/>
<stop offset="0.44" stop-color="#E4B35D"/>
<stop offset="0.55" stop-color="#FDCB6E"/>
<stop offset="0.6" stop-color="#EDBB63"/>
<stop offset="0.71" stop-color="#CD9A4E"/>
<stop offset="0.81" stop-color="#B78340"/>
<stop offset="0.91" stop-color="#A97537"/>
<stop offset="1" stop-color="#A57134"/>
</linearGradient>
<linearGradient id="paint6_linear_27_1107" x1="74.1145" y1="40.7362" x2="74.1145" y2="18.8907" gradientUnits="userSpaceOnUse">
<stop stop-color="#A1732F"/>
<stop offset="0.1" stop-color="#A97A34"/>
<stop offset="0.25" stop-color="#BF9044"/>
<stop offset="0.44" stop-color="#E4B35D"/>
<stop offset="0.55" stop-color="#FDCB6E"/>
<stop offset="0.6" stop-color="#EDBB63"/>
<stop offset="0.71" stop-color="#CD9A4E"/>
<stop offset="0.81" stop-color="#B78340"/>
<stop offset="0.91" stop-color="#A97537"/>
<stop offset="1" stop-color="#A57134"/>
</linearGradient>
<linearGradient id="paint7_linear_27_1107" x1="4.18726" y1="18.9239" x2="4.18726" y2="-1.7057e-05" gradientUnits="userSpaceOnUse">
<stop stop-color="#A1732F"/>
<stop offset="0.1" stop-color="#A97A34"/>
<stop offset="0.25" stop-color="#BF9044"/>
<stop offset="0.44" stop-color="#E4B35D"/>
<stop offset="0.55" stop-color="#FDCB6E"/>
<stop offset="0.6" stop-color="#EDBB63"/>
<stop offset="0.71" stop-color="#CD9A4E"/>
<stop offset="0.81" stop-color="#B78340"/>
<stop offset="0.91" stop-color="#A97537"/>
<stop offset="1" stop-color="#A57134"/>
</linearGradient>
<linearGradient id="paint8_linear_27_1107" x1="21.7749" y1="44.7701" x2="21.7749" y2="21.638" gradientUnits="userSpaceOnUse">
<stop stop-color="#A1732F"/>
<stop offset="0.1" stop-color="#A97A34"/>
<stop offset="0.25" stop-color="#BF9044"/>
<stop offset="0.44" stop-color="#E4B35D"/>
<stop offset="0.55" stop-color="#FDCB6E"/>
<stop offset="0.6" stop-color="#EDBB63"/>
<stop offset="0.71" stop-color="#CD9A4E"/>
<stop offset="0.81" stop-color="#B78340"/>
<stop offset="0.91" stop-color="#A97537"/>
<stop offset="1" stop-color="#A57134"/>
</linearGradient>
<linearGradient id="paint9_linear_27_1107" x1="63.2666" y1="50.5719" x2="63.2666" y2="43.5252" gradientUnits="userSpaceOnUse">
<stop stop-color="#A1732F"/>
<stop offset="0.1" stop-color="#A97A34"/>
<stop offset="0.25" stop-color="#BF9044"/>
<stop offset="0.44" stop-color="#E4B35D"/>
<stop offset="0.55" stop-color="#FDCB6E"/>
<stop offset="0.6" stop-color="#EDBB63"/>
<stop offset="0.71" stop-color="#CD9A4E"/>
<stop offset="0.81" stop-color="#B78340"/>
<stop offset="0.91" stop-color="#A97537"/>
<stop offset="1" stop-color="#A57134"/>
</linearGradient>
<linearGradient id="paint10_linear_27_1107" x1="66.271" y1="35.9639" x2="66.271" y2="18.7996" gradientUnits="userSpaceOnUse">
<stop stop-color="#A1732F"/>
<stop offset="0.1" stop-color="#A97A34"/>
<stop offset="0.25" stop-color="#BF9044"/>
<stop offset="0.44" stop-color="#E4B35D"/>
<stop offset="0.55" stop-color="#FDCB6E"/>
<stop offset="0.6" stop-color="#EDBB63"/>
<stop offset="0.71" stop-color="#CD9A4E"/>
<stop offset="0.81" stop-color="#B78340"/>
<stop offset="0.91" stop-color="#A97537"/>
<stop offset="1" stop-color="#A57134"/>
</linearGradient>
<linearGradient id="paint11_linear_27_1107" x1="64.2126" y1="35.856" x2="64.2126" y2="17.4384" gradientUnits="userSpaceOnUse">
<stop stop-color="#A1732F"/>
<stop offset="0.1" stop-color="#A97A34"/>
<stop offset="0.25" stop-color="#BF9044"/>
<stop offset="0.44" stop-color="#E4B35D"/>
<stop offset="0.55" stop-color="#FDCB6E"/>
<stop offset="0.6" stop-color="#EDBB63"/>
<stop offset="0.71" stop-color="#CD9A4E"/>
<stop offset="0.81" stop-color="#B78340"/>
<stop offset="0.91" stop-color="#A97537"/>
<stop offset="1" stop-color="#A57134"/>
</linearGradient>
<linearGradient id="paint12_linear_27_1107" x1="35.5943" y1="29.8881" x2="35.5943" y2="12.8068" gradientUnits="userSpaceOnUse">
<stop stop-color="#A1732F"/>
<stop offset="0.1" stop-color="#A97A34"/>
<stop offset="0.25" stop-color="#BF9044"/>
<stop offset="0.44" stop-color="#E4B35D"/>
<stop offset="0.55" stop-color="#FDCB6E"/>
<stop offset="0.6" stop-color="#EDBB63"/>
<stop offset="0.71" stop-color="#CD9A4E"/>
<stop offset="0.81" stop-color="#B78340"/>
<stop offset="0.91" stop-color="#A97537"/>
<stop offset="1" stop-color="#A57134"/>
</linearGradient>
<linearGradient id="paint13_linear_27_1107" x1="34.2332" y1="29.5977" x2="34.2332" y2="12.6989" gradientUnits="userSpaceOnUse">
<stop stop-color="#A1732F"/>
<stop offset="0.1" stop-color="#A97A34"/>
<stop offset="0.25" stop-color="#BF9044"/>
<stop offset="0.44" stop-color="#E4B35D"/>
<stop offset="0.55" stop-color="#FDCB6E"/>
<stop offset="0.6" stop-color="#EDBB63"/>
<stop offset="0.71" stop-color="#CD9A4E"/>
<stop offset="0.81" stop-color="#B78340"/>
<stop offset="0.91" stop-color="#A97537"/>
<stop offset="1" stop-color="#A57134"/>
</linearGradient>
<linearGradient id="paint14_linear_27_1107" x1="27.2778" y1="26.9418" x2="27.2778" y2="12.3007" gradientUnits="userSpaceOnUse">
<stop stop-color="#A1732F"/>
<stop offset="0.1" stop-color="#A97A34"/>
<stop offset="0.25" stop-color="#BF9044"/>
<stop offset="0.44" stop-color="#E4B35D"/>
<stop offset="0.55" stop-color="#FDCB6E"/>
<stop offset="0.6" stop-color="#EDBB63"/>
<stop offset="0.71" stop-color="#CD9A4E"/>
<stop offset="0.81" stop-color="#B78340"/>
<stop offset="0.91" stop-color="#A97537"/>
<stop offset="1" stop-color="#A57134"/>
</linearGradient>
<linearGradient id="paint15_linear_27_1107" x1="26.1158" y1="26.8671" x2="26.1158" y2="12.0184" gradientUnits="userSpaceOnUse">
<stop stop-color="#A1732F"/>
<stop offset="0.1" stop-color="#A97A34"/>
<stop offset="0.25" stop-color="#BF9044"/>
<stop offset="0.44" stop-color="#E4B35D"/>
<stop offset="0.55" stop-color="#FDCB6E"/>
<stop offset="0.6" stop-color="#EDBB63"/>
<stop offset="0.71" stop-color="#CD9A4E"/>
<stop offset="0.81" stop-color="#B78340"/>
<stop offset="0.91" stop-color="#A97537"/>
<stop offset="1" stop-color="#A57134"/>
</linearGradient>
<linearGradient id="paint16_linear_27_1107" x1="11.6074" y1="19.6128" x2="11.6074" y2="18.1022" gradientUnits="userSpaceOnUse">
<stop stop-color="#A1732F"/>
<stop offset="0.1" stop-color="#A97A34"/>
<stop offset="0.25" stop-color="#BF9044"/>
<stop offset="0.44" stop-color="#E4B35D"/>
<stop offset="0.55" stop-color="#FDCB6E"/>
<stop offset="0.6" stop-color="#EDBB63"/>
<stop offset="0.71" stop-color="#CD9A4E"/>
<stop offset="0.81" stop-color="#B78340"/>
<stop offset="0.91" stop-color="#A97537"/>
<stop offset="1" stop-color="#A57134"/>
</linearGradient>
<linearGradient id="paint17_linear_27_1107" x1="12.5951" y1="22.0114" x2="12.5951" y2="18.9819" gradientUnits="userSpaceOnUse">
<stop stop-color="#A1732F"/>
<stop offset="0.1" stop-color="#A97A34"/>
<stop offset="0.25" stop-color="#BF9044"/>
<stop offset="0.44" stop-color="#E4B35D"/>
<stop offset="0.55" stop-color="#FDCB6E"/>
<stop offset="0.6" stop-color="#EDBB63"/>
<stop offset="0.71" stop-color="#CD9A4E"/>
<stop offset="0.81" stop-color="#B78340"/>
<stop offset="0.91" stop-color="#A97537"/>
<stop offset="1" stop-color="#A57134"/>
</linearGradient>
<linearGradient id="paint18_linear_27_1107" x1="10.6363" y1="28.419" x2="10.6363" y2="20.9241" gradientUnits="userSpaceOnUse">
<stop stop-color="#A1732F"/>
<stop offset="0.1" stop-color="#A97A34"/>
<stop offset="0.25" stop-color="#BF9044"/>
<stop offset="0.44" stop-color="#E4B35D"/>
<stop offset="0.55" stop-color="#FDCB6E"/>
<stop offset="0.6" stop-color="#EDBB63"/>
<stop offset="0.71" stop-color="#CD9A4E"/>
<stop offset="0.81" stop-color="#B78340"/>
<stop offset="0.91" stop-color="#A97537"/>
<stop offset="1" stop-color="#A57134"/>
</linearGradient>
<linearGradient id="paint19_linear_27_1107" x1="43.9442" y1="44.7866" x2="43.9442" y2="34.9263" gradientUnits="userSpaceOnUse">
<stop stop-color="#A1732F"/>
<stop offset="0.1" stop-color="#A97A34"/>
<stop offset="0.25" stop-color="#BF9044"/>
<stop offset="0.44" stop-color="#E4B35D"/>
<stop offset="0.55" stop-color="#FDCB6E"/>
<stop offset="0.6" stop-color="#EDBB63"/>
<stop offset="0.71" stop-color="#CD9A4E"/>
<stop offset="0.81" stop-color="#B78340"/>
<stop offset="0.91" stop-color="#A97537"/>
<stop offset="1" stop-color="#A57134"/>
</linearGradient>
<linearGradient id="paint20_linear_27_1107" x1="46.1768" y1="46.5961" x2="46.1768" y2="35.084" gradientUnits="userSpaceOnUse">
<stop stop-color="#A1732F"/>
<stop offset="0.1" stop-color="#A97A34"/>
<stop offset="0.25" stop-color="#BF9044"/>
<stop offset="0.44" stop-color="#E4B35D"/>
<stop offset="0.55" stop-color="#FDCB6E"/>
<stop offset="0.6" stop-color="#EDBB63"/>
<stop offset="0.71" stop-color="#CD9A4E"/>
<stop offset="0.81" stop-color="#B78340"/>
<stop offset="0.91" stop-color="#A97537"/>
<stop offset="1" stop-color="#A57134"/>
</linearGradient>
<linearGradient id="paint21_linear_27_1107" x1="21.6089" y1="24.3188" x2="21.6089" y2="11.155" gradientUnits="userSpaceOnUse">
<stop stop-color="#A1732F"/>
<stop offset="0.1" stop-color="#A97A34"/>
<stop offset="0.25" stop-color="#BF9044"/>
<stop offset="0.44" stop-color="#E4B35D"/>
<stop offset="0.55" stop-color="#FDCB6E"/>
<stop offset="0.6" stop-color="#EDBB63"/>
<stop offset="0.71" stop-color="#CD9A4E"/>
<stop offset="0.81" stop-color="#B78340"/>
<stop offset="0.91" stop-color="#A97537"/>
<stop offset="1" stop-color="#A57134"/>
</linearGradient>
<linearGradient id="paint22_linear_27_1107" x1="20.3058" y1="23.4973" x2="20.3058" y2="10.6572" gradientUnits="userSpaceOnUse">
<stop stop-color="#A1732F"/>
<stop offset="0.1" stop-color="#A97A34"/>
<stop offset="0.25" stop-color="#BF9044"/>
<stop offset="0.44" stop-color="#E4B35D"/>
<stop offset="0.55" stop-color="#FDCB6E"/>
<stop offset="0.6" stop-color="#EDBB63"/>
<stop offset="0.71" stop-color="#CD9A4E"/>
<stop offset="0.81" stop-color="#B78340"/>
<stop offset="0.91" stop-color="#A97537"/>
<stop offset="1" stop-color="#A57134"/>
</linearGradient>
<linearGradient id="paint23_linear_27_1107" x1="18.3969" y1="22.0614" x2="18.3969" y2="10.1509" gradientUnits="userSpaceOnUse">
<stop stop-color="#A1732F"/>
<stop offset="0.1" stop-color="#A97A34"/>
<stop offset="0.25" stop-color="#BF9044"/>
<stop offset="0.44" stop-color="#E4B35D"/>
<stop offset="0.55" stop-color="#FDCB6E"/>
<stop offset="0.6" stop-color="#EDBB63"/>
<stop offset="0.71" stop-color="#CD9A4E"/>
<stop offset="0.81" stop-color="#B78340"/>
<stop offset="0.91" stop-color="#A97537"/>
<stop offset="1" stop-color="#A57134"/>
</linearGradient>
<linearGradient id="paint24_linear_27_1107" x1="16.5128" y1="20.31" x2="16.5128" y2="9.69434" gradientUnits="userSpaceOnUse">
<stop stop-color="#A1732F"/>
<stop offset="0.1" stop-color="#A97A34"/>
<stop offset="0.25" stop-color="#BF9044"/>
<stop offset="0.44" stop-color="#E4B35D"/>
<stop offset="0.55" stop-color="#FDCB6E"/>
<stop offset="0.6" stop-color="#EDBB63"/>
<stop offset="0.71" stop-color="#CD9A4E"/>
<stop offset="0.81" stop-color="#B78340"/>
<stop offset="0.91" stop-color="#A97537"/>
<stop offset="1" stop-color="#A57134"/>
</linearGradient>
<linearGradient id="paint25_linear_27_1107" x1="32.8804" y1="28.8923" x2="32.8804" y2="13.0808" gradientUnits="userSpaceOnUse">
<stop stop-color="#A1732F"/>
<stop offset="0.1" stop-color="#A97A34"/>
<stop offset="0.25" stop-color="#BF9044"/>
<stop offset="0.44" stop-color="#E4B35D"/>
<stop offset="0.55" stop-color="#FDCB6E"/>
<stop offset="0.6" stop-color="#EDBB63"/>
<stop offset="0.71" stop-color="#CD9A4E"/>
<stop offset="0.81" stop-color="#B78340"/>
<stop offset="0.91" stop-color="#A97537"/>
<stop offset="1" stop-color="#A57134"/>
</linearGradient>
<linearGradient id="paint26_linear_27_1107" x1="31.5191" y1="28.3279" x2="31.5191" y2="12.9729" gradientUnits="userSpaceOnUse">
<stop stop-color="#A1732F"/>
<stop offset="0.1" stop-color="#A97A34"/>
<stop offset="0.25" stop-color="#BF9044"/>
<stop offset="0.44" stop-color="#E4B35D"/>
<stop offset="0.55" stop-color="#FDCB6E"/>
<stop offset="0.6" stop-color="#EDBB63"/>
<stop offset="0.71" stop-color="#CD9A4E"/>
<stop offset="0.81" stop-color="#B78340"/>
<stop offset="0.91" stop-color="#A97537"/>
<stop offset="1" stop-color="#A57134"/>
</linearGradient>
<linearGradient id="paint27_linear_27_1107" x1="30.133" y1="27.7718" x2="30.133" y2="12.8235" gradientUnits="userSpaceOnUse">
<stop stop-color="#A1732F"/>
<stop offset="0.1" stop-color="#A97A34"/>
<stop offset="0.25" stop-color="#BF9044"/>
<stop offset="0.44" stop-color="#E4B35D"/>
<stop offset="0.55" stop-color="#FDCB6E"/>
<stop offset="0.6" stop-color="#EDBB63"/>
<stop offset="0.71" stop-color="#CD9A4E"/>
<stop offset="0.81" stop-color="#B78340"/>
<stop offset="0.91" stop-color="#A97537"/>
<stop offset="1" stop-color="#A57134"/>
</linearGradient>
<linearGradient id="paint28_linear_27_1107" x1="28.8466" y1="27.0165" x2="28.8466" y2="12.7654" gradientUnits="userSpaceOnUse">
<stop stop-color="#A1732F"/>
<stop offset="0.1" stop-color="#A97A34"/>
<stop offset="0.25" stop-color="#BF9044"/>
<stop offset="0.44" stop-color="#E4B35D"/>
<stop offset="0.55" stop-color="#FDCB6E"/>
<stop offset="0.6" stop-color="#EDBB63"/>
<stop offset="0.71" stop-color="#CD9A4E"/>
<stop offset="0.81" stop-color="#B78340"/>
<stop offset="0.91" stop-color="#A97537"/>
<stop offset="1" stop-color="#A57134"/>
</linearGradient>
<linearGradient id="paint29_linear_27_1107" x1="58.3778" y1="34.3371" x2="58.3778" y2="16.0854" gradientUnits="userSpaceOnUse">
<stop stop-color="#A1732F"/>
<stop offset="0.1" stop-color="#A97A34"/>
<stop offset="0.25" stop-color="#BF9044"/>
<stop offset="0.44" stop-color="#E4B35D"/>
<stop offset="0.55" stop-color="#FDCB6E"/>
<stop offset="0.6" stop-color="#EDBB63"/>
<stop offset="0.71" stop-color="#CD9A4E"/>
<stop offset="0.81" stop-color="#B78340"/>
<stop offset="0.91" stop-color="#A97537"/>
<stop offset="1" stop-color="#A57134"/>
</linearGradient>
<linearGradient id="paint30_linear_27_1107" x1="57.108" y1="34.1628" x2="57.108" y2="15.936" gradientUnits="userSpaceOnUse">
<stop stop-color="#A1732F"/>
<stop offset="0.1" stop-color="#A97A34"/>
<stop offset="0.25" stop-color="#BF9044"/>
<stop offset="0.44" stop-color="#E4B35D"/>
<stop offset="0.55" stop-color="#FDCB6E"/>
<stop offset="0.6" stop-color="#EDBB63"/>
<stop offset="0.71" stop-color="#CD9A4E"/>
<stop offset="0.81" stop-color="#B78340"/>
<stop offset="0.91" stop-color="#A97537"/>
<stop offset="1" stop-color="#A57134"/>
</linearGradient>
<linearGradient id="paint31_linear_27_1107" x1="55.8048" y1="33.9719" x2="55.8048" y2="15.7368" gradientUnits="userSpaceOnUse">
<stop stop-color="#A1732F"/>
<stop offset="0.1" stop-color="#A97A34"/>
<stop offset="0.25" stop-color="#BF9044"/>
<stop offset="0.44" stop-color="#E4B35D"/>
<stop offset="0.55" stop-color="#FDCB6E"/>
<stop offset="0.6" stop-color="#EDBB63"/>
<stop offset="0.71" stop-color="#CD9A4E"/>
<stop offset="0.81" stop-color="#B78340"/>
<stop offset="0.91" stop-color="#A97537"/>
<stop offset="1" stop-color="#A57134"/>
</linearGradient>
<linearGradient id="paint32_linear_27_1107" x1="50.5427" y1="33.1917" x2="50.5427" y2="15.4214" gradientUnits="userSpaceOnUse">
<stop stop-color="#A1732F"/>
<stop offset="0.1" stop-color="#A97A34"/>
<stop offset="0.25" stop-color="#BF9044"/>
<stop offset="0.44" stop-color="#E4B35D"/>
<stop offset="0.55" stop-color="#FDCB6E"/>
<stop offset="0.6" stop-color="#EDBB63"/>
<stop offset="0.71" stop-color="#CD9A4E"/>
<stop offset="0.81" stop-color="#B78340"/>
<stop offset="0.91" stop-color="#A97537"/>
<stop offset="1" stop-color="#A57134"/>
</linearGradient>
<linearGradient id="paint33_linear_27_1107" x1="49.1981" y1="32.9924" x2="49.1981" y2="15.1309" gradientUnits="userSpaceOnUse">
<stop stop-color="#A1732F"/>
<stop offset="0.1" stop-color="#A97A34"/>
<stop offset="0.25" stop-color="#BF9044"/>
<stop offset="0.44" stop-color="#E4B35D"/>
<stop offset="0.55" stop-color="#FDCB6E"/>
<stop offset="0.6" stop-color="#EDBB63"/>
<stop offset="0.71" stop-color="#CD9A4E"/>
<stop offset="0.81" stop-color="#B78340"/>
<stop offset="0.91" stop-color="#A97537"/>
<stop offset="1" stop-color="#A57134"/>
</linearGradient>
<linearGradient id="paint34_linear_27_1107" x1="47.7871" y1="32.8017" x2="47.7871" y2="14.7991" gradientUnits="userSpaceOnUse">
<stop stop-color="#A1732F"/>
<stop offset="0.1" stop-color="#A97A34"/>
<stop offset="0.25" stop-color="#BF9044"/>
<stop offset="0.44" stop-color="#E4B35D"/>
<stop offset="0.55" stop-color="#FDCB6E"/>
<stop offset="0.6" stop-color="#EDBB63"/>
<stop offset="0.71" stop-color="#CD9A4E"/>
<stop offset="0.81" stop-color="#B78340"/>
<stop offset="0.91" stop-color="#A97537"/>
<stop offset="1" stop-color="#A57134"/>
</linearGradient>
<linearGradient id="paint35_linear_27_1107" x1="46.3263" y1="32.6025" x2="46.3263" y2="14.4006" gradientUnits="userSpaceOnUse">
<stop stop-color="#A1732F"/>
<stop offset="0.1" stop-color="#A97A34"/>
<stop offset="0.25" stop-color="#BF9044"/>
<stop offset="0.44" stop-color="#E4B35D"/>
<stop offset="0.55" stop-color="#FDCB6E"/>
<stop offset="0.6" stop-color="#EDBB63"/>
<stop offset="0.71" stop-color="#CD9A4E"/>
<stop offset="0.81" stop-color="#B78340"/>
<stop offset="0.91" stop-color="#A97537"/>
<stop offset="1" stop-color="#A57134"/>
</linearGradient>
<linearGradient id="paint36_linear_27_1107" x1="44.7493" y1="32.2041" x2="44.7493" y2="14.1101" gradientUnits="userSpaceOnUse">
<stop stop-color="#A1732F"/>
<stop offset="0.1" stop-color="#A97A34"/>
<stop offset="0.25" stop-color="#BF9044"/>
<stop offset="0.44" stop-color="#E4B35D"/>
<stop offset="0.55" stop-color="#FDCB6E"/>
<stop offset="0.6" stop-color="#EDBB63"/>
<stop offset="0.71" stop-color="#CD9A4E"/>
<stop offset="0.81" stop-color="#B78340"/>
<stop offset="0.91" stop-color="#A97537"/>
<stop offset="1" stop-color="#A57134"/>
</linearGradient>
<linearGradient id="paint37_linear_27_1107" x1="42.9316" y1="31.6645" x2="42.9316" y2="13.8113" gradientUnits="userSpaceOnUse">
<stop stop-color="#A1732F"/>
<stop offset="0.1" stop-color="#A97A34"/>
<stop offset="0.25" stop-color="#BF9044"/>
<stop offset="0.44" stop-color="#E4B35D"/>
<stop offset="0.55" stop-color="#FDCB6E"/>
<stop offset="0.6" stop-color="#EDBB63"/>
<stop offset="0.71" stop-color="#CD9A4E"/>
<stop offset="0.81" stop-color="#B78340"/>
<stop offset="0.91" stop-color="#A97537"/>
<stop offset="1" stop-color="#A57134"/>
</linearGradient>
<linearGradient id="paint38_linear_27_1107" x1="41.6036" y1="31.2246" x2="41.6036" y2="13.6287" gradientUnits="userSpaceOnUse">
<stop stop-color="#A1732F"/>
<stop offset="0.1" stop-color="#A97A34"/>
<stop offset="0.25" stop-color="#BF9044"/>
<stop offset="0.44" stop-color="#E4B35D"/>
<stop offset="0.55" stop-color="#FDCB6E"/>
<stop offset="0.6" stop-color="#EDBB63"/>
<stop offset="0.71" stop-color="#CD9A4E"/>
<stop offset="0.81" stop-color="#B78340"/>
<stop offset="0.91" stop-color="#A97537"/>
<stop offset="1" stop-color="#A57134"/>
</linearGradient>
<linearGradient id="paint39_linear_27_1107" x1="81.4766" y1="39.9312" x2="81.4766" y2="33.1252" gradientUnits="userSpaceOnUse">
<stop stop-color="#A1732F"/>
<stop offset="0.1" stop-color="#A97A34"/>
<stop offset="0.25" stop-color="#BF9044"/>
<stop offset="0.44" stop-color="#E4B35D"/>
<stop offset="0.55" stop-color="#FDCB6E"/>
<stop offset="0.6" stop-color="#EDBB63"/>
<stop offset="0.71" stop-color="#CD9A4E"/>
<stop offset="0.81" stop-color="#B78340"/>
<stop offset="0.91" stop-color="#A97537"/>
<stop offset="1" stop-color="#A57134"/>
</linearGradient>
<linearGradient id="paint40_linear_27_1107" x1="80.273" y1="39.6572" x2="80.273" y2="31.3904" gradientUnits="userSpaceOnUse">
<stop stop-color="#A1732F"/>
<stop offset="0.1" stop-color="#A97A34"/>
<stop offset="0.25" stop-color="#BF9044"/>
<stop offset="0.44" stop-color="#E4B35D"/>
<stop offset="0.55" stop-color="#FDCB6E"/>
<stop offset="0.6" stop-color="#EDBB63"/>
<stop offset="0.71" stop-color="#CD9A4E"/>
<stop offset="0.81" stop-color="#B78340"/>
<stop offset="0.91" stop-color="#A97537"/>
<stop offset="1" stop-color="#A57134"/>
</linearGradient>
<linearGradient id="paint41_linear_27_1107" x1="78.9949" y1="39.4082" x2="78.9949" y2="29.6143" gradientUnits="userSpaceOnUse">
<stop stop-color="#A1732F"/>
<stop offset="0.1" stop-color="#A97A34"/>
<stop offset="0.25" stop-color="#BF9044"/>
<stop offset="0.44" stop-color="#E4B35D"/>
<stop offset="0.55" stop-color="#FDCB6E"/>
<stop offset="0.6" stop-color="#EDBB63"/>
<stop offset="0.71" stop-color="#CD9A4E"/>
<stop offset="0.81" stop-color="#B78340"/>
<stop offset="0.91" stop-color="#A97537"/>
<stop offset="1" stop-color="#A57134"/>
</linearGradient>
<linearGradient id="paint42_linear_27_1107" x1="77.5341" y1="39.0099" x2="77.5341" y2="27.9792" gradientUnits="userSpaceOnUse">
<stop stop-color="#A1732F"/>
<stop offset="0.1" stop-color="#A97A34"/>
<stop offset="0.25" stop-color="#BF9044"/>
<stop offset="0.44" stop-color="#E4B35D"/>
<stop offset="0.55" stop-color="#FDCB6E"/>
<stop offset="0.6" stop-color="#EDBB63"/>
<stop offset="0.71" stop-color="#CD9A4E"/>
<stop offset="0.81" stop-color="#B78340"/>
<stop offset="0.91" stop-color="#A97537"/>
<stop offset="1" stop-color="#A57134"/>
</linearGradient>
<linearGradient id="paint43_linear_27_1107" x1="76.3472" y1="38.6197" x2="76.3472" y2="26.7839" gradientUnits="userSpaceOnUse">
<stop stop-color="#A1732F"/>
<stop offset="0.1" stop-color="#A97A34"/>
<stop offset="0.25" stop-color="#BF9044"/>
<stop offset="0.44" stop-color="#E4B35D"/>
<stop offset="0.55" stop-color="#FDCB6E"/>
<stop offset="0.6" stop-color="#EDBB63"/>
<stop offset="0.71" stop-color="#CD9A4E"/>
<stop offset="0.81" stop-color="#B78340"/>
<stop offset="0.91" stop-color="#A97537"/>
<stop offset="1" stop-color="#A57134"/>
</linearGradient>
<linearGradient id="paint44_linear_27_1107" x1="20.2976" y1="29.9131" x2="20.2976" y2="25.4727" gradientUnits="userSpaceOnUse">
<stop stop-color="#A1732F"/>
<stop offset="0.1" stop-color="#A97A34"/>
<stop offset="0.25" stop-color="#BF9044"/>
<stop offset="0.44" stop-color="#E4B35D"/>
<stop offset="0.55" stop-color="#FDCB6E"/>
<stop offset="0.6" stop-color="#EDBB63"/>
<stop offset="0.71" stop-color="#CD9A4E"/>
<stop offset="0.81" stop-color="#B78340"/>
<stop offset="0.91" stop-color="#A97537"/>
<stop offset="1" stop-color="#A57134"/>
</linearGradient>
<linearGradient id="paint45_linear_27_1107" x1="21.7916" y1="31.067" x2="21.7916" y2="26.6431" gradientUnits="userSpaceOnUse">
<stop stop-color="#A1732F"/>
<stop offset="0.1" stop-color="#A97A34"/>
<stop offset="0.25" stop-color="#BF9044"/>
<stop offset="0.44" stop-color="#E4B35D"/>
<stop offset="0.55" stop-color="#FDCB6E"/>
<stop offset="0.6" stop-color="#EDBB63"/>
<stop offset="0.71" stop-color="#CD9A4E"/>
<stop offset="0.81" stop-color="#B78340"/>
<stop offset="0.91" stop-color="#A97537"/>
<stop offset="1" stop-color="#A57134"/>
</linearGradient>
<linearGradient id="paint46_linear_27_1107" x1="23.352" y1="32.2952" x2="23.352" y2="27.4895" gradientUnits="userSpaceOnUse">
<stop stop-color="#A1732F"/>
<stop offset="0.1" stop-color="#A97A34"/>
<stop offset="0.25" stop-color="#BF9044"/>
<stop offset="0.44" stop-color="#E4B35D"/>
<stop offset="0.55" stop-color="#FDCB6E"/>
<stop offset="0.6" stop-color="#EDBB63"/>
<stop offset="0.71" stop-color="#CD9A4E"/>
<stop offset="0.81" stop-color="#B78340"/>
<stop offset="0.91" stop-color="#A97537"/>
<stop offset="1" stop-color="#A57134"/>
</linearGradient>
<linearGradient id="paint47_linear_27_1107" x1="24.8709" y1="33.7395" x2="24.8709" y2="28.22" gradientUnits="userSpaceOnUse">
<stop stop-color="#A1732F"/>
<stop offset="0.1" stop-color="#A97A34"/>
<stop offset="0.25" stop-color="#BF9044"/>
<stop offset="0.44" stop-color="#E4B35D"/>
<stop offset="0.55" stop-color="#FDCB6E"/>
<stop offset="0.6" stop-color="#EDBB63"/>
<stop offset="0.71" stop-color="#CD9A4E"/>
<stop offset="0.81" stop-color="#B78340"/>
<stop offset="0.91" stop-color="#A97537"/>
<stop offset="1" stop-color="#A57134"/>
</linearGradient>
<linearGradient id="paint48_linear_27_1107" x1="26.5806" y1="35.2999" x2="26.5806" y2="28.884" gradientUnits="userSpaceOnUse">
<stop stop-color="#A1732F"/>
<stop offset="0.1" stop-color="#A97A34"/>
<stop offset="0.25" stop-color="#BF9044"/>
<stop offset="0.44" stop-color="#E4B35D"/>
<stop offset="0.55" stop-color="#FDCB6E"/>
<stop offset="0.6" stop-color="#EDBB63"/>
<stop offset="0.71" stop-color="#CD9A4E"/>
<stop offset="0.81" stop-color="#B78340"/>
<stop offset="0.91" stop-color="#A97537"/>
<stop offset="1" stop-color="#A57134"/>
</linearGradient>
<linearGradient id="paint49_linear_27_1107" x1="28.2822" y1="36.7854" x2="28.2822" y2="29.606" gradientUnits="userSpaceOnUse">
<stop stop-color="#A1732F"/>
<stop offset="0.1" stop-color="#A97A34"/>
<stop offset="0.25" stop-color="#BF9044"/>
<stop offset="0.44" stop-color="#E4B35D"/>
<stop offset="0.55" stop-color="#FDCB6E"/>
<stop offset="0.6" stop-color="#EDBB63"/>
<stop offset="0.71" stop-color="#CD9A4E"/>
<stop offset="0.81" stop-color="#B78340"/>
<stop offset="0.91" stop-color="#A97537"/>
<stop offset="1" stop-color="#A57134"/>
</linearGradient>
<linearGradient id="paint50_linear_27_1107" x1="29.8011" y1="37.9475" x2="29.8011" y2="30.2036" gradientUnits="userSpaceOnUse">
<stop stop-color="#A1732F"/>
<stop offset="0.1" stop-color="#A97A34"/>
<stop offset="0.25" stop-color="#BF9044"/>
<stop offset="0.44" stop-color="#E4B35D"/>
<stop offset="0.55" stop-color="#FDCB6E"/>
<stop offset="0.6" stop-color="#EDBB63"/>
<stop offset="0.71" stop-color="#CD9A4E"/>
<stop offset="0.81" stop-color="#B78340"/>
<stop offset="0.91" stop-color="#A97537"/>
<stop offset="1" stop-color="#A57134"/>
</linearGradient>
<linearGradient id="paint51_linear_27_1107" x1="31.6603" y1="39.0764" x2="31.6603" y2="30.8428" gradientUnits="userSpaceOnUse">
<stop stop-color="#A1732F"/>
<stop offset="0.1" stop-color="#A97A34"/>
<stop offset="0.25" stop-color="#BF9044"/>
<stop offset="0.44" stop-color="#E4B35D"/>
<stop offset="0.55" stop-color="#FDCB6E"/>
<stop offset="0.6" stop-color="#EDBB63"/>
<stop offset="0.71" stop-color="#CD9A4E"/>
<stop offset="0.81" stop-color="#B78340"/>
<stop offset="0.91" stop-color="#A97537"/>
<stop offset="1" stop-color="#A57134"/>
</linearGradient>
<linearGradient id="paint52_linear_27_1107" x1="33.8681" y1="40.2965" x2="33.8681" y2="31.5732" gradientUnits="userSpaceOnUse">
<stop stop-color="#A1732F"/>
<stop offset="0.1" stop-color="#A97A34"/>
<stop offset="0.25" stop-color="#BF9044"/>
<stop offset="0.44" stop-color="#E4B35D"/>
<stop offset="0.55" stop-color="#FDCB6E"/>
<stop offset="0.6" stop-color="#EDBB63"/>
<stop offset="0.71" stop-color="#CD9A4E"/>
<stop offset="0.81" stop-color="#B78340"/>
<stop offset="0.91" stop-color="#A97537"/>
<stop offset="1" stop-color="#A57134"/>
</linearGradient>
<linearGradient id="paint53_linear_27_1107" x1="35.9348" y1="41.3421" x2="35.9348" y2="32.1375" gradientUnits="userSpaceOnUse">
<stop stop-color="#A1732F"/>
<stop offset="0.1" stop-color="#A97A34"/>
<stop offset="0.25" stop-color="#BF9044"/>
<stop offset="0.44" stop-color="#E4B35D"/>
<stop offset="0.55" stop-color="#FDCB6E"/>
<stop offset="0.6" stop-color="#EDBB63"/>
<stop offset="0.71" stop-color="#CD9A4E"/>
<stop offset="0.81" stop-color="#B78340"/>
<stop offset="0.91" stop-color="#A97537"/>
<stop offset="1" stop-color="#A57134"/>
</linearGradient>
<linearGradient id="paint54_linear_27_1107" x1="57.9379" y1="49.6504" x2="57.9379" y2="37.0427" gradientUnits="userSpaceOnUse">
<stop stop-color="#A1732F"/>
<stop offset="0.1" stop-color="#A97A34"/>
<stop offset="0.25" stop-color="#BF9044"/>
<stop offset="0.44" stop-color="#E4B35D"/>
<stop offset="0.55" stop-color="#FDCB6E"/>
<stop offset="0.6" stop-color="#EDBB63"/>
<stop offset="0.71" stop-color="#CD9A4E"/>
<stop offset="0.81" stop-color="#B78340"/>
<stop offset="0.91" stop-color="#A97537"/>
<stop offset="1" stop-color="#A57134"/>
</linearGradient>
<linearGradient id="paint55_linear_27_1107" x1="59.2577" y1="49.8994" x2="59.2577" y2="37.2585" gradientUnits="userSpaceOnUse">
<stop stop-color="#A1732F"/>
<stop offset="0.1" stop-color="#A97A34"/>
<stop offset="0.25" stop-color="#BF9044"/>
<stop offset="0.44" stop-color="#E4B35D"/>
<stop offset="0.55" stop-color="#FDCB6E"/>
<stop offset="0.6" stop-color="#EDBB63"/>
<stop offset="0.71" stop-color="#CD9A4E"/>
<stop offset="0.81" stop-color="#B78340"/>
<stop offset="0.91" stop-color="#A97537"/>
<stop offset="1" stop-color="#A57134"/>
</linearGradient>
<linearGradient id="paint56_linear_27_1107" x1="60.7767" y1="50.1899" x2="60.7767" y2="37.4661" gradientUnits="userSpaceOnUse">
<stop stop-color="#A1732F"/>
<stop offset="0.1" stop-color="#A97A34"/>
<stop offset="0.25" stop-color="#BF9044"/>
<stop offset="0.44" stop-color="#E4B35D"/>
<stop offset="0.55" stop-color="#FDCB6E"/>
<stop offset="0.6" stop-color="#EDBB63"/>
<stop offset="0.71" stop-color="#CD9A4E"/>
<stop offset="0.81" stop-color="#B78340"/>
<stop offset="0.91" stop-color="#A97537"/>
<stop offset="1" stop-color="#A57134"/>
</linearGradient>
<linearGradient id="paint57_linear_27_1107" x1="62.3535" y1="50.3892" x2="62.3535" y2="37.657" gradientUnits="userSpaceOnUse">
<stop stop-color="#A1732F"/>
<stop offset="0.1" stop-color="#A97A34"/>
<stop offset="0.25" stop-color="#BF9044"/>
<stop offset="0.44" stop-color="#E4B35D"/>
<stop offset="0.55" stop-color="#FDCB6E"/>
<stop offset="0.6" stop-color="#EDBB63"/>
<stop offset="0.71" stop-color="#CD9A4E"/>
<stop offset="0.81" stop-color="#B78340"/>
<stop offset="0.91" stop-color="#A97537"/>
<stop offset="1" stop-color="#A57134"/>
</linearGradient>
<linearGradient id="paint58_linear_27_1107" x1="64.2043" y1="50.4058" x2="64.2043" y2="37.989" gradientUnits="userSpaceOnUse">
<stop stop-color="#A1732F"/>
<stop offset="0.1" stop-color="#A97A34"/>
<stop offset="0.25" stop-color="#BF9044"/>
<stop offset="0.44" stop-color="#E4B35D"/>
<stop offset="0.55" stop-color="#FDCB6E"/>
<stop offset="0.6" stop-color="#EDBB63"/>
<stop offset="0.71" stop-color="#CD9A4E"/>
<stop offset="0.81" stop-color="#B78340"/>
<stop offset="0.91" stop-color="#A97537"/>
<stop offset="1" stop-color="#A57134"/>
</linearGradient>
<linearGradient id="paint59_linear_27_1107" x1="65.7317" y1="50.3475" x2="65.7317" y2="38.354" gradientUnits="userSpaceOnUse">
<stop stop-color="#A1732F"/>
<stop offset="0.1" stop-color="#A97A34"/>
<stop offset="0.25" stop-color="#BF9044"/>
<stop offset="0.44" stop-color="#E4B35D"/>
<stop offset="0.55" stop-color="#FDCB6E"/>
<stop offset="0.6" stop-color="#EDBB63"/>
<stop offset="0.71" stop-color="#CD9A4E"/>
<stop offset="0.81" stop-color="#B78340"/>
<stop offset="0.91" stop-color="#A97537"/>
<stop offset="1" stop-color="#A57134"/>
</linearGradient>
<linearGradient id="paint60_linear_27_1107" x1="67.2922" y1="50.1815" x2="67.2922" y2="38.7358" gradientUnits="userSpaceOnUse">
<stop stop-color="#A1732F"/>
<stop offset="0.1" stop-color="#A97A34"/>
<stop offset="0.25" stop-color="#BF9044"/>
<stop offset="0.44" stop-color="#E4B35D"/>
<stop offset="0.55" stop-color="#FDCB6E"/>
<stop offset="0.6" stop-color="#EDBB63"/>
<stop offset="0.71" stop-color="#CD9A4E"/>
<stop offset="0.81" stop-color="#B78340"/>
<stop offset="0.91" stop-color="#A97537"/>
<stop offset="1" stop-color="#A57134"/>
</linearGradient>
<linearGradient id="paint61_linear_27_1107" x1="68.9603" y1="49.833" x2="68.9603" y2="39.1177" gradientUnits="userSpaceOnUse">
<stop stop-color="#A1732F"/>
<stop offset="0.1" stop-color="#A97A34"/>
<stop offset="0.25" stop-color="#BF9044"/>
<stop offset="0.44" stop-color="#E4B35D"/>
<stop offset="0.55" stop-color="#FDCB6E"/>
<stop offset="0.6" stop-color="#EDBB63"/>
<stop offset="0.71" stop-color="#CD9A4E"/>
<stop offset="0.81" stop-color="#B78340"/>
<stop offset="0.91" stop-color="#A97537"/>
<stop offset="1" stop-color="#A57134"/>
</linearGradient>
<linearGradient id="paint62_linear_27_1107" x1="51.5221" y1="19.0569" x2="51.5221" y2="17.4218" gradientUnits="userSpaceOnUse">
<stop stop-color="#A1732F"/>
<stop offset="0.1" stop-color="#A97A34"/>
<stop offset="0.25" stop-color="#BF9044"/>
<stop offset="0.44" stop-color="#E4B35D"/>
<stop offset="0.55" stop-color="#FDCB6E"/>
<stop offset="0.6" stop-color="#EDBB63"/>
<stop offset="0.71" stop-color="#CD9A4E"/>
<stop offset="0.81" stop-color="#B78340"/>
<stop offset="0.91" stop-color="#A97537"/>
<stop offset="1" stop-color="#A57134"/>
</linearGradient>
<linearGradient id="paint63_linear_27_1107" x1="52.6343" y1="21.6548" x2="52.6343" y2="20.0197" gradientUnits="userSpaceOnUse">
<stop stop-color="#A1732F"/>
<stop offset="0.1" stop-color="#A97A34"/>
<stop offset="0.25" stop-color="#BF9044"/>
<stop offset="0.44" stop-color="#E4B35D"/>
<stop offset="0.55" stop-color="#FDCB6E"/>
<stop offset="0.6" stop-color="#EDBB63"/>
<stop offset="0.71" stop-color="#CD9A4E"/>
<stop offset="0.81" stop-color="#B78340"/>
<stop offset="0.91" stop-color="#A97537"/>
<stop offset="1" stop-color="#A57134"/>
</linearGradient>
<linearGradient id="paint64_linear_27_1107" x1="53.7548" y1="24.4768" x2="53.7548" y2="22.8417" gradientUnits="userSpaceOnUse">
<stop stop-color="#A1732F"/>
<stop offset="0.1" stop-color="#A97A34"/>
<stop offset="0.25" stop-color="#BF9044"/>
<stop offset="0.44" stop-color="#E4B35D"/>
<stop offset="0.55" stop-color="#FDCB6E"/>
<stop offset="0.6" stop-color="#EDBB63"/>
<stop offset="0.71" stop-color="#CD9A4E"/>
<stop offset="0.81" stop-color="#B78340"/>
<stop offset="0.91" stop-color="#A97537"/>
<stop offset="1" stop-color="#A57134"/>
</linearGradient>
<linearGradient id="paint65_linear_27_1107" x1="54.618" y1="27.1245" x2="54.618" y2="25.4894" gradientUnits="userSpaceOnUse">
<stop stop-color="#A1732F"/>
<stop offset="0.1" stop-color="#A97A34"/>
<stop offset="0.25" stop-color="#BF9044"/>
<stop offset="0.44" stop-color="#E4B35D"/>
<stop offset="0.55" stop-color="#FDCB6E"/>
<stop offset="0.6" stop-color="#EDBB63"/>
<stop offset="0.71" stop-color="#CD9A4E"/>
<stop offset="0.81" stop-color="#B78340"/>
<stop offset="0.91" stop-color="#A97537"/>
<stop offset="1" stop-color="#A57134"/>
</linearGradient>
<linearGradient id="paint66_linear_27_1107" x1="55.4064" y1="29.6892" x2="55.4064" y2="28.0541" gradientUnits="userSpaceOnUse">
<stop stop-color="#A1732F"/>
<stop offset="0.1" stop-color="#A97A34"/>
<stop offset="0.25" stop-color="#BF9044"/>
<stop offset="0.44" stop-color="#E4B35D"/>
<stop offset="0.55" stop-color="#FDCB6E"/>
<stop offset="0.6" stop-color="#EDBB63"/>
<stop offset="0.71" stop-color="#CD9A4E"/>
<stop offset="0.81" stop-color="#B78340"/>
<stop offset="0.91" stop-color="#A97537"/>
<stop offset="1" stop-color="#A57134"/>
</linearGradient>
<linearGradient id="paint67_linear_27_1107" x1="55.946" y1="32.4199" x2="55.946" y2="30.7848" gradientUnits="userSpaceOnUse">
<stop stop-color="#A1732F"/>
<stop offset="0.1" stop-color="#A97A34"/>
<stop offset="0.25" stop-color="#BF9044"/>
<stop offset="0.44" stop-color="#E4B35D"/>
<stop offset="0.55" stop-color="#FDCB6E"/>
<stop offset="0.6" stop-color="#EDBB63"/>
<stop offset="0.71" stop-color="#CD9A4E"/>
<stop offset="0.81" stop-color="#B78340"/>
<stop offset="0.91" stop-color="#A97537"/>
<stop offset="1" stop-color="#A57134"/>
</linearGradient>
<linearGradient id="paint68_linear_27_1107" x1="22.6381" y1="26.203" x2="22.6381" y2="25.0493" gradientUnits="userSpaceOnUse">
<stop stop-color="#A1732F"/>
<stop offset="0.1" stop-color="#A97A34"/>
<stop offset="0.25" stop-color="#BF9044"/>
<stop offset="0.44" stop-color="#E4B35D"/>
<stop offset="0.55" stop-color="#FDCB6E"/>
<stop offset="0.6" stop-color="#EDBB63"/>
<stop offset="0.71" stop-color="#CD9A4E"/>
<stop offset="0.81" stop-color="#B78340"/>
<stop offset="0.91" stop-color="#A97537"/>
<stop offset="1" stop-color="#A57134"/>
</linearGradient>
<linearGradient id="paint69_linear_27_1107" x1="20.8785" y1="27.0165" x2="20.8785" y2="25.8628" gradientUnits="userSpaceOnUse">
<stop stop-color="#A1732F"/>
<stop offset="0.1" stop-color="#A97A34"/>
<stop offset="0.25" stop-color="#BF9044"/>
<stop offset="0.44" stop-color="#E4B35D"/>
<stop offset="0.55" stop-color="#FDCB6E"/>
<stop offset="0.6" stop-color="#EDBB63"/>
<stop offset="0.71" stop-color="#CD9A4E"/>
<stop offset="0.81" stop-color="#B78340"/>
<stop offset="0.91" stop-color="#A97537"/>
<stop offset="1" stop-color="#A57134"/>
</linearGradient>
<linearGradient id="paint70_linear_27_1107" x1="19.1439" y1="27.589" x2="19.1439" y2="26.427" gradientUnits="userSpaceOnUse">
<stop stop-color="#A1732F"/>
<stop offset="0.1" stop-color="#A97A34"/>
<stop offset="0.25" stop-color="#BF9044"/>
<stop offset="0.44" stop-color="#E4B35D"/>
<stop offset="0.55" stop-color="#FDCB6E"/>
<stop offset="0.6" stop-color="#EDBB63"/>
<stop offset="0.71" stop-color="#CD9A4E"/>
<stop offset="0.81" stop-color="#B78340"/>
<stop offset="0.91" stop-color="#A97537"/>
<stop offset="1" stop-color="#A57134"/>
</linearGradient>
<linearGradient id="paint71_linear_27_1107" x1="17.3925" y1="28.1452" x2="17.3925" y2="26.9832" gradientUnits="userSpaceOnUse">
<stop stop-color="#A1732F"/>
<stop offset="0.1" stop-color="#A97A34"/>
<stop offset="0.25" stop-color="#BF9044"/>
<stop offset="0.44" stop-color="#E4B35D"/>
<stop offset="0.55" stop-color="#FDCB6E"/>
<stop offset="0.6" stop-color="#EDBB63"/>
<stop offset="0.71" stop-color="#CD9A4E"/>
<stop offset="0.81" stop-color="#B78340"/>
<stop offset="0.91" stop-color="#A97537"/>
<stop offset="1" stop-color="#A57134"/>
</linearGradient>
<linearGradient id="paint72_linear_27_1107" x1="15.5002" y1="28.6681" x2="15.5002" y2="27.5144" gradientUnits="userSpaceOnUse">
<stop stop-color="#A1732F"/>
<stop offset="0.1" stop-color="#A97A34"/>
<stop offset="0.25" stop-color="#BF9044"/>
<stop offset="0.44" stop-color="#E4B35D"/>
<stop offset="0.55" stop-color="#FDCB6E"/>
<stop offset="0.6" stop-color="#EDBB63"/>
<stop offset="0.71" stop-color="#CD9A4E"/>
<stop offset="0.81" stop-color="#B78340"/>
<stop offset="0.91" stop-color="#A97537"/>
<stop offset="1" stop-color="#A57134"/>
</linearGradient>
<linearGradient id="paint73_linear_27_1107" x1="61.1085" y1="38.7692" x2="61.1085" y2="37.6072" gradientUnits="userSpaceOnUse">
<stop stop-color="#A1732F"/>
<stop offset="0.1" stop-color="#A97A34"/>
<stop offset="0.25" stop-color="#BF9044"/>
<stop offset="0.44" stop-color="#E4B35D"/>
<stop offset="0.55" stop-color="#FDCB6E"/>
<stop offset="0.6" stop-color="#EDBB63"/>
<stop offset="0.71" stop-color="#CD9A4E"/>
<stop offset="0.81" stop-color="#B78340"/>
<stop offset="0.91" stop-color="#A97537"/>
<stop offset="1" stop-color="#A57134"/>
</linearGradient>
<linearGradient id="paint74_linear_27_1107" x1="59.6478" y1="40.4955" x2="59.6478" y2="39.3418" gradientUnits="userSpaceOnUse">
<stop stop-color="#A1732F"/>
<stop offset="0.1" stop-color="#A97A34"/>
<stop offset="0.25" stop-color="#BF9044"/>
<stop offset="0.44" stop-color="#E4B35D"/>
<stop offset="0.55" stop-color="#FDCB6E"/>
<stop offset="0.6" stop-color="#EDBB63"/>
<stop offset="0.71" stop-color="#CD9A4E"/>
<stop offset="0.81" stop-color="#B78340"/>
<stop offset="0.91" stop-color="#A97537"/>
<stop offset="1" stop-color="#A57134"/>
</linearGradient>
<linearGradient id="paint75_linear_27_1107" x1="58.0955" y1="42.1557" x2="58.0955" y2="41.002" gradientUnits="userSpaceOnUse">
<stop stop-color="#A1732F"/>
<stop offset="0.1" stop-color="#A97A34"/>
<stop offset="0.25" stop-color="#BF9044"/>
<stop offset="0.44" stop-color="#E4B35D"/>
<stop offset="0.55" stop-color="#FDCB6E"/>
<stop offset="0.6" stop-color="#EDBB63"/>
<stop offset="0.71" stop-color="#CD9A4E"/>
<stop offset="0.81" stop-color="#B78340"/>
<stop offset="0.91" stop-color="#A97537"/>
<stop offset="1" stop-color="#A57134"/>
</linearGradient>
<linearGradient id="paint76_linear_27_1107" x1="56.6681" y1="43.7243" x2="56.6681" y2="42.5706" gradientUnits="userSpaceOnUse">
<stop stop-color="#A1732F"/>
<stop offset="0.1" stop-color="#A97A34"/>
<stop offset="0.25" stop-color="#BF9044"/>
<stop offset="0.44" stop-color="#E4B35D"/>
<stop offset="0.55" stop-color="#FDCB6E"/>
<stop offset="0.6" stop-color="#EDBB63"/>
<stop offset="0.71" stop-color="#CD9A4E"/>
<stop offset="0.81" stop-color="#B78340"/>
<stop offset="0.91" stop-color="#A97537"/>
<stop offset="1" stop-color="#A57134"/>
</linearGradient>
<linearGradient id="paint77_linear_27_1107" x1="55.1574" y1="45.1601" x2="55.1574" y2="44.0064" gradientUnits="userSpaceOnUse">
<stop stop-color="#A1732F"/>
<stop offset="0.1" stop-color="#A97A34"/>
<stop offset="0.25" stop-color="#BF9044"/>
<stop offset="0.44" stop-color="#E4B35D"/>
<stop offset="0.55" stop-color="#FDCB6E"/>
<stop offset="0.6" stop-color="#EDBB63"/>
<stop offset="0.71" stop-color="#CD9A4E"/>
<stop offset="0.81" stop-color="#B78340"/>
<stop offset="0.91" stop-color="#A97537"/>
<stop offset="1" stop-color="#A57134"/>
</linearGradient>
<linearGradient id="paint78_linear_27_1107" x1="53.5638" y1="46.5629" x2="53.5638" y2="45.4092" gradientUnits="userSpaceOnUse">
<stop stop-color="#A1732F"/>
<stop offset="0.1" stop-color="#A97A34"/>
<stop offset="0.25" stop-color="#BF9044"/>
<stop offset="0.44" stop-color="#E4B35D"/>
<stop offset="0.55" stop-color="#FDCB6E"/>
<stop offset="0.6" stop-color="#EDBB63"/>
<stop offset="0.71" stop-color="#CD9A4E"/>
<stop offset="0.81" stop-color="#B78340"/>
<stop offset="0.91" stop-color="#A97537"/>
<stop offset="1" stop-color="#A57134"/>
</linearGradient>
<linearGradient id="paint79_linear_27_1107" x1="51.8623" y1="48.1564" x2="51.8623" y2="47.0027" gradientUnits="userSpaceOnUse">
<stop stop-color="#A1732F"/>
<stop offset="0.1" stop-color="#A97A34"/>
<stop offset="0.25" stop-color="#BF9044"/>
<stop offset="0.44" stop-color="#E4B35D"/>
<stop offset="0.55" stop-color="#FDCB6E"/>
<stop offset="0.6" stop-color="#EDBB63"/>
<stop offset="0.71" stop-color="#CD9A4E"/>
<stop offset="0.81" stop-color="#B78340"/>
<stop offset="0.91" stop-color="#A97537"/>
<stop offset="1" stop-color="#A57134"/>
</linearGradient>
<clipPath id="clip0_27_1107">
<rect width="110.614" height="56" fill="white" transform="matrix(-1 0 0 1 111.307 0)"/>
</clipPath>
</defs>
</svg>
