<svg width="112" height="56" viewBox="0 0 112 56" fill="none" xmlns="http://www.w3.org/2000/svg">
<g clip-path="url(#clip0_27_1200)">
<path d="M97.3381 17.239C100.143 14.9482 102.667 12.4001 104.908 9.56151C107.223 6.63991 109.199 3.46932 111.207 0.331922C111.249 0.273822 111.166 0.215722 111.124 0.273822C107.198 5.22061 103.704 10.5575 98.9482 14.7656C93.8853 19.2476 88.0919 22.8747 81.9831 25.7382C75.866 28.61 69.4667 30.5771 62.8599 31.93C56.3361 33.2663 49.721 34.171 43.2637 35.8393C35.8933 37.7483 28.5146 39.7568 21.3683 42.4045C17.7495 43.7491 14.2137 45.2929 10.7941 47.0774C7.35792 48.8702 4.33672 51.2274 1.04163 53.236C0.859028 53.3439 0.975228 53.6427 1.18273 53.5431C4.15412 52.1404 6.82672 50.248 9.71511 48.6876C12.7446 47.0525 15.8654 45.6 19.0609 44.3135C25.5515 41.699 32.3077 39.7817 39.0639 37.989C45.5544 36.2626 52.0782 34.9678 58.6767 33.756C65.159 32.5691 71.5085 31.1 77.6505 28.6681C84.7387 25.8627 91.4451 22.053 97.3547 17.2224L97.3381 17.239Z" fill="url(#paint0_linear_27_1200)"/>
<path d="M97.8443 17.9611C100.6 15.6122 103.065 13.0143 105.256 10.1259C107.514 7.15451 109.141 3.55232 111.083 0.373425C111.116 0.315326 111.033 0.257226 110.991 0.315326C107.165 5.33682 104.7 10.8065 100.027 15.1142C95.0555 19.6958 88.7143 23.9869 82.6636 26.9832C76.6047 29.9712 70.2469 31.8719 63.665 33.3576C57.1661 34.8267 52.6675 35.5986 45.6125 37.0677C38.1591 38.6281 29.1951 41.4749 22.1069 44.272C18.5214 45.6913 15.0105 47.3015 11.6241 49.1524C8.22108 51.0199 5.24968 53.4352 1.99609 55.5019C1.82179 55.6181 1.93799 55.9086 2.13719 55.809C5.07538 54.3482 7.71478 52.3977 10.57 50.7792C13.5663 49.086 16.6539 47.5671 19.8245 46.2225C26.2652 43.4752 32.9716 41.4252 39.6946 39.4913C46.152 37.6321 52.7837 36.5863 59.3573 35.25C65.8147 33.9303 72.2804 32.3533 78.3725 29.7969C85.4026 26.8421 92.026 22.8996 97.8443 17.9611Z" fill="url(#paint1_linear_27_1200)"/>
<path d="M3.22454 55.2529C4.40314 54.2735 6.01334 53.6759 7.05083 52.5637C7.11723 52.489 7.02594 52.3894 6.94293 52.3977C6.06314 52.4641 5.31614 53.1613 4.56914 53.5846C3.70594 54.0743 2.95894 54.7051 2.11234 55.1948C1.73054 55.4189 1.66414 54.7881 1.52304 54.4561C1.24915 53.7838 1.58944 53.5099 2.07084 53.153C2.72654 52.6716 3.58144 52.4558 3.96324 51.6922C3.97984 51.6507 3.93834 51.6092 3.89684 51.6175C3.37394 51.6839 2.85104 52.0076 2.36964 52.2234C1.95464 52.4143 1.14125 52.7878 0.875646 53.1779C0.361047 53.9249 0.983546 55.0786 1.42345 55.726C1.89654 56.4398 2.78464 55.6181 3.22454 55.2612V55.2529Z" fill="url(#paint2_linear_27_1200)"/>
<path d="M101.928 8.41628C103.712 7.38708 105.431 6.19189 107.016 4.87219C107.738 4.27459 108.402 3.60229 109.033 2.91339C109.788 2.07509 110.701 1.22019 111.249 0.224196C111.315 0.0996965 111.191 -0.0165033 111.074 0.0581966C110.344 0.556196 109.763 1.30319 109.157 1.94229C108.435 2.69759 107.688 3.42799 106.891 4.10859C105.265 5.48639 103.472 6.65668 101.613 7.70248C99.8695 8.68188 98.0352 9.49528 96.1677 10.1925C95.0721 10.5992 93.9599 10.9312 92.8477 11.2466C91.9264 11.5039 90.9636 11.6616 90.1004 12.0766C89.8431 12.2011 89.868 12.6576 90.1917 12.6576C92.0426 12.6659 94.0263 11.8359 95.761 11.23C97.9024 10.483 99.9774 9.55338 101.945 8.43288L101.928 8.41628Z" fill="url(#paint3_linear_27_1200)"/>
<path d="M88.4156 12.475C88.482 12.392 88.4156 12.226 88.3077 12.226C87.3034 12.2177 86.2825 12.5746 85.2782 12.641C84.0415 12.7323 82.7965 12.5663 81.5681 12.6908C81.261 12.724 81.1946 13.2137 81.5017 13.2967C82.6554 13.6121 83.8838 13.5789 85.079 13.5125C86.1331 13.4544 87.6935 13.3548 88.4156 12.475Z" fill="url(#paint4_linear_27_1200)"/>
<path d="M79.5429 12.8484C77.2936 13.0144 75.0194 13.1057 72.7867 13.446C70.3299 13.8195 67.8731 14.193 65.4163 14.5416C62.9595 14.8902 60.4944 15.189 58.0459 15.604C55.8049 15.9858 53.1074 16.351 51.1071 17.4715C50.7917 17.6458 50.9245 18.094 51.2814 18.0691C52.4517 18.0027 53.6054 17.6043 54.7425 17.3221C55.8796 17.0399 57.0333 16.7992 58.187 16.5917C60.6272 16.1518 63.1006 15.8613 65.5574 15.521C68.0225 15.1724 70.471 14.7823 72.9195 14.3673C75.1273 13.9938 77.5592 14.11 79.6176 13.1472C79.7836 13.0725 79.7006 12.8401 79.5346 12.8567L79.5429 12.8484Z" fill="url(#paint5_linear_27_1200)"/>
<path d="M28.8964 40.4374C30.0749 35.9637 32.7226 31.988 35.8102 28.5933C37.5034 26.7258 39.3792 25.0243 41.3712 23.4722C43.3964 21.8953 45.6125 20.6337 47.729 19.1812C47.8535 19.0899 47.7539 18.8575 47.6045 18.899C45.1892 19.5215 43.0063 20.974 41.0226 22.4513C38.9227 24.0117 36.9722 25.8045 35.2043 27.7301C31.9507 31.2576 29.0458 35.474 27.9917 40.2216C27.8755 40.7445 28.7636 40.9603 28.9047 40.4457L28.8964 40.4374Z" fill="url(#paint6_linear_27_1200)"/>
<path d="M104.916 18.7828C105.796 17.4797 106.31 15.9692 106.842 14.4918C107.414 12.9231 107.929 11.3378 108.452 9.75247C108.991 8.11737 109.539 6.49057 110.062 4.85547C110.552 3.31168 111.307 1.80938 111.307 0.165982C111.307 -0.0415174 111.041 -0.0664174 110.992 0.132782C110.635 1.66828 109.921 3.12078 109.39 4.59817C108.809 6.21667 108.244 7.83517 107.68 9.45367C107.174 10.9062 106.659 12.3587 106.119 13.8029C105.53 15.355 104.783 16.8656 104.335 18.4674C104.235 18.816 104.692 19.1148 104.924 18.7828H104.916Z" fill="url(#paint7_linear_27_1200)"/>
<path d="M81.0867 43.0852C82.4976 42.1971 83.9833 41.4501 85.4026 40.562C88.2578 38.7775 90.9885 36.7606 93.5449 34.5694C97.4625 31.2162 101.936 26.9168 103.19 21.7376C103.223 21.6131 103.04 21.5965 102.99 21.6878C100.442 26.5018 96.7072 30.519 92.5489 33.9967C90.1668 35.9887 87.6519 37.8147 85.0374 39.4913C83.7758 40.2964 82.4561 41.0185 81.1696 41.7987C79.9081 42.5623 78.7046 43.4421 77.4181 44.1808C77.1442 44.3385 77.2272 44.8365 77.5841 44.7535C78.9038 44.4547 79.9413 43.799 81.0783 43.0769L81.0867 43.0852Z" fill="url(#paint8_linear_27_1200)"/>
<path d="M73.7827 46.3389C73.9404 46.2393 73.8989 45.9239 73.6831 45.982C69.6494 47.1523 65.7318 48.4554 61.5569 49.0364C57.1911 49.6423 52.7589 49.6174 48.3848 49.1609C43.9692 48.7044 39.6947 47.6586 35.4534 46.3721C33.2622 45.7081 31.0544 45.1271 28.913 44.3137C27.2447 43.6829 25.5598 43.1434 23.8251 43.8323C23.4018 43.9983 23.6093 44.6457 24.0409 44.5876C26.0661 44.3137 27.8091 45.1022 29.6766 45.7579C31.9093 46.5464 34.2167 47.1274 36.4826 47.8163C40.5496 49.053 44.7411 49.883 48.9658 50.2897C53.2071 50.7047 57.4899 50.63 61.7063 50.0573C65.8314 49.4929 70.2054 48.5052 73.7827 46.3223V46.3389Z" fill="url(#paint9_linear_27_1200)"/>
<path d="M44.7826 35.7398C44.6166 33.0921 44.6332 30.4942 45.0482 27.8216C45.3138 26.0786 45.7122 24.3605 46.3596 22.7172C46.675 21.9038 47.0153 21.0987 47.4303 20.3268C47.6793 19.8786 47.8287 19.4802 47.7872 18.9739C47.7706 18.783 47.5216 18.7581 47.422 18.8826C45.4134 21.4639 44.6 24.9166 44.0522 28.0706C43.6123 30.6187 43.4712 33.366 43.8779 35.9639C44.1601 35.856 44.4672 35.7813 44.7743 35.7398H44.7826Z" fill="url(#paint10_linear_27_1200)"/>
<path d="M45.2141 35.69C45.3469 34.5612 45.3635 33.3992 45.5461 32.3036C45.8449 30.5191 46.3595 28.7845 46.9654 27.083C47.5547 25.3981 48.2851 23.7879 49.057 22.1777C49.4388 21.3809 49.8206 20.5924 50.2024 19.7956C50.5427 19.1067 51.1901 18.4427 51.3727 17.6957C51.4142 17.5214 51.2399 17.3554 51.0739 17.4799C49.8953 18.4178 49.3309 19.8703 48.6669 21.19C47.8037 22.9081 46.9737 24.6262 46.2848 26.4273C45.654 28.0707 45.156 29.7472 44.7825 31.4736C44.5003 32.7933 44.1351 34.3952 44.2015 35.856C44.5335 35.7647 44.8821 35.7149 45.2141 35.69Z" fill="url(#paint11_linear_27_1200)"/>
<path d="M74.1976 29.5312C74.2308 28.7261 74.2474 27.921 74.3719 27.1242C74.6209 25.4808 75.1189 23.9038 75.7414 22.36C76.3722 20.8079 77.1275 19.3056 77.8579 17.7951C78.58 16.3094 79.5511 14.6826 79.7337 13.006C79.7503 12.8234 79.5096 12.7321 79.4017 12.8815C78.4306 14.2676 77.7749 15.9608 76.9781 17.4548C76.1315 19.0484 75.3596 20.6917 74.6707 22.36C74.0565 23.854 73.6415 25.4144 73.3759 27.008C73.2265 27.9044 73.0771 28.9087 73.0688 29.8881C73.4423 29.7553 73.8158 29.6391 74.1976 29.5312Z" fill="url(#paint12_linear_27_1200)"/>
<path d="M74.8202 29.3321C75.0443 28.4191 75.2767 27.5144 75.6004 26.6346C76.2395 24.9082 76.9782 23.2316 77.7833 21.5716C78.5718 19.9448 79.4433 18.3678 80.2152 16.7327C80.7381 15.6205 81.6926 14.1514 81.5432 12.8732C81.5183 12.6408 81.2112 12.6408 81.1199 12.8317C80.4642 14.2427 79.8832 15.6537 79.1362 17.0315C78.3228 18.5421 77.5011 20.0444 76.7292 21.5799C75.451 24.1197 74.3388 26.7923 73.957 29.5977C74.2475 29.5064 74.5297 29.4234 74.8119 29.3238L74.8202 29.3321Z" fill="url(#paint13_linear_27_1200)"/>
<path d="M81.9167 26.6264C82.0163 26.5517 82.1076 26.477 82.1906 26.4023C82.3151 25.6968 82.4147 24.983 82.5724 24.3024C82.9293 22.7586 83.4273 21.2646 84.0083 19.7955C84.5395 18.4343 85.2118 17.1312 85.9837 15.8863C86.6975 14.7409 87.7848 13.7449 88.2994 12.4999C88.3492 12.3837 88.2164 12.2675 88.1002 12.3173C86.9299 12.8485 86.1663 14.0852 85.4774 15.1061C84.6142 16.376 83.917 17.7537 83.2945 19.1564C82.6471 20.6421 82.1657 22.1942 81.7673 23.7629C81.5183 24.7672 81.2112 25.8711 81.1199 26.9418C81.3689 26.8007 81.6345 26.6928 81.9084 26.6264H81.9167Z" fill="url(#paint14_linear_27_1200)"/>
<path d="M81.9167 26.6264C82.1159 26.477 82.3151 26.311 82.4811 26.1367C82.6803 25.4478 82.8546 24.7589 83.1036 24.1032C83.6182 22.7171 84.2905 21.3891 85.0292 20.1109C86.6145 17.3636 88.7974 14.9981 90.4574 12.3255C90.5321 12.201 90.4491 11.9852 90.2748 12.0267C88.9717 12.3504 88.0753 14.1432 87.3366 15.1475C86.2659 16.5917 85.1952 18.0276 84.2739 19.5797C83.4771 20.916 82.7965 22.327 82.2321 23.7795C81.8586 24.7423 81.4436 25.813 81.2776 26.8754C81.4851 26.7758 81.7009 26.6845 81.925 26.643L81.9167 26.6264Z" fill="url(#paint15_linear_27_1200)"/>
<path d="M104.758 18.3429C103.405 17.8283 101.804 18.2765 100.426 18.4757C99.1309 18.6666 97.8776 18.5919 96.6077 18.5919C96.4002 18.8741 96.1678 19.1148 95.9105 19.3555C97.1555 19.7124 98.5582 19.6377 99.8198 19.4883C100.691 19.3887 101.563 19.2227 102.434 19.1065C103.231 18.9903 104.003 18.9654 104.775 18.6998C104.941 18.6417 104.916 18.401 104.767 18.3429H104.758Z" fill="url(#paint16_linear_27_1200)"/>
<path d="M103.165 21.3806C102.517 21.2063 101.853 21.2312 101.181 21.1731C100.442 21.1067 99.6787 20.9324 98.9566 20.7332C97.8859 20.4427 97.1057 19.6708 96.2757 18.9902C96.035 19.2475 95.7777 19.4799 95.5038 19.704C97.3464 21.6462 100.641 22.4264 103.123 21.8039C103.314 21.7541 103.405 21.447 103.165 21.3806Z" fill="url(#paint17_linear_27_1200)"/>
<path d="M99.1309 28.3858C100.351 27.3815 101.214 25.9622 102.028 24.6259C102.633 23.6299 103.671 22.4596 103.837 21.281C103.878 21.0071 103.596 20.866 103.372 20.9407C102.625 21.1897 101.779 21.0984 101.131 21.5632C101.056 21.613 101.098 21.7458 101.189 21.7541C101.77 21.779 102.393 21.7707 102.974 21.6877C102.775 22.0363 102.476 22.3766 102.285 22.6837C101.903 23.2896 101.546 23.8872 101.173 24.5014C100.426 25.7381 99.4961 26.9001 98.8819 28.2115C98.8155 28.3526 99.0147 28.4854 99.1309 28.3858Z" fill="url(#paint18_linear_27_1200)"/>
<path d="M77.8082 44.1061C77.111 43.8903 76.3723 43.8654 75.6585 43.7243C74.6542 43.5334 73.6665 43.2512 72.6954 42.9358C70.803 42.3299 68.9604 41.5995 67.1925 40.7031C64.163 39.1842 61.6315 37.0096 59.0087 34.9263C58.7099 35.0508 58.4111 35.1753 58.1123 35.2832C60.5276 37.7483 63.5156 39.7818 66.5202 41.392C68.3794 42.388 70.3714 43.1267 72.3717 43.7907C73.9487 44.3052 76.0901 45.0937 77.7501 44.6705C78.0074 44.6041 78.1153 44.2057 77.8082 44.1061Z" fill="url(#paint19_linear_27_1200)"/>
<path d="M73.9487 45.957C73.1768 45.708 72.3717 45.6084 71.5915 45.3345C70.745 45.044 69.9316 44.629 69.1597 44.1808C67.6242 43.301 66.2215 42.1888 64.8271 41.0932C63.2501 39.8482 61.6648 38.6115 60.3036 37.1175C59.7309 36.4867 59.1914 35.7729 58.627 35.0757C58.2701 35.2251 57.9049 35.3579 57.5397 35.4741C58.2535 36.3871 59.0918 37.2337 59.8222 38.0305C61.2249 39.5494 62.9264 40.8027 64.5532 42.0809C65.9808 43.2014 67.4333 44.3053 69.0352 45.1602C70.3714 45.874 72.4298 47.0443 73.9736 46.3886C74.1562 46.3139 74.1645 46.0068 73.957 45.9487L73.9487 45.957Z" fill="url(#paint20_linear_27_1200)"/>
<path d="M87.154 23.6631C88.2164 21.1897 89.2954 18.7661 90.7396 16.4421C91.8849 14.5912 93.188 12.8399 94.5741 11.1633C94.3251 11.2629 94.0761 11.3625 93.8271 11.4538C92.5323 12.9146 91.362 14.475 90.2914 16.1267C88.6729 18.6416 87.1291 21.4387 86.1912 24.3271C86.4983 24.0947 86.8137 23.8789 87.1457 23.6714L87.154 23.6631Z" fill="url(#paint21_linear_27_1200)"/>
<path d="M88.5567 22.8084C89.6356 20.5259 90.6648 18.2434 92.1505 16.1435C93.4287 14.3341 94.5824 12.4002 95.9685 10.6572C95.7195 10.7402 95.4622 10.8232 95.2132 10.8979C93.9184 12.4417 92.8228 14.1764 91.6774 15.8032C90.0423 18.1189 88.482 20.7749 87.4113 23.489C87.7848 23.2566 88.1666 23.0325 88.5567 22.8001V22.8084Z" fill="url(#paint22_linear_27_1200)"/>
<path d="M90.8474 21.2978C91.4948 19.7955 92.192 18.3098 93.0054 16.8905C94.3334 14.5582 95.8772 12.3255 97.4708 10.1592C97.255 10.2339 97.0475 10.3169 96.8317 10.3833C95.1966 12.2923 93.7275 14.3258 92.4576 16.4921C91.6276 17.9031 90.9387 19.3888 90.2747 20.8911C90.1087 21.2729 89.9261 21.6713 89.7352 22.0697C90.1087 21.8207 90.4822 21.5551 90.8557 21.3061L90.8474 21.2978Z" fill="url(#paint23_linear_27_1200)"/>
<path d="M93.3955 19.7539C93.9682 18.3097 94.5658 16.8821 95.263 15.4794C96.2673 13.4874 97.3961 11.5618 98.6079 9.69434C98.3672 9.80224 98.1265 9.90184 97.8858 9.99314C95.6282 13.172 93.6362 16.6414 92.358 20.31C92.69 20.1108 93.0386 19.9199 93.3955 19.7539Z" fill="url(#paint24_linear_27_1200)"/>
<path d="M76.1066 28.6018C76.2394 28.0955 76.3722 27.5892 76.5133 27.0912C77.0445 25.3316 77.6753 23.5969 78.4389 21.9286C79.8084 18.9572 81.7091 16.1352 82.9541 13.0891C82.813 13.0891 82.6719 13.0891 82.5308 13.0891C81.8419 14.3009 81.2111 15.5542 80.5222 16.766C79.6092 18.3928 78.7045 20.0279 77.8828 21.7128C77.086 23.3645 76.4718 25.1075 75.9157 26.8588C75.7082 27.5228 75.4841 28.2034 75.2683 28.8923C75.5422 28.7927 75.8244 28.7014 76.0983 28.6018H76.1066Z" fill="url(#paint25_linear_27_1200)"/>
<path d="M76.8453 28.3279C77.1358 28.2117 77.4263 28.0872 77.7168 27.971C77.8662 27.3236 78.0156 26.6762 78.2148 26.0454C78.7128 24.3937 79.3602 22.7918 80.0491 21.2148C80.8044 19.4967 81.7174 17.8616 82.5225 16.1684C83.0288 15.0977 83.5102 14.0104 84.1078 12.9812C83.9501 13.0061 83.8007 13.0227 83.6513 13.0476C83.1782 13.7863 82.7798 14.5748 82.3897 15.3633C81.5099 17.1312 80.5305 18.8493 79.6756 20.6338C78.8705 22.3187 78.1816 24.0451 77.6089 25.813C77.3516 26.6181 77.0694 27.473 76.8453 28.3362V28.3279Z" fill="url(#paint26_linear_27_1200)"/>
<path d="M79.0282 27.4066C79.1195 27.0746 79.2025 26.7426 79.2938 26.4106C79.7918 24.6178 80.3728 22.8333 81.0783 21.1152C82.2735 18.1853 84.0497 15.5874 85.552 12.8235C85.4275 12.8235 85.2947 12.8318 85.1702 12.8401C83.3691 15.3633 81.7672 18.0774 80.5222 20.9077C79.7835 22.6092 79.2108 24.402 78.6713 26.1782C78.5219 26.6845 78.3476 27.2157 78.1733 27.7718C78.4555 27.6556 78.7377 27.5311 79.0199 27.4149L79.0282 27.4066Z" fill="url(#paint27_linear_27_1200)"/>
<path d="M80.738 26.6513C81.2941 24.4435 81.9166 22.2523 82.7217 20.1109C83.6928 17.5462 84.9627 15.106 86.3819 12.7654C86.2491 12.7737 86.1163 12.7903 85.9918 12.7986C83.0786 17.015 80.9953 21.995 79.9163 27.0165C80.1902 26.9003 80.4641 26.7758 80.7463 26.6513H80.738Z" fill="url(#paint28_linear_27_1200)"/>
<path d="M51.0158 34.2458C51.049 33.9968 51.0905 33.7561 51.1237 33.5071C51.4806 31.208 52.1695 28.9338 52.8169 26.7011C53.871 23.0408 55.2737 19.4884 56.9752 16.0854C56.8507 16.0937 56.7179 16.1103 56.5934 16.1186C54.7757 19.2643 53.3315 22.5926 52.2608 26.0869C51.63 28.137 51.049 30.2452 50.6174 32.3451C50.4763 33.0091 50.3684 33.6731 50.2771 34.3454C50.5261 34.3122 50.7751 34.279 51.0324 34.2541L51.0158 34.2458Z" fill="url(#paint29_linear_27_1200)"/>
<path d="M52.377 34.0715C52.4351 33.6814 52.5015 33.283 52.5596 32.8929C52.9414 30.5855 53.4726 28.3113 54.12 26.0703C55.1326 22.5594 56.5519 19.2062 58.1538 15.936C58.0293 15.9443 57.9131 15.9609 57.7886 15.9692C57.7139 15.9858 57.6309 15.9941 57.5562 16.0024C55.7551 19.0568 54.4769 22.4183 53.456 25.813C52.8003 27.9959 52.3023 30.2203 51.8956 32.4613C51.796 33.0257 51.7047 33.5901 51.6217 34.1545C51.879 34.113 52.128 34.0881 52.377 34.0632V34.0715Z" fill="url(#paint30_linear_27_1200)"/>
<path d="M53.7133 33.7727C53.7299 33.0672 53.7631 32.37 53.8627 31.6811C54.1947 29.4816 54.9002 27.4481 55.6306 25.3648C56.776 22.1112 58.021 18.8908 59.4403 15.7451C59.2743 15.7783 59.1083 15.8115 58.9506 15.8447C57.3985 18.8327 56.1286 21.9452 54.9915 25.1241C54.3109 27.0165 53.6469 28.884 53.2734 30.8677C53.0825 31.8886 52.9912 32.9344 52.9331 33.9802C53.1904 33.9221 53.456 33.8557 53.705 33.7727H53.7133Z" fill="url(#paint31_linear_27_1200)"/>
<path d="M58.9091 33.0672C58.9755 32.6024 59.0419 32.1376 59.1249 31.6811C59.5316 29.3986 60.1043 27.141 60.7932 24.9166C61.8224 21.6215 63.2168 18.4592 64.8436 15.4131C64.6278 15.4629 64.412 15.5127 64.1879 15.5625C62.4698 18.4094 61.1584 21.497 60.1126 24.6593C59.3988 26.8173 58.8427 29.0251 58.4111 31.2495C58.2866 31.8886 58.1621 32.536 58.0542 33.1917C58.3364 33.1502 58.6269 33.1087 58.9091 33.0672Z" fill="url(#paint32_linear_27_1200)"/>
<path d="M60.3865 32.8596C60.4363 32.5359 60.4861 32.2122 60.5442 31.8885C60.9924 29.4566 61.7228 27.0828 62.4864 24.7339C63.5239 21.5467 64.5199 18.1355 66.1218 15.1309C65.8894 15.1807 65.657 15.2388 65.4246 15.2886C63.8808 18.0359 62.9429 21.1815 61.922 24.1031C61.175 26.2445 60.5027 28.4108 59.9715 30.6186C59.7806 31.3988 59.6229 32.1956 59.4818 32.9924C59.7806 32.9509 60.0877 32.9094 60.3865 32.8596Z" fill="url(#paint33_linear_27_1200)"/>
<path d="M61.673 32.644C61.7726 32.2456 61.8639 31.8389 61.9552 31.4405C62.4947 29.0584 62.918 26.6847 63.665 24.3524C64.7274 21.049 66.1467 17.9199 67.6158 14.7991C67.4083 14.8489 67.1925 14.8904 66.985 14.9402C65.3499 17.8452 64.0634 20.9079 62.9512 24.0785C62.2125 26.195 61.6979 28.4027 61.2912 30.6022C61.1584 31.3409 60.9758 32.0713 60.8015 32.8017C61.092 32.7519 61.3825 32.7021 61.673 32.644Z" fill="url(#paint34_linear_27_1200)"/>
<path d="M62.3619 32.5029C62.5362 32.4614 62.7105 32.4199 62.8765 32.3784C62.9761 31.6065 63.0923 30.8346 63.25 30.071C63.7231 27.8383 64.4452 25.6637 65.2337 23.5306C66.404 20.3849 67.9063 17.3886 69.4252 14.4006C69.226 14.4421 69.0268 14.4836 68.8276 14.5251C67.1012 17.4135 65.6072 20.4347 64.3539 23.5721C63.5654 25.5392 62.9595 27.581 62.4698 29.6394C62.2457 30.5773 62.0299 31.5816 61.8805 32.6025C62.0382 32.5693 62.1959 32.5361 62.3453 32.5029H62.3619Z" fill="url(#paint35_linear_27_1200)"/>
<path d="M64.6361 31.9302C64.7108 31.2579 64.8021 30.5773 64.9349 29.9133C65.3665 27.7885 66.0139 25.7052 66.7277 23.6634C67.8814 20.3849 69.3588 17.2226 70.8943 14.1018C70.7034 14.135 70.5125 14.1765 70.3216 14.218C68.6616 17.1645 67.1842 20.2106 65.9724 23.3812C65.2088 25.3732 64.6029 27.4067 64.1381 29.4817C63.9472 30.3366 63.7397 31.2579 63.5986 32.1958C63.9472 32.1045 64.2958 32.0215 64.6444 31.9302H64.6361Z" fill="url(#paint36_linear_27_1200)"/>
<path d="M66.6032 31.3657C66.7028 30.7598 66.8107 30.1539 66.9269 29.5564C67.3751 27.3403 67.9146 25.1491 68.5454 22.9828C69.4999 19.7375 71.1101 16.8408 72.5211 13.8113C72.3385 13.8445 72.1559 13.8777 71.9733 13.9026C70.3631 16.7329 68.8193 19.5549 67.8233 22.7006C67.1925 24.676 66.6945 26.6929 66.2463 28.7098C66.0305 29.6726 65.7981 30.6602 65.6072 31.6645C65.9392 31.5649 66.2795 31.4653 66.6115 31.3657H66.6032Z" fill="url(#paint37_linear_27_1200)"/>
<path d="M68.0889 30.8926C68.2798 29.9879 68.4707 29.0749 68.6865 28.1785C69.2011 26.1035 69.7904 24.0451 70.388 21.995C70.9524 20.0611 71.5832 18.1937 72.3717 16.3345C72.7701 15.3966 73.2349 14.5002 73.7246 13.6204C73.4839 13.6536 73.2349 13.6951 72.9942 13.7283C72.6622 14.2595 72.3468 14.8156 72.0729 15.3966C71.1765 17.3222 70.3714 19.281 69.7821 21.3227C69.1596 23.5056 68.4707 25.6636 67.898 27.8631C67.6158 28.9587 67.3087 30.0875 67.068 31.2163C67.4083 31.1084 67.7486 31.0005 68.0889 30.876V30.8926Z" fill="url(#paint38_linear_27_1200)"/>
<path d="M30.4235 39.7735C30.4401 39.1593 30.4567 38.5368 30.4982 37.9226C30.6061 36.3041 31.0294 34.7271 31.2867 33.1252C31.1705 33.2995 31.046 33.4655 30.9298 33.6398C30.5563 35.0342 30.1081 36.4037 29.9421 37.8562C29.8591 38.5451 29.801 39.234 29.7595 39.9312C29.9836 39.8731 30.2077 39.8233 30.4318 39.7735H30.4235Z" fill="url(#paint39_linear_27_1200)"/>
<path d="M31.5938 39.5244C31.5938 38.3043 31.6104 37.0925 31.7432 35.8724C31.9009 34.3618 32.208 32.8678 32.54 31.3904C32.3657 31.6311 32.1831 31.8718 32.0088 32.1125C31.3448 34.5942 30.9049 37.1008 30.9049 39.6655C31.1373 39.6157 31.3614 39.5742 31.5938 39.5327V39.5244Z" fill="url(#paint40_linear_27_1200)"/>
<path d="M32.8139 39.1841C32.8637 35.9471 33.2123 32.7766 33.9095 29.606C33.7103 29.8633 33.5028 30.1206 33.3036 30.3779C32.9384 31.7142 32.6645 33.0754 32.457 34.4531C32.2163 36.0716 32.0586 37.7399 32.1001 39.3999C32.3325 39.3252 32.5732 39.2588 32.8139 39.1841Z" fill="url(#paint41_linear_27_1200)"/>
<path d="M34.2083 38.7277C34.1751 37.2918 34.1751 35.8559 34.3328 34.3951C34.5652 32.2371 34.9885 30.0791 35.5778 27.9792C35.4035 28.1286 35.2375 28.2697 35.0632 28.4108C34.4324 30.2119 33.9759 32.0711 33.7186 33.9718C33.5028 35.5654 33.3285 37.3084 33.3617 39.0099C33.6439 38.9186 33.9261 38.8273 34.2083 38.7277Z" fill="url(#paint42_linear_27_1200)"/>
<path d="M35.2707 38.3375C35.279 36.3787 35.3537 34.4365 35.6276 32.4777C35.9015 30.5604 36.3248 28.6597 36.8228 26.7839C36.6236 27.008 36.4161 27.2238 36.192 27.4313C35.03 31.0169 34.3079 34.9013 34.4905 38.628C34.7478 38.5367 35.0051 38.4454 35.2624 38.3458L35.2707 38.3375Z" fill="url(#paint43_linear_27_1200)"/>
<path d="M98.0186 29.5479C95.8855 29.2242 93.8105 28.4772 91.777 27.8133C90.2581 27.3153 88.789 26.7177 87.3448 26.0288C86.9713 25.8545 86.6061 25.6636 86.2409 25.4727C85.9587 25.6138 85.6765 25.7632 85.386 25.9043C87.461 26.9833 89.6605 27.8714 91.86 28.5022C93.7441 29.0416 95.7361 29.7305 97.7281 29.9048C97.8277 29.7886 97.9273 29.6641 98.0186 29.5396V29.5479Z" fill="url(#paint44_linear_27_1200)"/>
<path d="M97.089 30.6852C95.2962 30.32 93.52 29.7805 91.8268 29.3157C89.1376 28.5853 86.5065 27.6806 83.9252 26.6431C83.726 26.7427 83.5185 26.8423 83.3193 26.9419C86.0832 28.2782 89.0214 29.1663 91.9845 29.9548C93.5117 30.3615 95.1302 30.8014 96.7487 31.067C96.8649 30.9425 96.9728 30.8097 97.0807 30.6769L97.089 30.6852Z" fill="url(#paint45_linear_27_1200)"/>
<path d="M95.6945 32.2122C95.7775 32.1292 95.8605 32.0379 95.9435 31.9549C93.5034 31.432 91.0964 30.5937 88.7226 29.938C86.4816 29.3155 84.3485 28.4357 82.232 27.4895C81.9332 27.6389 81.6427 27.7883 81.3439 27.9294C83.6181 29.0665 86.0334 29.938 88.4653 30.602C90.2249 31.0751 92.0177 31.4735 93.7938 31.9051C94.3997 32.0545 94.9973 32.1873 95.6032 32.2952C95.6364 32.262 95.6613 32.2371 95.6945 32.2122Z" fill="url(#paint46_linear_27_1200)"/>
<path d="M94.3499 33.3328C93.578 33.2 92.7978 32.9261 92.1172 32.6854C90.8639 32.2455 89.6521 31.7309 88.3822 31.3242C85.7511 30.4776 83.2861 29.299 80.7629 28.22C80.4724 28.3528 80.1819 28.4939 79.8914 28.6267C82.6553 30.2452 85.8258 31.2827 88.8553 32.1625C90.3244 32.5858 92.1338 33.5071 93.8602 33.7478C94.0179 33.6067 94.1839 33.4739 94.3499 33.3411V33.3328Z" fill="url(#paint47_linear_27_1200)"/>
<path d="M92.5323 34.9098C90.1336 34.3952 87.7847 33.1253 85.635 32.1708C83.4521 31.1997 81.3771 30.0377 79.2938 28.884C78.9618 29.0251 78.6299 29.1662 78.2979 29.3073C80.5637 30.6768 82.9624 31.8471 85.3694 32.8597C86.9215 33.5071 88.4985 34.1462 90.0921 34.7189C90.7478 34.9596 91.4284 35.1671 92.109 35.2916C92.2501 35.1588 92.3995 35.0343 92.5406 34.9098H92.5323Z" fill="url(#paint48_linear_27_1200)"/>
<path d="M90.8557 36.4036C88.1748 35.9139 85.5105 34.478 83.2197 33.1667C81.6427 32.262 80.1155 31.2826 78.5966 30.2866C78.2563 30.0708 77.9243 29.8384 77.5923 29.606C77.2603 29.7388 76.92 29.8716 76.588 29.9961C78.7875 31.5482 81.1862 32.8928 83.4687 34.1544C85.5437 35.2997 87.9673 36.4949 90.4158 36.7854C90.5652 36.6609 90.7146 36.5364 90.864 36.4036H90.8557Z" fill="url(#paint49_linear_27_1200)"/>
<path d="M89.3534 37.5906C86.5563 36.8104 83.8671 35.1753 81.4601 33.7062C79.6092 32.5774 77.8081 31.3739 75.9987 30.2036C75.675 30.3198 75.3513 30.4277 75.0276 30.5356C77.169 32.0462 79.3768 33.4572 81.651 34.7686C83.8339 36.0302 86.299 37.408 88.8471 37.9475C89.0131 37.8313 89.1791 37.7068 89.3451 37.5906H89.3534Z" fill="url(#paint50_linear_27_1200)"/>
<path d="M87.7515 38.7195C86.6808 38.2547 85.5935 37.8646 84.5145 37.4247C82.813 36.7192 81.1862 35.6734 79.6092 34.7189C77.6753 33.5486 75.8825 32.204 74.0897 30.8511C73.6996 30.9756 73.3095 31.0918 72.9111 31.1997C74.8367 32.8016 77.0279 34.1628 79.0946 35.4327C80.5305 36.3125 82.0079 37.1342 83.5185 37.8895C84.6805 38.4788 85.9587 38.7693 87.2203 39.0847C87.4029 38.9685 87.5855 38.844 87.7598 38.7195H87.7515Z" fill="url(#paint51_linear_27_1200)"/>
<path d="M86.0085 39.8898C85.1287 39.5412 84.2738 39.1096 83.4355 38.678C81.7672 37.8148 80.0906 36.9765 78.4389 36.0552C75.9987 34.694 73.7328 33.1336 71.4503 31.5732C71.0436 31.6728 70.6369 31.7641 70.2302 31.8554C72.6538 33.8889 75.592 35.441 78.2978 36.9184C79.8914 37.7899 81.5099 38.6199 83.1533 39.4001C83.892 39.7487 84.6307 40.0641 85.3943 40.2965C85.5935 40.1554 85.7927 40.0226 86.0002 39.8898H86.0085Z" fill="url(#paint52_linear_27_1200)"/>
<path d="M84.3734 41.0184C78.6962 39.043 73.7743 35.4325 68.786 32.1375C68.4374 32.1956 68.0971 32.2536 67.7485 32.3034C70.3879 34.3618 73.2431 36.1795 76.1315 37.8395C78.5551 39.2256 81.1862 40.5951 83.9335 41.3421C84.0746 41.2342 84.224 41.1263 84.3734 41.0184Z" fill="url(#paint53_linear_27_1200)"/>
<path d="M60.6106 49.584C58.5937 48.0319 56.7345 46.2308 54.9417 44.5376C52.4849 42.197 50.2771 39.6406 48.1025 37.051C47.9033 37.1174 47.6958 37.1672 47.4966 37.2253C49.6878 40.1054 52.1612 42.7946 54.8089 45.2514C56.444 46.7703 58.1372 48.3058 59.9549 49.6587C60.1707 49.6338 60.3865 49.6089 60.6023 49.5923L60.6106 49.584Z" fill="url(#paint54_linear_27_1200)"/>
<path d="M58.7514 49.8081C56.7428 48.0651 54.9832 46.0316 53.1406 44.1143C51.049 41.9397 49.0985 39.6987 47.3638 37.2502C47.1563 37.3 46.9488 37.3498 46.733 37.3913C48.3266 40.039 50.5178 42.3049 52.6758 44.4961C54.4852 46.3387 56.2116 48.2477 58.187 49.8911C58.3779 49.8579 58.5688 49.833 58.7597 49.8081H58.7514Z" fill="url(#paint55_linear_27_1200)"/>
<path d="M56.7096 50.1152C54.4354 48.1398 52.5015 45.6333 50.7005 43.3093C49.2148 41.392 47.7955 39.4249 46.3596 37.4661C46.1521 37.5076 45.9363 37.5408 45.7288 37.574C47.2477 39.7652 48.8081 41.9315 50.4681 44.0314C52.1945 46.2142 54.037 48.422 56.2116 50.1816C56.3776 50.1567 56.5436 50.1318 56.7013 50.1152H56.7096Z" fill="url(#paint56_linear_27_1200)"/>
<path d="M54.784 50.3477C52.7008 48.3806 50.908 46.1396 49.2563 43.7741C47.8702 41.7904 46.6335 39.6656 45.264 37.657C45.0067 37.6985 44.7494 37.7483 44.5004 37.7898C45.8367 39.9727 47.3058 42.0975 48.7832 44.1642C50.3934 46.3969 52.1613 48.5134 54.1782 50.3809C54.3857 50.3726 54.5848 50.356 54.7923 50.3394L54.784 50.3477Z" fill="url(#paint57_linear_27_1200)"/>
<path d="M52.3272 50.4058C52.4932 50.4058 52.6592 50.4058 52.8252 50.4058C50.7502 48.0901 48.7665 45.7661 46.982 43.1848C45.8117 41.4916 44.7078 39.7071 43.5458 37.9807C43.4462 38.0056 43.3466 38.0305 43.247 38.0554C43.081 38.0969 42.915 38.1467 42.7573 38.1882C43.9027 39.898 45.0813 41.5829 46.2433 43.2678C48.0361 45.8574 49.9866 48.2063 52.2027 50.3892C52.2442 50.3892 52.2857 50.3892 52.3272 50.3892V50.4058Z" fill="url(#paint58_linear_27_1200)"/>
<path d="M50.9909 50.3475C49.0404 48.0567 47.0318 45.824 45.3469 43.334C44.2513 41.7072 43.247 40.0223 42.2178 38.354C41.9937 38.4287 41.7613 38.4951 41.5372 38.5698C42.5332 40.1966 43.5624 41.8068 44.6248 43.3921C46.3263 45.9319 48.4179 48.0982 50.4929 50.3143C50.6589 50.3226 50.8249 50.3309 50.9909 50.3392V50.3475Z" fill="url(#paint59_linear_27_1200)"/>
<path d="M48.9906 50.1732C48.9906 50.1732 49.0238 50.1732 49.0404 50.1732C46.9986 48.2476 45.5295 45.8821 44.0355 43.5083C43.0395 41.9147 42.0518 40.3211 41.0558 38.7275C40.8234 38.8022 40.591 38.8769 40.3586 38.9516C41.3712 40.6365 42.4668 42.2799 43.5375 43.9233C44.9568 46.1228 46.401 48.2559 48.2851 50.0487C48.5175 50.0902 48.7499 50.1317 48.9906 50.1649V50.1732Z" fill="url(#paint60_linear_27_1200)"/>
<path d="M46.9737 49.833C45.1809 47.9323 43.8363 45.4506 42.4502 43.2843C41.5621 41.9065 40.7155 40.5038 39.8523 39.1094C39.6033 39.1841 39.346 39.2505 39.097 39.3169C39.9934 40.8109 40.9313 42.2883 41.8858 43.7574C43.1972 45.766 44.5418 48.0236 46.2765 49.75C46.5089 49.7749 46.7496 49.7998 46.9737 49.833Z" fill="url(#paint61_linear_27_1200)"/>
<path d="M60.8346 18.949C60.9923 18.8826 61.1168 18.7332 61.1832 18.5838C61.316 18.285 61.3077 17.9364 61.1251 17.6708C60.9425 17.3969 60.569 17.3969 60.2951 17.4799C59.7307 17.6625 59.4236 18.3846 59.8967 18.8328C60.1706 19.0901 60.5192 19.1316 60.8429 18.949H60.8346Z" fill="url(#paint62_linear_27_1200)"/>
<path d="M59.7225 21.5386C59.8802 21.4722 60.0046 21.3228 60.071 21.1734C60.2038 20.8829 60.1955 20.526 60.0129 20.2604C59.8304 19.9865 59.4568 19.9865 59.1746 20.0695C58.6103 20.2521 58.3032 20.9742 58.7763 21.4224C59.0502 21.6797 59.3988 21.7212 59.7141 21.5303L59.7225 21.5386Z" fill="url(#paint63_linear_27_1200)"/>
<path d="M58.602 24.3606C58.7597 24.2942 58.8842 24.1448 58.9506 23.9954C59.0834 23.6966 59.0751 23.348 58.8925 23.0824C58.7099 22.8085 58.3364 22.8085 58.0542 22.8998C57.4898 23.0824 57.1827 23.8045 57.6558 24.2527C57.9297 24.51 58.2783 24.5515 58.602 24.3689V24.3606Z" fill="url(#paint64_linear_27_1200)"/>
<path d="M57.7471 27.0166C57.9048 26.9502 58.0293 26.8008 58.0957 26.6514C58.2285 26.3526 58.2202 26.004 58.0459 25.7384C57.8633 25.4645 57.4898 25.4645 57.2076 25.5475C56.6432 25.7301 56.3361 26.4522 56.8092 26.9004C57.0831 27.1577 57.4317 27.1992 57.7471 27.0166Z" fill="url(#paint65_linear_27_1200)"/>
<path d="M56.9585 29.573C57.1162 29.5066 57.2324 29.3572 57.3071 29.2078C57.4399 28.9173 57.4316 28.5604 57.2573 28.2948C57.0747 28.0209 56.7012 28.0126 56.419 28.1039C55.8546 28.2865 55.5475 29.0086 56.0206 29.4651C56.2945 29.7224 56.6431 29.7639 56.9668 29.573H56.9585Z" fill="url(#paint66_linear_27_1200)"/>
<path d="M56.4191 32.3037C56.5768 32.2373 56.7013 32.0879 56.7677 31.9385C56.9005 31.6397 56.8922 31.2911 56.7096 31.0255C56.527 30.7516 56.1535 30.7516 55.8713 30.8346C55.3069 31.0172 55.0081 31.7393 55.4729 32.1875C55.7468 32.4448 56.1037 32.4863 56.4191 32.2954V32.3037Z" fill="url(#paint67_linear_27_1200)"/>
<path d="M89.6937 26.1117C89.9925 25.9042 90.0257 25.3896 89.7518 25.1572C89.6771 25.0908 89.5609 25.0576 89.453 25.0576C89.3285 25.0327 89.1957 25.0576 89.0795 25.1074C88.8637 25.2153 88.7392 25.4228 88.7641 25.6635C88.8056 26.0868 89.3368 26.3524 89.6854 26.1117H89.6937Z" fill="url(#paint68_linear_27_1200)"/>
<path d="M91.4534 26.9252C91.7522 26.7177 91.7854 26.2031 91.5115 25.9707C91.4368 25.9043 91.3289 25.8711 91.221 25.8711C91.0965 25.8462 90.9637 25.8711 90.8475 25.9209C90.6317 26.0288 90.5072 26.2363 90.5321 26.477C90.5736 26.9003 91.1048 27.1659 91.4534 26.9252Z" fill="url(#paint69_linear_27_1200)"/>
<path d="M93.188 27.4894C93.4868 27.2819 93.52 26.7673 93.2461 26.5349C93.1631 26.4685 93.0552 26.4353 92.9473 26.4353C92.8228 26.4104 92.69 26.4353 92.5738 26.4851C92.358 26.593 92.2335 26.8005 92.2584 27.0412C92.2999 27.4645 92.8311 27.7301 93.1797 27.4894H93.188Z" fill="url(#paint70_linear_27_1200)"/>
<path d="M94.9476 28.0456C95.2464 27.8381 95.2796 27.3235 95.0057 27.0911C94.931 27.0247 94.8148 26.9915 94.7152 26.9915C94.5907 26.9666 94.4579 26.9915 94.3417 27.0413C94.1259 27.1492 94.0014 27.3567 94.0263 27.5974C94.0678 28.0207 94.599 28.2946 94.9476 28.0456Z" fill="url(#paint71_linear_27_1200)"/>
<path d="M96.8317 28.5768C97.1305 28.361 97.1637 27.8547 96.8898 27.614C96.8151 27.5476 96.6989 27.5144 96.591 27.5144C96.4665 27.4895 96.3337 27.5144 96.2258 27.5642C96.01 27.6721 95.8855 27.8796 95.9104 28.1203C95.9519 28.5436 96.4831 28.8092 96.8317 28.5685V28.5768Z" fill="url(#paint72_linear_27_1200)"/>
<path d="M51.2233 38.6779C51.5221 38.4704 51.5553 37.9558 51.2814 37.7234C51.1984 37.657 51.0905 37.6238 50.9909 37.6238C50.8664 37.5989 50.7336 37.6238 50.6174 37.6736C50.4016 37.7815 50.2771 37.989 50.302 38.2297C50.3435 38.653 50.8747 38.9186 51.2233 38.6779Z" fill="url(#paint73_linear_27_1200)"/>
<path d="M52.6924 40.4042C52.9912 40.1884 53.0244 39.6821 52.7505 39.4497C52.6758 39.3833 52.5596 39.3501 52.46 39.3501C52.3355 39.3252 52.2027 39.3501 52.0865 39.3999C51.8707 39.5078 51.7462 39.7153 51.7711 39.956C51.8126 40.3793 52.3438 40.6449 52.6924 40.4042Z" fill="url(#paint74_linear_27_1200)"/>
<path d="M54.2445 42.0644C54.5433 41.8486 54.5765 41.3423 54.3026 41.1099C54.2196 41.0435 54.1117 41.0103 54.0038 41.0103C53.8793 40.9854 53.7465 41.0103 53.6303 41.0601C53.4145 41.168 53.29 41.3755 53.3149 41.6162C53.3564 42.0395 53.8876 42.3051 54.2362 42.0644H54.2445Z" fill="url(#paint75_linear_27_1200)"/>
<path d="M55.6638 43.633C55.9626 43.4255 55.9958 42.9109 55.7219 42.6785C55.6472 42.6121 55.5393 42.5789 55.4314 42.5789C55.3069 42.554 55.1741 42.5789 55.0579 42.6287C54.8421 42.7366 54.7176 42.9441 54.7425 43.1848C54.784 43.6081 55.3152 43.8737 55.6638 43.633Z" fill="url(#paint76_linear_27_1200)"/>
<path d="M57.1826 45.0687C57.4814 44.8612 57.5146 44.3467 57.2407 44.1143C57.166 44.0479 57.0498 44.0147 56.9419 44.023C56.8174 43.9981 56.6846 44.023 56.5684 44.0728C56.3526 44.1724 56.2281 44.3882 56.253 44.6289C56.2945 45.0522 56.8257 45.3178 57.1826 45.0771V45.0687Z" fill="url(#paint77_linear_27_1200)"/>
<path d="M58.768 46.4716C59.0668 46.2558 59.1 45.7495 58.8261 45.5171C58.7514 45.4507 58.6352 45.4175 58.5356 45.4175C58.4111 45.3926 58.2782 45.4175 58.1621 45.4673C57.9463 45.5752 57.8218 45.7827 57.8467 46.0234C57.8882 46.4467 58.4194 46.7123 58.768 46.4716Z" fill="url(#paint78_linear_27_1200)"/>
<path d="M60.4778 48.0651C60.7766 47.8576 60.8098 47.343 60.5359 47.1106C60.4529 47.0442 60.3533 47.011 60.2371 47.011C60.1126 46.9861 59.9798 47.011 59.8719 47.0608C59.6561 47.1604 59.5316 47.3762 59.5565 47.6169C59.598 48.0402 60.1292 48.3058 60.4861 48.0651H60.4778Z" fill="url(#paint79_linear_27_1200)"/>
</g>
<defs>
<linearGradient id="paint0_linear_27_1200" x1="56.0788" y1="53.5763" x2="56.0788" y2="0.248923" gradientUnits="userSpaceOnUse">
<stop stop-color="#A1732F"/>
<stop offset="0.1" stop-color="#A97A34"/>
<stop offset="0.25" stop-color="#BF9044"/>
<stop offset="0.44" stop-color="#E4B35D"/>
<stop offset="0.55" stop-color="#FDCB6E"/>
<stop offset="0.6" stop-color="#EDBB63"/>
<stop offset="0.71" stop-color="#CD9A4E"/>
<stop offset="0.81" stop-color="#B78340"/>
<stop offset="0.91" stop-color="#A97537"/>
<stop offset="1" stop-color="#A57134"/>
</linearGradient>
<linearGradient id="paint1_linear_27_1200" x1="56.5021" y1="55.8339" x2="56.5021" y2="0.298727" gradientUnits="userSpaceOnUse">
<stop stop-color="#A1732F"/>
<stop offset="0.1" stop-color="#A97A34"/>
<stop offset="0.25" stop-color="#BF9044"/>
<stop offset="0.44" stop-color="#E4B35D"/>
<stop offset="0.55" stop-color="#FDCB6E"/>
<stop offset="0.6" stop-color="#EDBB63"/>
<stop offset="0.71" stop-color="#CD9A4E"/>
<stop offset="0.81" stop-color="#B78340"/>
<stop offset="0.91" stop-color="#A97537"/>
<stop offset="1" stop-color="#A57134"/>
</linearGradient>
<linearGradient id="paint2_linear_27_1200" x1="3.88854" y1="55.9999" x2="3.88854" y2="51.6092" gradientUnits="userSpaceOnUse">
<stop stop-color="#A1732F"/>
<stop offset="0.1" stop-color="#A97A34"/>
<stop offset="0.25" stop-color="#BF9044"/>
<stop offset="0.44" stop-color="#E4B35D"/>
<stop offset="0.55" stop-color="#FDCB6E"/>
<stop offset="0.6" stop-color="#EDBB63"/>
<stop offset="0.71" stop-color="#CD9A4E"/>
<stop offset="0.81" stop-color="#B78340"/>
<stop offset="0.91" stop-color="#A97537"/>
<stop offset="1" stop-color="#A57134"/>
</linearGradient>
<linearGradient id="paint3_linear_27_1200" x1="100.592" y1="12.6493" x2="100.592" y2="0.0332964" gradientUnits="userSpaceOnUse">
<stop stop-color="#A1732F"/>
<stop offset="0.1" stop-color="#A97A34"/>
<stop offset="0.25" stop-color="#BF9044"/>
<stop offset="0.44" stop-color="#E4B35D"/>
<stop offset="0.55" stop-color="#FDCB6E"/>
<stop offset="0.6" stop-color="#EDBB63"/>
<stop offset="0.71" stop-color="#CD9A4E"/>
<stop offset="0.81" stop-color="#B78340"/>
<stop offset="0.91" stop-color="#A97537"/>
<stop offset="1" stop-color="#A57134"/>
</linearGradient>
<linearGradient id="paint4_linear_27_1200" x1="84.8798" y1="13.554" x2="84.8798" y2="12.226" gradientUnits="userSpaceOnUse">
<stop stop-color="#A1732F"/>
<stop offset="0.1" stop-color="#A97A34"/>
<stop offset="0.25" stop-color="#BF9044"/>
<stop offset="0.44" stop-color="#E4B35D"/>
<stop offset="0.55" stop-color="#FDCB6E"/>
<stop offset="0.6" stop-color="#EDBB63"/>
<stop offset="0.71" stop-color="#CD9A4E"/>
<stop offset="0.81" stop-color="#B78340"/>
<stop offset="0.91" stop-color="#A97537"/>
<stop offset="1" stop-color="#A57134"/>
</linearGradient>
<linearGradient id="paint5_linear_27_1200" x1="65.325" y1="18.0691" x2="65.325" y2="12.8484" gradientUnits="userSpaceOnUse">
<stop stop-color="#A1732F"/>
<stop offset="0.1" stop-color="#A97A34"/>
<stop offset="0.25" stop-color="#BF9044"/>
<stop offset="0.44" stop-color="#E4B35D"/>
<stop offset="0.55" stop-color="#FDCB6E"/>
<stop offset="0.6" stop-color="#EDBB63"/>
<stop offset="0.71" stop-color="#CD9A4E"/>
<stop offset="0.81" stop-color="#B78340"/>
<stop offset="0.91" stop-color="#A97537"/>
<stop offset="1" stop-color="#A57134"/>
</linearGradient>
<linearGradient id="paint6_linear_27_1200" x1="37.8852" y1="40.7362" x2="37.8852" y2="18.8907" gradientUnits="userSpaceOnUse">
<stop stop-color="#A1732F"/>
<stop offset="0.1" stop-color="#A97A34"/>
<stop offset="0.25" stop-color="#BF9044"/>
<stop offset="0.44" stop-color="#E4B35D"/>
<stop offset="0.55" stop-color="#FDCB6E"/>
<stop offset="0.6" stop-color="#EDBB63"/>
<stop offset="0.71" stop-color="#CD9A4E"/>
<stop offset="0.81" stop-color="#B78340"/>
<stop offset="0.91" stop-color="#A97537"/>
<stop offset="1" stop-color="#A57134"/>
</linearGradient>
<linearGradient id="paint7_linear_27_1200" x1="107.813" y1="18.9239" x2="107.813" y2="-1.7057e-05" gradientUnits="userSpaceOnUse">
<stop stop-color="#A1732F"/>
<stop offset="0.1" stop-color="#A97A34"/>
<stop offset="0.25" stop-color="#BF9044"/>
<stop offset="0.44" stop-color="#E4B35D"/>
<stop offset="0.55" stop-color="#FDCB6E"/>
<stop offset="0.6" stop-color="#EDBB63"/>
<stop offset="0.71" stop-color="#CD9A4E"/>
<stop offset="0.81" stop-color="#B78340"/>
<stop offset="0.91" stop-color="#A97537"/>
<stop offset="1" stop-color="#A57134"/>
</linearGradient>
<linearGradient id="paint8_linear_27_1200" x1="90.2249" y1="44.7701" x2="90.2249" y2="21.638" gradientUnits="userSpaceOnUse">
<stop stop-color="#A1732F"/>
<stop offset="0.1" stop-color="#A97A34"/>
<stop offset="0.25" stop-color="#BF9044"/>
<stop offset="0.44" stop-color="#E4B35D"/>
<stop offset="0.55" stop-color="#FDCB6E"/>
<stop offset="0.6" stop-color="#EDBB63"/>
<stop offset="0.71" stop-color="#CD9A4E"/>
<stop offset="0.81" stop-color="#B78340"/>
<stop offset="0.91" stop-color="#A97537"/>
<stop offset="1" stop-color="#A57134"/>
</linearGradient>
<linearGradient id="paint9_linear_27_1200" x1="48.7334" y1="50.5719" x2="48.7334" y2="43.5252" gradientUnits="userSpaceOnUse">
<stop stop-color="#A1732F"/>
<stop offset="0.1" stop-color="#A97A34"/>
<stop offset="0.25" stop-color="#BF9044"/>
<stop offset="0.44" stop-color="#E4B35D"/>
<stop offset="0.55" stop-color="#FDCB6E"/>
<stop offset="0.6" stop-color="#EDBB63"/>
<stop offset="0.71" stop-color="#CD9A4E"/>
<stop offset="0.81" stop-color="#B78340"/>
<stop offset="0.91" stop-color="#A97537"/>
<stop offset="1" stop-color="#A57134"/>
</linearGradient>
<linearGradient id="paint10_linear_27_1200" x1="45.7288" y1="35.9639" x2="45.7288" y2="18.7996" gradientUnits="userSpaceOnUse">
<stop stop-color="#A1732F"/>
<stop offset="0.1" stop-color="#A97A34"/>
<stop offset="0.25" stop-color="#BF9044"/>
<stop offset="0.44" stop-color="#E4B35D"/>
<stop offset="0.55" stop-color="#FDCB6E"/>
<stop offset="0.6" stop-color="#EDBB63"/>
<stop offset="0.71" stop-color="#CD9A4E"/>
<stop offset="0.81" stop-color="#B78340"/>
<stop offset="0.91" stop-color="#A97537"/>
<stop offset="1" stop-color="#A57134"/>
</linearGradient>
<linearGradient id="paint11_linear_27_1200" x1="47.7871" y1="35.856" x2="47.7871" y2="17.4384" gradientUnits="userSpaceOnUse">
<stop stop-color="#A1732F"/>
<stop offset="0.1" stop-color="#A97A34"/>
<stop offset="0.25" stop-color="#BF9044"/>
<stop offset="0.44" stop-color="#E4B35D"/>
<stop offset="0.55" stop-color="#FDCB6E"/>
<stop offset="0.6" stop-color="#EDBB63"/>
<stop offset="0.71" stop-color="#CD9A4E"/>
<stop offset="0.81" stop-color="#B78340"/>
<stop offset="0.91" stop-color="#A97537"/>
<stop offset="1" stop-color="#A57134"/>
</linearGradient>
<linearGradient id="paint12_linear_27_1200" x1="76.4054" y1="29.8881" x2="76.4054" y2="12.8068" gradientUnits="userSpaceOnUse">
<stop stop-color="#A1732F"/>
<stop offset="0.1" stop-color="#A97A34"/>
<stop offset="0.25" stop-color="#BF9044"/>
<stop offset="0.44" stop-color="#E4B35D"/>
<stop offset="0.55" stop-color="#FDCB6E"/>
<stop offset="0.6" stop-color="#EDBB63"/>
<stop offset="0.71" stop-color="#CD9A4E"/>
<stop offset="0.81" stop-color="#B78340"/>
<stop offset="0.91" stop-color="#A97537"/>
<stop offset="1" stop-color="#A57134"/>
</linearGradient>
<linearGradient id="paint13_linear_27_1200" x1="77.7667" y1="29.5977" x2="77.7667" y2="12.6989" gradientUnits="userSpaceOnUse">
<stop stop-color="#A1732F"/>
<stop offset="0.1" stop-color="#A97A34"/>
<stop offset="0.25" stop-color="#BF9044"/>
<stop offset="0.44" stop-color="#E4B35D"/>
<stop offset="0.55" stop-color="#FDCB6E"/>
<stop offset="0.6" stop-color="#EDBB63"/>
<stop offset="0.71" stop-color="#CD9A4E"/>
<stop offset="0.81" stop-color="#B78340"/>
<stop offset="0.91" stop-color="#A97537"/>
<stop offset="1" stop-color="#A57134"/>
</linearGradient>
<linearGradient id="paint14_linear_27_1200" x1="84.7221" y1="26.9418" x2="84.7221" y2="12.3007" gradientUnits="userSpaceOnUse">
<stop stop-color="#A1732F"/>
<stop offset="0.1" stop-color="#A97A34"/>
<stop offset="0.25" stop-color="#BF9044"/>
<stop offset="0.44" stop-color="#E4B35D"/>
<stop offset="0.55" stop-color="#FDCB6E"/>
<stop offset="0.6" stop-color="#EDBB63"/>
<stop offset="0.71" stop-color="#CD9A4E"/>
<stop offset="0.81" stop-color="#B78340"/>
<stop offset="0.91" stop-color="#A97537"/>
<stop offset="1" stop-color="#A57134"/>
</linearGradient>
<linearGradient id="paint15_linear_27_1200" x1="85.8841" y1="26.8671" x2="85.8841" y2="12.0184" gradientUnits="userSpaceOnUse">
<stop stop-color="#A1732F"/>
<stop offset="0.1" stop-color="#A97A34"/>
<stop offset="0.25" stop-color="#BF9044"/>
<stop offset="0.44" stop-color="#E4B35D"/>
<stop offset="0.55" stop-color="#FDCB6E"/>
<stop offset="0.6" stop-color="#EDBB63"/>
<stop offset="0.71" stop-color="#CD9A4E"/>
<stop offset="0.81" stop-color="#B78340"/>
<stop offset="0.91" stop-color="#A97537"/>
<stop offset="1" stop-color="#A57134"/>
</linearGradient>
<linearGradient id="paint16_linear_27_1200" x1="100.393" y1="19.6128" x2="100.393" y2="18.1022" gradientUnits="userSpaceOnUse">
<stop stop-color="#A1732F"/>
<stop offset="0.1" stop-color="#A97A34"/>
<stop offset="0.25" stop-color="#BF9044"/>
<stop offset="0.44" stop-color="#E4B35D"/>
<stop offset="0.55" stop-color="#FDCB6E"/>
<stop offset="0.6" stop-color="#EDBB63"/>
<stop offset="0.71" stop-color="#CD9A4E"/>
<stop offset="0.81" stop-color="#B78340"/>
<stop offset="0.91" stop-color="#A97537"/>
<stop offset="1" stop-color="#A57134"/>
</linearGradient>
<linearGradient id="paint17_linear_27_1200" x1="99.4048" y1="22.0114" x2="99.4048" y2="18.9819" gradientUnits="userSpaceOnUse">
<stop stop-color="#A1732F"/>
<stop offset="0.1" stop-color="#A97A34"/>
<stop offset="0.25" stop-color="#BF9044"/>
<stop offset="0.44" stop-color="#E4B35D"/>
<stop offset="0.55" stop-color="#FDCB6E"/>
<stop offset="0.6" stop-color="#EDBB63"/>
<stop offset="0.71" stop-color="#CD9A4E"/>
<stop offset="0.81" stop-color="#B78340"/>
<stop offset="0.91" stop-color="#A97537"/>
<stop offset="1" stop-color="#A57134"/>
</linearGradient>
<linearGradient id="paint18_linear_27_1200" x1="101.364" y1="28.419" x2="101.364" y2="20.9241" gradientUnits="userSpaceOnUse">
<stop stop-color="#A1732F"/>
<stop offset="0.1" stop-color="#A97A34"/>
<stop offset="0.25" stop-color="#BF9044"/>
<stop offset="0.44" stop-color="#E4B35D"/>
<stop offset="0.55" stop-color="#FDCB6E"/>
<stop offset="0.6" stop-color="#EDBB63"/>
<stop offset="0.71" stop-color="#CD9A4E"/>
<stop offset="0.81" stop-color="#B78340"/>
<stop offset="0.91" stop-color="#A97537"/>
<stop offset="1" stop-color="#A57134"/>
</linearGradient>
<linearGradient id="paint19_linear_27_1200" x1="68.0557" y1="44.7866" x2="68.0557" y2="34.9263" gradientUnits="userSpaceOnUse">
<stop stop-color="#A1732F"/>
<stop offset="0.1" stop-color="#A97A34"/>
<stop offset="0.25" stop-color="#BF9044"/>
<stop offset="0.44" stop-color="#E4B35D"/>
<stop offset="0.55" stop-color="#FDCB6E"/>
<stop offset="0.6" stop-color="#EDBB63"/>
<stop offset="0.71" stop-color="#CD9A4E"/>
<stop offset="0.81" stop-color="#B78340"/>
<stop offset="0.91" stop-color="#A97537"/>
<stop offset="1" stop-color="#A57134"/>
</linearGradient>
<linearGradient id="paint20_linear_27_1200" x1="65.8231" y1="46.5961" x2="65.8231" y2="35.084" gradientUnits="userSpaceOnUse">
<stop stop-color="#A1732F"/>
<stop offset="0.1" stop-color="#A97A34"/>
<stop offset="0.25" stop-color="#BF9044"/>
<stop offset="0.44" stop-color="#E4B35D"/>
<stop offset="0.55" stop-color="#FDCB6E"/>
<stop offset="0.6" stop-color="#EDBB63"/>
<stop offset="0.71" stop-color="#CD9A4E"/>
<stop offset="0.81" stop-color="#B78340"/>
<stop offset="0.91" stop-color="#A97537"/>
<stop offset="1" stop-color="#A57134"/>
</linearGradient>
<linearGradient id="paint21_linear_27_1200" x1="90.391" y1="24.3188" x2="90.391" y2="11.155" gradientUnits="userSpaceOnUse">
<stop stop-color="#A1732F"/>
<stop offset="0.1" stop-color="#A97A34"/>
<stop offset="0.25" stop-color="#BF9044"/>
<stop offset="0.44" stop-color="#E4B35D"/>
<stop offset="0.55" stop-color="#FDCB6E"/>
<stop offset="0.6" stop-color="#EDBB63"/>
<stop offset="0.71" stop-color="#CD9A4E"/>
<stop offset="0.81" stop-color="#B78340"/>
<stop offset="0.91" stop-color="#A97537"/>
<stop offset="1" stop-color="#A57134"/>
</linearGradient>
<linearGradient id="paint22_linear_27_1200" x1="91.694" y1="23.4973" x2="91.694" y2="10.6572" gradientUnits="userSpaceOnUse">
<stop stop-color="#A1732F"/>
<stop offset="0.1" stop-color="#A97A34"/>
<stop offset="0.25" stop-color="#BF9044"/>
<stop offset="0.44" stop-color="#E4B35D"/>
<stop offset="0.55" stop-color="#FDCB6E"/>
<stop offset="0.6" stop-color="#EDBB63"/>
<stop offset="0.71" stop-color="#CD9A4E"/>
<stop offset="0.81" stop-color="#B78340"/>
<stop offset="0.91" stop-color="#A97537"/>
<stop offset="1" stop-color="#A57134"/>
</linearGradient>
<linearGradient id="paint23_linear_27_1200" x1="93.603" y1="22.0614" x2="93.603" y2="10.1509" gradientUnits="userSpaceOnUse">
<stop stop-color="#A1732F"/>
<stop offset="0.1" stop-color="#A97A34"/>
<stop offset="0.25" stop-color="#BF9044"/>
<stop offset="0.44" stop-color="#E4B35D"/>
<stop offset="0.55" stop-color="#FDCB6E"/>
<stop offset="0.6" stop-color="#EDBB63"/>
<stop offset="0.71" stop-color="#CD9A4E"/>
<stop offset="0.81" stop-color="#B78340"/>
<stop offset="0.91" stop-color="#A97537"/>
<stop offset="1" stop-color="#A57134"/>
</linearGradient>
<linearGradient id="paint24_linear_27_1200" x1="95.4871" y1="20.31" x2="95.4871" y2="9.69434" gradientUnits="userSpaceOnUse">
<stop stop-color="#A1732F"/>
<stop offset="0.1" stop-color="#A97A34"/>
<stop offset="0.25" stop-color="#BF9044"/>
<stop offset="0.44" stop-color="#E4B35D"/>
<stop offset="0.55" stop-color="#FDCB6E"/>
<stop offset="0.6" stop-color="#EDBB63"/>
<stop offset="0.71" stop-color="#CD9A4E"/>
<stop offset="0.81" stop-color="#B78340"/>
<stop offset="0.91" stop-color="#A97537"/>
<stop offset="1" stop-color="#A57134"/>
</linearGradient>
<linearGradient id="paint25_linear_27_1200" x1="79.1195" y1="28.8923" x2="79.1195" y2="13.0808" gradientUnits="userSpaceOnUse">
<stop stop-color="#A1732F"/>
<stop offset="0.1" stop-color="#A97A34"/>
<stop offset="0.25" stop-color="#BF9044"/>
<stop offset="0.44" stop-color="#E4B35D"/>
<stop offset="0.55" stop-color="#FDCB6E"/>
<stop offset="0.6" stop-color="#EDBB63"/>
<stop offset="0.71" stop-color="#CD9A4E"/>
<stop offset="0.81" stop-color="#B78340"/>
<stop offset="0.91" stop-color="#A97537"/>
<stop offset="1" stop-color="#A57134"/>
</linearGradient>
<linearGradient id="paint26_linear_27_1200" x1="80.4807" y1="28.3279" x2="80.4807" y2="12.9729" gradientUnits="userSpaceOnUse">
<stop stop-color="#A1732F"/>
<stop offset="0.1" stop-color="#A97A34"/>
<stop offset="0.25" stop-color="#BF9044"/>
<stop offset="0.44" stop-color="#E4B35D"/>
<stop offset="0.55" stop-color="#FDCB6E"/>
<stop offset="0.6" stop-color="#EDBB63"/>
<stop offset="0.71" stop-color="#CD9A4E"/>
<stop offset="0.81" stop-color="#B78340"/>
<stop offset="0.91" stop-color="#A97537"/>
<stop offset="1" stop-color="#A57134"/>
</linearGradient>
<linearGradient id="paint27_linear_27_1200" x1="81.8668" y1="27.7718" x2="81.8668" y2="12.8235" gradientUnits="userSpaceOnUse">
<stop stop-color="#A1732F"/>
<stop offset="0.1" stop-color="#A97A34"/>
<stop offset="0.25" stop-color="#BF9044"/>
<stop offset="0.44" stop-color="#E4B35D"/>
<stop offset="0.55" stop-color="#FDCB6E"/>
<stop offset="0.6" stop-color="#EDBB63"/>
<stop offset="0.71" stop-color="#CD9A4E"/>
<stop offset="0.81" stop-color="#B78340"/>
<stop offset="0.91" stop-color="#A97537"/>
<stop offset="1" stop-color="#A57134"/>
</linearGradient>
<linearGradient id="paint28_linear_27_1200" x1="83.1533" y1="27.0165" x2="83.1533" y2="12.7654" gradientUnits="userSpaceOnUse">
<stop stop-color="#A1732F"/>
<stop offset="0.1" stop-color="#A97A34"/>
<stop offset="0.25" stop-color="#BF9044"/>
<stop offset="0.44" stop-color="#E4B35D"/>
<stop offset="0.55" stop-color="#FDCB6E"/>
<stop offset="0.6" stop-color="#EDBB63"/>
<stop offset="0.71" stop-color="#CD9A4E"/>
<stop offset="0.81" stop-color="#B78340"/>
<stop offset="0.91" stop-color="#A97537"/>
<stop offset="1" stop-color="#A57134"/>
</linearGradient>
<linearGradient id="paint29_linear_27_1200" x1="53.622" y1="34.3371" x2="53.622" y2="16.0854" gradientUnits="userSpaceOnUse">
<stop stop-color="#A1732F"/>
<stop offset="0.1" stop-color="#A97A34"/>
<stop offset="0.25" stop-color="#BF9044"/>
<stop offset="0.44" stop-color="#E4B35D"/>
<stop offset="0.55" stop-color="#FDCB6E"/>
<stop offset="0.6" stop-color="#EDBB63"/>
<stop offset="0.71" stop-color="#CD9A4E"/>
<stop offset="0.81" stop-color="#B78340"/>
<stop offset="0.91" stop-color="#A97537"/>
<stop offset="1" stop-color="#A57134"/>
</linearGradient>
<linearGradient id="paint30_linear_27_1200" x1="54.8919" y1="34.1628" x2="54.8919" y2="15.936" gradientUnits="userSpaceOnUse">
<stop stop-color="#A1732F"/>
<stop offset="0.1" stop-color="#A97A34"/>
<stop offset="0.25" stop-color="#BF9044"/>
<stop offset="0.44" stop-color="#E4B35D"/>
<stop offset="0.55" stop-color="#FDCB6E"/>
<stop offset="0.6" stop-color="#EDBB63"/>
<stop offset="0.71" stop-color="#CD9A4E"/>
<stop offset="0.81" stop-color="#B78340"/>
<stop offset="0.91" stop-color="#A97537"/>
<stop offset="1" stop-color="#A57134"/>
</linearGradient>
<linearGradient id="paint31_linear_27_1200" x1="56.195" y1="33.9719" x2="56.195" y2="15.7368" gradientUnits="userSpaceOnUse">
<stop stop-color="#A1732F"/>
<stop offset="0.1" stop-color="#A97A34"/>
<stop offset="0.25" stop-color="#BF9044"/>
<stop offset="0.44" stop-color="#E4B35D"/>
<stop offset="0.55" stop-color="#FDCB6E"/>
<stop offset="0.6" stop-color="#EDBB63"/>
<stop offset="0.71" stop-color="#CD9A4E"/>
<stop offset="0.81" stop-color="#B78340"/>
<stop offset="0.91" stop-color="#A97537"/>
<stop offset="1" stop-color="#A57134"/>
</linearGradient>
<linearGradient id="paint32_linear_27_1200" x1="61.4572" y1="33.1917" x2="61.4572" y2="15.4214" gradientUnits="userSpaceOnUse">
<stop stop-color="#A1732F"/>
<stop offset="0.1" stop-color="#A97A34"/>
<stop offset="0.25" stop-color="#BF9044"/>
<stop offset="0.44" stop-color="#E4B35D"/>
<stop offset="0.55" stop-color="#FDCB6E"/>
<stop offset="0.6" stop-color="#EDBB63"/>
<stop offset="0.71" stop-color="#CD9A4E"/>
<stop offset="0.81" stop-color="#B78340"/>
<stop offset="0.91" stop-color="#A97537"/>
<stop offset="1" stop-color="#A57134"/>
</linearGradient>
<linearGradient id="paint33_linear_27_1200" x1="62.8018" y1="32.9924" x2="62.8018" y2="15.1309" gradientUnits="userSpaceOnUse">
<stop stop-color="#A1732F"/>
<stop offset="0.1" stop-color="#A97A34"/>
<stop offset="0.25" stop-color="#BF9044"/>
<stop offset="0.44" stop-color="#E4B35D"/>
<stop offset="0.55" stop-color="#FDCB6E"/>
<stop offset="0.6" stop-color="#EDBB63"/>
<stop offset="0.71" stop-color="#CD9A4E"/>
<stop offset="0.81" stop-color="#B78340"/>
<stop offset="0.91" stop-color="#A97537"/>
<stop offset="1" stop-color="#A57134"/>
</linearGradient>
<linearGradient id="paint34_linear_27_1200" x1="64.2128" y1="32.8017" x2="64.2128" y2="14.7991" gradientUnits="userSpaceOnUse">
<stop stop-color="#A1732F"/>
<stop offset="0.1" stop-color="#A97A34"/>
<stop offset="0.25" stop-color="#BF9044"/>
<stop offset="0.44" stop-color="#E4B35D"/>
<stop offset="0.55" stop-color="#FDCB6E"/>
<stop offset="0.6" stop-color="#EDBB63"/>
<stop offset="0.71" stop-color="#CD9A4E"/>
<stop offset="0.81" stop-color="#B78340"/>
<stop offset="0.91" stop-color="#A97537"/>
<stop offset="1" stop-color="#A57134"/>
</linearGradient>
<linearGradient id="paint35_linear_27_1200" x1="65.6736" y1="32.6025" x2="65.6736" y2="14.4006" gradientUnits="userSpaceOnUse">
<stop stop-color="#A1732F"/>
<stop offset="0.1" stop-color="#A97A34"/>
<stop offset="0.25" stop-color="#BF9044"/>
<stop offset="0.44" stop-color="#E4B35D"/>
<stop offset="0.55" stop-color="#FDCB6E"/>
<stop offset="0.6" stop-color="#EDBB63"/>
<stop offset="0.71" stop-color="#CD9A4E"/>
<stop offset="0.81" stop-color="#B78340"/>
<stop offset="0.91" stop-color="#A97537"/>
<stop offset="1" stop-color="#A57134"/>
</linearGradient>
<linearGradient id="paint36_linear_27_1200" x1="67.2506" y1="32.2041" x2="67.2506" y2="14.1101" gradientUnits="userSpaceOnUse">
<stop stop-color="#A1732F"/>
<stop offset="0.1" stop-color="#A97A34"/>
<stop offset="0.25" stop-color="#BF9044"/>
<stop offset="0.44" stop-color="#E4B35D"/>
<stop offset="0.55" stop-color="#FDCB6E"/>
<stop offset="0.6" stop-color="#EDBB63"/>
<stop offset="0.71" stop-color="#CD9A4E"/>
<stop offset="0.81" stop-color="#B78340"/>
<stop offset="0.91" stop-color="#A97537"/>
<stop offset="1" stop-color="#A57134"/>
</linearGradient>
<linearGradient id="paint37_linear_27_1200" x1="69.0683" y1="31.6645" x2="69.0683" y2="13.8113" gradientUnits="userSpaceOnUse">
<stop stop-color="#A1732F"/>
<stop offset="0.1" stop-color="#A97A34"/>
<stop offset="0.25" stop-color="#BF9044"/>
<stop offset="0.44" stop-color="#E4B35D"/>
<stop offset="0.55" stop-color="#FDCB6E"/>
<stop offset="0.6" stop-color="#EDBB63"/>
<stop offset="0.71" stop-color="#CD9A4E"/>
<stop offset="0.81" stop-color="#B78340"/>
<stop offset="0.91" stop-color="#A97537"/>
<stop offset="1" stop-color="#A57134"/>
</linearGradient>
<linearGradient id="paint38_linear_27_1200" x1="70.3963" y1="31.2246" x2="70.3963" y2="13.6287" gradientUnits="userSpaceOnUse">
<stop stop-color="#A1732F"/>
<stop offset="0.1" stop-color="#A97A34"/>
<stop offset="0.25" stop-color="#BF9044"/>
<stop offset="0.44" stop-color="#E4B35D"/>
<stop offset="0.55" stop-color="#FDCB6E"/>
<stop offset="0.6" stop-color="#EDBB63"/>
<stop offset="0.71" stop-color="#CD9A4E"/>
<stop offset="0.81" stop-color="#B78340"/>
<stop offset="0.91" stop-color="#A97537"/>
<stop offset="1" stop-color="#A57134"/>
</linearGradient>
<linearGradient id="paint39_linear_27_1200" x1="30.5231" y1="39.9312" x2="30.5231" y2="33.1252" gradientUnits="userSpaceOnUse">
<stop stop-color="#A1732F"/>
<stop offset="0.1" stop-color="#A97A34"/>
<stop offset="0.25" stop-color="#BF9044"/>
<stop offset="0.44" stop-color="#E4B35D"/>
<stop offset="0.55" stop-color="#FDCB6E"/>
<stop offset="0.6" stop-color="#EDBB63"/>
<stop offset="0.71" stop-color="#CD9A4E"/>
<stop offset="0.81" stop-color="#B78340"/>
<stop offset="0.91" stop-color="#A97537"/>
<stop offset="1" stop-color="#A57134"/>
</linearGradient>
<linearGradient id="paint40_linear_27_1200" x1="31.7266" y1="39.6572" x2="31.7266" y2="31.3904" gradientUnits="userSpaceOnUse">
<stop stop-color="#A1732F"/>
<stop offset="0.1" stop-color="#A97A34"/>
<stop offset="0.25" stop-color="#BF9044"/>
<stop offset="0.44" stop-color="#E4B35D"/>
<stop offset="0.55" stop-color="#FDCB6E"/>
<stop offset="0.6" stop-color="#EDBB63"/>
<stop offset="0.71" stop-color="#CD9A4E"/>
<stop offset="0.81" stop-color="#B78340"/>
<stop offset="0.91" stop-color="#A97537"/>
<stop offset="1" stop-color="#A57134"/>
</linearGradient>
<linearGradient id="paint41_linear_27_1200" x1="33.0048" y1="39.4082" x2="33.0048" y2="29.6143" gradientUnits="userSpaceOnUse">
<stop stop-color="#A1732F"/>
<stop offset="0.1" stop-color="#A97A34"/>
<stop offset="0.25" stop-color="#BF9044"/>
<stop offset="0.44" stop-color="#E4B35D"/>
<stop offset="0.55" stop-color="#FDCB6E"/>
<stop offset="0.6" stop-color="#EDBB63"/>
<stop offset="0.71" stop-color="#CD9A4E"/>
<stop offset="0.81" stop-color="#B78340"/>
<stop offset="0.91" stop-color="#A97537"/>
<stop offset="1" stop-color="#A57134"/>
</linearGradient>
<linearGradient id="paint42_linear_27_1200" x1="34.4656" y1="39.0099" x2="34.4656" y2="27.9792" gradientUnits="userSpaceOnUse">
<stop stop-color="#A1732F"/>
<stop offset="0.1" stop-color="#A97A34"/>
<stop offset="0.25" stop-color="#BF9044"/>
<stop offset="0.44" stop-color="#E4B35D"/>
<stop offset="0.55" stop-color="#FDCB6E"/>
<stop offset="0.6" stop-color="#EDBB63"/>
<stop offset="0.71" stop-color="#CD9A4E"/>
<stop offset="0.81" stop-color="#B78340"/>
<stop offset="0.91" stop-color="#A97537"/>
<stop offset="1" stop-color="#A57134"/>
</linearGradient>
<linearGradient id="paint43_linear_27_1200" x1="35.6525" y1="38.6197" x2="35.6525" y2="26.7839" gradientUnits="userSpaceOnUse">
<stop stop-color="#A1732F"/>
<stop offset="0.1" stop-color="#A97A34"/>
<stop offset="0.25" stop-color="#BF9044"/>
<stop offset="0.44" stop-color="#E4B35D"/>
<stop offset="0.55" stop-color="#FDCB6E"/>
<stop offset="0.6" stop-color="#EDBB63"/>
<stop offset="0.71" stop-color="#CD9A4E"/>
<stop offset="0.81" stop-color="#B78340"/>
<stop offset="0.91" stop-color="#A97537"/>
<stop offset="1" stop-color="#A57134"/>
</linearGradient>
<linearGradient id="paint44_linear_27_1200" x1="91.7023" y1="29.9131" x2="91.7023" y2="25.4727" gradientUnits="userSpaceOnUse">
<stop stop-color="#A1732F"/>
<stop offset="0.1" stop-color="#A97A34"/>
<stop offset="0.25" stop-color="#BF9044"/>
<stop offset="0.44" stop-color="#E4B35D"/>
<stop offset="0.55" stop-color="#FDCB6E"/>
<stop offset="0.6" stop-color="#EDBB63"/>
<stop offset="0.71" stop-color="#CD9A4E"/>
<stop offset="0.81" stop-color="#B78340"/>
<stop offset="0.91" stop-color="#A97537"/>
<stop offset="1" stop-color="#A57134"/>
</linearGradient>
<linearGradient id="paint45_linear_27_1200" x1="90.2083" y1="31.067" x2="90.2083" y2="26.6431" gradientUnits="userSpaceOnUse">
<stop stop-color="#A1732F"/>
<stop offset="0.1" stop-color="#A97A34"/>
<stop offset="0.25" stop-color="#BF9044"/>
<stop offset="0.44" stop-color="#E4B35D"/>
<stop offset="0.55" stop-color="#FDCB6E"/>
<stop offset="0.6" stop-color="#EDBB63"/>
<stop offset="0.71" stop-color="#CD9A4E"/>
<stop offset="0.81" stop-color="#B78340"/>
<stop offset="0.91" stop-color="#A97537"/>
<stop offset="1" stop-color="#A57134"/>
</linearGradient>
<linearGradient id="paint46_linear_27_1200" x1="88.6479" y1="32.2952" x2="88.6479" y2="27.4895" gradientUnits="userSpaceOnUse">
<stop stop-color="#A1732F"/>
<stop offset="0.1" stop-color="#A97A34"/>
<stop offset="0.25" stop-color="#BF9044"/>
<stop offset="0.44" stop-color="#E4B35D"/>
<stop offset="0.55" stop-color="#FDCB6E"/>
<stop offset="0.6" stop-color="#EDBB63"/>
<stop offset="0.71" stop-color="#CD9A4E"/>
<stop offset="0.81" stop-color="#B78340"/>
<stop offset="0.91" stop-color="#A97537"/>
<stop offset="1" stop-color="#A57134"/>
</linearGradient>
<linearGradient id="paint47_linear_27_1200" x1="87.1289" y1="33.7395" x2="87.1289" y2="28.22" gradientUnits="userSpaceOnUse">
<stop stop-color="#A1732F"/>
<stop offset="0.1" stop-color="#A97A34"/>
<stop offset="0.25" stop-color="#BF9044"/>
<stop offset="0.44" stop-color="#E4B35D"/>
<stop offset="0.55" stop-color="#FDCB6E"/>
<stop offset="0.6" stop-color="#EDBB63"/>
<stop offset="0.71" stop-color="#CD9A4E"/>
<stop offset="0.81" stop-color="#B78340"/>
<stop offset="0.91" stop-color="#A97537"/>
<stop offset="1" stop-color="#A57134"/>
</linearGradient>
<linearGradient id="paint48_linear_27_1200" x1="85.4192" y1="35.2999" x2="85.4192" y2="28.884" gradientUnits="userSpaceOnUse">
<stop stop-color="#A1732F"/>
<stop offset="0.1" stop-color="#A97A34"/>
<stop offset="0.25" stop-color="#BF9044"/>
<stop offset="0.44" stop-color="#E4B35D"/>
<stop offset="0.55" stop-color="#FDCB6E"/>
<stop offset="0.6" stop-color="#EDBB63"/>
<stop offset="0.71" stop-color="#CD9A4E"/>
<stop offset="0.81" stop-color="#B78340"/>
<stop offset="0.91" stop-color="#A97537"/>
<stop offset="1" stop-color="#A57134"/>
</linearGradient>
<linearGradient id="paint49_linear_27_1200" x1="83.7177" y1="36.7854" x2="83.7177" y2="29.606" gradientUnits="userSpaceOnUse">
<stop stop-color="#A1732F"/>
<stop offset="0.1" stop-color="#A97A34"/>
<stop offset="0.25" stop-color="#BF9044"/>
<stop offset="0.44" stop-color="#E4B35D"/>
<stop offset="0.55" stop-color="#FDCB6E"/>
<stop offset="0.6" stop-color="#EDBB63"/>
<stop offset="0.71" stop-color="#CD9A4E"/>
<stop offset="0.81" stop-color="#B78340"/>
<stop offset="0.91" stop-color="#A97537"/>
<stop offset="1" stop-color="#A57134"/>
</linearGradient>
<linearGradient id="paint50_linear_27_1200" x1="82.1988" y1="37.9475" x2="82.1988" y2="30.2036" gradientUnits="userSpaceOnUse">
<stop stop-color="#A1732F"/>
<stop offset="0.1" stop-color="#A97A34"/>
<stop offset="0.25" stop-color="#BF9044"/>
<stop offset="0.44" stop-color="#E4B35D"/>
<stop offset="0.55" stop-color="#FDCB6E"/>
<stop offset="0.6" stop-color="#EDBB63"/>
<stop offset="0.71" stop-color="#CD9A4E"/>
<stop offset="0.81" stop-color="#B78340"/>
<stop offset="0.91" stop-color="#A97537"/>
<stop offset="1" stop-color="#A57134"/>
</linearGradient>
<linearGradient id="paint51_linear_27_1200" x1="80.3396" y1="39.0764" x2="80.3396" y2="30.8428" gradientUnits="userSpaceOnUse">
<stop stop-color="#A1732F"/>
<stop offset="0.1" stop-color="#A97A34"/>
<stop offset="0.25" stop-color="#BF9044"/>
<stop offset="0.44" stop-color="#E4B35D"/>
<stop offset="0.55" stop-color="#FDCB6E"/>
<stop offset="0.6" stop-color="#EDBB63"/>
<stop offset="0.71" stop-color="#CD9A4E"/>
<stop offset="0.81" stop-color="#B78340"/>
<stop offset="0.91" stop-color="#A97537"/>
<stop offset="1" stop-color="#A57134"/>
</linearGradient>
<linearGradient id="paint52_linear_27_1200" x1="78.1318" y1="40.2965" x2="78.1318" y2="31.5732" gradientUnits="userSpaceOnUse">
<stop stop-color="#A1732F"/>
<stop offset="0.1" stop-color="#A97A34"/>
<stop offset="0.25" stop-color="#BF9044"/>
<stop offset="0.44" stop-color="#E4B35D"/>
<stop offset="0.55" stop-color="#FDCB6E"/>
<stop offset="0.6" stop-color="#EDBB63"/>
<stop offset="0.71" stop-color="#CD9A4E"/>
<stop offset="0.81" stop-color="#B78340"/>
<stop offset="0.91" stop-color="#A97537"/>
<stop offset="1" stop-color="#A57134"/>
</linearGradient>
<linearGradient id="paint53_linear_27_1200" x1="76.0651" y1="41.3421" x2="76.0651" y2="32.1375" gradientUnits="userSpaceOnUse">
<stop stop-color="#A1732F"/>
<stop offset="0.1" stop-color="#A97A34"/>
<stop offset="0.25" stop-color="#BF9044"/>
<stop offset="0.44" stop-color="#E4B35D"/>
<stop offset="0.55" stop-color="#FDCB6E"/>
<stop offset="0.6" stop-color="#EDBB63"/>
<stop offset="0.71" stop-color="#CD9A4E"/>
<stop offset="0.81" stop-color="#B78340"/>
<stop offset="0.91" stop-color="#A97537"/>
<stop offset="1" stop-color="#A57134"/>
</linearGradient>
<linearGradient id="paint54_linear_27_1200" x1="54.0619" y1="49.6504" x2="54.0619" y2="37.0427" gradientUnits="userSpaceOnUse">
<stop stop-color="#A1732F"/>
<stop offset="0.1" stop-color="#A97A34"/>
<stop offset="0.25" stop-color="#BF9044"/>
<stop offset="0.44" stop-color="#E4B35D"/>
<stop offset="0.55" stop-color="#FDCB6E"/>
<stop offset="0.6" stop-color="#EDBB63"/>
<stop offset="0.71" stop-color="#CD9A4E"/>
<stop offset="0.81" stop-color="#B78340"/>
<stop offset="0.91" stop-color="#A97537"/>
<stop offset="1" stop-color="#A57134"/>
</linearGradient>
<linearGradient id="paint55_linear_27_1200" x1="52.7422" y1="49.8994" x2="52.7422" y2="37.2585" gradientUnits="userSpaceOnUse">
<stop stop-color="#A1732F"/>
<stop offset="0.1" stop-color="#A97A34"/>
<stop offset="0.25" stop-color="#BF9044"/>
<stop offset="0.44" stop-color="#E4B35D"/>
<stop offset="0.55" stop-color="#FDCB6E"/>
<stop offset="0.6" stop-color="#EDBB63"/>
<stop offset="0.71" stop-color="#CD9A4E"/>
<stop offset="0.81" stop-color="#B78340"/>
<stop offset="0.91" stop-color="#A97537"/>
<stop offset="1" stop-color="#A57134"/>
</linearGradient>
<linearGradient id="paint56_linear_27_1200" x1="51.2233" y1="50.1899" x2="51.2233" y2="37.4661" gradientUnits="userSpaceOnUse">
<stop stop-color="#A1732F"/>
<stop offset="0.1" stop-color="#A97A34"/>
<stop offset="0.25" stop-color="#BF9044"/>
<stop offset="0.44" stop-color="#E4B35D"/>
<stop offset="0.55" stop-color="#FDCB6E"/>
<stop offset="0.6" stop-color="#EDBB63"/>
<stop offset="0.71" stop-color="#CD9A4E"/>
<stop offset="0.81" stop-color="#B78340"/>
<stop offset="0.91" stop-color="#A97537"/>
<stop offset="1" stop-color="#A57134"/>
</linearGradient>
<linearGradient id="paint57_linear_27_1200" x1="49.6464" y1="50.3892" x2="49.6464" y2="37.657" gradientUnits="userSpaceOnUse">
<stop stop-color="#A1732F"/>
<stop offset="0.1" stop-color="#A97A34"/>
<stop offset="0.25" stop-color="#BF9044"/>
<stop offset="0.44" stop-color="#E4B35D"/>
<stop offset="0.55" stop-color="#FDCB6E"/>
<stop offset="0.6" stop-color="#EDBB63"/>
<stop offset="0.71" stop-color="#CD9A4E"/>
<stop offset="0.81" stop-color="#B78340"/>
<stop offset="0.91" stop-color="#A97537"/>
<stop offset="1" stop-color="#A57134"/>
</linearGradient>
<linearGradient id="paint58_linear_27_1200" x1="47.7954" y1="50.4058" x2="47.7954" y2="37.989" gradientUnits="userSpaceOnUse">
<stop stop-color="#A1732F"/>
<stop offset="0.1" stop-color="#A97A34"/>
<stop offset="0.25" stop-color="#BF9044"/>
<stop offset="0.44" stop-color="#E4B35D"/>
<stop offset="0.55" stop-color="#FDCB6E"/>
<stop offset="0.6" stop-color="#EDBB63"/>
<stop offset="0.71" stop-color="#CD9A4E"/>
<stop offset="0.81" stop-color="#B78340"/>
<stop offset="0.91" stop-color="#A97537"/>
<stop offset="1" stop-color="#A57134"/>
</linearGradient>
<linearGradient id="paint59_linear_27_1200" x1="46.2682" y1="50.3475" x2="46.2682" y2="38.354" gradientUnits="userSpaceOnUse">
<stop stop-color="#A1732F"/>
<stop offset="0.1" stop-color="#A97A34"/>
<stop offset="0.25" stop-color="#BF9044"/>
<stop offset="0.44" stop-color="#E4B35D"/>
<stop offset="0.55" stop-color="#FDCB6E"/>
<stop offset="0.6" stop-color="#EDBB63"/>
<stop offset="0.71" stop-color="#CD9A4E"/>
<stop offset="0.81" stop-color="#B78340"/>
<stop offset="0.91" stop-color="#A97537"/>
<stop offset="1" stop-color="#A57134"/>
</linearGradient>
<linearGradient id="paint60_linear_27_1200" x1="44.7078" y1="50.1815" x2="44.7078" y2="38.7358" gradientUnits="userSpaceOnUse">
<stop stop-color="#A1732F"/>
<stop offset="0.1" stop-color="#A97A34"/>
<stop offset="0.25" stop-color="#BF9044"/>
<stop offset="0.44" stop-color="#E4B35D"/>
<stop offset="0.55" stop-color="#FDCB6E"/>
<stop offset="0.6" stop-color="#EDBB63"/>
<stop offset="0.71" stop-color="#CD9A4E"/>
<stop offset="0.81" stop-color="#B78340"/>
<stop offset="0.91" stop-color="#A97537"/>
<stop offset="1" stop-color="#A57134"/>
</linearGradient>
<linearGradient id="paint61_linear_27_1200" x1="43.0395" y1="49.833" x2="43.0395" y2="39.1177" gradientUnits="userSpaceOnUse">
<stop stop-color="#A1732F"/>
<stop offset="0.1" stop-color="#A97A34"/>
<stop offset="0.25" stop-color="#BF9044"/>
<stop offset="0.44" stop-color="#E4B35D"/>
<stop offset="0.55" stop-color="#FDCB6E"/>
<stop offset="0.6" stop-color="#EDBB63"/>
<stop offset="0.71" stop-color="#CD9A4E"/>
<stop offset="0.81" stop-color="#B78340"/>
<stop offset="0.91" stop-color="#A97537"/>
<stop offset="1" stop-color="#A57134"/>
</linearGradient>
<linearGradient id="paint62_linear_27_1200" x1="60.4777" y1="19.0569" x2="60.4777" y2="17.4218" gradientUnits="userSpaceOnUse">
<stop stop-color="#A1732F"/>
<stop offset="0.1" stop-color="#A97A34"/>
<stop offset="0.25" stop-color="#BF9044"/>
<stop offset="0.44" stop-color="#E4B35D"/>
<stop offset="0.55" stop-color="#FDCB6E"/>
<stop offset="0.6" stop-color="#EDBB63"/>
<stop offset="0.71" stop-color="#CD9A4E"/>
<stop offset="0.81" stop-color="#B78340"/>
<stop offset="0.91" stop-color="#A97537"/>
<stop offset="1" stop-color="#A57134"/>
</linearGradient>
<linearGradient id="paint63_linear_27_1200" x1="59.3656" y1="21.6548" x2="59.3656" y2="20.0197" gradientUnits="userSpaceOnUse">
<stop stop-color="#A1732F"/>
<stop offset="0.1" stop-color="#A97A34"/>
<stop offset="0.25" stop-color="#BF9044"/>
<stop offset="0.44" stop-color="#E4B35D"/>
<stop offset="0.55" stop-color="#FDCB6E"/>
<stop offset="0.6" stop-color="#EDBB63"/>
<stop offset="0.71" stop-color="#CD9A4E"/>
<stop offset="0.81" stop-color="#B78340"/>
<stop offset="0.91" stop-color="#A97537"/>
<stop offset="1" stop-color="#A57134"/>
</linearGradient>
<linearGradient id="paint64_linear_27_1200" x1="58.2451" y1="24.4768" x2="58.2451" y2="22.8417" gradientUnits="userSpaceOnUse">
<stop stop-color="#A1732F"/>
<stop offset="0.1" stop-color="#A97A34"/>
<stop offset="0.25" stop-color="#BF9044"/>
<stop offset="0.44" stop-color="#E4B35D"/>
<stop offset="0.55" stop-color="#FDCB6E"/>
<stop offset="0.6" stop-color="#EDBB63"/>
<stop offset="0.71" stop-color="#CD9A4E"/>
<stop offset="0.81" stop-color="#B78340"/>
<stop offset="0.91" stop-color="#A97537"/>
<stop offset="1" stop-color="#A57134"/>
</linearGradient>
<linearGradient id="paint65_linear_27_1200" x1="57.3819" y1="27.1245" x2="57.3819" y2="25.4894" gradientUnits="userSpaceOnUse">
<stop stop-color="#A1732F"/>
<stop offset="0.1" stop-color="#A97A34"/>
<stop offset="0.25" stop-color="#BF9044"/>
<stop offset="0.44" stop-color="#E4B35D"/>
<stop offset="0.55" stop-color="#FDCB6E"/>
<stop offset="0.6" stop-color="#EDBB63"/>
<stop offset="0.71" stop-color="#CD9A4E"/>
<stop offset="0.81" stop-color="#B78340"/>
<stop offset="0.91" stop-color="#A97537"/>
<stop offset="1" stop-color="#A57134"/>
</linearGradient>
<linearGradient id="paint66_linear_27_1200" x1="56.5933" y1="29.6892" x2="56.5933" y2="28.0541" gradientUnits="userSpaceOnUse">
<stop stop-color="#A1732F"/>
<stop offset="0.1" stop-color="#A97A34"/>
<stop offset="0.25" stop-color="#BF9044"/>
<stop offset="0.44" stop-color="#E4B35D"/>
<stop offset="0.55" stop-color="#FDCB6E"/>
<stop offset="0.6" stop-color="#EDBB63"/>
<stop offset="0.71" stop-color="#CD9A4E"/>
<stop offset="0.81" stop-color="#B78340"/>
<stop offset="0.91" stop-color="#A97537"/>
<stop offset="1" stop-color="#A57134"/>
</linearGradient>
<linearGradient id="paint67_linear_27_1200" x1="56.0539" y1="32.4199" x2="56.0539" y2="30.7848" gradientUnits="userSpaceOnUse">
<stop stop-color="#A1732F"/>
<stop offset="0.1" stop-color="#A97A34"/>
<stop offset="0.25" stop-color="#BF9044"/>
<stop offset="0.44" stop-color="#E4B35D"/>
<stop offset="0.55" stop-color="#FDCB6E"/>
<stop offset="0.6" stop-color="#EDBB63"/>
<stop offset="0.71" stop-color="#CD9A4E"/>
<stop offset="0.81" stop-color="#B78340"/>
<stop offset="0.91" stop-color="#A97537"/>
<stop offset="1" stop-color="#A57134"/>
</linearGradient>
<linearGradient id="paint68_linear_27_1200" x1="89.3617" y1="26.203" x2="89.3617" y2="25.0493" gradientUnits="userSpaceOnUse">
<stop stop-color="#A1732F"/>
<stop offset="0.1" stop-color="#A97A34"/>
<stop offset="0.25" stop-color="#BF9044"/>
<stop offset="0.44" stop-color="#E4B35D"/>
<stop offset="0.55" stop-color="#FDCB6E"/>
<stop offset="0.6" stop-color="#EDBB63"/>
<stop offset="0.71" stop-color="#CD9A4E"/>
<stop offset="0.81" stop-color="#B78340"/>
<stop offset="0.91" stop-color="#A97537"/>
<stop offset="1" stop-color="#A57134"/>
</linearGradient>
<linearGradient id="paint69_linear_27_1200" x1="91.1214" y1="27.0165" x2="91.1214" y2="25.8628" gradientUnits="userSpaceOnUse">
<stop stop-color="#A1732F"/>
<stop offset="0.1" stop-color="#A97A34"/>
<stop offset="0.25" stop-color="#BF9044"/>
<stop offset="0.44" stop-color="#E4B35D"/>
<stop offset="0.55" stop-color="#FDCB6E"/>
<stop offset="0.6" stop-color="#EDBB63"/>
<stop offset="0.71" stop-color="#CD9A4E"/>
<stop offset="0.81" stop-color="#B78340"/>
<stop offset="0.91" stop-color="#A97537"/>
<stop offset="1" stop-color="#A57134"/>
</linearGradient>
<linearGradient id="paint70_linear_27_1200" x1="92.856" y1="27.589" x2="92.856" y2="26.427" gradientUnits="userSpaceOnUse">
<stop stop-color="#A1732F"/>
<stop offset="0.1" stop-color="#A97A34"/>
<stop offset="0.25" stop-color="#BF9044"/>
<stop offset="0.44" stop-color="#E4B35D"/>
<stop offset="0.55" stop-color="#FDCB6E"/>
<stop offset="0.6" stop-color="#EDBB63"/>
<stop offset="0.71" stop-color="#CD9A4E"/>
<stop offset="0.81" stop-color="#B78340"/>
<stop offset="0.91" stop-color="#A97537"/>
<stop offset="1" stop-color="#A57134"/>
</linearGradient>
<linearGradient id="paint71_linear_27_1200" x1="94.6073" y1="28.1452" x2="94.6073" y2="26.9832" gradientUnits="userSpaceOnUse">
<stop stop-color="#A1732F"/>
<stop offset="0.1" stop-color="#A97A34"/>
<stop offset="0.25" stop-color="#BF9044"/>
<stop offset="0.44" stop-color="#E4B35D"/>
<stop offset="0.55" stop-color="#FDCB6E"/>
<stop offset="0.6" stop-color="#EDBB63"/>
<stop offset="0.71" stop-color="#CD9A4E"/>
<stop offset="0.81" stop-color="#B78340"/>
<stop offset="0.91" stop-color="#A97537"/>
<stop offset="1" stop-color="#A57134"/>
</linearGradient>
<linearGradient id="paint72_linear_27_1200" x1="96.4997" y1="28.6681" x2="96.4997" y2="27.5144" gradientUnits="userSpaceOnUse">
<stop stop-color="#A1732F"/>
<stop offset="0.1" stop-color="#A97A34"/>
<stop offset="0.25" stop-color="#BF9044"/>
<stop offset="0.44" stop-color="#E4B35D"/>
<stop offset="0.55" stop-color="#FDCB6E"/>
<stop offset="0.6" stop-color="#EDBB63"/>
<stop offset="0.71" stop-color="#CD9A4E"/>
<stop offset="0.81" stop-color="#B78340"/>
<stop offset="0.91" stop-color="#A97537"/>
<stop offset="1" stop-color="#A57134"/>
</linearGradient>
<linearGradient id="paint73_linear_27_1200" x1="50.8913" y1="38.7692" x2="50.8913" y2="37.6072" gradientUnits="userSpaceOnUse">
<stop stop-color="#A1732F"/>
<stop offset="0.1" stop-color="#A97A34"/>
<stop offset="0.25" stop-color="#BF9044"/>
<stop offset="0.44" stop-color="#E4B35D"/>
<stop offset="0.55" stop-color="#FDCB6E"/>
<stop offset="0.6" stop-color="#EDBB63"/>
<stop offset="0.71" stop-color="#CD9A4E"/>
<stop offset="0.81" stop-color="#B78340"/>
<stop offset="0.91" stop-color="#A97537"/>
<stop offset="1" stop-color="#A57134"/>
</linearGradient>
<linearGradient id="paint74_linear_27_1200" x1="52.3521" y1="40.4955" x2="52.3521" y2="39.3418" gradientUnits="userSpaceOnUse">
<stop stop-color="#A1732F"/>
<stop offset="0.1" stop-color="#A97A34"/>
<stop offset="0.25" stop-color="#BF9044"/>
<stop offset="0.44" stop-color="#E4B35D"/>
<stop offset="0.55" stop-color="#FDCB6E"/>
<stop offset="0.6" stop-color="#EDBB63"/>
<stop offset="0.71" stop-color="#CD9A4E"/>
<stop offset="0.81" stop-color="#B78340"/>
<stop offset="0.91" stop-color="#A97537"/>
<stop offset="1" stop-color="#A57134"/>
</linearGradient>
<linearGradient id="paint75_linear_27_1200" x1="53.9042" y1="42.1557" x2="53.9042" y2="41.002" gradientUnits="userSpaceOnUse">
<stop stop-color="#A1732F"/>
<stop offset="0.1" stop-color="#A97A34"/>
<stop offset="0.25" stop-color="#BF9044"/>
<stop offset="0.44" stop-color="#E4B35D"/>
<stop offset="0.55" stop-color="#FDCB6E"/>
<stop offset="0.6" stop-color="#EDBB63"/>
<stop offset="0.71" stop-color="#CD9A4E"/>
<stop offset="0.81" stop-color="#B78340"/>
<stop offset="0.91" stop-color="#A97537"/>
<stop offset="1" stop-color="#A57134"/>
</linearGradient>
<linearGradient id="paint76_linear_27_1200" x1="55.3318" y1="43.7243" x2="55.3318" y2="42.5706" gradientUnits="userSpaceOnUse">
<stop stop-color="#A1732F"/>
<stop offset="0.1" stop-color="#A97A34"/>
<stop offset="0.25" stop-color="#BF9044"/>
<stop offset="0.44" stop-color="#E4B35D"/>
<stop offset="0.55" stop-color="#FDCB6E"/>
<stop offset="0.6" stop-color="#EDBB63"/>
<stop offset="0.71" stop-color="#CD9A4E"/>
<stop offset="0.81" stop-color="#B78340"/>
<stop offset="0.91" stop-color="#A97537"/>
<stop offset="1" stop-color="#A57134"/>
</linearGradient>
<linearGradient id="paint77_linear_27_1200" x1="56.8423" y1="45.1601" x2="56.8423" y2="44.0064" gradientUnits="userSpaceOnUse">
<stop stop-color="#A1732F"/>
<stop offset="0.1" stop-color="#A97A34"/>
<stop offset="0.25" stop-color="#BF9044"/>
<stop offset="0.44" stop-color="#E4B35D"/>
<stop offset="0.55" stop-color="#FDCB6E"/>
<stop offset="0.6" stop-color="#EDBB63"/>
<stop offset="0.71" stop-color="#CD9A4E"/>
<stop offset="0.81" stop-color="#B78340"/>
<stop offset="0.91" stop-color="#A97537"/>
<stop offset="1" stop-color="#A57134"/>
</linearGradient>
<linearGradient id="paint78_linear_27_1200" x1="58.436" y1="46.5629" x2="58.436" y2="45.4092" gradientUnits="userSpaceOnUse">
<stop stop-color="#A1732F"/>
<stop offset="0.1" stop-color="#A97A34"/>
<stop offset="0.25" stop-color="#BF9044"/>
<stop offset="0.44" stop-color="#E4B35D"/>
<stop offset="0.55" stop-color="#FDCB6E"/>
<stop offset="0.6" stop-color="#EDBB63"/>
<stop offset="0.71" stop-color="#CD9A4E"/>
<stop offset="0.81" stop-color="#B78340"/>
<stop offset="0.91" stop-color="#A97537"/>
<stop offset="1" stop-color="#A57134"/>
</linearGradient>
<linearGradient id="paint79_linear_27_1200" x1="60.1375" y1="48.1564" x2="60.1375" y2="47.0027" gradientUnits="userSpaceOnUse">
<stop stop-color="#A1732F"/>
<stop offset="0.1" stop-color="#A97A34"/>
<stop offset="0.25" stop-color="#BF9044"/>
<stop offset="0.44" stop-color="#E4B35D"/>
<stop offset="0.55" stop-color="#FDCB6E"/>
<stop offset="0.6" stop-color="#EDBB63"/>
<stop offset="0.71" stop-color="#CD9A4E"/>
<stop offset="0.81" stop-color="#B78340"/>
<stop offset="0.91" stop-color="#A97537"/>
<stop offset="1" stop-color="#A57134"/>
</linearGradient>
<clipPath id="clip0_27_1200">
<rect width="110.614" height="56" fill="white" transform="translate(0.692993)"/>
</clipPath>
</defs>
</svg>
