<svg width="84" height="25" viewBox="0 0 84 25" fill="none" xmlns="http://www.w3.org/2000/svg">
<g clip-path="url(#clip0_32_1724)">
<path d="M70.0778 12.6643C72.4032 11.957 74.6317 11.0075 76.7439 9.8157C78.9336 8.58518 80.9684 7.12212 83.0225 5.68813C83.0612 5.65906 83.0225 5.60093 82.9837 5.62999C79.2728 7.70347 75.7362 10.1354 71.7055 11.5404C67.4132 13.0325 62.8787 13.8173 58.3442 14.0402C53.8 14.263 49.3236 13.8561 44.8666 13.0131C40.4678 12.1799 36.1173 11.0462 31.67 10.4455C26.5929 9.74788 21.4964 9.11808 16.3709 8.94368C13.7742 8.85648 11.1775 8.91461 8.60017 9.14715C6.00348 9.38938 3.52306 10.0773 0.955438 10.4843C0.810101 10.5036 0.810101 10.7168 0.955438 10.7168C3.15487 10.6005 5.31555 10.1064 7.5053 9.87384C9.81131 9.63161 12.1173 9.52503 14.433 9.5444C19.142 9.57347 23.8315 10.1064 28.492 10.7168C32.9684 11.2981 37.3575 12.1605 41.7758 13.1003C46.1165 14.0208 50.4379 14.7281 54.8755 14.7765C60.0011 14.8347 65.146 14.1855 70.0584 12.6934L70.0778 12.6643Z" fill="url(#paint0_linear_32_1724)"/>
<path d="M70.2133 13.2457C72.529 12.4899 74.7285 11.5016 76.831 10.2614C78.9917 8.99212 80.9198 7.16088 82.9448 5.68813C82.9836 5.65906 82.9449 5.60093 82.9061 5.62999C79.2436 7.78098 76.3078 10.5521 72.3062 12.0345C68.043 13.6138 63.0046 14.67 58.4701 14.98C53.9356 15.2998 49.4979 14.8444 45.0216 14.0983C40.6033 13.3522 37.6094 12.6837 32.8423 11.802C27.804 10.8718 21.506 10.3486 16.3805 10.2808C13.7838 10.242 11.1871 10.3583 8.60977 10.6393C6.01309 10.93 3.55204 11.676 0.994111 12.1314C0.858463 12.1605 0.858463 12.3736 1.0038 12.3639C3.20323 12.2089 5.34453 11.6663 7.53428 11.395C9.83061 11.1044 12.1366 10.9493 14.462 10.9203C19.1709 10.8524 23.8702 11.2981 28.55 11.8117C33.0361 12.3058 37.435 13.3425 41.8726 14.1855C46.223 15.0188 50.6509 15.6873 55.0983 15.6486C60.2238 15.6098 65.3591 14.8444 70.2327 13.2553L70.2133 13.2457Z" fill="url(#paint1_linear_32_1724)"/>
<path d="M1.81778 12.2863C2.79639 11.9762 3.95908 12.015 4.87955 11.5887C4.93769 11.5596 4.90862 11.4724 4.86017 11.453C4.2982 11.2689 3.64903 11.5112 3.07737 11.5887C2.41851 11.6759 1.78872 11.8697 1.13954 11.9665C0.83918 12.0053 0.965139 11.5984 0.965139 11.3561C0.965139 10.862 1.24612 10.7845 1.64338 10.6876C2.17628 10.5519 2.76732 10.6391 3.19364 10.2613C3.21302 10.2419 3.19364 10.2031 3.17426 10.1934C2.82545 10.0965 2.4282 10.1644 2.0697 10.1837C1.76934 10.1934 1.15892 10.2225 0.897315 10.3969C0.383791 10.7263 0.480682 11.608 0.587263 12.1216C0.703532 12.6835 1.45929 12.4026 1.82747 12.2863H1.81778Z" fill="url(#paint2_linear_32_1724)"/>
<path d="M75.1937 8.35224C76.5695 8.16815 77.9454 7.86778 79.2631 7.44146C79.8639 7.24768 80.4452 7.00545 81.0169 6.73416C81.7048 6.40472 82.4896 6.10436 83.0807 5.62959C83.1485 5.57146 83.1097 5.46488 83.0128 5.48426C82.4315 5.61021 81.8792 5.92996 81.3366 6.1625C80.6971 6.44348 80.048 6.71478 79.3794 6.92794C78.0132 7.37364 76.5986 7.63525 75.1743 7.80965C73.8372 7.97437 72.4904 8.01312 71.1533 7.96468C70.3685 7.93561 69.5934 7.86778 68.8182 7.77089C68.1788 7.69338 67.5393 7.54804 66.8998 7.5868C66.706 7.59649 66.6091 7.88716 66.8029 7.97437C67.9559 8.45882 69.3996 8.43944 70.6301 8.50727C72.1513 8.58478 73.6822 8.54602 75.1937 8.34255V8.35224Z" fill="url(#paint3_linear_32_1724)"/>
<path d="M65.7466 7.42207C65.8145 7.38331 65.8145 7.26704 65.7466 7.23797C65.1265 6.97637 64.3999 6.93761 63.7604 6.72445C62.9659 6.46284 62.2392 6.04621 61.435 5.80398C61.2412 5.74585 61.0668 6.03652 61.2412 6.16248C61.8807 6.65663 62.6558 6.9473 63.4116 7.20891C64.0801 7.44145 65.0781 7.78057 65.7563 7.41238L65.7466 7.42207Z" fill="url(#paint4_linear_32_1724)"/>
<path d="M60.1365 5.38747C58.6929 4.9127 57.2589 4.38948 55.7764 4.03099C54.1486 3.63373 52.5306 3.24616 50.9125 2.82953C49.2944 2.4129 47.686 1.97689 46.0582 1.6087C44.5661 1.27927 42.793 0.81419 41.2621 0.998284C41.0199 1.02735 40.9908 1.3374 41.2136 1.41492C41.9597 1.66683 42.7833 1.71528 43.5584 1.83155C44.3432 1.94782 45.1184 2.09316 45.8935 2.25787C47.531 2.60668 49.1394 3.06207 50.7574 3.46902C52.3755 3.88565 54.0033 4.26352 55.6311 4.63171C57.0941 4.96114 58.5863 5.65876 60.1075 5.58125C60.2237 5.58125 60.2334 5.41653 60.1268 5.37778L60.1365 5.38747Z" fill="url(#paint5_linear_32_1724)"/>
<path d="M21.5739 9.62162C23.4536 7.1412 26.1181 5.33902 28.8989 4.0213C30.4298 3.29461 32.0285 2.71327 33.6659 2.24819C35.3325 1.78311 37.0281 1.56995 38.714 1.20176C38.8206 1.18238 38.8109 1.00798 38.714 0.988599C37.0475 0.756059 35.3228 1.10487 33.7144 1.5215C32.0091 1.95751 30.3426 2.57762 28.7439 3.32368C25.8177 4.68985 22.9401 6.56954 21.0701 9.25344C20.8666 9.54411 21.3607 9.9123 21.5836 9.62162H21.5739Z" fill="url(#paint6_linear_32_1724)"/>
<path d="M74.4088 15.5613C75.2905 14.9702 75.9881 14.166 76.7051 13.3812C77.4609 12.5479 78.1876 11.6953 78.924 10.8427C79.67 9.96094 80.4258 9.08892 81.1718 8.2072C81.8695 7.37394 82.7221 6.62787 83.1387 5.61052C83.1872 5.48456 83.0321 5.39735 82.9546 5.50393C82.3442 6.36627 81.5303 7.09295 80.8133 7.86808C80.0382 8.72073 79.2728 9.59275 78.5073 10.4551C77.8194 11.2302 77.1315 12.0053 76.4242 12.7611C75.6587 13.5847 74.8158 14.3307 74.1181 15.2028C73.9631 15.3965 74.1763 15.6969 74.3991 15.5516L74.4088 15.5613Z" fill="url(#paint7_linear_32_1724)"/>
<path d="M53.3638 24.5914C54.4684 24.3976 55.5827 24.3104 56.6872 24.1263C58.9254 23.7484 61.1345 23.1864 63.2855 22.4791C66.5798 21.3939 70.4555 19.863 72.5677 16.966C72.6162 16.8982 72.5096 16.84 72.4514 16.8885C69.6416 19.2333 66.2795 20.7835 62.8107 21.8784C60.8245 22.5082 58.7898 23.0023 56.7357 23.3705C55.7377 23.5449 54.7397 23.6612 53.7417 23.8162C52.7631 23.9712 51.7845 24.2135 50.7962 24.3394C50.5831 24.3685 50.5152 24.6979 50.7575 24.7367C51.6489 24.882 52.4724 24.7367 53.3638 24.5914Z" fill="url(#paint8_linear_32_1724)"/>
<path d="M47.9962 24.7562C48.1222 24.7369 48.1706 24.5237 48.0253 24.514C45.2154 24.2137 42.4443 24.0199 39.7023 23.3223C36.8343 22.5859 34.0826 21.4426 31.4762 20.0376C28.8505 18.623 26.4476 16.879 24.1416 14.9993C22.9498 14.0304 21.729 13.1002 20.5953 12.0538C19.7136 11.2302 18.8125 10.4648 17.5529 10.4551C17.2429 10.4551 17.2138 10.9105 17.4948 10.9783C18.8222 11.3271 19.7136 12.2573 20.7019 13.1487C21.8937 14.2145 23.1726 15.164 24.4128 16.1717C26.622 17.9835 29.0249 19.5629 31.5441 20.9C34.0729 22.2371 36.7568 23.2835 39.5376 24.0102C42.2409 24.7175 45.2154 25.2116 48.0059 24.7659L47.9962 24.7562Z" fill="url(#paint9_linear_32_1724)"/>
<path d="M32.6583 10.7555C33.2299 9.06957 33.9082 7.46117 34.848 5.89153C35.4584 4.87417 36.1464 3.90526 36.9699 3.05261C37.3769 2.62629 37.7935 2.20966 38.2489 1.84147C38.5202 1.62831 38.714 1.41515 38.8206 1.08572C38.8593 0.969447 38.714 0.882244 38.6171 0.940379C36.7083 2.03525 35.3228 3.97308 34.1698 5.79464C33.2396 7.26739 32.4548 8.93392 32.0479 10.6586C32.2513 10.6586 32.4645 10.6973 32.6583 10.7458V10.7555Z" fill="url(#paint10_linear_32_1724)"/>
<path d="M32.9393 10.8328C33.3075 10.1642 33.6175 9.44721 34.0148 8.80773C34.6543 7.77099 35.4197 6.83114 36.2239 5.92036C37.0184 5.02896 37.8905 4.20539 38.7819 3.40119C39.2179 3.00393 39.6636 2.60668 40.0996 2.21911C40.4871 1.8703 41.0588 1.62808 41.3689 1.21144C41.4367 1.11455 41.3689 0.959525 41.2332 0.998281C40.2643 1.27927 39.5376 2.04471 38.7915 2.69388C37.8129 3.54653 36.8634 4.39917 35.972 5.3487C35.1581 6.21104 34.4217 7.13151 33.7532 8.10042C33.2397 8.84648 32.6099 9.75726 32.2708 10.6777C32.5033 10.7068 32.7358 10.7649 32.9393 10.8328Z" fill="url(#paint11_linear_32_1724)"/>
<path d="M52.5403 14.3986C52.7631 13.9044 52.986 13.4103 53.2573 12.9452C53.8289 11.986 54.5459 11.1236 55.3211 10.3291C56.1156 9.52491 56.9682 8.77885 57.8015 8.03279C58.6347 7.29641 59.6521 6.53097 60.1947 5.53299C60.2528 5.42641 60.1269 5.30045 60.0203 5.36827C59.0611 5.97869 58.2181 6.87009 57.3461 7.59678C56.4159 8.37191 55.5148 9.19548 54.6622 10.0578C53.8968 10.8329 53.2379 11.6953 52.6662 12.6157C52.3465 13.139 51.9977 13.7203 51.7361 14.3307C51.9977 14.3404 52.2593 14.3695 52.5306 14.3889L52.5403 14.3986Z" fill="url(#paint12_linear_32_1724)"/>
<path d="M52.9861 14.4373C53.3543 13.9238 53.7322 13.42 54.1585 12.9549C54.9918 12.0441 55.8832 11.1915 56.8037 10.3582C57.7048 9.554 58.6543 8.78856 59.5554 7.97467C60.1658 7.42239 61.1347 6.74415 61.3673 5.92057C61.406 5.76554 61.2219 5.68803 61.1153 5.78492C60.3499 6.49223 59.6232 7.21891 58.8093 7.88747C57.9179 8.61415 57.0265 9.35052 56.1545 10.1063C54.7108 11.3562 53.335 12.732 52.3757 14.3889C52.5792 14.4083 52.773 14.4276 52.9765 14.4373H52.9861Z" fill="url(#paint13_linear_32_1724)"/>
<path d="M58.0923 14.573C58.1698 14.5536 58.2473 14.5342 58.3249 14.5051C58.5865 14.0982 58.8287 13.6816 59.1 13.294C59.7104 12.422 60.408 11.6178 61.1444 10.8523C61.8226 10.145 62.5687 9.50554 63.3729 8.92419C64.1093 8.39129 65.0394 8.05217 65.6789 7.403C65.737 7.34486 65.6789 7.23828 65.6014 7.23828C64.7391 7.26735 63.9446 7.8487 63.2566 8.30409C62.3943 8.87575 61.6095 9.55399 60.8731 10.2613C60.0883 11.017 59.3907 11.86 58.7512 12.7417C58.3345 13.3037 57.8695 13.9141 57.54 14.5536C57.7338 14.5342 57.9276 14.5245 58.1117 14.5536L58.0923 14.573Z" fill="url(#paint14_linear_32_1724)"/>
<path d="M58.0923 14.5731C58.257 14.5343 58.4217 14.4762 58.567 14.418C58.8674 14.0402 59.1581 13.6526 59.4681 13.3135C60.1464 12.5771 60.9021 11.9279 61.6869 11.3175C63.3729 10.0095 65.3398 9.09871 67.0547 7.8585C67.1322 7.80036 67.1322 7.64534 67.016 7.62596C66.1246 7.5 65.1072 8.38171 64.3902 8.81772C63.3535 9.43783 62.3264 10.0676 61.3575 10.7943C60.5146 11.4241 59.7394 12.1314 59.0127 12.8872C58.538 13.391 58.0051 13.953 57.6272 14.5731C57.7822 14.5634 57.9372 14.5634 58.0923 14.5925V14.5731Z" fill="url(#paint15_linear_32_1724)"/>
<path d="M74.4185 15.251C73.7112 14.5921 72.597 14.4565 71.6862 14.2336C70.8335 14.0204 70.0681 13.6523 69.2736 13.3325C69.0701 13.4488 68.8666 13.5457 68.6438 13.6232C69.3317 14.1658 70.2134 14.4758 71.0467 14.7084C71.6184 14.8731 72.1997 14.9894 72.7714 15.1347C73.2946 15.2703 73.7887 15.4448 74.3313 15.4835C74.4476 15.4835 74.496 15.3285 74.4185 15.2607V15.251Z" fill="url(#paint16_linear_32_1724)"/>
<path d="M72.6549 16.7336C72.2964 16.4526 71.8798 16.3073 71.4729 16.0941C71.0272 15.8616 70.6009 15.5612 70.2036 15.2511C69.6126 14.7958 69.3219 14.1175 68.9828 13.478C68.7696 13.5749 68.5467 13.6524 68.3142 13.7203C68.9634 15.3965 70.814 16.7239 72.5193 16.9758C72.6453 16.9952 72.7809 16.8305 72.6549 16.7239V16.7336Z" fill="url(#paint17_linear_32_1724)"/>
<path d="M68.3529 20.0666C69.3703 19.7469 70.2714 19.088 71.1144 18.4679C71.7441 18.0029 72.684 17.5378 73.0909 16.8499C73.1878 16.6948 73.0522 16.5301 72.8875 16.5204C72.3546 16.4817 71.8604 16.2104 71.3372 16.3363C71.2791 16.3557 71.2694 16.4429 71.3275 16.472C71.6763 16.6367 72.0639 16.7917 72.4611 16.8886C72.248 17.0533 71.9767 17.189 71.7732 17.3343C71.3856 17.6153 71.0078 17.8963 70.6202 18.1773C69.8354 18.7586 68.9634 19.2431 68.2464 19.9019C68.1689 19.9794 68.2561 20.1054 68.3529 20.0763V20.0666Z" fill="url(#paint18_linear_32_1724)"/>
<path d="M51.0677 24.3882C50.6898 24.0782 50.2345 23.8747 49.8275 23.6034C49.2462 23.2255 48.7133 22.7992 48.1804 22.3535C47.163 21.4912 46.2038 20.5707 45.3221 19.563C43.8299 17.8383 42.8126 15.8424 41.708 13.8755C41.4948 13.8755 41.272 13.8755 41.0588 13.8755C41.9309 16.0265 43.268 18.0515 44.731 19.8246C45.6321 20.9195 46.6785 21.8884 47.754 22.8089C48.6067 23.5356 49.7306 24.5723 50.8739 24.7273C51.0483 24.7564 51.2227 24.5335 51.058 24.3882H51.0677Z" fill="url(#paint19_linear_32_1724)"/>
<path d="M48.1995 24.5624C47.7829 24.2136 47.3081 23.9423 46.8915 23.5741C46.4361 23.1768 46.0388 22.7118 45.6707 22.237C44.9343 21.2971 44.3529 20.241 43.7619 19.2043C43.0934 18.0319 42.4248 16.8498 41.9597 15.5709C41.7659 15.038 41.6109 14.4469 41.4365 13.8753C41.1749 13.8753 40.9133 13.8753 40.6614 13.8462C40.8745 14.6019 41.1749 15.3383 41.4268 16.0166C41.9113 17.3246 42.6476 18.5357 43.3356 19.7469C43.9363 20.803 44.5564 21.8688 45.3315 22.8086C45.9807 23.5935 46.969 24.8531 48.0833 24.8337C48.2189 24.8337 48.2964 24.6496 48.1898 24.5527L48.1995 24.5624Z" fill="url(#paint20_linear_32_1724)"/>
</g>
<defs>
<linearGradient id="paint0_linear_32_1724" x1="0.858547" y1="10.1936" x2="83.0418" y2="10.1936" gradientUnits="userSpaceOnUse">
<stop stop-color="#A1732F"/>
<stop offset="0.1" stop-color="#A97A34"/>
<stop offset="0.25" stop-color="#BF9044"/>
<stop offset="0.44" stop-color="#E4B35D"/>
<stop offset="0.55" stop-color="#FDCB6E"/>
<stop offset="0.6" stop-color="#EDBB63"/>
<stop offset="0.71" stop-color="#CD9A4E"/>
<stop offset="0.81" stop-color="#B78340"/>
<stop offset="0.91" stop-color="#A97537"/>
<stop offset="1" stop-color="#A57134"/>
</linearGradient>
<linearGradient id="paint1_linear_32_1724" x1="0.877841" y1="10.6296" x2="82.9545" y2="10.6296" gradientUnits="userSpaceOnUse">
<stop stop-color="#A1732F"/>
<stop offset="0.1" stop-color="#A97A34"/>
<stop offset="0.25" stop-color="#BF9044"/>
<stop offset="0.44" stop-color="#E4B35D"/>
<stop offset="0.55" stop-color="#FDCB6E"/>
<stop offset="0.6" stop-color="#EDBB63"/>
<stop offset="0.71" stop-color="#CD9A4E"/>
<stop offset="0.81" stop-color="#B78340"/>
<stop offset="0.91" stop-color="#A97537"/>
<stop offset="1" stop-color="#A57134"/>
</linearGradient>
<linearGradient id="paint2_linear_32_1724" x1="0.50006" y1="11.298" x2="4.91831" y2="11.298" gradientUnits="userSpaceOnUse">
<stop stop-color="#A1732F"/>
<stop offset="0.1" stop-color="#A97A34"/>
<stop offset="0.25" stop-color="#BF9044"/>
<stop offset="0.44" stop-color="#E4B35D"/>
<stop offset="0.55" stop-color="#FDCB6E"/>
<stop offset="0.6" stop-color="#EDBB63"/>
<stop offset="0.71" stop-color="#CD9A4E"/>
<stop offset="0.81" stop-color="#B78340"/>
<stop offset="0.91" stop-color="#A97537"/>
<stop offset="1" stop-color="#A57134"/>
</linearGradient>
<linearGradient id="paint3_linear_32_1724" x1="66.6963" y1="7.01514" x2="83.1194" y2="7.01514" gradientUnits="userSpaceOnUse">
<stop stop-color="#A1732F"/>
<stop offset="0.1" stop-color="#A97A34"/>
<stop offset="0.25" stop-color="#BF9044"/>
<stop offset="0.44" stop-color="#E4B35D"/>
<stop offset="0.55" stop-color="#FDCB6E"/>
<stop offset="0.6" stop-color="#EDBB63"/>
<stop offset="0.71" stop-color="#CD9A4E"/>
<stop offset="0.81" stop-color="#B78340"/>
<stop offset="0.91" stop-color="#A97537"/>
<stop offset="1" stop-color="#A57134"/>
</linearGradient>
<linearGradient id="paint4_linear_32_1724" x1="61.1637" y1="6.69538" x2="65.7951" y2="6.69538" gradientUnits="userSpaceOnUse">
<stop stop-color="#A1732F"/>
<stop offset="0.1" stop-color="#A97A34"/>
<stop offset="0.25" stop-color="#BF9044"/>
<stop offset="0.44" stop-color="#E4B35D"/>
<stop offset="0.55" stop-color="#FDCB6E"/>
<stop offset="0.6" stop-color="#EDBB63"/>
<stop offset="0.71" stop-color="#CD9A4E"/>
<stop offset="0.81" stop-color="#B78340"/>
<stop offset="0.91" stop-color="#A97537"/>
<stop offset="1" stop-color="#A57134"/>
</linearGradient>
<linearGradient id="paint5_linear_32_1724" x1="41.0586" y1="3.27523" x2="60.2044" y2="3.27523" gradientUnits="userSpaceOnUse">
<stop stop-color="#A1732F"/>
<stop offset="0.1" stop-color="#A97A34"/>
<stop offset="0.25" stop-color="#BF9044"/>
<stop offset="0.44" stop-color="#E4B35D"/>
<stop offset="0.55" stop-color="#FDCB6E"/>
<stop offset="0.6" stop-color="#EDBB63"/>
<stop offset="0.71" stop-color="#CD9A4E"/>
<stop offset="0.81" stop-color="#B78340"/>
<stop offset="0.91" stop-color="#A97537"/>
<stop offset="1" stop-color="#A57134"/>
</linearGradient>
<linearGradient id="paint6_linear_32_1724" x1="21.0119" y1="5.31964" x2="38.7915" y2="5.31964" gradientUnits="userSpaceOnUse">
<stop stop-color="#A1732F"/>
<stop offset="0.1" stop-color="#A97A34"/>
<stop offset="0.25" stop-color="#BF9044"/>
<stop offset="0.44" stop-color="#E4B35D"/>
<stop offset="0.55" stop-color="#FDCB6E"/>
<stop offset="0.6" stop-color="#EDBB63"/>
<stop offset="0.71" stop-color="#CD9A4E"/>
<stop offset="0.81" stop-color="#B78340"/>
<stop offset="0.91" stop-color="#A97537"/>
<stop offset="1" stop-color="#A57134"/>
</linearGradient>
<linearGradient id="paint7_linear_32_1724" x1="74.0697" y1="10.5326" x2="83.1387" y2="10.5326" gradientUnits="userSpaceOnUse">
<stop stop-color="#A1732F"/>
<stop offset="0.1" stop-color="#A97A34"/>
<stop offset="0.25" stop-color="#BF9044"/>
<stop offset="0.44" stop-color="#E4B35D"/>
<stop offset="0.55" stop-color="#FDCB6E"/>
<stop offset="0.6" stop-color="#EDBB63"/>
<stop offset="0.71" stop-color="#CD9A4E"/>
<stop offset="0.81" stop-color="#B78340"/>
<stop offset="0.91" stop-color="#A97537"/>
<stop offset="1" stop-color="#A57134"/>
</linearGradient>
<linearGradient id="paint8_linear_32_1724" x1="50.6121" y1="20.8417" x2="72.5871" y2="20.8417" gradientUnits="userSpaceOnUse">
<stop stop-color="#A1732F"/>
<stop offset="0.1" stop-color="#A97A34"/>
<stop offset="0.25" stop-color="#BF9044"/>
<stop offset="0.44" stop-color="#E4B35D"/>
<stop offset="0.55" stop-color="#FDCB6E"/>
<stop offset="0.6" stop-color="#EDBB63"/>
<stop offset="0.71" stop-color="#CD9A4E"/>
<stop offset="0.81" stop-color="#B78340"/>
<stop offset="0.91" stop-color="#A97537"/>
<stop offset="1" stop-color="#A57134"/>
</linearGradient>
<linearGradient id="paint9_linear_32_1724" x1="17.2913" y1="17.6832" x2="48.1125" y2="17.6832" gradientUnits="userSpaceOnUse">
<stop stop-color="#A1732F"/>
<stop offset="0.1" stop-color="#A97A34"/>
<stop offset="0.25" stop-color="#BF9044"/>
<stop offset="0.44" stop-color="#E4B35D"/>
<stop offset="0.55" stop-color="#FDCB6E"/>
<stop offset="0.6" stop-color="#EDBB63"/>
<stop offset="0.71" stop-color="#CD9A4E"/>
<stop offset="0.81" stop-color="#B78340"/>
<stop offset="0.91" stop-color="#A97537"/>
<stop offset="1" stop-color="#A57134"/>
</linearGradient>
<linearGradient id="paint10_linear_32_1724" x1="32.0479" y1="5.84308" x2="38.8206" y2="5.84308" gradientUnits="userSpaceOnUse">
<stop stop-color="#A1732F"/>
<stop offset="0.1" stop-color="#A97A34"/>
<stop offset="0.25" stop-color="#BF9044"/>
<stop offset="0.44" stop-color="#E4B35D"/>
<stop offset="0.55" stop-color="#FDCB6E"/>
<stop offset="0.6" stop-color="#EDBB63"/>
<stop offset="0.71" stop-color="#CD9A4E"/>
<stop offset="0.81" stop-color="#B78340"/>
<stop offset="0.91" stop-color="#A97537"/>
<stop offset="1" stop-color="#A57134"/>
</linearGradient>
<linearGradient id="paint11_linear_32_1724" x1="32.2708" y1="5.92036" x2="41.3979" y2="5.92036" gradientUnits="userSpaceOnUse">
<stop stop-color="#A1732F"/>
<stop offset="0.1" stop-color="#A97A34"/>
<stop offset="0.25" stop-color="#BF9044"/>
<stop offset="0.44" stop-color="#E4B35D"/>
<stop offset="0.55" stop-color="#FDCB6E"/>
<stop offset="0.6" stop-color="#EDBB63"/>
<stop offset="0.71" stop-color="#CD9A4E"/>
<stop offset="0.81" stop-color="#B78340"/>
<stop offset="0.91" stop-color="#A97537"/>
<stop offset="1" stop-color="#A57134"/>
</linearGradient>
<linearGradient id="paint12_linear_32_1724" x1="51.7555" y1="9.88341" x2="60.2238" y2="9.88341" gradientUnits="userSpaceOnUse">
<stop stop-color="#A1732F"/>
<stop offset="0.1" stop-color="#A97A34"/>
<stop offset="0.25" stop-color="#BF9044"/>
<stop offset="0.44" stop-color="#E4B35D"/>
<stop offset="0.55" stop-color="#FDCB6E"/>
<stop offset="0.6" stop-color="#EDBB63"/>
<stop offset="0.71" stop-color="#CD9A4E"/>
<stop offset="0.81" stop-color="#B78340"/>
<stop offset="0.91" stop-color="#A97537"/>
<stop offset="1" stop-color="#A57134"/>
</linearGradient>
<linearGradient id="paint13_linear_32_1724" x1="52.3854" y1="10.0869" x2="61.3769" y2="10.0869" gradientUnits="userSpaceOnUse">
<stop stop-color="#A1732F"/>
<stop offset="0.1" stop-color="#A97A34"/>
<stop offset="0.25" stop-color="#BF9044"/>
<stop offset="0.44" stop-color="#E4B35D"/>
<stop offset="0.55" stop-color="#FDCB6E"/>
<stop offset="0.6" stop-color="#EDBB63"/>
<stop offset="0.71" stop-color="#CD9A4E"/>
<stop offset="0.81" stop-color="#B78340"/>
<stop offset="0.91" stop-color="#A97537"/>
<stop offset="1" stop-color="#A57134"/>
</linearGradient>
<linearGradient id="paint14_linear_32_1724" x1="57.5207" y1="10.9105" x2="65.6886" y2="10.9105" gradientUnits="userSpaceOnUse">
<stop stop-color="#A1732F"/>
<stop offset="0.1" stop-color="#A97A34"/>
<stop offset="0.25" stop-color="#BF9044"/>
<stop offset="0.44" stop-color="#E4B35D"/>
<stop offset="0.55" stop-color="#FDCB6E"/>
<stop offset="0.6" stop-color="#EDBB63"/>
<stop offset="0.71" stop-color="#CD9A4E"/>
<stop offset="0.81" stop-color="#B78340"/>
<stop offset="0.91" stop-color="#A97537"/>
<stop offset="1" stop-color="#A57134"/>
</linearGradient>
<linearGradient id="paint15_linear_32_1724" x1="57.6272" y1="11.085" x2="67.1129" y2="11.085" gradientUnits="userSpaceOnUse">
<stop stop-color="#A1732F"/>
<stop offset="0.1" stop-color="#A97A34"/>
<stop offset="0.25" stop-color="#BF9044"/>
<stop offset="0.44" stop-color="#E4B35D"/>
<stop offset="0.55" stop-color="#FDCB6E"/>
<stop offset="0.6" stop-color="#EDBB63"/>
<stop offset="0.71" stop-color="#CD9A4E"/>
<stop offset="0.81" stop-color="#B78340"/>
<stop offset="0.91" stop-color="#A97537"/>
<stop offset="1" stop-color="#A57134"/>
</linearGradient>
<linearGradient id="paint16_linear_32_1724" x1="68.6438" y1="14.3983" x2="74.4573" y2="14.3983" gradientUnits="userSpaceOnUse">
<stop stop-color="#A1732F"/>
<stop offset="0.1" stop-color="#A97A34"/>
<stop offset="0.25" stop-color="#BF9044"/>
<stop offset="0.44" stop-color="#E4B35D"/>
<stop offset="0.55" stop-color="#FDCB6E"/>
<stop offset="0.6" stop-color="#EDBB63"/>
<stop offset="0.71" stop-color="#CD9A4E"/>
<stop offset="0.81" stop-color="#B78340"/>
<stop offset="0.91" stop-color="#A97537"/>
<stop offset="1" stop-color="#A57134"/>
</linearGradient>
<linearGradient id="paint17_linear_32_1724" x1="68.3142" y1="15.2318" x2="72.7034" y2="15.2318" gradientUnits="userSpaceOnUse">
<stop stop-color="#A1732F"/>
<stop offset="0.1" stop-color="#A97A34"/>
<stop offset="0.25" stop-color="#BF9044"/>
<stop offset="0.44" stop-color="#E4B35D"/>
<stop offset="0.55" stop-color="#FDCB6E"/>
<stop offset="0.6" stop-color="#EDBB63"/>
<stop offset="0.71" stop-color="#CD9A4E"/>
<stop offset="0.81" stop-color="#B78340"/>
<stop offset="0.91" stop-color="#A97537"/>
<stop offset="1" stop-color="#A57134"/>
</linearGradient>
<linearGradient id="paint18_linear_32_1724" x1="68.2173" y1="18.187" x2="73.1297" y2="18.187" gradientUnits="userSpaceOnUse">
<stop stop-color="#A1732F"/>
<stop offset="0.1" stop-color="#A97A34"/>
<stop offset="0.25" stop-color="#BF9044"/>
<stop offset="0.44" stop-color="#E4B35D"/>
<stop offset="0.55" stop-color="#FDCB6E"/>
<stop offset="0.6" stop-color="#EDBB63"/>
<stop offset="0.71" stop-color="#CD9A4E"/>
<stop offset="0.81" stop-color="#B78340"/>
<stop offset="0.91" stop-color="#A97537"/>
<stop offset="1" stop-color="#A57134"/>
</linearGradient>
<linearGradient id="paint19_linear_32_1724" x1="41.0685" y1="19.3014" x2="51.1355" y2="19.3014" gradientUnits="userSpaceOnUse">
<stop stop-color="#A1732F"/>
<stop offset="0.1" stop-color="#A97A34"/>
<stop offset="0.25" stop-color="#BF9044"/>
<stop offset="0.44" stop-color="#E4B35D"/>
<stop offset="0.55" stop-color="#FDCB6E"/>
<stop offset="0.6" stop-color="#EDBB63"/>
<stop offset="0.71" stop-color="#CD9A4E"/>
<stop offset="0.81" stop-color="#B78340"/>
<stop offset="0.91" stop-color="#A97537"/>
<stop offset="1" stop-color="#A57134"/>
</linearGradient>
<linearGradient id="paint20_linear_32_1724" x1="40.6614" y1="19.3496" x2="48.248" y2="19.3496" gradientUnits="userSpaceOnUse">
<stop stop-color="#A1732F"/>
<stop offset="0.1" stop-color="#A97A34"/>
<stop offset="0.25" stop-color="#BF9044"/>
<stop offset="0.44" stop-color="#E4B35D"/>
<stop offset="0.55" stop-color="#FDCB6E"/>
<stop offset="0.6" stop-color="#EDBB63"/>
<stop offset="0.71" stop-color="#CD9A4E"/>
<stop offset="0.81" stop-color="#B78340"/>
<stop offset="0.91" stop-color="#A97537"/>
<stop offset="1" stop-color="#A57134"/>
</linearGradient>
<clipPath id="clip0_32_1724">
<rect width="82.6387" height="24" fill="white" transform="translate(0.5 0.920898)"/>
</clipPath>
</defs>
</svg>
