<svg width="98" height="89" viewBox="0 0 98 89" fill="none" xmlns="http://www.w3.org/2000/svg">
<g clip-path="url(#clip0_32_1777)">
<path d="M71.6499 50.1108C65.6499 50.1108 60.0899 46.2208 58.2699 40.1908L48.8599 9.13081C48.7899 8.91081 48.8199 8.68081 48.9199 8.48081C49.0299 8.28081 49.2099 8.13081 49.4299 8.06081L74.5399 0.460813C74.9999 0.320813 75.4699 0.580813 75.6099 1.03081L85.0199 32.0908C87.2599 39.4708 83.0699 47.2908 75.6999 49.5208C74.3499 49.9308 72.9899 50.1208 71.6499 50.1208V50.1108ZM50.7399 9.46081L59.8999 39.7008C61.8599 46.1708 68.7299 49.8408 75.1999 47.8808C81.6699 45.9208 85.3399 39.0508 83.3799 32.5808L74.2199 2.34081L50.7399 9.45081V9.46081Z" fill="#0E2025"/>
<path d="M85.83 83.801C85.46 83.801 85.12 83.561 85.01 83.191L74.63 48.941C74.49 48.491 74.75 48.011 75.2 47.871C75.66 47.731 76.13 47.991 76.27 48.441L86.65 82.691C86.79 83.141 86.53 83.621 86.08 83.761C86 83.781 85.91 83.801 85.83 83.801Z" fill="#0E2025"/>
<path d="M77.0398 88.4212C76.6698 88.4212 76.3298 88.1812 76.2198 87.8112C76.0798 87.3612 76.3398 86.8812 76.7898 86.7412L96.8799 80.6512C97.3398 80.5112 97.8099 80.7712 97.9499 81.2212C98.0898 81.6712 97.8299 82.1512 97.3799 82.2912L77.2898 88.3812C77.2098 88.4012 77.1198 88.4212 77.0398 88.4212Z" fill="#0E2025"/>
<path d="M26.35 50.1111C25.01 50.1111 23.65 49.9211 22.3 49.5111C14.92 47.2711 10.74 39.4611 12.98 32.0811L22.39 1.03107C22.53 0.581074 23 0.331074 23.46 0.461074L48.58 8.07107C48.8 8.14107 48.98 8.28107 49.09 8.49107C49.2 8.69107 49.22 8.92107 49.15 9.14107L39.74 40.2011C37.91 46.2311 32.35 50.1211 26.36 50.1211L26.35 50.1111ZM23.78 2.34107L14.62 32.5811C12.66 39.0511 16.33 45.9211 22.8 47.8811C29.28 49.8411 36.14 46.1711 38.1 39.7011L47.26 9.46107L23.78 2.34107Z" fill="#0E2025"/>
<path d="M12.17 83.8012C12.09 83.8012 12.01 83.7912 11.92 83.7612C11.47 83.6212 11.21 83.1512 11.35 82.6912L21.73 48.4412C21.87 47.9912 22.33 47.7412 22.8 47.8712C23.25 48.0112 23.51 48.4812 23.37 48.9412L12.99 83.1912C12.88 83.5612 12.54 83.8012 12.17 83.8012Z" fill="#0E2025"/>
<path d="M20.9599 88.4212C20.8799 88.4212 20.7999 88.4112 20.7099 88.3812L0.619924 82.2912C0.169924 82.1512 -0.0900761 81.6812 0.0499239 81.2212C0.189924 80.7712 0.659924 80.5112 1.11992 80.6512L21.2099 86.7412C21.6599 86.8812 21.9199 87.3512 21.7799 87.8112C21.6699 88.1812 21.3299 88.4212 20.9599 88.4212Z" fill="#0E2025"/>
</g>
<defs>
<clipPath id="clip0_32_1777">
<rect width="97.98" height="88" fill="white" transform="translate(0.0100098 0.420898)"/>
</clipPath>
</defs>
</svg>
