<svg width="35" height="36" viewBox="0 0 35 36" fill="none" xmlns="http://www.w3.org/2000/svg">
<path d="M29.6875 6.07715C32.9688 9.3584 35 13.6553 35 18.3428C35 27.874 27.0312 35.6865 17.4219 35.6865C14.5312 35.6865 11.7188 34.9053 9.14062 33.5771L0 35.9209L2.42188 26.9365C0.9375 24.3584 0.078125 21.3896 0.078125 18.2646C0.078125 8.7334 7.89062 0.920898 17.4219 0.920898C22.1094 0.920898 26.4844 2.7959 29.6875 6.07715ZM17.4219 32.7178C25.3906 32.7178 32.0312 26.2334 32.0312 18.3428C32.0312 14.4365 30.3906 10.8428 27.6562 8.1084C24.9219 5.37402 21.3281 3.88965 17.5 3.88965C9.53125 3.88965 3.04688 10.374 3.04688 18.2646C3.04688 20.999 3.82812 23.6553 5.23438 25.999L5.625 26.5459L4.14062 31.8584L9.60938 30.374L10.0781 30.6865C12.3438 32.0146 14.8438 32.7178 17.4219 32.7178ZM25.3906 21.9365C25.7812 22.1709 26.0938 22.249 26.1719 22.4834C26.3281 22.6396 26.3281 23.499 25.9375 24.5146C25.5469 25.5303 23.8281 26.4678 23.0469 26.5459C21.6406 26.7803 20.5469 26.7021 17.8125 25.4521C13.4375 23.5771 10.625 19.2021 10.3906 18.9678C10.1562 18.6553 8.67188 16.624 8.67188 14.4365C8.67188 12.3271 9.76562 11.3115 10.1562 10.8428C10.5469 10.374 11.0156 10.2959 11.3281 10.2959C11.5625 10.2959 11.875 10.2959 12.1094 10.2959C12.4219 10.2959 12.7344 10.2178 13.125 11.0771C13.4375 11.9365 14.375 14.0459 14.4531 14.2803C14.5312 14.5146 14.6094 14.749 14.4531 15.0615C13.6719 16.7021 12.7344 16.624 13.2031 17.4053C14.9219 20.2959 16.5625 21.3115 19.1406 22.5615C19.5312 22.7959 19.7656 22.7178 20.0781 22.4834C20.3125 22.1709 21.1719 21.1553 21.4062 20.7646C21.7188 20.2959 22.0312 20.374 22.4219 20.5303C22.8125 20.6865 24.9219 21.7021 25.3906 21.9365Z" fill="white"/>
</svg>
