<svg width="96" height="89" viewBox="0 0 96 89" fill="none" xmlns="http://www.w3.org/2000/svg">
<g clip-path="url(#clip0_32_1787)">
<path d="M0.76921 88.4207C0.450514 88.4207 0.195557 88.1657 0.195557 87.847V58.033C0.195557 57.786 0.346937 57.5709 0.577992 57.4912L25.4204 48.5757C25.7152 48.4641 26.0498 48.6235 26.1534 48.9263C26.2569 49.229 26.1056 49.5557 25.8028 49.6593L1.35083 58.4393V87.847C1.35083 88.1657 1.09587 88.4207 0.777177 88.4207H0.76921Z" fill="#0E2025"/>
<path d="M95.2308 88.4205C94.9121 88.4205 94.6571 88.1655 94.6571 87.8468V58.4391L70.1892 49.659C69.8864 49.5554 69.7351 49.2208 69.8386 48.926C69.9502 48.6233 70.2768 48.4719 70.5716 48.5755L95.414 57.491C95.6451 57.5707 95.7964 57.7937 95.7964 58.0328V87.8468C95.7964 88.1655 95.5415 88.4205 95.2228 88.4205H95.2308Z" fill="#0E2025"/>
<path d="M70.3804 88.4212C70.0617 88.4212 69.8068 88.1662 69.8068 87.8475V36.88C69.8068 24.8572 60.0228 15.0732 48 15.0732C35.9772 15.0732 26.1932 24.8572 26.1932 36.88V87.8475C26.1932 88.1662 25.9382 88.4212 25.6196 88.4212C25.3009 88.4212 25.0459 88.1662 25.0459 87.8475V36.88C25.0459 24.2198 35.3478 13.918 48.008 13.918C60.6682 13.918 70.97 24.2198 70.97 36.88V87.8475C70.97 88.1662 70.7151 88.4212 70.3964 88.4212H70.3804Z" fill="#0E2025"/>
<path d="M70.3804 37.453H25.6196C25.3009 37.453 25.0459 37.198 25.0459 36.8793C25.0459 36.5606 25.3009 36.3057 25.6196 36.3057H70.3884C70.7071 36.3057 70.9621 36.5606 70.9621 36.8793C70.9621 37.198 70.7071 37.453 70.3884 37.453H70.3804Z" fill="#0E2025"/>
<path d="M49.1314 15.073H46.8606C46.5419 15.073 46.287 14.818 46.287 14.4993V7.19319H42.861C42.5423 7.19319 42.2874 6.93824 42.2874 6.61954V4.34883C42.2874 4.03013 42.5423 3.77518 42.861 3.77518H46.287V0.994552C46.287 0.675855 46.5419 0.420898 46.8606 0.420898H49.1314C49.45 0.420898 49.705 0.675855 49.705 0.994552V3.76721H53.131C53.4497 3.76721 53.7046 4.02217 53.7046 4.34086V6.61157C53.7046 6.93027 53.4497 7.18523 53.131 7.18523H49.705V14.4913C49.705 14.81 49.45 15.065 49.1314 15.065V15.073ZM47.4423 13.9177H48.5577V6.61157C48.5577 6.29288 48.8127 6.03792 49.1314 6.03792H52.5573V4.92248H49.1314C48.8127 4.92248 48.5577 4.66753 48.5577 4.34883V1.57617H47.4423V4.34883C47.4423 4.66753 47.1873 4.92248 46.8686 4.92248H43.4426V6.03792H46.8686C47.1873 6.03792 47.4423 6.29288 47.4423 6.61157V13.9177Z" fill="#0E2025"/>
<path d="M12.784 80.9474C8.82421 80.9474 5.59741 77.7206 5.59741 73.7608C5.59741 69.801 8.82421 66.5742 12.784 66.5742C16.7438 66.5742 19.9706 69.801 19.9706 73.7608C19.9706 77.7206 16.7438 80.9474 12.784 80.9474ZM12.784 67.7295C9.45364 67.7295 6.75269 70.4384 6.75269 73.7608C6.75269 77.0832 9.4616 79.7921 12.784 79.7921C16.1064 79.7921 18.8153 77.0832 18.8153 73.7608C18.8153 70.4384 16.1064 67.7295 12.784 67.7295Z" fill="#0E2025"/>
<path d="M12.784 80.9477C12.4653 80.9477 12.2103 80.6928 12.2103 80.3741V67.9369C12.2103 67.6182 12.4653 67.3633 12.784 67.3633C13.1027 67.3633 13.3576 67.6182 13.3576 67.9369V80.3741C13.3576 80.6928 13.1027 80.9477 12.784 80.9477Z" fill="#0E2025"/>
<path d="M18.9986 74.3348H6.56145C6.24275 74.3348 5.98779 74.0799 5.98779 73.7612C5.98779 73.4425 6.24275 73.1875 6.56145 73.1875H18.9986C19.3173 73.1875 19.5722 73.4425 19.5722 73.7612C19.5722 74.0799 19.3173 74.3348 18.9986 74.3348Z" fill="#0E2025"/>
<path d="M48 61.1007C44.0402 61.1007 40.8134 57.8739 40.8134 53.9141C40.8134 49.9543 44.0402 46.7275 48 46.7275C51.9598 46.7275 55.1866 49.9543 55.1866 53.9141C55.1866 57.8739 51.9598 61.1007 48 61.1007ZM48 47.8828C44.6696 47.8828 41.9686 50.5917 41.9686 53.9141C41.9686 57.2365 44.6775 59.9455 48 59.9455C51.3224 59.9455 54.0313 57.2365 54.0313 53.9141C54.0313 50.5917 51.3224 47.8828 48 47.8828Z" fill="#0E2025"/>
<path d="M47.9999 61.101C47.6812 61.101 47.4263 60.8461 47.4263 60.5274V48.0903C47.4263 47.7716 47.6812 47.5166 47.9999 47.5166C48.3186 47.5166 48.5736 47.7716 48.5736 48.0903V60.5274C48.5736 60.8461 48.3186 61.101 47.9999 61.101Z" fill="#0E2025"/>
<path d="M54.2224 54.4959H41.7853C41.4666 54.4959 41.2117 54.241 41.2117 53.9223C41.2117 53.6036 41.4666 53.3486 41.7853 53.3486H54.2224C54.5411 53.3486 54.7961 53.6036 54.7961 53.9223C54.7961 54.241 54.5411 54.4959 54.2224 54.4959Z" fill="#0E2025"/>
<path d="M82.8016 80.9474C78.8418 80.9474 75.615 77.7206 75.615 73.7608C75.615 69.801 78.8418 66.5742 82.8016 66.5742C86.7614 66.5742 89.9882 69.801 89.9882 73.7608C89.9882 77.7206 86.7614 80.9474 82.8016 80.9474ZM82.8016 67.7295C79.4712 67.7295 76.7703 70.4384 76.7703 73.7608C76.7703 77.0832 79.4792 79.7921 82.8016 79.7921C86.124 79.7921 88.8329 77.0832 88.8329 73.7608C88.8329 70.4384 86.124 67.7295 82.8016 67.7295Z" fill="#0E2025"/>
<path d="M82.8016 80.9477C82.4829 80.9477 82.2279 80.6928 82.2279 80.3741V67.9369C82.2279 67.6182 82.4829 67.3633 82.8016 67.3633C83.1203 67.3633 83.3752 67.6182 83.3752 67.9369V80.3741C83.3752 80.6928 83.1203 80.9477 82.8016 80.9477Z" fill="#0E2025"/>
<path d="M89.0241 74.3348H76.587C76.2683 74.3348 76.0133 74.0799 76.0133 73.7612C76.0133 73.4425 76.2683 73.1875 76.587 73.1875H89.0241C89.3428 73.1875 89.5977 73.4425 89.5977 73.7612C89.5977 74.0799 89.3428 74.3348 89.0241 74.3348Z" fill="#0E2025"/>
<path d="M59.5925 88.4213C59.2739 88.4213 59.0189 88.1663 59.0189 87.8476V81.641C59.0189 75.5619 54.0791 70.6221 48 70.6221C41.9208 70.6221 36.981 75.5619 36.981 81.641V87.8476C36.981 88.1663 36.7261 88.4213 36.4074 88.4213C36.0887 88.4213 35.8337 88.1663 35.8337 87.8476V81.641C35.8337 74.9324 41.2914 69.4668 48.0079 69.4668C54.7245 69.4668 60.1821 74.9245 60.1821 81.641V87.8476C60.1821 88.1663 59.9272 88.4213 59.6085 88.4213H59.5925Z" fill="#0E2025"/>
</g>
<defs>
<clipPath id="clip0_32_1787">
<rect width="95.6089" height="88" fill="white" transform="translate(0.195557 0.420898)"/>
</clipPath>
</defs>
</svg>
