<svg width="276" height="184" viewBox="0 0 276 184" fill="none" xmlns="http://www.w3.org/2000/svg">
<g clip-path="url(#clip0_68_23)">
<g opacity="0.32">
<path d="M152.234 48.2155C160.23 64.2327 171.287 78.549 183.787 91.3051C194.78 102.523 207.552 111.983 217.101 124.434C217.897 124.731 218.658 125.091 219.407 125.491C216.404 121.202 213.051 117.174 209.3 113.397C202.897 106.941 195.864 101.16 189.306 94.8629C182.663 88.4863 176.428 81.6831 170.711 74.4652C159.418 60.1927 150.365 44.093 145.156 26.6072C140.191 9.94066 138.706 -7.94548 140.361 -25.2303C141.219 -34.1929 143.125 -43.0684 145.674 -51.7031C145.789 -52.0895 145.138 -52.3033 144.996 -51.9255C138.983 -36.2212 137.504 -18.8809 138.649 -2.19281C139.857 15.3531 144.376 32.4646 152.229 48.2066L152.234 48.2155Z" fill="#FFC7C7"/>
<path d="M157.785 27.9963C167.045 40.6311 178.865 51.2505 192.231 59.3778C195.688 61.4816 199.246 63.3872 202.877 65.1083C202.086 64.3017 201.269 63.5089 200.541 62.6477C194.928 59.6682 189.528 56.2965 184.435 52.5176C171.096 42.6187 159.994 30.0385 151.722 15.64C145.766 5.26802 141.715 -5.94666 138.96 -17.5297C138.958 -17.382 138.956 -17.2344 138.962 -17.0914C139.018 -14.9006 139.189 -12.725 139.088 -10.5319C142.41 3.38178 149.465 16.6535 157.785 27.9963Z" fill="#FFC7C7"/>
<path d="M222.072 135.273C224.238 139.861 225.276 144.617 226.173 149.582C226.939 153.837 227.281 158.989 229.831 162.623C230.741 163.92 232.277 164.644 233.739 163.749C236.194 162.25 237.323 159.366 237.676 156.637C238.654 149.122 234.559 141.513 229.971 135.906C227.98 133.48 225.786 131.272 223.496 129.138C222.294 128.015 221.136 126.87 219.996 125.692C218.928 124.59 217.477 123.552 216.617 122.286C216.525 122.153 216.36 122.16 216.258 122.247C216.13 122.065 216.011 121.879 215.883 121.698C215.572 121.25 214.909 121.73 215.197 122.177C217.863 126.337 219.97 130.81 222.076 135.282L222.072 135.273ZM219.433 126.345C221.073 128.051 222.797 129.658 224.507 131.283C227.888 134.497 230.803 138.268 233.038 142.358C234.969 145.885 236.361 149.782 236.604 153.813C236.796 157.026 236.041 160.978 233.072 162.789C229.903 164.715 228.279 154.551 227.999 152.882C227.326 148.871 226.665 144.798 225.515 140.888C224.129 136.177 221.63 131.773 219.387 127.428C218.954 126.594 218.508 125.8 218.049 125.024C218.534 125.482 219.028 125.913 219.428 126.336L219.433 126.345Z" fill="#FFC7C7"/>
<path d="M204.682 110.532C206.233 111.676 207.901 112.59 209.58 113.545C211.695 114.756 213.481 116.331 215.299 117.945C218.491 120.795 222.045 123.412 225.614 125.774C228.926 127.965 232.576 129.506 236.304 130.828C238.35 131.558 242.086 132.571 243.472 130.161C244.453 128.447 242.578 126.029 241.532 124.837C239.279 122.254 235.991 120.738 232.757 119.803C230.861 119.254 228.876 119.011 226.938 118.642C224.592 118.181 222.469 117.39 220.346 116.295C216.461 114.3 212.674 112.018 208.576 110.46C207.519 110.051 206.433 109.826 205.293 109.865C205.249 109.866 205.217 109.871 205.177 109.881C204.758 109.636 204.265 110.207 204.686 110.519L204.682 110.532ZM210.713 112.494C212.466 113.354 214.184 114.254 215.91 115.172C219.279 116.973 222.486 118.79 226.246 119.61C229.976 120.435 233.583 120.873 237.018 122.673C239.339 123.89 241.835 125.964 242.612 128.591C243.771 132.496 235.784 129.543 234.537 129.03C230.838 127.502 227.48 125.808 224.22 123.455C221.136 121.225 218.074 118.927 215.236 116.389C213.884 115.175 212.507 114.02 210.963 113.063C209.668 112.26 208.272 111.655 206.933 110.941C208.257 111.257 209.515 111.9 210.713 112.494Z" fill="#FFC7C7"/>
<path d="M197.316 125.452C200.047 132.236 204.632 139.399 212.466 140.449C213.64 140.606 215.184 140.65 216.276 140.106C217.311 139.602 217.163 138.124 216.993 137.21C216.706 135.68 215.922 134.408 214.951 133.211C213.525 131.439 211.944 129.803 210.504 128.027C207.601 124.452 204.963 120.605 202.325 116.825C199.486 112.744 197.537 108.336 195.457 103.85C194.634 102.091 193.386 100.576 192.621 98.7759C192.584 98.7048 192.548 98.6562 192.493 98.6168C192.475 98.5813 192.457 98.5457 192.442 98.4968C192.21 97.8964 191.298 98.2232 191.504 98.8374C192.225 100.987 192.572 102.958 192.749 105.21C192.933 107.627 193.433 109.981 193.876 112.354C194.708 116.823 195.597 121.206 197.302 125.447L197.316 125.452ZM194.722 110.574C194.313 108.398 193.995 106.265 193.854 104.062C193.814 103.486 193.748 102.945 193.642 102.415C193.972 102.987 194.299 103.572 194.603 104.158C195.677 106.271 196.485 108.544 197.443 110.717C199.092 114.458 201.557 117.776 203.95 121.063C206.457 124.505 208.835 128.003 211.616 131.235C213.023 132.86 214.659 134.275 215.561 136.274C215.848 136.914 215.993 137.65 216.044 138.333C216.153 139.651 214.385 139.544 213.495 139.544C205.095 139.531 200.401 130.486 197.844 123.735C196.242 119.497 195.549 115.012 194.713 110.579L194.722 110.574Z" fill="#FFC7C7"/>
<path d="M177.748 121.286C178.589 122.777 180.293 123.086 181.724 122.153C184.257 120.5 184.857 116.944 185.262 114.165C185.847 110.211 185.375 105.871 184.413 102.021C183.328 97.672 182.365 93.0797 180.621 88.9374C180.018 87.5152 179.26 86.1624 178.444 84.8508C177.573 83.455 176.349 82.3552 175.7 80.8219C175.561 80.5109 175.217 80.5429 175.068 80.7554C175.045 80.711 175 80.667 174.914 80.6101C174.629 80.4086 174.317 80.7845 174.567 81.0268C174.612 81.0708 174.649 81.1418 174.695 81.2082C174.7 81.2618 174.714 81.3108 174.742 81.3641C175.764 83.2899 176.652 85.5665 177.283 87.6502C178.027 90.1258 178.015 92.9259 178.326 95.4796C178.863 99.9441 178.367 104.415 177.601 108.823C177.251 110.841 177.067 112.875 176.946 114.921C176.833 116.939 176.736 119.445 177.761 121.268L177.748 121.286ZM177.877 113.48C178.045 111.263 178.441 109.097 178.766 106.901C179.457 102.261 179.485 97.8863 178.919 93.2343C178.654 91.0736 178.59 88.9321 177.924 86.8445C177.661 86.0344 177.27 85.2799 176.896 84.5162C177.129 84.8348 177.353 85.1579 177.577 85.481C178.903 87.4514 179.867 89.6554 180.603 91.8986C181.287 93.977 181.744 96.117 182.277 98.229C182.872 100.613 183.676 102.922 184.052 105.363C184.651 109.232 184.6 113.236 183.664 117.034C183.243 118.762 182.5 120.826 180.713 121.551C179.624 121.992 178.842 121.462 178.411 120.458C177.508 118.392 177.713 115.66 177.881 113.466L177.877 113.48Z" fill="#FFC7C7"/>
<path d="M182.116 88.9955C182.069 89.1661 182.126 89.3621 182.328 89.4485C182.445 89.5004 182.567 89.5388 182.693 89.5861C183.841 90.3874 185.171 90.846 186.506 91.291C188.417 91.9332 190.24 92.7109 192.103 93.4791C196.199 95.1619 200.331 96.6339 203.979 99.1911C207.053 101.359 209.602 104.295 212.815 106.233C214.864 107.468 218.124 107.996 219.897 106.028C221.943 103.761 218.703 100.383 217.266 98.8305C214.629 95.9629 211.167 94.132 207.499 92.9481C203.378 91.628 199.267 90.6745 194.974 90.1307C192.755 89.8509 190.52 89.6251 188.285 89.3992C186.381 89.2042 184.435 89.1663 182.572 88.68C182.379 88.6337 182.237 88.7298 182.154 88.8741C182.137 88.9057 182.119 88.9373 182.12 88.982L182.116 88.9955ZM192.01 90.8461C195.822 91.245 199.564 91.7255 203.257 92.7838C206.823 93.7947 210.29 94.7668 213.43 96.8218C215.033 97.8712 216.432 99.2411 217.661 100.699C218.772 102.015 220.586 104.273 218.901 105.824C216.36 108.156 212.519 104.967 210.647 103.313C208.014 100.996 205.335 98.6788 202.308 96.9039C199.072 95.0114 195.494 93.8038 192.033 92.3888C190.076 91.5908 188.058 90.9368 186.074 90.2196C186.276 90.239 186.486 90.2537 186.688 90.273C188.47 90.4296 190.245 90.6579 192.019 90.8415L192.01 90.8461Z" fill="#FFC7C7"/>
<path d="M159.38 59.7505C161.219 61.579 163.017 63.3947 164.746 65.3367C167.813 68.7927 170.896 72.1948 174.271 75.3555C179.475 80.2375 186.425 87.0299 194.319 85.243C196.677 84.7066 198.315 82.392 196.248 80.558C193.967 78.5304 190.089 78.1995 187.299 77.3603C182.905 76.0353 178.318 73.4922 174.786 70.5933C173.079 69.1922 171.596 67.5506 169.955 66.0814C168.128 64.4495 166.164 62.9449 164.214 61.4669C162.875 60.4494 161.545 59.4273 160.192 58.4054C159.319 57.7432 158.694 56.6255 157.72 56.1392C157.63 56.0958 157.55 56.0925 157.483 56.1159C157.269 55.8776 156.783 55.9833 156.816 56.3943C156.938 57.6716 158.54 58.9133 159.398 59.7636L159.38 59.7505ZM166.779 64.5861C170.084 67.2424 172.894 70.5726 176.449 72.9075C179.606 74.9757 183.026 76.9638 186.639 78.1082C188.478 78.6978 190.354 79.1885 192.218 79.6748C193.601 80.0387 195.283 80.6306 196.19 81.7933C196.888 82.6818 195.815 83.588 195.164 84.0495C194.155 84.7535 192.674 84.7444 191.51 84.6501C189.531 84.483 187.615 83.8319 185.832 83C182.057 81.2408 178.86 78.0327 175.813 75.2652C172.458 72.2295 169.385 68.9793 166.361 65.6255C164.928 64.0369 163.482 62.444 161.943 60.9554C161.757 60.7703 161.567 60.5988 161.372 60.4183C163.142 61.8319 165.004 63.1413 166.783 64.5726L166.779 64.5861Z" fill="#FFC7C7"/>
<path d="M198.196 62.2759C199.71 63.3489 201.281 64.2691 202.739 65.4503C204.581 66.9389 206.38 68.4728 208.315 69.8347C209.933 70.9778 211.881 71.758 213.657 72.617C215.648 73.5889 217.539 74.7368 219.505 75.7673C222.809 77.4888 226.501 78.5247 230.23 78.1556C232.526 77.9332 235.027 77.3679 236.874 75.9134C238.726 74.4454 238.745 72.1148 237.718 70.1355C236.507 67.8011 234.292 66.5954 231.818 65.9527C229.106 65.2421 226.209 65.3035 223.427 65.3274C219.465 65.3556 215.522 64.9228 211.6 64.3556C209.588 64.0593 207.587 63.7002 205.587 63.3411C203.69 63.0074 201.42 62.8447 199.664 62.0213C199.483 61.9345 199.319 61.9862 199.217 62.095C198.948 62.0096 198.683 61.9331 198.396 61.8793C198.18 61.8333 198.015 62.1444 198.209 62.2801L198.196 62.2759ZM210.854 65.2837C214.718 65.892 218.635 66.361 222.544 66.4051C227.309 66.4677 236.912 65.8896 237.426 72.7206C237.649 75.6468 233.419 76.6585 231.264 77.0219C227.28 77.6811 223.494 76.6377 219.943 74.8528C218.127 73.9363 216.406 72.8351 214.581 71.9232C212.391 70.829 210.077 69.844 208.07 68.4295C206.293 67.177 204.639 65.7483 202.946 64.3738C202.67 64.1453 202.385 63.9215 202.095 63.7112C202.863 63.8875 203.638 64.0145 204.379 64.1599C206.527 64.566 208.689 64.9539 210.85 65.2971L210.854 65.2837Z" fill="#FFC7C7"/>
<path d="M194.51 67.3093C196.479 70.6253 198.797 73.681 200.849 76.9421C202.806 80.039 204.451 83.2525 207.035 85.8883C208.711 87.5985 210.963 89.2241 213.158 87.3752C215.119 85.7266 214.282 82.6799 213.243 80.7857C211.734 78.0309 208.959 76.0912 206.489 74.2632C203.441 72.0145 200.454 69.6665 197.951 66.8193C195.257 63.7557 192.952 60.3777 190.179 57.3556C190.024 57.188 189.792 57.2407 189.678 57.3676C189.632 57.2789 189.581 57.1812 189.535 57.0925C189.351 56.7374 188.768 56.9385 188.943 57.2982C190.649 60.6941 192.547 64.0469 194.488 67.3096L194.51 67.3093ZM202.154 72.0741C204.373 73.9193 206.772 75.5471 208.948 77.46C211.074 79.32 213.501 81.9134 213.22 84.9546C213.132 85.9578 212.545 86.7359 211.634 87.1521C210.697 87.5821 209.697 86.8502 209.018 86.3013C207.877 85.3837 206.903 84.2667 206.014 83.1172C204.043 80.5572 202.635 77.604 200.833 74.9341C198.985 72.1978 197.062 69.5341 195.333 66.7244C193.619 63.9414 191.748 61.183 190.184 58.2993C193.99 63.0949 197.403 68.1291 202.154 72.0741Z" fill="#FFC7C7"/>
<path d="M175.519 46.7565C176.56 47.8948 177.073 49.296 177.778 50.654C178.644 52.3228 179.576 53.9457 180.407 55.6329C181.902 58.7099 183.269 61.865 184.493 65.0714C185.113 66.699 185.522 68.3567 185.759 70.093C185.924 71.2803 186.089 72.4451 186.567 73.5606C187.383 75.5029 189.509 76.5175 191.504 75.8882C193.631 75.2122 194.013 73.2117 193.234 71.3851C192.023 68.5095 190.159 65.8942 188.479 63.2851C184.769 57.5263 181 51.3705 176.15 46.4966C176.014 46.3644 175.85 46.4608 175.79 46.6049C175.78 46.5871 175.776 46.5782 175.753 46.5786C175.627 46.4642 175.41 46.6553 175.533 46.7832L175.519 46.7565ZM185.76 60.9554C187.311 63.2936 188.854 65.6365 190.321 68.0297C191.05 69.2174 191.722 70.4462 192.308 71.7077C192.628 72.4095 192.863 73.1664 192.606 73.9306C192.225 75.0634 190.646 75.3644 189.664 75.2092C186.629 74.7226 186.855 70.4031 186.427 68.1687C185.913 65.5062 184.699 62.9706 183.651 60.4951C182.598 58.0107 181.368 55.6184 180.125 53.2219C179.977 52.9378 179.83 52.6538 179.682 52.3698C181.733 55.2149 183.838 58.0323 185.778 60.9462L185.76 60.9554Z" fill="#FFC7C7"/>
<path d="M151.84 43.1584C153.011 44.59 154.226 45.9314 155.551 47.2265C156.927 48.5744 158.416 49.7731 159.735 51.1845C161.189 52.7281 162.567 54.2773 164.198 55.6393C166.454 57.5331 168.93 59.2 171.514 60.6193C173.151 61.5161 175.563 62.7992 177.442 61.9257C179.738 60.858 178.122 57.7425 177.143 56.3349C175.123 53.4178 171.507 51.7904 168.42 50.2937C161.599 47.0059 154.531 44.2183 148.92 38.9846C148.829 38.8965 148.704 38.9163 148.616 38.9847C148.597 38.9492 148.556 38.914 148.538 38.8785C148.46 38.7723 148.314 38.8819 148.374 38.9973C149.199 40.5861 150.711 41.7844 151.845 43.1673L151.84 43.1584ZM163.575 49.0113C166.566 50.411 169.624 51.8321 172.445 53.534C174.079 54.5114 175.533 55.7285 176.648 57.2905C177.393 58.3349 178.549 60.8893 176.596 61.2943C174.715 61.6849 172.379 60.1143 170.835 59.2027C168.241 57.6763 165.789 55.8614 163.558 53.842C162.28 52.6804 161.181 51.3238 159.999 50.0669C158.8 48.7968 157.424 47.7082 156.153 46.4973C155.291 45.6828 154.491 44.8137 153.695 43.9312C156.785 45.978 160.327 47.4857 163.571 49.0024L163.575 49.0113Z" fill="#FFC7C7"/>
<path d="M162.352 92.3561C163.743 94.992 166.343 98.1151 169.728 97.4738C172.828 96.8905 172.782 92.6109 172.255 90.3154C171.806 88.3632 170.887 86.4627 170.135 84.6223C169.248 82.4574 168.104 80.4709 166.929 78.4445C164.386 74.0861 161.931 69.6817 159.916 65.0604C159.036 63.0386 158.04 61.0543 157.306 58.9676C156.769 57.455 155.794 55.3138 155.926 53.7017C155.951 53.6208 155.972 53.531 155.989 53.4547C156.078 53.1045 155.775 52.9123 155.49 52.9479C155.261 52.8977 154.999 53.0224 155.035 53.3304C155.045 53.4153 155.046 53.5047 155.056 53.5895C155.008 53.9078 155.003 54.2254 155.04 54.5559C154.922 55.9352 154.51 57.3771 154.485 58.7416C154.45 61.1261 154.768 63.5634 155.179 65.9187C155.953 70.3842 157.422 74.6917 158.401 79.1183C159.394 83.5716 160.211 88.2734 162.366 92.3604L162.352 92.3561ZM158.96 77.048C158.022 72.9383 156.669 68.9422 155.958 64.771C155.615 62.7635 155.436 60.7042 155.397 58.6743C155.387 58.0259 155.476 57.3715 155.582 56.708C156.08 58.2749 156.555 59.8421 157.208 61.3619C158.812 65.0815 160.491 68.773 162.392 72.3494C164.449 76.2276 166.96 79.9156 168.778 83.9181C170.304 87.272 172.687 91.6463 171.078 95.3425C170.002 97.8052 167.134 96.5333 165.64 95.3258C164.014 94.0173 163.109 91.817 162.352 89.9454C160.688 85.8063 159.951 81.3895 158.956 77.0615L158.96 77.048Z" fill="#FFC7C7"/>
<path d="M142.504 76.0339C144.683 75.8044 146.481 73.1698 147.516 71.495C149.507 68.276 150.314 64.1849 150.665 60.4763C151.063 56.2928 150.716 51.9328 150.13 47.7865C149.515 43.4751 148.829 39.1559 147.683 34.951C147.655 34.853 147.591 34.7958 147.515 34.7791C147.373 34.5933 147.029 34.5806 146.875 34.7618C146.818 34.8253 146.765 34.8753 146.708 34.9388C146.545 35.1246 146.597 35.334 146.738 35.4527C146.569 37.298 146.583 39.1718 146.334 41.0138C146.048 43.156 145.678 45.2637 145.235 47.3859C144.33 51.7201 143.127 55.8932 141.669 60.0747C140.515 63.366 138.811 66.8981 138.662 70.4338C138.567 72.7475 139.516 76.3338 142.508 76.0205L142.504 76.0339ZM139.752 71.795C139.548 70.1432 140.045 68.4092 140.518 66.8457C141.597 63.3229 142.963 59.8987 144.101 56.4019C145.203 52.9906 145.992 49.5393 146.628 46.0098C147.153 43.1126 147.311 40.2701 147.456 37.3786C147.916 40.3281 148.55 43.266 149.002 46.2201C149.557 49.8525 149.885 53.5017 149.913 57.1823C149.937 60.854 149.353 64.5705 148.14 68.0282C147.243 70.5777 145.508 73.8554 142.877 75.0175C140.918 75.8878 139.944 73.2502 139.765 71.7992L139.752 71.795Z" fill="#FFC7C7"/>
<path d="M172.057 43.4719C173.566 44.4914 174.876 45.648 176.473 46.5544C178.273 47.5694 180.248 48.3359 182.148 49.1527C184.151 50.0171 186.198 50.7915 188.14 51.7776C190.168 52.7982 192.1 53.9812 194.189 54.8802C197.755 56.4099 201.901 57.6268 205.797 57.6443C207.649 57.6523 209.507 57.195 211.172 56.4096C212.287 55.8875 213.865 54.9558 214.213 53.6491C214.808 51.3233 212.16 49.8021 210.326 49.1767C206.576 47.8778 202.202 47.8719 198.282 47.7877C189.782 47.6023 180.487 47.5809 172.993 42.9748C172.908 42.918 172.827 42.9147 172.743 42.9473C172.657 42.8904 172.575 42.8425 172.485 42.7991C172.084 42.5681 171.66 43.2274 172.044 43.49L172.057 43.4719ZM204.027 49.0879C206.768 49.333 211.735 49.5044 213.201 52.394C214.072 54.1163 211.136 55.4709 209.975 55.9267C208.064 56.6934 205.958 56.7608 203.942 56.5451C200.157 56.1323 196.151 54.7523 192.757 53.0545C191.04 52.1992 189.397 51.2041 187.672 50.3757C185.861 49.4905 183.949 48.7812 182.099 47.995C180.983 47.5153 179.862 47.0267 178.763 46.5155C183.005 47.8741 187.592 48.3106 191.992 48.562C195.999 48.7926 200.023 48.7545 204.023 49.1014L204.027 49.0879Z" fill="#FFC7C7"/>
<path d="M156.588 25.7109C157.522 27.1862 158.986 28.1393 160.392 29.1335C162.322 30.4865 164.147 31.9843 166.073 33.3508C169.414 35.7293 172.8 37.5211 176.698 38.867C180.47 40.1655 184.049 41.1584 188.068 41.022C192.065 40.8859 196.398 40.5748 200.002 38.6824C201.094 38.1159 202.424 37.0761 202.39 35.6856C202.348 34.0851 201.071 33.0576 199.663 32.5152C196.483 31.2928 192.513 32.3498 189.234 32.5646C184.788 32.855 180.339 33.226 175.885 33.0245C173.603 32.9246 171.522 32.5399 169.41 31.6413C167.479 30.8071 165.625 29.775 163.724 28.8687C162.693 28.3788 161.674 27.8708 160.638 27.372C159.593 26.8778 158.303 26.4544 157.604 25.4765C157.558 25.4101 157.495 25.3752 157.432 25.3628C157.4 25.3006 157.35 25.2477 157.309 25.1902C157.002 24.7073 156.276 25.2191 156.574 25.7066L156.588 25.7109ZM166.082 31.0025C167.637 31.8066 169.189 32.6689 170.874 33.2027C172.708 33.7834 174.58 33.9386 176.491 34.0396C180.587 34.2688 184.696 33.9164 188.785 33.6537C190.635 33.5275 192.461 33.3569 194.306 33.1772C196.222 32.9829 198.3 32.9069 200.063 33.8063C201.73 34.6534 201.65 36.4526 200.248 37.5069C199.47 38.0911 198.379 38.4205 197.471 38.7562C195.252 39.5812 192.789 39.6987 190.453 39.8635C188.312 40.0164 186.216 40.1239 184.084 39.8787C182.041 39.6321 180.025 38.8528 178.079 38.2067C174.218 36.9318 170.468 35.3288 167.184 32.8869C165.37 31.541 163.491 30.2856 161.721 28.872C161.589 28.7711 161.458 28.6702 161.332 28.5782C162.918 29.3773 164.504 30.1764 166.069 30.9983L166.082 31.0025Z" fill="#FFC7C7"/>
<path d="M154.176 39.0398C155.45 40.7784 157.86 42.5134 160.105 42.5199C165.652 42.5484 157.008 31.3848 156.226 30.18C154.037 26.7869 152.586 22.8414 151.175 19.0788C150.462 17.1841 149.825 15.2615 149.17 13.3481C148.814 12.2935 148.585 10.7449 147.763 9.94321C147.695 9.87714 147.61 9.84265 147.538 9.83478C147.247 9.77207 146.888 10.0369 146.997 10.4199C147.525 12.2413 147.241 14.1911 147.359 16.0679C147.482 17.9758 147.801 19.8719 148.204 21.7354C148.916 25.0166 149.908 28.2309 150.824 31.4509C151.588 34.1185 152.518 36.7792 154.171 39.0309L154.176 39.0398ZM151.223 28.8552C150.335 25.6885 149.402 22.5672 148.839 19.3107C148.559 17.6644 148.373 16.0034 148.272 14.3322C148.253 13.9702 148.239 13.617 148.229 13.2728C148.328 13.571 148.435 13.8646 148.525 14.1674C149.018 15.7477 149.538 17.3143 150.098 18.8713C151.251 22.0475 152.519 25.1861 154.013 28.2185C155.434 31.0864 157.408 33.5883 159.064 36.323C159.692 37.3602 160.268 38.4697 160.737 39.5898C160.964 40.1365 161.448 41.395 160.373 41.6035C159.655 41.7395 158.755 41.3505 158.102 41.0919C153.536 39.3044 152.386 33.0286 151.219 28.8687L151.223 28.8552Z" fill="#FFC7C7"/>
<path d="M142.801 0.576014C145.583 3.80821 148.601 6.73717 151.792 9.5875C153.424 11.039 155.061 12.5216 156.768 13.8781C158.379 15.1599 160.132 16.2785 161.756 17.5422C163.607 18.9815 165.039 20.8072 166.391 22.6967C167.424 24.1437 168.321 25.8298 169.725 26.9493C171.753 28.5558 175.019 28.9674 176.712 26.7146C178.575 24.2267 176.735 20.788 175.023 18.8145C172.716 16.1476 169.403 14.7572 166.186 13.5085C162.281 11.9972 158.581 10.143 155.019 7.94677C153.245 6.85079 151.55 5.64628 149.776 4.5503C147.704 3.27094 145.538 2.00641 143.887 0.192948C143.805 0.100253 143.693 0.0795766 143.604 0.103278C143.59 0.0766499 143.572 0.0635005 143.549 0.0414782C143.167 -0.391099 142.405 0.11681 142.797 0.567139L142.801 0.576014ZM151.29 6.77282C154.233 8.90677 157.427 10.7418 160.681 12.3657C163.723 13.8854 166.997 14.8112 170.035 16.3445C173.055 17.8645 176.751 20.9488 176.418 24.7153C176.226 26.8427 174.372 27.5682 172.515 27.2249C170.591 26.8602 169.514 25.4586 168.472 23.9491C166.328 20.837 164.269 18.0636 161.193 15.8064C156.345 12.2385 151.663 8.38184 147.39 4.12098C148.669 5.02312 150.014 5.85719 151.281 6.77742L151.29 6.77282Z" fill="#FFC7C7"/>
<path d="M137.149 55.7057C139.416 55.6672 140.075 52.8127 140.129 51.072C140.216 48.1993 139.593 45.4132 139.818 42.5474C140.179 37.9888 140.808 33.4486 141.277 28.9018C141.734 24.4849 142.548 20.0179 142.217 15.5592C142.216 15.5145 142.211 15.4832 142.193 15.4477C142.192 15.4254 142.201 15.3984 142.196 15.3672C142.259 14.7714 141.339 14.5839 141.272 15.1932C140.829 19.0285 138.729 22.4726 136.937 25.8138C135.11 29.2404 133.853 32.8329 133.056 36.6377C132.242 40.5188 131.967 44.5483 132.138 48.504C132.257 51.3155 133.629 55.7631 137.149 55.7057ZM133.225 45.2137C133.3 41.5584 133.835 37.9007 134.762 34.3668C135.654 30.9184 137.158 27.7605 138.793 24.6141C139.775 22.7074 140.801 20.7553 141.481 18.7011C141.334 21.6731 140.841 24.6325 140.568 27.6019C140.199 31.5792 139.569 35.5335 139.101 39.4944C138.78 42.2186 138.643 44.7566 138.926 47.4717C139.134 49.4589 139.698 52.7378 138.017 54.2525C136.23 55.8671 134.353 52.9881 133.791 51.6234C132.983 49.6765 133.198 47.267 133.238 45.1956L133.225 45.2137Z" fill="#FFC7C7"/>
<path d="M119.366 31.3375C121.262 32.1678 123.77 31.5532 125.519 30.6681C128.267 29.2761 130.139 26.7612 131.665 24.1665C135.425 17.7544 138.13 10.5486 140.25 3.43211C140.25 3.43211 140.25 3.43211 140.259 3.42751C140.303 3.35976 140.315 3.29696 140.314 3.22988C140.327 3.18944 140.335 3.16247 140.348 3.12203C140.438 2.81655 140.055 2.64339 139.829 2.77202C139.703 2.76943 139.579 2.81156 139.491 2.94705C135.267 9.37507 131.206 15.9214 125.475 21.16C123.317 23.1246 120.373 24.5061 118.596 26.8362C117.429 28.3655 117.444 30.5435 119.362 31.3734L119.366 31.3375ZM122.488 24.7606C124.914 23.0961 127.075 21.0733 129.087 18.9365C132.547 15.2483 135.48 11.0446 138.202 6.75921C137.545 8.55367 136.933 10.3698 136.257 12.1511C135.065 15.282 133.648 18.3044 132.119 21.2838C129.95 25.5072 125.657 32.3657 119.839 30.3822C116.598 29.2815 121.372 25.5198 122.505 24.7514L122.488 24.7606Z" fill="#FFC7C7"/>
<path d="M123.518 14.458C125.836 15.1254 127.546 13.427 128.753 11.6287C130.048 9.69499 131.245 7.22599 131.703 4.93807C132.485 1.01724 133.716 -2.79852 135.275 -6.50292C136.044 -8.32142 136.795 -10.1307 137.456 -11.9834C138.022 -13.5841 138.496 -15.6889 139.607 -17.0206C139.867 -17.3241 139.457 -17.7876 139.13 -17.5501C139.032 -17.4771 138.94 -17.3952 138.847 -17.3133C138.699 -17.3379 138.552 -17.2954 138.425 -17.1504C136.002 -14.3499 133.065 -11.9129 130.474 -9.26199C127.818 -6.54298 125.616 -3.40588 123.679 -0.147541C122.065 2.58265 120.748 5.4515 120.694 8.66815C120.658 10.7261 121.173 13.7598 123.518 14.4357L123.518 14.458ZM121.887 7.71097C122.137 4.41535 123.885 1.35665 125.642 -1.35781C127.526 -4.26202 129.566 -6.90916 132.002 -9.37887C133.61 -11.0132 135.439 -12.5479 137.082 -14.2007C136.513 -12.8235 136.051 -11.3898 135.517 -10.0086C134.307 -6.89093 132.903 -3.90894 131.963 -0.683467C131.521 0.830459 130.934 2.26157 130.694 3.83955C130.498 5.11272 130.117 6.24555 129.634 7.44252C128.784 9.51718 127.676 12.289 125.555 13.3674C122.239 15.0319 121.747 9.67657 121.892 7.71984L121.887 7.71097Z" fill="#FFC7C7"/>
<path d="M147.554 -9.39334C150.019 -5.46761 152.711 -1.6258 155.592 1.99402C157.306 4.14645 159.39 7.12075 162.588 6.22738C165.728 5.35277 165.181 1.99757 163.988 -0.323701C162.334 -3.53258 159.248 -6.22347 156.613 -8.60807C153.258 -11.6438 149.715 -14.3904 147.052 -18.0896C145.8 -19.8285 144.783 -21.7454 143.868 -23.6817C143.041 -25.4271 142.046 -27.0849 141.392 -28.9088C141.112 -29.6873 140.993 -30.4593 141.008 -31.278C141.009 -31.4704 140.86 -31.5844 140.694 -31.5998C140.684 -31.6623 140.679 -31.7382 140.655 -31.8273C140.569 -32.2107 140.019 -32.1622 139.881 -31.8649C139.238 -30.585 139.823 -29.1313 139.871 -27.7812C139.951 -25.6714 140.958 -23.5799 141.596 -21.5902C142.999 -17.237 145.121 -13.2569 147.549 -9.40221L147.554 -9.39334ZM141.277 -25.8523C141.053 -26.4796 140.923 -27.1217 140.832 -27.7733C141.444 -26.074 142.412 -24.447 143.156 -22.8615C144.602 -19.7703 146.44 -16.837 148.794 -14.3408C151.508 -11.4565 154.675 -9.0441 157.56 -6.32782C160.074 -3.9593 163.41 -0.981442 163.978 2.6105C164.359 4.99318 162.132 5.91221 160.162 5.2217C158.485 4.63861 157.424 2.7671 156.366 1.44567C153.814 -1.73629 151.521 -5.1771 149.279 -8.58734C146.976 -12.0906 144.788 -15.7656 143.315 -19.7107C142.56 -21.7299 141.978 -23.8278 141.273 -25.8612L141.277 -25.8523Z" fill="#FFC7C7"/>
</g>
</g>
<g clip-path="url(#clip1_68_23)">
<g opacity="0.32">
<path d="M87.8911 27.9504C85.895 32.1533 83.807 36.2924 81.486 40.3249C71.79 57.1895 64.2548 75.473 59.688 94.3994C58.3179 100.082 57.3578 105.864 56.645 111.667C55.9828 117.04 56.0265 122.909 53.9719 127.989C53.8937 128.179 53.6252 128.094 53.6751 127.889C54.7673 123.161 54.9691 118.205 55.4604 113.383C55.9516 108.632 56.5418 103.896 57.4501 99.21C59.3308 89.5903 62.3352 80.2206 65.707 71.0356C68.9649 62.1614 72.7529 53.4086 77.3036 45.11C81.9892 36.5642 87.0067 28.1959 90.3432 18.9755C92.2497 13.7046 93.1175 8.1274 94.0417 2.62104C94.9157 -2.55308 95.2664 -7.72835 95.391 -12.989C95.3988 -13.3213 95.9434 -13.3696 95.978 -13.0372C96.9268 -3.8922 95.2446 5.5016 93.0685 14.3711C91.9056 19.0991 89.9867 23.5638 87.8982 27.9575L87.8911 27.9504Z" fill="#67B7CD"/>
<path d="M56.8624 106.061C56.8624 106.061 56.8552 106.124 56.848 106.145C56.4367 106.71 56.0183 107.268 55.607 107.804C53.1748 110.917 50.1353 113.661 46.3847 115.011C46.2078 115.074 46.0881 114.855 46.2509 114.749C49.6144 112.571 52.5263 109.997 54.9445 106.799C55.7884 105.691 56.5193 104.511 57.229 103.311C57.1563 104.23 57.0977 105.149 56.8695 106.053L56.8624 106.061Z" fill="#67B7CD"/>
<path d="M66.8773 69.3906C66.8773 69.3906 66.863 69.4612 66.8629 69.4895C64.9922 71.3098 63.0933 73.0875 61.3001 74.9857C58.6281 77.8154 56.2455 80.8932 54.0889 84.1271C51.7904 87.5586 49.746 91.1887 47.8005 94.8331C46.7497 96.8107 45.7341 98.8379 44.8669 100.901C44.1276 102.681 43.6286 104.561 42.9034 106.355C42.8465 106.482 42.6699 106.418 42.6985 106.291C43.1622 104.39 43.4209 102.496 44.0755 100.644C44.7728 98.6519 45.7671 96.6883 46.6975 94.8024C48.6081 90.9245 50.7589 87.1179 53.0792 83.4672C56.7617 77.6699 61.5825 71.9529 67.1777 67.8073C67.0776 68.3303 67.0057 68.8676 66.8561 69.3976L66.8773 69.3906Z" fill="#67B7CD"/>
<path d="M56.4169 80.1441C54.3918 81.3983 52.0281 82.3124 50.0745 83.1991C46.1816 84.9442 42.2532 86.767 39.1142 89.7371C39.015 89.8359 38.8456 89.6941 38.9236 89.574C41.3702 86.362 44.7967 84.4745 48.3996 82.7782C50.2329 81.9125 52.0802 81.0892 53.8713 80.1385C55.2093 79.4272 56.4416 78.5531 57.7091 77.7286C57.2407 78.5195 56.8499 79.3601 56.4098 80.1511L56.4169 80.1441Z" fill="#67B7CD"/>
<path d="M52.325 95.3097C52.2611 95.458 52.0136 95.4363 52.0282 95.2524C52.2611 92.1982 52.4587 89.1228 52.7553 86.0758C52.7772 85.7718 52.8132 85.4678 52.8492 85.1638C53.4449 84.3873 54.0687 83.6674 54.5796 82.8624C54.4071 84.1207 54.2347 85.3931 54.1117 86.6586C53.8225 89.5854 53.4977 92.5899 52.3321 95.3026L52.325 95.3097Z" fill="#67B7CD"/>
<path d="M67.2754 116.973C67.2328 117.072 67.0985 117.022 67.12 116.916C68.7424 109.021 67.3662 101.303 65.3112 93.6268C64.3152 89.877 63.1498 86.0419 62.5431 82.1585C62.5786 82.1091 62.5999 82.0597 62.6213 81.9961C62.8918 81.1623 63.1199 80.3142 63.348 79.4662C63.5075 80.9161 63.7306 82.3591 64.0174 83.8093C64.7167 87.3605 65.7769 90.8206 66.6956 94.3087C68.5962 101.462 70.3526 109.915 67.2613 116.973L67.2754 116.973Z" fill="#67B7CD"/>
<path d="M79.089 108.245C78.6972 106.334 76.8187 105.227 75.2438 104.326C73.4571 103.297 71.7627 102.063 70.125 100.814C68.9249 99.9068 67.7886 98.9214 66.7515 97.8514C66.8167 97.1374 66.7546 96.423 66.6076 95.7227C68.4205 97.7278 70.4389 99.5141 72.691 101.152C75.282 103.032 79.1607 104.589 79.2729 108.245C79.2797 108.351 79.1029 108.358 79.089 108.259L79.089 108.245Z" fill="#67B7CD"/>
<path d="M80.9161 87.5868C79.6804 90.0166 78.0349 92.2899 77.0182 94.8262C76.9543 94.9745 76.6856 94.9457 76.7214 94.769C77.1151 92.5849 78.0876 90.8263 79.1454 88.8982C80.4162 86.5887 81.3338 84.1229 82.117 81.6215C83.8403 76.0815 84.0361 70.6089 83.5325 64.8732C83.3048 62.2917 82.9497 59.7241 82.4886 57.1775C82.0415 54.7017 81.1414 52.3945 80.298 50.031C79.5812 47.9929 79.1686 45.906 78.9186 43.7983C78.9541 43.763 78.9966 43.7207 79.032 43.6854C79.4221 43.1559 79.8122 42.6265 80.1245 42.0615C80.4999 45.0321 80.9814 47.9677 82.0357 50.855C83.7649 55.554 84.4969 60.3568 84.8749 65.3428C85.2805 70.6823 84.9865 75.7729 83.4691 80.9244C82.7924 83.1927 81.9601 85.489 80.8878 87.6009L80.9161 87.5868Z" fill="#67B7CD"/>
<path d="M81.0934 64.7052C82.1032 62.0769 82.6608 59.3204 82.9497 56.5209C83.294 57.5045 83.6525 58.4882 83.8695 59.514C83.5758 61.2316 83.1337 62.9418 82.5148 64.6163C81.5403 67.2659 80.0922 69.8366 78.369 72.0744C77.6528 72.9991 76.8021 74.0013 75.8178 74.6568C74.4086 75.5942 72.7948 76.3543 71.6747 77.6671C71.5754 77.78 71.3989 77.6736 71.4769 77.5394C72.7758 75.3007 75.3236 74.3163 76.9119 72.2975C78.6704 70.0527 80.0693 67.3758 81.0862 64.7264L81.0934 64.7052Z" fill="#67B7CD"/>
<path d="M91.4497 88.6563C88.2882 85.7361 86.8757 81.7238 85.8452 77.6415C85.3965 75.8727 84.9053 74.118 84.3576 72.3774C84.386 72.3209 84.4002 72.2643 84.4145 72.1936C84.5937 71.1263 84.6455 70.0728 84.6124 69.005C86.8256 75.5364 87.4745 82.7645 91.8606 88.2895C92.0863 88.5729 91.7037 88.8973 91.4497 88.6563Z" fill="#67B7CD"/>
<path d="M92.2868 16.1654C90.8965 18.1847 89.259 20.055 87.6925 21.784C84.2476 25.5948 80.3864 29.0017 76.7299 32.6C72.7545 36.5016 69.1037 40.7151 66.1094 45.4179C64.4988 47.9529 63.2201 50.6513 61.9484 53.3709C60.8117 55.8008 59.9152 58.3445 58.2842 60.5047C58.2274 60.5752 58.1073 60.5255 58.1429 60.4336C60.0559 55.4386 61.8985 50.3302 64.5744 45.6762C67.2504 41.0222 70.7456 36.8367 74.4875 32.9982C78.0806 29.3078 81.9418 25.9009 85.5067 22.1822C87.3493 20.2629 89.0508 18.2302 90.6394 16.0982C91.3628 15.1239 92.0226 14.1001 92.6754 13.0691C92.56 14.1012 92.48 15.1405 92.2868 16.1654Z" fill="#67B7CD"/>
<path d="M86.5676 22.0431C86.4897 22.1208 86.4329 22.2055 86.4044 22.2903C85.2012 22.8109 83.984 23.2608 82.8376 23.6543C79.0589 24.9471 74.9491 25.6099 71.0408 24.7033C70.8924 24.6676 70.9494 24.4556 71.0908 24.4559C75.1357 24.3658 79.1248 23.9078 82.9673 22.5515C84.7011 21.9401 86.3716 21.1376 87.9857 20.2643C87.5601 20.8856 87.1274 21.514 86.5818 22.0432L86.5676 22.0431Z" fill="#67B7CD"/>
<path d="M71.3096 37.5874C69.8019 38.3266 68.2307 38.9595 66.6597 39.4935C63.6452 40.5335 60.5536 41.2409 57.6515 42.5922C54.9547 43.852 52.4689 45.5932 50.0045 47.2566C49.8912 47.327 49.7926 47.1571 49.8777 47.0724C53.839 43.1283 58.5884 40.9679 63.8318 39.2611C66.726 38.3128 69.5426 37.2583 72.2116 35.7721C72.7921 35.4481 73.3656 35.1029 73.9321 34.7364C73.0039 35.6324 72.1885 36.6277 71.3238 37.5874L71.3096 37.5874Z" fill="#67B7CD"/>
<path d="M76.1643 32.5563C76.7452 32.0485 77.2837 31.5547 77.7234 30.9617C77.5236 35.0412 76.1287 39.1253 74.459 42.7774C72.9101 46.1681 70.9982 50.6541 67.5436 52.4568C67.3949 52.5342 67.254 52.3218 67.3744 52.216C70.3924 49.6063 72.1337 45.53 73.6124 41.927C74.8707 38.8538 75.5492 35.737 76.1572 32.5634L76.1643 32.5563Z" fill="#67B7CD"/>
<path d="M102.195 44.8108C100.333 42.2894 99.2862 39.2819 98.1258 36.4015C96.7122 32.8699 95.9842 29.4742 95.5824 25.6974C95.1458 21.6023 94.9851 17.4724 94.4708 13.3842C94.2692 11.7786 93.9969 10.187 93.7246 8.59543C94.2649 7.29553 94.2397 5.86711 94.1296 4.4668C94.7173 7.33894 95.305 10.2111 95.7088 13.1253C96.2518 17.0155 96.3563 20.9756 96.7297 24.8796C97.103 28.7554 97.7601 32.2358 99.1805 35.8734C99.8345 37.5366 100.389 39.2702 101.121 40.8981C101.663 42.0943 102.615 43.3056 102.598 44.6632C102.597 44.8612 102.307 44.9808 102.18 44.8108L102.195 44.8108Z" fill="#67B7CD"/>
<path d="M95.8508 -9.83427C95.9197 -9.01388 96.0098 -8.20051 95.9161 -7.37339C95.9088 -7.26734 95.9157 -7.1754 95.9367 -7.09758C94.5734 -4.52668 92.9347 -2.10487 91.0066 0.0829524C87.3843 4.19749 81.9877 8.08894 76.4422 8.89708C76.3078 8.918 76.2163 8.71274 76.3578 8.65648C78.9484 7.48833 81.5173 6.53935 83.8896 4.93939C86.2194 3.36762 88.2954 1.44175 90.1103 -0.703895C91.8897 -2.80012 93.4009 -5.10907 94.7214 -7.5245C95.1332 -8.27313 95.4955 -9.04309 95.8508 -9.83427Z" fill="#67B7CD"/>
<path d="M99.7802 13.7705C99.7518 13.8412 99.6529 13.7985 99.6672 13.7278C101.038 7.62142 98.2567 2.29082 95.6095 -2.98999C95.5269 -4.02254 95.508 -5.04789 95.4749 -6.07327C99.2379 -0.139488 102.567 6.91765 99.7732 13.7634L99.7802 13.7705Z" fill="#67B7CD"/>
<path d="M108.136 30.922C104.097 28.41 100.687 25.9065 98.1364 21.8138C96.9948 19.987 96.1011 18.0122 95.2994 16.0164C95.2994 15.9881 95.3065 15.9669 95.3066 15.9387C95.2676 14.3829 95.1295 12.8411 94.8783 11.3132C95.3706 12.5305 95.7425 13.8536 96.2208 15.0285C97.0296 17.0172 97.9446 18.9567 99.0153 20.8258C100.093 22.702 101.426 24.409 102.971 25.9185C104.686 27.5981 106.684 28.9389 108.413 30.6044C108.589 30.7816 108.334 31.0497 108.136 30.922Z" fill="#67B7CD"/>
<path d="M91.6418 55.7126C91.5491 52.8132 90.9331 49.941 90.7132 47.0555C90.4931 44.1983 91.0013 41.3922 91.6579 38.6218C92.3787 35.604 93.3185 32.6362 94.1382 29.6469C94.965 26.6647 95.3534 23.6533 95.8691 20.6139C95.8971 20.7836 95.9179 20.9463 95.9458 21.1161C96.1759 22.6227 96.1655 24.143 96.4521 25.6356C96.2803 26.5969 96.0661 27.544 95.8378 28.4768C95.11 31.5017 94.0995 34.441 93.2444 37.4232C92.3823 40.4265 91.6827 43.4655 91.7041 46.591C91.7186 49.6528 92.101 52.6447 91.8256 55.713C91.8112 55.8261 91.6486 55.8186 91.6489 55.7055L91.6418 55.7126Z" fill="#67B7CD"/>
<path d="M57.4423 125.479C58.5541 127.956 56.4549 130.78 53.8667 130.873C52.5726 130.92 51.1947 130.443 50.4972 129.275C50.0111 128.461 49.752 127.308 50.0016 126.34C50.1377 125.541 50.5353 124.806 51.0811 124.178C52.9526 122.047 56.3867 123.129 57.4423 125.479Z" fill="#67B7CD"/>
<path d="M46.1505 112.168C47.1266 112.028 48.1367 112.533 48.729 113.269C49.399 114.098 49.262 115.279 48.857 116.19C48.0115 118.062 45.4648 118.566 43.9049 117.268C43.1426 116.63 43.0104 115.633 43.2528 114.728C43.3455 114.396 43.5587 113.916 43.8564 113.549C44.3531 112.786 45.2734 112.307 46.1505 112.182L46.1505 112.168Z" fill="#67B7CD"/>
<path d="M70.3291 114.243C71.3224 115.963 70.2343 118.811 68.338 119.358C67.0573 119.73 65.5596 119.133 65.0175 118.05C64.016 116.845 64.5012 114.838 65.4724 113.716C66.876 112.093 69.3006 112.445 70.3362 114.25L70.3291 114.243Z" fill="#67B7CD"/>
<path d="M77.8241 104.65C79.5803 103.508 81.4086 104.919 81.7653 106.695C82.1641 108.64 80.2153 110.609 78.2508 110.039C77.2685 109.747 76.4992 109.102 76.1902 108.125C76.0146 107.566 76.1155 106.732 76.5055 106.231C76.7543 105.602 77.2434 105.044 77.8241 104.664L77.8241 104.65Z" fill="#67B7CD"/>
<path d="M42.0866 101.566C44.8392 100.66 47.1387 103.267 47.1542 105.877C47.1829 108.924 43.475 110.147 41.1225 109.173C40.2535 108.81 39.5551 108.066 39.1681 107.21C39.1681 107.21 39.1539 107.21 39.154 107.196C37.9569 104.916 39.8506 102.297 42.0937 101.559L42.0866 101.566Z" fill="#67B7CD"/>
<path d="M50.8477 98.2904C49.4422 97.5449 48.656 94.9127 49.6772 93.5714C50.3305 92.3142 51.9091 91.4903 53.3584 91.6279C55.5924 91.8449 56.3438 94.2153 55.6327 96.0523C54.9002 97.9528 52.783 99.327 50.8407 98.2975L50.8477 98.2904Z" fill="#67B7CD"/>
<path d="M43.1704 90.948C41.7371 93.2076 38.7512 94.0779 36.4991 92.4396C34.9389 91.2977 34.6128 88.4332 35.9171 86.9936C36.705 85.6164 38.5307 84.9557 40.2205 85.0655C42.7657 85.2266 44.5115 88.8508 43.1775 90.9551L43.1704 90.948Z" fill="#67B7CD"/>
<path d="M73.5345 93.8215C73.7204 92.8603 74.3377 91.9212 75.1451 91.329C77.1494 89.8555 80.0668 91.2266 80.6275 93.5047C81.3003 96.2497 78.7712 98.4292 76.17 97.9992C74.4311 97.7126 72.7814 95.4462 73.5415 93.8286L73.5345 93.8215Z" fill="#67B7CD"/>
<path d="M91.3215 92.3259C89.6526 92.3506 87.3577 90.9101 87.4959 89.1356C87.1597 87.6782 87.7997 86.0108 89.2653 85.1443C91.5876 83.7634 94.4283 84.6606 95.2712 87.2363C96.079 89.6917 93.754 92.2888 91.3215 92.3259Z" fill="#67B7CD"/>
<path d="M69.5939 81.7426C68.3015 81.0397 67.5048 79.942 67.4373 78.4569C67.4102 77.9336 67.5251 77.1136 67.8307 76.4425C68.1648 75.6159 68.7392 74.8747 69.4613 74.4662C72.3074 72.8743 75.3863 74.7478 75.6057 77.902C75.7975 80.7025 72.0094 83.0489 69.5869 81.7355L69.5939 81.7426Z" fill="#67B7CD"/>
<path d="M56.9526 55.0004C59.5425 54.1717 62.4023 55.9811 62.8774 58.6267C63.1779 60.2466 62.1845 61.8142 61.1144 62.9079C60.0442 64.0157 58.2127 64.0754 56.8062 63.7682C54.4032 63.2397 52.7776 59.6794 54.1891 57.6673C54.6514 56.4591 55.6153 55.4288 56.9385 55.0004L56.9526 55.0004Z" fill="#67B7CD"/>
<path d="M66.9154 55.1848C65.0924 54.601 64.0512 52.1663 64.9034 50.4852C65.2729 49.6233 66.0312 48.8825 67.022 48.4604C69.5276 47.377 71.7365 49.3688 71.8654 51.8651C71.9941 54.4464 69.0848 55.8754 66.9225 55.1919L66.9154 55.1848Z" fill="#67B7CD"/>
<path d="M48.8801 50.5775C47.7641 50.0235 46.9882 49.1309 46.6158 48.0199C46.2147 47.1493 46.2167 46.2301 46.4943 45.3751C46.6299 44.8026 46.8928 44.2587 47.2825 43.8848C47.9775 42.9671 48.9902 42.2409 50.094 41.9181C53.0799 41.0336 55.7678 43.8609 55.7688 46.6681C55.7617 49.9349 51.5995 51.9199 48.8801 50.5775Z" fill="#67B7CD"/>
<path d="M90.547 58.4255C88.6739 58.0608 87.2093 55.2574 88.4782 53.7965C88.7624 53.1607 89.2444 52.6385 89.8888 52.2086C92.0557 50.7708 94.8379 52.5163 95.1509 54.8858C95.4987 57.5312 92.7875 58.8758 90.5328 58.4254L90.547 58.4255Z" fill="#67B7CD"/>
<path d="M107.507 43.6839C106.8 46.9422 103.62 49.3606 100.335 48.0311C98.8512 47.4339 97.652 46.1161 97.1108 44.6229C97.0616 44.5026 97.0265 44.3682 96.9915 44.2337C96.1062 41.6014 98.2634 38.1695 101.065 37.709C104.481 37.1437 108.279 40.0935 107.493 43.6839L107.507 43.6839Z" fill="#67B7CD"/>
<path d="M70.1323 29.4602C68.1264 28.4234 67.1787 25.2747 68.5968 23.4817C69.2357 22.3518 70.4114 21.4775 71.8049 21.2331C74.4859 20.7652 76.8705 23.2453 76.8083 25.8048C76.738 28.8948 72.7316 30.7952 70.1324 29.446L70.1323 29.4602Z" fill="#67B7CD"/>
<path d="M73.6413 12.5043C72.2368 11.2921 71.4792 8.49027 72.5434 6.89453C72.6358 6.67552 72.7494 6.4495 72.8984 6.21648C73.6221 5.08668 75.3355 4.08633 76.7071 4.18832C79.6341 4.3927 82.4269 7.72221 80.8649 10.6462C79.5585 13.09 75.9068 14.4679 73.6484 12.4972L73.6413 12.5043Z" fill="#67B7CD"/>
<path d="M100.826 17.4993C99.2348 17.4887 98.0481 16.9346 97.1388 15.6103C96.73 15.0154 96.5332 14.4493 96.4638 13.8693C95.8595 12.1285 96.8327 10.1013 98.7437 9.27105C100.938 8.31417 103.749 9.64967 104.756 11.6813C106.037 14.2579 103.576 17.5265 100.826 17.4993Z" fill="#67B7CD"/>
<path d="M107.003 35.2258C105.469 34.8477 104.12 34.0033 103.289 32.6438C102.845 31.9146 102.783 30.9881 102.835 30.1609C102.849 29.8498 102.928 29.5742 103.041 29.3199C103.377 28.0125 104.581 26.8979 105.742 26.3913C108.46 25.1951 111.729 27.1751 112.438 29.8849C113.23 32.906 109.921 35.9464 107.01 35.2329L107.003 35.2258Z" fill="#67B7CD"/>
</g>
</g>
<defs>
<clipPath id="clip0_68_23">
<rect width="89.13" height="232.38" fill="white" transform="translate(88.9999 -22.947) rotate(-27.4257)"/>
</clipPath>
<clipPath id="clip1_68_23">
<rect width="78.77" height="132.78" fill="white" transform="translate(94.0944 -15) rotate(45.1251)"/>
</clipPath>
</defs>
</svg>
