<?xml version="1.0" encoding="UTF-8"?>
<svg id="Capa_2" xmlns="http://www.w3.org/2000/svg" viewBox="0 0 49.81 78.04">
  <defs>
    <style>
      .cls-1 {
        fill: #0e2025;
      }
    </style>
  </defs>
  <g id="OBJECTS">
    <g>
      <path class="cls-1" d="M25.78,13.96c-.73-1.32-1.52-2.61-2.34-3.87-1.01-1.55-3.14-5.72-4.98-6.31-1.03-.33-3.21.69-4.08,1.08-1.7.76-3.02,1.92-3.95,3.53-2.15,3.7-3.74,7.89-5.48,11.79C3.16,24.14,1.2,28.18.02,32.38c-.02.07-.04.2.03.26,1.34,1.17,2.86,1.98,4.59,2.41.22.05.52-.19.61-.37,3.34-6.33,6.6-12.73,10.16-18.93-.27.04-.54.08-.81.13-1.95,9.21-4.01,18.6-4.72,28,0,.13.07.23.2.24,3.62.25,7.34-.13,9.92-2.76,1.61-1.64,4.89-3.85,5.45-6.09.32-1.29.05-3.06.08-4.38.04-2.32.08-4.63.12-6.95.06-3.27.12-6.54.17-9.81,0-.53-.87-.06-.88.33-.06,3.48-.12,6.96-.18,10.44-.04,2.45-.09,4.9-.13,7.35-.02,1.02.29,2.73-.07,3.7.19-.52-.74.62-.97.85-.87.89-1.74,1.78-2.61,2.66-2.25,2.3-3.14,3.29-6.58,3.72-.81.1-3.36.52-3.68-.02-.33-.55.4-3.24.49-3.93.41-3.16.94-6.3,1.5-9.43.84-4.76,1.76-9.52,2.76-14.25.1-.5-.71-.06-.81.13-2.61,4.54-5.01,9.21-7.47,13.84-.44.82-1.74,4.58-2.61,4.93.07-.03-3.45-1.72-3.66-2.38-.2-.64.89-2.66,1.1-3.23,2.49-6.45,5.35-12.9,8.47-19.07,1.27-2.52,2.9-4,5.65-4.83,1.58-.48,1.59-.52,2.63.63.58.64,1.12,1.32,1.65,2,1.7,2.22,3.21,4.6,4.56,7.04.19.35,1-.28.79-.66Z"/>
      <path class="cls-1" d="M17.66,4.49c-.46,2.34-.87,4.91-.61,7.31.33,2.98,1.9,2.55,4.66,2.39-.03-.21-.06-.42-.09-.63-1.32,1.71-2.17,3.17-1.51,5.2,1.03,3.2,2.3,6.71,4.75,9.1.29.28.94-.51.63-.81-1.94-1.89-3.03-4.53-3.97-7.02-.94-2.51-1.2-3.79.58-6.09.13-.17.29-.65-.09-.63-.76.04-3.1.44-3.7-.12-.77-.72-.52-3.31-.48-4.15.08-1.62.3-3.25.62-4.84.12-.58-.71-.07-.79.3h0Z"/>
      <path class="cls-1" d="M25.5,14.54c1.58-2.59,3.34-5.14,5.34-7.42,1.47-1.68,1.74-2.41,3.83-1.69,2.64.92,4.3,2.23,5.5,4.79,2.87,6.16,5.35,12.65,7.6,19.05.37,1.06,1.31,2.76,1.24,3.91.37-.27.37-.27,0,.01-.33.24-.66.46-1.01.67.09-.05-2.48,1.34-2.76,1.24-.74-.27-1.87-3.92-2.21-4.62-2.35-4.91-4.64-9.86-7.15-14.68-.25-.49-.72.3-.67.59,1.27,7.55,2.43,15.15,3.18,22.78.1,1.01.13,2.05.26,3.06-.01-.1.2,1.6.29,1.41-.15.33.17-.02-.45.19-1.85.64-6.02-.64-7.43-1.78-2.24-1.81-4.07-4.51-6.01-6.66-.31-.34-.82.54-.55.84,1.88,2.08,3.66,4.34,5.67,6.28,2.14,2.07,5.94,2.37,8.83,2.29.27,0,.48-.38.47-.62-.32-9.46-1.99-18.96-3.56-28.28-.22.2-.45.39-.67.59,3.31,6.35,6.3,12.87,9.37,19.33.06.13.16.15.29.13,1.71-.35,3.26-1.1,4.61-2.19.18-.15.34-.43.29-.67-.92-3.88-2.51-7.64-3.97-11.34-1.66-4.22-3.23-8.57-5.21-12.66-1.18-2.45-5.26-6.13-8.05-4.75-1.86.92-3.6,3.96-4.79,5.62-.96,1.33-1.88,2.7-2.73,4.1-.27.45.1,1.08.46.49h0Z"/>
      <path class="cls-1" d="M32.59,5.39c.22,1.3.36,2.62.41,3.94.03.97.3,2.81-.29,3.65-.73,1.03-2.21.62-3.63.48-.28-.03-.87.43-.64.75,1.26,1.78,1.78,2.94,1.02,4.91-1.08,2.83-2.36,5.97-4.65,8.03-.39.35-.24,1.05.27.59,2.37-2.13,3.75-5.22,4.91-8.14,1-2.51.94-3.6-.79-6.04-.21.25-.43.5-.64.75,2.07.2,4.19.85,4.93-1.43.8-2.44.33-5.49-.08-7.97-.09-.52-.88.09-.81.47h0Z"/>
      <path class="cls-1" d="M33.05,21.77c-1.11-.02-2.04-.14-2.4-.19-.18-.03-.33-.13-.41-.28-.28-.53-.14-1.19-.03-1.54h0c.07-.23.28-.38.52-.39,2.76-.07,3.88.05,4.29.12.2.03.36.17.43.36.21.58.17,1.11.12,1.38-.04.24-.23.43-.48.46-.69.09-1.4.11-2.05.09ZM30.78,19.97c-.07.23-.17.71,0,1.03.51.04,2.42.28,4.19.07.03-.22.05-.61-.1-1.03-.27-.02-1.31-.14-4.09-.08ZM30.5,19.84h0s0,0,0,0Z"/>
      <path class="cls-1" d="M34.93,20.14c-.14,0-.27-.11-.29-.25-.15-.87-.7-1.66-.99-2.02-.97.77-2.64,2.05-2.64,2.05l-.37-.48s1.77-1.36,2.72-2.12c.21-.17.52-.14.69.07.29.35,1,1.3,1.19,2.39.03.17-.08.32-.25.35-.02,0-.04,0-.06,0Z"/>
      <path class="cls-1" d="M11.92,44.12c.88,10.88,1.39,21.95,3.09,32.74.02.06.05.1.1.12,2.34.61,4.72.66,7.1.26.25-.04.55-.3.57-.57.81-9.55,1.61-19.1,2.42-28.66-.29.12-.58.23-.87.35.55,9.61,1.1,19.23,1.65,28.84,0,.07.02.18.11.21,2.52.74,5.18.88,7.72.17.25-.07.55-.28.57-.57,1.01-11.04,2.02-22.08,3.02-33.12.05-.5-.83-.02-.87.35-.87,9.51-1.74,19.02-2.6,28.52-.08.9.16,3.67-.4,4.41-.43.56-6.34.03-6.7-.67-.61-1.18-.23-3.95-.3-5.25-.17-3.04-.35-6.08-.52-9.12-.27-4.7-.54-9.41-.81-14.11-.03-.54-.84,0-.87.35-.71,8.39-1.42,16.79-2.13,25.18-.04.53.11,3.02-.29,3.43.01-.01-5.1-.16-5.76-.66-.61-.47-.54-1.7-.63-2.45-.68-5.65-1.15-11.33-1.64-17-.39-4.42-.76-8.84-1.12-13.27-.03-.4-.89.13-.85.52h0Z"/>
      <path class="cls-1" d="M13.88,43.85c.39,2.74.71,5.49,1.02,8.24.31,2.75.57,5.5.85,8.25.24,2.76.5,5.51.71,8.27l.3,4.14c.08,1.38.18,2.76.24,4.15-.2-1.37-.36-2.74-.54-4.12l-.48-4.12c-.31-2.75-.57-5.5-.85-8.26-.23-2.76-.5-5.51-.71-8.27-.21-2.76-.41-5.52-.54-8.28Z"/>
      <path class="cls-1" d="M35.04,44.43c-.07,2.77-.22,5.53-.37,8.28-.15,2.76-.36,5.51-.54,8.27-.23,2.75-.43,5.51-.68,8.26l-.39,4.13c-.15,1.37-.29,2.75-.46,4.12.03-1.38.1-2.76.15-4.14l.22-4.14c.15-2.76.36-5.51.54-8.27.23-2.75.43-5.51.68-8.26.25-2.75.52-5.5.85-8.25Z"/>
      <path class="cls-1" d="M22.94.24C22.66.11,22.36,0,22.05,0c-.31,0-.64.13-.81.39-.24.36-.14.84-.21,1.27-.07.41-.31.78-.35,1.19-.05.5.22,1.02.65,1.27.34.19.76.22,1.14.16.39-.06,2.67-.99,2.83-1.06.33-.13.42-.12.27-.45-.1-.23-.24-.44-.39-.65-.56-.81-1.34-1.48-2.24-1.89Z"/>
      <path class="cls-1" d="M28.47.35c.29-.12.59-.21.91-.2.31.01.63.15.8.42.23.37.1.85.16,1.28.05.41.27.79.3,1.21.03.5-.26,1.01-.7,1.24-.35.18-.76.19-1.15.11s-2.63-1.1-2.79-1.17c-.32-.15-.42-.13-.25-.46.11-.22.26-.43.41-.63.59-.79,1.4-1.42,2.31-1.8Z"/>
      <path class="cls-1" d="M24.93,1.83s-.36.76,0,1.55c0,0,.75.52,1.52.05,0,0,.36-.69.03-1.64,0,0-.68-.45-1.55.04Z"/>
      <path class="cls-1" d="M26.7,28.8c.61.01.63-.94.02-.95-.61-.01-.63.94-.02.95h0Z"/>
      <path class="cls-1" d="M26.75,31.33c.61.01.63-.94.02-.95-.61-.01-.63.94-.02.95h0Z"/>
      <path class="cls-1" d="M26.9,34.07c.61.01.63-.94.02-.95-.61-.01-.63.94-.02.95h0Z"/>
      <path class="cls-1" d="M34.41,42.86c.61.01.63-.94.02-.95-.61-.01-.63.94-.02.95h0Z"/>
      <path class="cls-1" d="M45.44,33.93c.61.01.63-.94.02-.95-.61-.01-.63.94-.02.95h0Z"/>
      <path class="cls-1" d="M4.6,33.19c.61.01.63-.94.02-.95-.61-.01-.63.94-.02.95h0Z"/>
      <path class="cls-1" d="M15.4,45.53c.61.01.63-.94.02-.95-.61-.01-.63.94-.02.95h0Z"/>
      <path class="cls-1" d="M31.4,76.6c.61.01.63-.94.02-.95-.61-.01-.63.94-.02.95h0Z"/>
      <g>
        <line class="cls-1" x1="24.79" y1="36.26" x2="24.74" y2="38.78"/>
        <line class="cls-1" x1="23.86" y1="36.98" x2="23.81" y2="39.5"/>
        <line class="cls-1" x1="22.93" y1="38.03" x2="22.88" y2="40.22"/>
        <line class="cls-1" x1="22" y1="38.74" x2="21.95" y2="40.94"/>
        <line class="cls-1" x1="21.06" y1="39.89" x2="21.03" y2="41.66"/>
        <line class="cls-1" x1="20.13" y1="40.8" x2="20.1" y2="42.37"/>
        <line class="cls-1" x1="19.2" y1="41.82" x2="19.17" y2="43.09"/>
        <line class="cls-1" x1="18.27" y1="42.55" x2="18.24" y2="43.81"/>
        <line class="cls-1" x1="17.35" y1="42.95" x2="17.32" y2="44.53"/>
        <line class="cls-1" x1="16.43" y1="43.35" x2="16.39" y2="45.25"/>
      </g>
      <g>
        <line class="cls-1" x1="25.65" y1="36.56" x2="25.6" y2="38.8"/>
        <line class="cls-1" x1="26.54" y1="37.56" x2="26.5" y2="39.56"/>
        <line class="cls-1" x1="27.43" y1="38.73" x2="27.4" y2="40.31"/>
        <line class="cls-1" x1="28.35" y1="39.84" x2="28.29" y2="41.07"/>
        <line class="cls-1" x1="29.21" y1="40.81" x2="29.19" y2="41.82"/>
        <line class="cls-1" x1="30.11" y1="41.72" x2="30.09" y2="42.58"/>
        <line class="cls-1" x1="31" y1="42.51" x2="30.99" y2="43.34"/>
        <line class="cls-1" x1="31.91" y1="42.83" x2="31.88" y2="44.09"/>
        <line class="cls-1" x1="32.81" y1="43.27" x2="32.78" y2="44.85"/>
        <line class="cls-1" x1="33.72" y1="43.71" x2="33.68" y2="45.6"/>
      </g>
    </g>
  </g>
</svg>