<svg width="185" height="65" viewBox="0 0 185 65" fill="none" xmlns="http://www.w3.org/2000/svg">
<g clip-path="url(#clip0_25_189)">
<path opacity="0.08" d="M0.717891 4.29209C0.717891 4.29209 0.696766 4.39772 0.760143 4.41884C0.781268 4.41884 0.802394 4.41885 0.823519 4.42941C0.834082 4.45053 0.844645 4.47166 0.876333 4.49278C3.22127 5.7075 5.68241 6.58422 7.95341 7.93626C10.1082 9.22492 12.1257 10.7882 14.1115 12.3304C16.1396 13.9148 18.0409 15.6577 20.0901 17.2104C22.0019 18.6681 23.9349 20.094 25.8468 21.5411C25.8996 21.5834 25.963 21.6045 26.0264 21.6151C26.0475 21.6256 26.0686 21.6468 26.1003 21.6468C27.5685 21.8791 29.248 21.2559 30.7057 21.0552C32.3746 20.8334 34.0541 20.7701 35.7124 20.4637C37.2863 20.1785 38.8496 19.6715 40.3178 18.9744C39.3672 19.7772 38.3637 20.5271 37.2018 21.1292C36.0505 21.7313 34.8252 22.2383 33.621 22.7242C32.3535 23.2417 30.8536 23.5903 29.7762 24.4459C29.5649 24.6149 29.7022 24.9529 29.9663 24.9318C29.9874 24.9318 30.0085 24.9318 30.0297 24.9212C35.5329 28.5548 40.9833 32.2941 46.402 36.065C49.2223 38.0191 52.0531 39.9415 54.979 41.7372C56.2782 42.5294 57.5986 43.2794 58.94 44.0082C60.3449 44.7582 61.9399 45.6666 63.5243 45.9306C63.6299 45.9412 63.7039 45.9095 63.7778 45.8567C65.5524 46.0046 67.6966 45.0434 69.281 44.5469C71.795 43.7653 74.2561 42.9625 76.6539 41.8851C78.6925 40.9767 80.7417 39.8148 82.6324 38.4627C81.3966 39.8993 80.1079 41.283 78.5974 42.5083C75.3546 45.149 71.6788 46.7123 67.8128 48.1699C67.5487 48.2756 67.6755 48.6453 67.9395 48.6347C67.9607 48.6347 67.9924 48.6347 68.0135 48.6347C69.5345 49.7438 71.3936 50.4304 73.1048 51.1803C75.0272 52.0254 76.9707 52.807 78.9354 53.5675C80.8895 54.3175 82.8754 55.0146 84.8717 55.6484C86.6568 56.2188 88.6426 56.9793 90.5334 57.011C91.2094 57.1378 91.9382 56.9582 92.6037 56.8103C93.6917 56.5674 94.7691 56.2822 95.8359 55.9864C98.2759 55.3104 100.631 54.402 102.902 53.2929C105.913 51.8247 108.575 50.1029 110.994 47.9693C111.015 47.9693 111.025 47.9798 111.046 47.9904C110.898 48.1594 110.751 48.339 110.603 48.508C109.325 49.9022 107.846 51.117 106.356 52.3C104.909 53.4513 103.378 54.4548 101.793 55.3949C100.948 55.8914 100.082 56.335 99.1949 56.7575C98.4872 57.0849 97.7055 57.254 97.2091 57.8772C97.1351 57.9722 97.1879 58.0884 97.2936 58.1412C97.3041 58.1624 97.3253 58.194 97.3464 58.2046C98.6245 58.9123 99.9976 59.0496 101.413 59.3031C103.04 59.5989 104.666 60.0531 106.283 60.3911C109.737 61.1094 113.212 61.7643 116.697 62.3452C123.753 63.5388 130.873 63.824 138.003 64.1409C144.657 64.4367 151.164 64.743 157.808 64.0564C161.008 63.7184 164.209 63.2853 167.335 62.5353C168.804 62.1868 170.251 61.7431 171.677 61.2256C172.501 60.9298 173.251 60.4439 174.022 60.0214C176.8 59.7573 179.43 59.3982 181.637 58.9651C182.007 58.944 182.387 58.9123 182.747 58.8278C183.602 58.6377 183.898 57.6342 184.194 56.9265C184.405 56.4089 184.806 55.4371 184.162 55.0569C183.835 54.8668 183.465 55.0569 183.159 55.1942C183.148 55.1942 183.127 55.1942 183.116 55.2048C180.307 55.4688 175.627 56.1977 171.846 56.6413C170.483 56.3244 169.099 56.2505 167.705 56.0709C166.152 55.8702 164.6 55.6062 163.068 55.2893C159.899 54.6344 156.741 53.821 153.657 52.8598C150.53 51.888 147.488 50.6522 144.478 49.3847C143.073 48.7932 141.668 48.2016 140.284 47.5784C139.228 47.1031 138.045 46.8285 136.999 46.332C136.925 46.2581 136.862 46.1736 136.777 46.1208C136.534 45.9729 136.249 46.163 136.334 46.4482C136.809 48.0538 136.503 49.7016 136.07 51.3282C135.573 48.4763 134.464 45.5926 132.51 43.6068C132.499 43.4484 132.415 43.2899 132.225 43.1843C128.243 41.0717 124.609 38.2198 120.891 35.6847C116.93 32.9806 112.99 30.2343 109.082 27.4669C105.321 24.805 101.55 22.2277 97.6316 19.7983C93.9029 17.485 90.2904 14.8971 86.1181 13.5028C86.1181 13.4712 86.1076 13.45 86.097 13.4183C85.8752 12.9113 85.1147 13.2176 85.3048 13.7352C85.685 14.8338 85.0513 16.7773 84.8506 17.8653C84.5443 19.5553 84.1429 21.2454 83.6992 22.9037C83.5725 23.3791 83.4246 23.8438 83.2767 24.3086C83.3824 23.115 83.4457 21.9214 83.4563 20.7595C83.488 18.9004 83.3718 17.0519 83.1289 15.214C82.9493 13.8409 82.7275 12.2036 81.8402 11.084C81.8296 11.0523 81.8402 11.0312 81.8085 10.9995C81.7451 10.9361 81.6817 10.8727 81.6184 10.8093C81.6078 10.7882 81.5867 10.7776 81.5761 10.7565C81.5761 10.7565 81.5656 10.7565 81.555 10.7565C80.2663 9.52067 78.1749 8.97141 76.5482 8.4327C74.7631 7.84118 72.9463 7.32361 71.1189 6.89053C71.0556 6.81659 70.9922 6.74266 70.9183 6.66872C70.7281 6.47859 70.4324 6.74265 70.5169 6.96447C70.538 7.01729 70.5591 7.05954 70.5803 7.11235C70.5697 7.21798 70.5802 7.32361 70.6753 7.39755C70.6859 7.40811 70.707 7.41868 70.7176 7.42924C71.3513 8.90803 72.0696 10.3129 72.5238 11.8762C73.1153 13.9042 73.3794 16.0379 73.6012 18.1399C73.8125 20.1468 73.9709 22.1643 73.9287 24.1818C73.7702 22.0376 73.3371 19.925 72.7984 17.8547C72.1858 15.5203 71.3408 13.2282 70.3056 11.0523C69.8197 10.0277 69.2705 9.03478 68.6895 8.063C68.2776 7.37642 67.6755 6.78491 67.253 6.09832C67.3269 5.86594 67.253 5.60187 66.9678 5.49625C66.9466 5.49625 66.9361 5.49625 66.9255 5.48568C66.841 5.38006 66.7037 5.34837 66.5769 5.36949C60.3343 3.27806 53.6798 2.21122 47.1625 1.37676C43.719 0.933119 40.2544 0.626799 36.7899 0.447234C33.7372 0.299353 30.7374 0.98593 27.6953 1.05987C27.6002 1.05987 27.5474 1.10213 27.5051 1.1655C27.3573 1.20775 27.2516 1.37676 27.315 1.54576C27.558 2.16897 28.0016 2.67598 28.3819 3.22525C28.9417 4.03858 29.3325 4.95754 29.66 5.88707C30.093 7.0701 30.2832 8.29539 30.4733 9.52067C29.7128 8.04188 28.6776 6.70041 27.558 5.51737C26.7341 4.64066 25.8151 3.84845 24.8644 3.10906C24.0089 2.43304 23.2589 1.99996 22.3399 1.59857C22.3188 1.47182 22.2238 1.34507 22.0547 1.31338C20.4386 1.01762 18.6218 1.51408 17.0057 1.71477C15.0833 1.95771 13.1503 2.19009 11.2173 2.33797C9.45333 2.47529 7.68934 2.80273 5.91479 2.95061C4.19305 3.09849 2.51357 3.7217 0.791831 3.94352C0.633389 3.96464 0.622826 4.1759 0.74958 4.22871L0.717891 4.29209Z" fill="url(#paint0_linear_25_189)"/>
<g opacity="0.32">
<path d="M182.799 58.0461C179.05 58.2468 170.346 59.6306 166.596 59.6306C162.698 59.6306 158.79 59.3348 154.924 58.8595C147.044 57.8877 139.281 55.9758 131.665 53.7682C116.095 49.2368 101.117 42.9097 86.4667 36.0227C79.548 32.7799 72.7667 29.2625 65.8692 25.9881C58.7816 22.6291 51.4932 19.7138 44.2049 16.8195C40.6347 15.4041 37.0645 13.9782 33.5154 12.5099C29.8817 11.01 26.3115 9.48897 22.5406 8.39044C15.4741 6.33069 8.09069 5.15822 0.7918 4.27094C0.696735 4.27094 0.686172 4.3977 0.770675 4.41882C8.61883 6.47857 16.7099 7.47147 24.4419 10.0171C28.3501 11.3058 32.0894 13.0592 35.8814 14.6225C39.7368 16.2069 43.6134 17.7596 47.4688 19.3335C55.1797 22.4706 62.8166 25.7451 70.2528 29.4843C77.4988 33.1179 84.7766 36.667 92.1495 40.0366C106.04 46.3848 120.31 51.9725 135.045 55.997C142.111 57.9194 149.273 59.4932 156.561 60.2855C163.543 61.046 175.976 60.296 182.873 58.7433C183.306 58.6482 183.243 58.0356 182.789 58.0567L182.799 58.0461Z" fill="url(#paint1_linear_25_189)"/>
<path d="M183.813 55.1837C180.064 55.4478 171.392 56.9688 167.631 57.0427C163.734 57.1061 159.825 56.8737 155.949 56.4618C148.058 55.6168 140.263 53.8316 132.616 51.7402C116.983 47.4623 101.878 40.3746 87.111 33.7306C80.1501 30.5935 73.3054 27.1923 66.3551 24.034C59.2146 20.7912 51.8735 17.9921 44.5429 15.2141C40.9516 13.8515 37.3602 12.4888 33.79 11.0734C30.1353 9.62633 25.1602 8.0736 21.3681 7.02788C14.2699 5.08433 8.27027 5.12658 0.950248 4.36606C0.855183 4.36606 0.84462 4.49281 0.929122 4.51394C8.81953 6.44693 15.96 6.32017 23.7342 8.73906C27.6636 9.95378 32.364 11.6438 36.1877 13.1437C40.0643 14.6648 43.962 16.1541 47.8596 17.6646C55.6233 20.675 63.3024 23.8333 70.8126 27.4458C78.1115 30.9632 85.4632 34.3961 92.8783 37.6494C106.863 43.7653 121.239 50.1347 136.048 53.9162C143.136 55.7224 150.329 57.1801 157.628 57.8561C164.621 58.5004 177.043 57.5498 183.919 55.8808C184.352 55.7752 184.278 55.1626 183.824 55.1942L183.813 55.1837Z" fill="url(#paint2_linear_25_189)"/>
<path d="M183.159 55.2259C182.81 55.3844 182.377 55.3632 182.007 55.4689C181.595 55.585 181.183 55.7329 180.782 55.8808C180.634 55.9336 180.708 56.1343 180.845 56.1238C181.68 56.1238 182.525 56.1238 183.359 55.9864C183.623 55.9442 183.623 55.7012 183.475 56.2083C183.38 56.5146 183.254 56.8103 183.127 57.1061C182.821 57.8138 182.567 58.1096 181.775 58.2152C180.866 58.3419 179.905 58.5638 179.028 58.8173C178.933 58.8384 178.933 58.9863 179.028 59.018C179.652 59.2398 180.243 59.1447 180.898 59.0602C181.511 58.9757 182.144 58.9968 182.747 58.8595C183.602 58.6694 183.898 57.6659 184.194 56.9582C184.405 56.4406 184.806 55.4689 184.162 55.0886C183.835 54.8985 183.465 55.0886 183.159 55.2259Z" fill="url(#paint3_linear_25_189)"/>
<path d="M0.992486 4.20748C0.802355 4.1441 0.686164 4.40817 0.865732 4.50324C3.21067 5.71796 5.67181 6.59467 7.94281 7.94671C10.0976 9.23537 12.1151 10.7987 14.1009 12.3408C16.129 13.9253 18.0303 15.6681 20.0795 17.2208C21.9913 18.6785 23.9243 20.1045 25.8362 21.5516C26.1953 21.8262 26.7129 21.3615 26.4171 20.9918C24.9912 19.1433 23.0793 17.9074 21.1991 16.5343C19.0021 14.9287 16.974 13.1014 14.8298 11.4324C12.8017 9.86914 10.7208 8.30585 8.5132 7.01719C6.11544 5.60177 3.62262 5.05251 1.00305 4.21804L0.992486 4.20748Z" fill="url(#paint4_linear_25_189)"/>
<path d="M22.0124 1.37666C20.3963 1.0809 18.5795 1.57735 16.9634 1.77804C15.041 2.02099 13.108 2.25337 11.175 2.40125C9.41101 2.53857 7.64703 2.86601 5.87248 3.01389C4.15074 3.16177 2.47126 3.78498 0.749519 4.00679C0.580514 4.02792 0.569951 4.29199 0.749519 4.31312C2.23887 4.42931 3.66485 4.15467 5.14364 3.98567C7.02382 3.76385 8.93569 3.74273 10.8264 3.56316C12.7594 3.37303 14.703 3.32021 16.636 3.08783C18.3894 2.87658 20.502 2.87657 22.0969 2.08436C22.4244 1.92592 22.3821 1.46116 22.0124 1.39778L22.0124 1.37666Z" fill="url(#paint5_linear_25_189)"/>
<path d="M29.9556 24.562C29.8183 24.5304 29.7232 24.7416 29.8394 24.8261C35.406 28.502 40.9198 32.2835 46.3913 36.0966C49.2116 38.0507 52.0424 39.9732 54.9683 41.7688C56.2675 42.5611 57.5879 43.311 58.9294 44.0398C60.3342 44.7898 61.9292 45.6982 63.5136 45.9623C63.8622 46.0151 64.0629 45.5503 63.7883 45.3285C62.6158 44.4201 61.137 43.8603 59.8378 43.1526C58.1689 42.2442 56.5211 41.3041 54.8944 40.3006C51.9896 38.4944 49.1693 36.5297 46.3491 34.5861C43.5499 32.6532 40.7297 30.773 37.8777 28.9139C35.3532 27.2556 32.9238 25.3226 29.9451 24.562L29.9556 24.562Z" fill="url(#paint6_linear_25_189)"/>
<path d="M85.3365 54.5921C83.3295 53.9794 81.3437 53.2823 79.379 52.5534C77.4038 51.8246 75.4602 51.043 73.5167 50.2613C71.721 49.543 69.8725 48.6241 67.9501 48.3178C67.8233 48.2966 67.7494 48.4762 67.855 48.5501C69.3972 49.7332 71.3408 50.4303 73.1153 51.212C75.0377 52.057 76.9813 52.8386 78.946 53.5992C80.9001 54.3491 82.8859 55.0463 84.8823 55.68C86.7413 56.2715 88.8222 57.0954 90.7974 57.0426C91.2094 57.0321 91.1988 56.4828 90.9031 56.3244C89.2236 55.4371 87.1638 55.1413 85.3576 54.5921L85.3365 54.5921Z" fill="url(#paint7_linear_25_189)"/>
<path d="M172.67 59.5777C172.469 59.6728 172.268 59.7678 172.057 59.8629C170.515 60.5389 168.825 60.9825 167.188 61.3734C164.061 62.1233 160.85 62.5036 157.649 62.831C150.974 63.4965 144.414 63.1374 137.728 62.831C130.735 62.5036 123.796 62.1656 116.877 61.0248C113.55 60.4755 110.233 59.8418 106.906 59.3136C105.247 59.0496 103.599 58.7644 101.941 58.4897C100.441 58.2362 98.899 58.2785 97.4202 57.9299C97.2407 57.8877 97.1879 58.1517 97.3357 58.2362C98.6138 58.9439 99.987 59.0812 101.402 59.3348C103.029 59.6305 104.656 60.0847 106.272 60.4227C109.726 61.141 113.201 61.7959 116.687 62.3768C123.743 63.5704 130.862 63.8556 137.992 64.1725C144.647 64.4683 151.153 64.7746 157.797 64.088C160.998 63.75 164.198 63.3169 167.325 62.567C168.793 62.2184 170.24 61.7748 171.666 61.2572C172.986 60.7819 174.106 59.8206 175.437 59.4193C175.479 59.4087 175.511 59.3876 175.543 59.3664C174.592 59.5883 173.631 59.7361 172.659 59.5777L172.67 59.5777Z" fill="url(#paint8_linear_25_189)"/>
<path d="M47.1308 1.45063C43.6873 1.00699 40.2227 0.700671 36.7581 0.521103C33.7055 0.373224 30.7056 1.0598 27.6635 1.13374C27.3361 1.13374 27.3678 1.6302 27.6635 1.68301C30.6317 2.23228 33.5998 1.60907 36.5891 1.75695C40.0537 1.93652 43.5183 2.30622 46.9512 2.74985C50.2151 3.17237 53.4579 3.73219 56.6795 4.40821C59.9963 5.11592 63.2602 6.33064 66.6508 6.56302C67.2107 6.60528 67.517 5.77081 66.9255 5.55956C60.5667 3.38362 53.7642 2.29565 47.1202 1.44007L47.1308 1.45063Z" fill="url(#paint9_linear_25_189)"/>
<path d="M76.5059 8.4854C74.6574 7.87276 72.7772 7.33405 70.8759 6.90098C70.559 6.82704 70.4006 7.28124 70.6329 7.46081C72.0272 8.59103 73.8757 8.99241 75.5552 9.53111C76.6115 9.86912 77.6466 10.2599 78.6712 10.6825C79.5691 11.0522 80.4458 11.538 81.4176 11.6859C81.7344 11.7282 82.0091 11.3374 81.7767 11.0733C80.5303 9.65787 78.2487 9.07691 76.5059 8.49596L76.5059 8.4854Z" fill="url(#paint10_linear_25_189)"/>
<path d="M85.7695 13.4183C85.5371 13.3444 85.4104 13.6401 85.6216 13.7669C89.5827 16.0379 93.3536 18.668 97.2301 21.0869C101.276 23.6114 105.152 26.3366 109.039 29.0935C112.81 31.7764 116.623 34.4171 120.447 37.0261C122.306 38.2937 124.186 39.5401 126.024 40.8499C127.841 42.1385 129.69 43.3955 131.792 44.1666C132.425 44.399 132.785 43.5223 132.204 43.2159C128.221 41.1034 124.588 38.2514 120.87 35.7164C116.909 33.0123 112.969 30.266 109.06 27.4985C105.3 24.8367 101.529 22.2594 97.6104 19.8299C93.7867 17.4533 90.0897 14.7915 85.7801 13.4183L85.7695 13.4183Z" fill="url(#paint11_linear_25_189)"/>
<path d="M172.152 56.7469C170.684 56.3666 169.195 56.3033 167.695 56.1026C166.142 55.9019 164.589 55.6378 163.058 55.3209C159.889 54.666 156.73 53.8527 153.646 52.8915C150.519 51.9197 147.477 50.6838 144.467 49.4163C143.062 48.8248 141.657 48.2333 140.274 47.6101C139.122 47.0925 137.823 46.8284 136.735 46.2369C136.577 46.1524 136.386 46.3848 136.513 46.5221C137.263 47.3566 138.15 47.758 139.122 48.2755C140.58 49.0466 142.027 49.7754 143.537 50.4409C146.675 51.8352 149.833 53.1239 153.097 54.1696C156.149 55.1414 159.287 55.9336 162.413 56.6201C165.624 57.3278 168.867 57.856 172.152 57.5602C172.659 57.518 172.585 56.842 172.152 56.7363L172.152 56.7469Z" fill="url(#paint12_linear_25_189)"/>
<path d="M42.1768 16.735C41.3634 17.1681 40.5712 17.654 39.7473 18.0765C38.2791 18.837 36.7475 19.2912 35.1208 19.587C33.4625 19.8933 31.783 19.9461 30.1141 20.1785C28.7831 20.3686 27.1142 20.5059 25.984 21.2876C25.8256 21.3932 25.8995 21.6362 26.0791 21.6678C27.5473 21.9002 29.2268 21.277 30.6845 21.0763C32.3534 20.8545 34.0329 20.7911 35.6912 20.4848C38.3425 20.0095 40.9832 18.9215 43.138 17.2737C42.8 17.1258 42.4725 16.9357 42.1662 16.7244L42.1768 16.735Z" fill="url(#paint13_linear_25_189)"/>
<path d="M42.5465 16.9673C40.867 18.52 39.2826 20.0516 37.1912 21.1502C36.0398 21.7523 34.8146 22.2593 33.6104 22.7452C32.3429 23.2627 30.843 23.6113 29.7655 24.4669C29.5543 24.6359 29.6916 24.9739 29.9557 24.9528C31.3183 24.8366 32.6914 24.1183 33.959 23.6219C35.3005 23.0937 36.6208 22.5022 37.9095 21.8579C40.0431 20.7805 42.029 19.3017 43.5289 17.4215C43.1909 17.2948 42.8634 17.1363 42.5571 16.9568L42.5465 16.9673Z" fill="url(#paint14_linear_25_189)"/>
<path d="M21.8329 1.46114C21.5477 1.34495 21.2942 1.67239 21.4632 1.9259C21.9068 2.60192 22.8575 3.02443 23.4912 3.53144C24.4947 4.32365 25.4559 5.17924 26.3854 6.06652C27.6424 7.27068 28.4874 8.74947 29.4275 10.1438C29.9134 10.2071 30.3887 10.3022 30.8535 10.429C30.093 8.62272 28.8571 6.98548 27.5157 5.58063C26.6918 4.70392 25.7728 3.9117 24.8221 3.17231C23.8187 2.39066 22.9842 1.91534 21.8223 1.46114L21.8329 1.46114Z" fill="url(#paint15_linear_25_189)"/>
<path d="M27.2727 1.61956C27.5156 2.24277 27.9593 2.74978 28.3395 3.29905C28.8994 4.11238 29.2902 5.03135 29.6176 5.96087C30.1458 7.39742 30.3148 8.87621 30.5472 10.3656C30.8957 10.4501 31.2337 10.5451 31.5717 10.6508C31.614 9.05577 31.2232 7.45023 30.7373 5.92918C30.2408 4.37645 29.2268 1.96813 27.6424 1.24986C27.41 1.14423 27.1776 1.38718 27.2621 1.61956L27.2727 1.61956Z" fill="url(#paint16_linear_25_189)"/>
<path d="M66.2811 5.80252C66.3762 6.41516 66.6508 6.93274 66.9783 7.43975C67.6649 8.48547 68.2986 9.54175 68.8796 10.6614C69.9359 12.6895 70.7281 14.8443 71.4041 17.0202C72.0907 19.2595 72.5237 21.5516 72.7878 23.886C72.9251 25.143 72.8723 26.4528 72.8618 27.7415C73.2631 27.921 73.6751 28.09 74.0765 28.2802C74.0976 27.0549 74.0131 25.8085 73.9497 24.6465C73.8124 22.365 73.3582 20.1151 72.7772 17.918C72.1646 15.5837 71.3196 13.2915 70.2844 11.1156C69.7985 10.091 69.2493 9.09811 68.6683 8.12633C68.1613 7.28131 67.3163 6.56304 66.9571 5.63351C66.8093 5.27438 66.2283 5.41169 66.2917 5.80252L66.2811 5.80252Z" fill="url(#paint17_linear_25_189)"/>
<path d="M70.4851 7.02775C71.1505 8.68611 71.985 10.2072 72.492 11.9395C73.0835 13.9675 73.3476 16.1012 73.5694 18.2032C73.7912 20.2312 73.9497 22.291 73.8863 24.3402C73.8546 25.576 73.6645 26.833 73.5905 28.0794C73.9497 28.2379 74.3088 28.4069 74.6574 28.5864C74.8686 27.0759 74.9003 25.5126 74.932 24.0339C74.9848 21.9002 74.763 19.7559 74.5306 17.6328C74.1398 14.0731 73.506 9.41495 70.8653 6.74256C70.6752 6.55243 70.3794 6.8165 70.4639 7.03831L70.4851 7.02775Z" fill="url(#paint18_linear_25_189)"/>
<path d="M81.1007 11.0733C81.1747 12.6683 81.819 14.2527 82.0091 15.8688C82.231 17.7596 82.326 19.6503 82.2943 21.5622C82.2204 24.9845 81.3754 28.2167 80.8367 31.544C81.1113 31.6496 81.3859 31.7553 81.65 31.8715C82.9387 28.3963 83.3717 24.4775 83.4246 20.8122C83.4562 18.9532 83.3401 17.1047 83.0971 15.2667C82.8964 13.7668 82.6535 11.9395 81.5444 10.8198C81.3542 10.6402 81.0902 10.8621 81.1007 11.0627L81.1007 11.0733Z" fill="url(#paint19_linear_25_189)"/>
<path d="M85.2625 13.7774C85.6428 14.876 85.009 16.8195 84.8083 17.9075C84.502 19.5975 84.1006 21.2876 83.657 22.9459C83.1816 24.7627 82.5796 26.5267 81.9141 28.2802C81.5233 29.3259 81.0585 30.3927 80.7522 31.4912C81.1008 31.618 81.4388 31.7448 81.7662 31.9032C82.2944 30.5406 82.7169 29.1357 83.2133 27.7731C83.8365 26.0831 84.333 24.3508 84.7766 22.6079C85.2414 20.7911 85.6216 18.9426 85.928 17.0942C86.1075 15.9851 86.5406 14.5168 86.0653 13.4394C85.8435 12.9324 85.0829 13.2387 85.2731 13.7563L85.2625 13.7774Z" fill="url(#paint20_linear_25_189)"/>
<path d="M84.3646 35.6636C83.6569 36.2657 82.9492 36.8572 82.1993 37.417C80.3508 38.8007 78.3544 39.9626 76.2524 40.9027C74.1293 41.8534 71.9428 42.6139 69.7246 43.2793C67.5698 43.9237 65.415 44.737 63.1968 45.149C62.8271 45.2123 62.8377 45.6982 63.1968 45.7827C65.0664 46.2369 67.5275 45.1067 69.281 44.5574C71.7949 43.7758 74.256 42.973 76.6538 41.8956C79.717 40.533 82.7908 38.6212 85.3259 36.2868C84.9878 36.1072 84.671 35.8854 84.3646 35.653L84.3646 35.6636Z" fill="url(#paint21_linear_25_189)"/>
<path d="M84.766 35.9487C82.833 38.2514 80.9845 40.5858 78.5868 42.5294C75.344 45.1701 71.6682 46.7334 67.8022 48.191C67.5381 48.2966 67.6649 48.6663 67.9289 48.6558C69.9253 48.5924 71.8477 47.7263 73.6117 46.839C75.5764 45.8566 77.446 44.6736 79.1677 43.3216C81.5761 41.4308 83.9421 39.107 85.8117 36.5403C85.442 36.3818 85.0935 36.1811 84.7555 35.9487L84.766 35.9487Z" fill="url(#paint22_linear_25_189)"/>
<path d="M110.645 47.2192C109.948 47.8213 109.24 48.3917 108.511 48.9515C106.663 50.3458 104.613 51.381 102.533 52.3844C100.515 53.3562 98.4448 54.1273 96.3111 54.7716C95.1915 55.1096 94.0507 55.4159 92.9205 55.6906C91.9592 55.923 90.8924 55.9969 89.984 56.3772C89.7727 56.4722 89.7939 56.7363 89.984 56.8419C90.7868 57.275 91.7585 57.0215 92.6141 56.8314C93.7021 56.5884 94.7795 56.3032 95.8464 56.0075C98.2864 55.3314 100.642 54.423 102.913 53.3139C106.166 51.7295 109.008 49.8705 111.585 47.5044C111.268 47.4305 110.962 47.3354 110.655 47.2192L110.645 47.2192Z" fill="url(#paint23_linear_25_189)"/>
<path d="M111.5 47.4833C111.205 47.8424 110.909 48.191 110.603 48.529C109.324 49.9233 107.846 51.138 106.356 52.321C104.909 53.4724 103.378 54.4758 101.793 55.4159C100.948 55.9124 100.082 56.356 99.1947 56.7785C98.487 57.106 97.7054 57.275 97.2089 57.8982C97.1244 58.0038 97.1878 58.1623 97.3251 58.1834C98.73 58.458 100.652 57.0637 101.846 56.4088C103.621 55.4371 105.311 54.3068 106.927 53.1027C108.405 51.9936 109.853 50.8211 111.152 49.5113C111.712 48.9515 112.208 48.3494 112.662 47.7368C112.271 47.6628 111.881 47.5889 111.5 47.4938L111.5 47.4833Z" fill="url(#paint24_linear_25_189)"/>
<path d="M131.633 43.7229C131.866 44.4095 132.309 44.9377 132.721 45.5292C133.334 46.4059 133.682 47.5467 134.041 48.5501C134.58 50.0501 134.982 51.6028 135.341 53.1555C135.658 53.1555 135.996 53.2189 136.302 53.3351C136.017 49.7649 134.813 45.7404 132.182 43.311C131.908 43.0575 131.528 43.4061 131.633 43.7229Z" fill="url(#paint25_linear_25_189)"/>
<path d="M136.312 46.4798C136.967 48.6874 136.143 50.969 135.552 53.166C135.943 53.1977 136.334 53.3139 136.65 53.504C136.999 52.3738 137.2 51.1802 137.348 50.0394C137.474 49.0254 137.812 46.7861 136.767 46.1418C136.524 45.9939 136.238 46.184 136.323 46.4692L136.312 46.4798Z" fill="url(#paint26_linear_25_189)"/>
<path d="M38.7122 15.4252C38.0996 15.6787 37.4869 15.9216 36.8637 16.154C35.0469 16.83 33.1773 17.4004 31.2865 17.8546C28.6036 18.499 25.7728 18.8581 22.9948 18.763C23.1954 18.9109 23.3856 19.0694 23.5757 19.2278C26.1742 19.3545 28.762 19.0799 31.371 18.5518C34.1491 17.9919 37.1912 17.1997 39.8424 15.9005C39.4622 15.7632 39.0819 15.6048 38.7122 15.4252Z" fill="url(#paint27_linear_25_189)"/>
<path d="M37.1067 14.6434C37.1067 14.6434 37.0855 14.6329 37.075 14.6223C36.5996 14.8547 36.1243 15.0765 35.6279 15.2772C33.7794 15.9955 31.8464 16.4602 29.9134 16.8616C28.2339 17.2102 26.5439 17.4954 24.8644 17.8123C24.0299 17.9707 23.1638 18.1292 22.2976 18.2454C22.53 18.4144 22.7518 18.5939 22.9736 18.7629C23.375 18.7207 23.7764 18.6784 24.1883 18.6256C26.1319 18.3616 28.0755 17.9813 29.9979 17.6116C32.533 17.1363 35.6912 16.5342 38.1841 15.1822C37.8144 15.0026 37.4447 14.8125 37.0961 14.654L37.1067 14.6434Z" fill="url(#paint28_linear_25_189)"/>
<path d="M35.2899 13.7879C33.2407 14.5906 31.1387 15.2667 28.9839 15.7842C26.3432 16.418 23.5863 16.9567 20.84 17.1468C20.9245 17.2102 20.9984 17.2736 21.0829 17.337C21.2519 17.4637 21.4315 17.601 21.6005 17.7278C24.1356 17.6222 26.734 17.0518 29.0789 16.5553C31.5295 16.0377 34.0012 15.3406 36.2828 14.2632C35.9553 14.1047 35.6279 13.9569 35.2899 13.7984L35.2899 13.7879Z" fill="url(#paint29_linear_25_189)"/>
<path d="M32.269 12.4465C28.1917 14.2738 23.956 15.4252 19.4985 15.9956C19.6781 16.154 19.8577 16.3124 20.0372 16.4814C24.6215 16.1646 29.1952 14.9921 33.2619 12.869C32.9344 12.7211 32.607 12.5838 32.269 12.4465Z" fill="url(#paint30_linear_25_189)"/>
<path d="M30.2092 11.6859C26.227 13.2492 22.1603 14.2844 17.9141 14.6118C18.1042 14.7703 18.2943 14.9287 18.4845 15.0872C22.8786 15.1294 27.3361 14.0731 31.2126 12.0345C30.8852 11.9078 30.5577 11.8021 30.2197 11.6859L30.2092 11.6859Z" fill="url(#paint31_linear_25_189)"/>
<path d="M28.7515 11.2528C24.9172 12.5309 21.0407 13.6611 17.0162 13.9358C17.2275 14.0731 17.4282 14.221 17.6289 14.3794C21.7906 14.2421 25.9101 13.2069 29.7022 11.5169C29.3853 11.4218 29.0684 11.3373 28.7515 11.2528Z" fill="url(#paint32_linear_25_189)"/>
<path d="M41.0466 16.3441C40.3811 16.6821 39.7157 17.0307 39.0502 17.3265C37.1278 18.1715 35.142 18.5412 33.0717 18.8158C31.0647 19.0799 29.0578 19.3123 27.0403 19.5235C26.0157 19.6291 24.9277 19.5024 23.8715 19.5763C24.125 19.7559 24.3679 19.9566 24.5792 20.189C24.6637 20.1995 24.7482 20.2101 24.8327 20.2312C25.7411 20.3685 26.6812 20.2523 27.5896 20.189C29.5965 20.0305 31.614 19.8298 33.6209 19.6186C35.4694 19.4179 37.2334 19.0482 38.9551 18.351C39.9375 17.9497 40.9938 17.5166 42.0078 16.9884C41.6592 16.83 41.3423 16.6082 41.0466 16.3652L41.0466 16.3441Z" fill="url(#paint33_linear_25_189)"/>
<path d="M78.1221 32.5792C77.3721 33.1073 76.6327 33.6355 75.8722 34.1319C73.6751 35.579 71.383 36.8466 69.0064 37.9662C66.672 39.0647 64.2214 39.8781 61.792 40.7125C60.3132 41.2196 58.7922 41.7266 57.25 42.1174C57.4401 42.2125 57.6408 42.3075 57.831 42.4026C61.6441 41.7371 65.3939 40.3851 68.9113 38.8746C71.2563 37.8711 73.4956 36.6036 75.661 35.2621C76.8334 34.5333 78.0376 33.7728 79.1784 32.9383C78.8298 32.8116 78.4707 32.6954 78.1221 32.5686L78.1221 32.5792Z" fill="url(#paint34_linear_25_189)"/>
<path d="M76.1996 31.882C73.0307 33.815 69.9358 35.8642 66.598 37.5331C63.2284 39.2231 59.6371 40.628 55.9507 41.5258C56.1936 41.6315 56.426 41.7476 56.669 41.8533C60.0702 41.1561 63.3446 39.9625 66.5346 38.4732C70.2105 36.7514 73.9497 34.7023 77.2875 32.2834C76.9178 32.1566 76.5587 32.0193 76.1996 31.8714L76.1996 31.882Z" fill="url(#paint35_linear_25_189)"/>
<path d="M73.9181 30.8997C70.7809 32.9806 67.6755 35.0721 64.3271 36.8149C62.1723 37.9346 59.9329 38.8641 57.6408 39.6669C56.5 40.0683 55.3276 40.3429 54.1445 40.607C54.4086 40.7548 54.6727 40.9027 54.9367 41.04C55.7818 40.8922 56.6268 40.7126 57.4613 40.4696C59.9329 39.7408 62.3096 38.674 64.6017 37.5121C68.1191 35.7375 71.5415 33.6566 74.6786 31.2483C74.4251 31.1321 74.161 31.0159 73.9075 30.8997L73.9181 30.8997Z" fill="url(#paint36_linear_25_189)"/>
<path d="M72.3442 30.0758C71.4463 30.6885 70.5379 31.2694 69.5767 31.8081C67.5275 32.9489 65.3938 33.9207 63.2813 34.9347C59.8484 36.5825 56.4683 38.5895 52.8241 39.7619C53.0248 39.9098 53.236 40.0471 53.4473 40.1844C56.9858 39.2127 60.2603 37.2691 63.5876 35.6847C66.7142 34.1953 70.4006 32.7799 73.2842 30.5829C72.9674 30.4244 72.661 30.2554 72.3547 30.0758L72.3442 30.0758Z" fill="url(#paint37_linear_25_189)"/>
<path d="M70.4323 28.9245C69.8302 29.3365 69.2176 29.7484 68.5838 30.1392C66.2917 31.5547 63.9256 32.8539 61.4962 34.0369C59.2463 35.1354 56.9542 36.0861 54.6938 37.1529C53.553 37.6916 52.3594 38.2092 51.1447 38.5789C51.3242 38.6951 51.4932 38.8219 51.6728 38.9486C52.5284 38.7162 53.3734 38.4205 54.2079 38.1036C56.7852 37.1212 59.3731 36.1495 61.8765 34.977C64.2531 33.8573 66.5769 32.5898 68.8162 31.2061C69.6824 30.6674 70.5696 30.1181 71.4252 29.5266C71.0978 29.3259 70.7598 29.1252 70.4323 28.9245Z" fill="url(#paint38_linear_25_189)"/>
<path d="M68.7211 27.9421C65.7318 30.2131 62.6475 32.1566 59.109 33.6882C55.9718 35.0403 52.7185 36.5507 49.3595 37.3852C49.6024 37.5436 49.8454 37.7127 50.0883 37.8711C50.9967 37.6493 51.8946 37.3535 52.7396 37.0578C54.9895 36.2867 57.2393 35.41 59.4364 34.5121C62.9538 33.0756 66.8092 31.1848 69.6612 28.4808C69.3443 28.3012 69.0274 28.1216 68.7105 27.9421L68.7211 27.9421Z" fill="url(#paint39_linear_25_189)"/>
<path d="M66.7987 26.9281C66.0487 27.488 65.2882 28.0478 64.496 28.5548C62.4891 29.8435 60.3977 30.9631 58.2323 31.9666C54.6937 33.6038 51.0179 34.7552 47.3632 36.0649C47.5322 36.1811 47.7012 36.2868 47.8807 36.403C51.6622 35.4946 55.4014 34.1636 58.9189 32.6003C61.9293 31.2694 65.2143 29.6322 67.9078 27.4985C67.5381 27.2978 67.1684 27.1183 66.7987 26.9281Z" fill="url(#paint40_linear_25_189)"/>
<path d="M65.584 26.3577C65.0453 26.7696 64.4961 27.1605 63.9045 27.509C61.8659 28.7343 59.69 29.7061 57.5246 30.6567C53.8065 32.294 50.0778 34.058 46.2013 35.2938C46.402 35.4206 46.6027 35.5473 46.7928 35.6741C50.5954 34.6284 54.1868 33.0439 57.8521 31.4806C60.1125 30.5194 62.3624 29.5265 64.4749 28.2696C65.1721 27.847 65.9326 27.3823 66.6509 26.8436C66.3023 26.6746 65.9432 26.5056 65.5946 26.3577L65.584 26.3577Z" fill="url(#paint41_linear_25_189)"/>
<path d="M63.9468 25.6923C63.8623 25.6923 63.7778 25.6923 63.6827 25.65L63.5348 25.5867C60.5667 27.3823 57.6197 29.2308 54.4825 30.7413C51.2609 32.3046 47.9441 33.3503 44.5323 34.2376C44.7225 34.3644 44.9232 34.4805 45.1133 34.6073C48.3244 34.0475 51.3665 33.1179 54.4191 31.7553C57.9682 30.1709 61.4223 28.2062 64.6017 25.9458C64.3798 25.8613 64.158 25.7662 63.9362 25.6923L63.9468 25.6923Z" fill="url(#paint42_linear_25_189)"/>
<path d="M148.122 58.5108C148.016 58.4791 147.921 58.4475 147.815 58.4158C145.713 60.3699 143.495 62.1339 141.161 63.7817C141.499 63.7922 141.847 63.8028 142.185 63.8134C144.53 62.3557 146.748 60.6445 148.608 58.627C148.449 58.5953 148.28 58.5531 148.122 58.5003L148.122 58.5108Z" fill="url(#paint43_linear_25_189)"/>
<path d="M146.083 57.9087C145.006 59.1234 143.918 60.3065 142.661 61.3944C141.699 62.2289 140.675 63 139.608 63.7182C139.914 63.7288 140.221 63.7499 140.527 63.7605C141.404 63.2112 142.259 62.6092 143.083 61.9648C144.467 60.8874 145.893 59.6093 147.023 58.1728C146.717 58.0777 146.4 57.9932 146.094 57.9087L146.083 57.9087Z" fill="url(#paint44_linear_25_189)"/>
<path d="M144.551 57.5496C144.245 57.8876 143.949 58.2151 143.622 58.532C142.513 59.6305 141.309 60.6234 140.073 61.5529C139.154 62.2501 138.224 62.905 137.284 63.5704C137.601 63.5915 137.918 63.6127 138.235 63.6338C139.122 63.074 139.999 62.493 140.844 61.8804C142.386 60.7607 144.266 59.3981 145.513 57.7714C145.196 57.6975 144.868 57.6236 144.551 57.5602L144.551 57.5496Z" fill="url(#paint45_linear_25_189)"/>
<path d="M142.756 57.2221C141.383 58.4157 139.946 59.5459 138.457 60.6128C137.147 61.5529 135.784 62.4507 134.453 63.3802C134.834 63.4119 135.214 63.433 135.605 63.4647C138.509 61.7113 141.393 59.7783 143.717 57.4017C143.4 57.3489 143.073 57.2855 142.756 57.2327L142.756 57.2221Z" fill="url(#paint46_linear_25_189)"/>
<path d="M140.4 56.7997C139.914 57.3067 139.418 57.8137 138.869 58.2785C137.738 59.2502 136.503 60.0953 135.298 60.9614C134.179 61.7642 132.975 62.4613 131.792 63.1796C132.151 63.2007 132.499 63.2324 132.858 63.2535C133.968 62.6515 135.066 62.0388 136.122 61.3311C137.823 60.1692 140.105 58.7855 141.457 56.9898C141.108 56.9264 140.749 56.863 140.4 56.7891L140.4 56.7997Z" fill="url(#paint47_linear_25_189)"/>
<path d="M137.865 56.2187C136.439 57.6764 134.886 58.9967 133.239 60.2009C131.992 61.1199 130.682 61.9543 129.32 62.7043C129.161 62.7888 128.992 62.8839 128.834 62.9684C129.13 62.9895 129.415 63.0106 129.711 63.0317C131.179 62.2501 132.647 61.4684 134.02 60.5178C135.731 59.3348 137.369 58.0038 138.731 56.43C138.446 56.3666 138.161 56.2927 137.865 56.2187Z" fill="url(#paint48_linear_25_189)"/>
<path d="M136.619 55.8701C136.397 55.7961 136.186 55.7328 135.964 55.6588C134.348 57.1904 132.711 58.6481 130.873 59.9473C129.457 60.9614 127.989 61.8909 126.521 62.8204C126.869 62.8415 127.228 62.8627 127.577 62.8838C128.845 62.1338 130.091 61.3627 131.306 60.5388C133.26 59.2185 135.277 57.7291 136.862 55.9335C136.777 55.9123 136.693 55.8912 136.608 55.8595L136.619 55.8701Z" fill="url(#paint49_linear_25_189)"/>
<path d="M134.01 55.0463C133.703 55.3632 133.408 55.68 133.112 55.9758C131.887 57.1905 130.651 58.3947 129.362 59.546C128.042 60.7079 126.637 61.7959 125.158 62.7571C125.538 62.7677 125.919 62.7888 126.299 62.8099C127.545 62.0494 128.718 61.1621 129.859 60.2115C131.031 59.2397 132.172 58.194 133.249 57.1166C133.82 56.5462 134.443 55.9652 135.013 55.3632C134.675 55.2575 134.348 55.1519 133.999 55.0463L134.01 55.0463Z" fill="url(#paint50_linear_25_189)"/>
<path d="M132.584 54.6132C130.619 56.3877 128.707 58.1517 126.542 59.6939C125.01 60.7819 123.363 61.6691 121.736 62.6092C121.958 62.6304 122.19 62.6409 122.412 62.6515C123.954 61.9121 125.496 61.1833 126.954 60.2643C129.278 58.7961 131.528 56.937 133.323 54.835C133.07 54.7611 132.827 54.6871 132.573 54.6026L132.584 54.6132Z" fill="url(#paint51_linear_25_189)"/>
<path d="M131.274 54.2012C129.32 55.9335 127.334 57.5708 125.137 59.0496C123.394 60.222 121.503 61.4156 119.56 62.3663C119.866 62.4085 120.162 62.4508 120.468 62.493C122.137 61.7536 123.743 60.8452 125.264 59.9157C127.672 58.4369 130.344 56.7363 132.182 54.4864C131.876 54.3914 131.58 54.2963 131.274 54.2012Z" fill="url(#paint52_linear_25_189)"/>
<path d="M129.151 53.5357C127.228 55.0779 125.391 56.7574 123.352 58.1622C121.334 59.5565 119.137 60.6339 117.004 61.8064C117.289 61.8803 117.585 61.9543 117.87 62.0282C119.782 61.1409 121.672 60.222 123.468 59.0917C125.802 57.6129 128.285 55.9123 130.302 53.9054C129.922 53.7892 129.542 53.6625 129.161 53.5463L129.151 53.5357Z" fill="url(#paint53_linear_25_189)"/>
<path d="M127.144 52.8386C126.764 53.2295 126.383 53.5992 125.972 53.9583C124.672 55.0674 123.246 56.0392 121.831 56.9898C119.518 58.532 117.078 59.9052 114.648 61.2678C114.986 61.3206 115.303 61.3839 115.641 61.4579C117.997 60.4227 120.246 59.1341 122.412 57.7715C123.859 56.8525 125.253 55.849 126.563 54.7505C127.112 54.2963 127.704 53.7893 128.243 53.2295C127.883 53.1027 127.524 52.976 127.155 52.8386L127.144 52.8386Z" fill="url(#paint54_linear_25_189)"/>
<path d="M125.359 52.1943C123.236 53.9372 121.229 55.6906 118.863 57.1588C116.581 58.5743 114.173 59.7995 111.765 60.9931C112.081 61.0248 112.398 61.0565 112.715 61.0776C114.87 60.2009 116.983 59.2291 119.021 58.0884C121.567 56.6624 124.366 54.8561 126.204 52.5006C125.919 52.395 125.633 52.2894 125.348 52.1943L125.359 52.1943Z" fill="url(#paint55_linear_25_189)"/>
<path d="M123.193 51.5605C122.338 52.2893 121.514 53.0709 120.669 53.8103C119.412 54.9089 118.06 55.8806 116.729 56.8841C114.69 58.4368 112.398 59.5459 110.096 60.6339C110.402 60.6973 110.698 60.7607 110.993 60.8346C113.053 60.0424 115.05 59.1023 116.93 57.9087C119.528 56.2398 122.243 54.2117 124.334 51.8562C123.954 51.74 123.574 51.645 123.193 51.5605Z" fill="url(#paint56_linear_25_189)"/>
<path d="M43.6768 1.56683C44.807 3.59488 45.6837 5.82364 46.5498 7.92563C47.8385 11.0205 48.6941 14.2422 49.4969 17.4955C49.6025 17.918 50.2468 17.8652 50.1834 17.411C49.687 14.0415 48.5885 10.7776 47.2681 7.64044C46.4231 5.65463 45.5041 3.47869 44.2577 1.60908C44.0676 1.58795 43.8669 1.57739 43.6768 1.56683Z" fill="url(#paint57_linear_25_189)"/>
<path d="M45.0817 1.67237C46.6766 4.15463 47.8069 7.08053 48.8526 9.74235C49.9828 12.6154 50.7222 15.6047 51.5672 18.5729C51.9052 18.7102 52.2538 18.858 52.5918 18.9954C51.8735 15.5836 50.8595 12.214 49.518 9.00295C48.747 7.15446 47.7857 5.34823 46.8456 3.58424C46.5076 2.95047 46.1379 2.32727 45.7366 1.73575C45.5147 1.71463 45.3035 1.6935 45.0817 1.68293L45.0817 1.67237Z" fill="url(#paint58_linear_25_189)"/>
<path d="M47.6061 1.96818C48.9581 4.64056 50.0883 7.42914 51.1552 10.2072C52.3277 13.2704 53.1304 16.4181 54.0071 19.5552C54.3029 19.6714 54.6092 19.7876 54.905 19.9038C54.5247 16.4498 53.2677 13.0591 52.0213 9.85859C51.0073 7.2707 49.9299 4.57719 48.5039 2.13718C48.2082 2.0738 47.9124 2.02099 47.6166 1.96818L47.6061 1.96818Z" fill="url(#paint59_linear_25_189)"/>
<path d="M49.6448 2.4118C51.3137 4.98912 52.2855 8.09459 53.215 10.9571C54.229 14.0626 55.2008 17.168 56.0458 20.3052C56.0775 20.3052 56.1092 20.3263 56.1409 20.3369C56.4472 20.4425 56.743 20.5376 57.0493 20.6432C56.4472 17.2103 55.2431 13.8619 54.1128 10.598C53.2361 8.05233 52.296 4.99968 50.6482 2.65474C50.3102 2.57024 49.9828 2.48574 49.6553 2.40123L49.6448 2.4118Z" fill="url(#paint60_linear_25_189)"/>
<path d="M52.1798 2.97163C52.5073 3.70046 52.8453 4.41873 53.1833 5.14757C54.1234 7.19675 54.8205 9.33044 55.5071 11.4852C56.5106 14.6224 57.2711 17.8229 58.0527 21.0129C58.4647 21.1608 58.8661 21.3192 59.2569 21.4988C58.6548 18.1292 57.5774 14.7914 56.5106 11.5909C55.7923 9.44662 55.0846 7.28125 54.1022 5.25319C53.7325 4.49267 53.31 3.76384 52.8875 3.03501C52.6551 3.03501 52.4122 3.00332 52.1798 2.97163Z" fill="url(#paint61_linear_25_189)"/>
<path d="M87.5969 14.5485C87.2272 17.2209 86.5301 19.8405 85.9808 22.5023C85.5794 24.4775 85.1463 26.4528 84.5971 28.3963C84.1746 29.8646 83.6253 31.28 83.1605 32.7271C83.3612 32.875 83.5725 33.0228 83.7837 33.1602C85.3259 30.0758 86.0442 26.3788 86.6568 23.0516C87.1638 20.3369 87.7131 17.6223 87.9983 14.8759C87.8715 14.7703 87.7342 14.6647 87.6075 14.5485L87.5969 14.5485Z" fill="url(#paint62_linear_25_189)"/>
<path d="M89.1919 15.7632C88.8222 18.9109 88.0406 22.0586 87.3646 25.1324C86.7202 28.0794 85.7801 30.8785 84.745 33.6671C85.0091 33.7728 85.2731 33.8784 85.5372 33.984C86.7308 31.3539 87.5019 28.5125 88.1251 25.7239C88.8117 22.6607 89.6778 19.3334 89.7201 16.1223C89.5405 16.0061 89.3715 15.8899 89.1919 15.7737L89.1919 15.7632Z" fill="url(#paint63_linear_25_189)"/>
<path d="M90.977 16.9251C90.3326 20.2313 89.9312 23.5797 89.1707 26.8753C88.5581 29.5054 87.7447 32.0616 86.9103 34.6178C87.1849 34.7552 87.4595 34.8925 87.7236 35.0298C88.5898 32.5475 89.2447 29.9808 89.8362 27.4457C90.6389 24.0233 90.9875 20.6116 91.3572 17.1575C91.2305 17.0836 91.1037 16.9991 90.977 16.9251Z" fill="url(#paint64_linear_25_189)"/>
<path d="M92.8254 18.066C92.4874 19.4391 92.255 20.8123 92.0015 22.2171C91.6424 24.2769 91.0509 26.3049 90.4699 28.3119C89.7939 30.6568 88.9911 32.9701 88.1672 35.2727C88.4102 35.3995 88.6637 35.5263 88.9066 35.6636C89.8256 33.3714 90.5967 31.0371 91.2833 28.671C91.8008 26.8965 92.2762 25.1008 92.6247 23.284C92.9311 21.6573 93.0684 20.0095 93.2796 18.3723C93.1318 18.2772 92.9733 18.1821 92.8254 18.0871L92.8254 18.066Z" fill="url(#paint65_linear_25_189)"/>
<path d="M94.5789 19.1539C94.2303 21.6784 93.8078 24.1817 93.2057 26.6534C92.4135 29.9068 91.1354 33.0017 90.2164 36.2128C90.4699 36.3184 90.734 36.424 90.9875 36.5297C92.4241 33.646 93.2691 30.3187 94.0085 27.2344C94.6106 24.7205 95.0753 22.1537 95.276 19.5658C95.0436 19.4285 94.8113 19.2912 94.5683 19.1433L94.5789 19.1539Z" fill="url(#paint66_linear_25_189)"/>
<path d="M96.4803 20.263C96.4803 20.263 96.4803 20.263 96.4697 20.263C96.4169 21.2453 96.1422 22.2382 95.8676 23.1466C95.4345 24.6254 94.9803 26.1148 94.5156 27.5936C93.5544 30.6568 92.3819 33.6566 91.3573 36.6987C91.4735 36.7409 91.5897 36.7937 91.6953 36.836C91.8326 36.8888 91.9699 36.9522 92.1073 37.005C93.4487 33.7517 94.6212 30.4138 95.6035 27.0443C96.0261 25.6077 96.4591 24.1818 96.8394 22.7347C97.019 22.0692 97.1668 21.3615 97.1774 20.6644C96.945 20.527 96.7021 20.4003 96.4697 20.263L96.4803 20.263Z" fill="url(#paint67_linear_25_189)"/>
<path d="M98.0224 21.1291C97.452 23.7804 96.9767 26.4528 96.2056 29.0512C95.35 31.8926 94.3254 34.6918 93.1952 37.4486C93.3959 37.5331 93.5966 37.6176 93.8078 37.7021C95.0648 35.0086 96.0894 32.2306 96.9027 29.3575C97.6527 26.738 98.0118 24.055 98.466 21.3826C98.3181 21.2981 98.1808 21.2136 98.033 21.1397L98.0224 21.1291Z" fill="url(#paint68_linear_25_189)"/>
<path d="M99.3532 21.8685C99.237 22.6607 99.142 23.4423 99.0152 24.224C98.6878 26.2098 98.1385 28.1428 97.5576 30.0758C96.7442 32.7904 95.7724 35.4522 94.9591 38.1669C95.2337 38.2831 95.5189 38.3887 95.7936 38.5049C97.8639 33.3291 99.575 27.8153 100.093 22.2804C99.8497 22.1431 99.6067 22.0058 99.3638 21.8685L99.3532 21.8685Z" fill="url(#paint69_linear_25_189)"/>
<path d="M101.371 23.0093C100.99 25.1852 100.462 27.3506 99.9131 29.4526C99.0681 32.6848 97.8745 35.7797 96.8076 38.9274C97.0611 39.0331 97.3146 39.1387 97.5787 39.2338C98.9413 36.3184 99.8286 33.1285 100.652 30.0441C101.223 27.8999 101.751 25.6394 102.005 23.3684C101.793 23.2523 101.593 23.1255 101.381 23.0093L101.371 23.0093Z" fill="url(#paint70_linear_25_189)"/>
<path d="M102.702 23.7804C102.575 23.7065 102.459 23.6431 102.332 23.5691C101.603 26.4845 101.244 29.4843 100.336 32.3785C99.5963 34.7235 98.6351 37.005 97.6316 39.2549C97.8851 39.35 98.1386 39.445 98.3921 39.5507C100.864 34.6601 102.395 29.4209 102.913 23.9388C102.839 23.886 102.765 23.8438 102.691 23.791L102.702 23.7804Z" fill="url(#paint71_linear_25_189)"/>
<path d="M107.74 27.4878C107.223 30.3926 106.557 33.2657 105.807 36.1176C105.332 37.9239 104.719 39.6984 103.98 41.4202C103.906 41.5786 103.842 41.7476 103.758 41.9061C104.043 42.0328 104.318 42.1701 104.603 42.2969C105.363 40.6068 105.913 38.8112 106.378 37.1528C107.244 34.0368 107.624 30.8679 107.972 27.678C107.888 27.6146 107.814 27.5512 107.73 27.4878L107.74 27.4878Z" fill="url(#paint72_linear_25_189)"/>
<path d="M108.807 28.2906C108.458 31.2376 107.708 34.1635 106.789 36.9732C106.272 38.5576 105.871 40.2054 105.216 41.7265C105.11 41.9694 105.004 42.2018 104.888 42.4342C105.163 42.5715 105.437 42.6983 105.702 42.8356C105.828 42.5926 105.944 42.3391 106.071 42.0962C106.853 40.4695 107.244 38.621 107.782 36.9098C108.638 34.248 109.314 31.4806 109.377 28.6814C109.187 28.5547 108.997 28.4173 108.807 28.28L108.807 28.2906Z" fill="url(#paint73_linear_25_189)"/>
<path d="M110.708 29.6005C110.191 32.3679 109.663 35.1354 108.733 37.7972C108.089 39.6246 107.191 41.3886 106.42 43.1948C106.716 43.3321 107.022 43.4694 107.328 43.5962C108.247 41.6632 109.008 39.6246 109.673 37.6705C110.508 35.1988 110.972 32.5792 111.236 29.9702C111.067 29.8434 110.888 29.7272 110.719 29.6005L110.708 29.6005Z" fill="url(#paint74_linear_25_189)"/>
<path d="M112.198 30.6567C111.595 32.8115 111.015 34.9769 110.36 37.1211C109.663 39.4027 108.849 41.642 108.025 43.8919C108.215 43.9658 108.416 44.0397 108.617 44.1137C108.691 44.1348 108.754 44.1559 108.828 44.1876C110.645 40.0364 112.039 35.5473 112.779 31.0686C112.588 30.9313 112.398 30.8046 112.208 30.6672L112.198 30.6567Z" fill="url(#paint75_linear_25_189)"/>
<path d="M112.969 31.1954C112.367 33.6777 112.06 36.2233 111.321 38.6844C110.75 40.6069 110.011 42.4659 109.282 44.325C109.589 44.42 109.884 44.5151 110.191 44.6207C110.972 42.8145 111.648 40.966 112.229 39.0753C112.99 36.6247 113.296 34.1319 113.602 31.6179C113.391 31.4806 113.18 31.3327 112.969 31.1954Z" fill="url(#paint76_linear_25_189)"/>
<path d="M91.3044 53.2083C91.1143 53.1238 90.8925 53.1449 90.7023 53.2083C90.3326 53.3351 90.0369 53.6203 89.9418 54.0005C89.8467 54.3808 90.1531 54.7082 90.4594 54.8878C91.072 55.2364 91.9593 54.9195 91.9699 54.1378C91.9699 53.6942 91.7269 53.3456 91.3044 53.2189L91.3044 53.2083Z" fill="url(#paint77_linear_25_189)"/>
<path d="M94.4838 52.3738C94.2937 52.2893 94.0719 52.2999 93.8712 52.3738C93.5015 52.5006 93.2057 52.7858 93.1106 53.166C93.0156 53.5463 93.3219 53.8843 93.6282 54.0533C94.2409 54.4019 95.1281 54.085 95.1387 53.3034C95.1387 52.8597 94.8958 52.5111 94.4732 52.3844L94.4838 52.3738Z" fill="url(#paint78_linear_25_189)"/>
<path d="M97.7054 51.4338C97.5153 51.3493 97.2935 51.3598 97.1033 51.4338C96.7336 51.55 96.4379 51.8457 96.3428 52.226C96.2478 52.6062 96.5541 52.9442 96.8604 53.1133C97.473 53.4618 98.3603 53.1449 98.3709 52.3633C98.3709 51.9091 98.1279 51.5711 97.7054 51.4443L97.7054 51.4338Z" fill="url(#paint79_linear_25_189)"/>
<path d="M100.621 50.4092C100.431 50.3247 100.209 50.3353 100.019 50.4092C99.649 50.5254 99.3533 50.8212 99.2582 51.2014C99.1632 51.5817 99.4695 51.9197 99.7758 52.0887C100.388 52.4373 101.276 52.1204 101.286 51.3388C101.286 50.8951 101.043 50.5465 100.621 50.4198L100.621 50.4092Z" fill="url(#paint80_linear_25_189)"/>
<path d="M103.409 49.0572C103.219 48.9727 102.997 48.9832 102.807 49.0572C102.438 49.1839 102.142 49.4691 102.047 49.8494C101.952 50.2297 102.258 50.5677 102.554 50.7367C103.166 51.0852 104.054 50.7684 104.064 49.9867C104.064 49.5431 103.821 49.1945 103.399 49.0677L103.409 49.0572Z" fill="url(#paint81_linear_25_189)"/>
<path d="M106.029 47.4305C105.839 47.346 105.617 47.3565 105.427 47.4305C105.057 47.5572 104.761 47.8424 104.666 48.2227C104.571 48.6029 104.878 48.9304 105.184 49.11C105.797 49.4585 106.684 49.1416 106.694 48.36C106.694 47.9058 106.451 47.5678 106.029 47.441L106.029 47.4305Z" fill="url(#paint82_linear_25_189)"/>
<path d="M78.6185 26.1782C78.1432 26.0725 77.5622 26.3049 77.2453 26.6746C76.9284 27.0443 76.9813 27.5725 77.2242 27.9633C77.3087 28.1006 77.4143 28.2062 77.5305 28.3013C77.6573 28.4703 77.858 28.6076 78.0375 28.671C78.5023 28.8189 78.9882 28.7238 79.2945 28.3224C79.8227 27.6147 79.5269 26.3894 78.6185 26.1782Z" fill="url(#paint83_linear_25_189)"/>
<path d="M79.041 22.6395C78.5551 22.5339 77.9847 22.7663 77.6678 23.136C77.3509 23.5057 77.4037 24.0338 77.6467 24.4247C77.7312 24.562 77.8368 24.6676 77.953 24.7627C78.0798 24.9317 78.2805 25.069 78.46 25.1218C78.9248 25.2697 79.4107 25.1746 79.717 24.7732C80.2557 24.0655 79.9494 22.8402 79.041 22.629L79.041 22.6395Z" fill="url(#paint84_linear_25_189)"/>
<path d="M79.0832 19.0165C78.6079 18.9109 78.0269 19.1432 77.71 19.5129C77.3932 19.8826 77.446 20.4108 77.6889 20.8016C77.7734 20.9389 77.879 21.0446 77.9952 21.1396C78.122 21.3086 78.3227 21.4459 78.5023 21.4988C78.967 21.6466 79.4635 21.5516 79.7592 21.1502C80.2874 20.4425 79.9916 19.2172 79.0832 19.0059L79.0832 19.0165Z" fill="url(#paint85_linear_25_189)"/>
<path d="M78.703 15.2773C78.2276 15.1717 77.6467 15.404 77.3298 15.7737C77.0129 16.1434 77.0657 16.6716 77.3087 17.0624C77.3932 17.1997 77.4882 17.3159 77.615 17.4004C77.7417 17.5694 77.9424 17.7067 78.122 17.7701C78.5868 17.918 79.0832 17.8229 79.379 17.4215C79.9071 16.7138 79.6114 15.4886 78.703 15.2773Z" fill="url(#paint86_linear_25_189)"/>
<path d="M78.3227 11.6754C77.8368 11.5698 77.2664 11.8022 76.9496 12.1719C76.6327 12.5416 76.6855 13.0697 76.9284 13.4605C77.0129 13.5979 77.1186 13.7141 77.2347 13.7986C77.3721 13.9676 77.5622 14.1049 77.7418 14.1577C78.196 14.3056 78.6924 14.2105 78.9987 13.8091C79.5374 13.1014 79.2311 11.8761 78.3227 11.6754Z" fill="url(#paint87_linear_25_189)"/>
<path d="M47.4265 13.9675C46.9934 13.8725 46.5287 14.2633 46.5392 14.6964C46.5392 14.8231 46.6026 14.9393 46.6977 15.0344C46.7716 15.1611 46.8984 15.2668 47.0357 15.3196C47.2998 15.4252 47.5955 15.3618 47.7856 15.1506C48.1237 14.7703 47.9335 14.0837 47.4265 13.9781L47.4265 13.9675Z" fill="url(#paint88_linear_25_189)"/>
<path d="M46.7927 11.9078C46.3597 11.8128 45.8949 12.2036 45.9055 12.6367C45.9055 12.7634 45.9688 12.8796 46.0639 12.9747C46.1378 13.1014 46.2646 13.2071 46.4019 13.2599C46.6765 13.3655 46.9512 13.3021 47.1519 13.0909C47.4899 12.7106 47.2997 12.024 46.7927 11.9184L46.7927 11.9078Z" fill="url(#paint89_linear_25_189)"/>
<path d="M46.1907 9.79529C45.7576 9.70023 45.2928 10.0911 45.3034 10.5241C45.3034 10.6509 45.3668 10.7671 45.4618 10.8621C45.5358 10.9889 45.6625 11.0945 45.7999 11.1473C46.0745 11.253 46.3597 11.1896 46.5498 10.9783C46.8878 10.5981 46.6977 9.91148 46.1907 9.80586L46.1907 9.79529Z" fill="url(#paint90_linear_25_189)"/>
<path d="M45.5042 7.70381C45.0711 7.60874 44.6063 7.99956 44.6169 8.42208C44.6169 8.54883 44.6803 8.66502 44.7648 8.76009C44.8387 8.88684 44.9654 8.99247 45.1133 9.04528C45.3774 9.15091 45.6732 9.08753 45.8633 8.87628C46.2013 8.49602 46.0112 7.80943 45.5042 7.70381Z" fill="url(#paint91_linear_25_189)"/>
<path d="M44.733 5.65464C44.3 5.55958 43.8352 5.9504 43.8458 6.38347C43.8458 6.51023 43.9091 6.62642 44.0042 6.72148C44.0781 6.84824 44.2049 6.95386 44.3528 7.00668C44.6168 7.11231 44.902 7.04893 45.0922 6.82711C45.4302 6.44685 45.24 5.76027 44.733 5.65464Z" fill="url(#paint92_linear_25_189)"/>
<path d="M43.793 3.66883C43.3599 3.57377 42.8951 3.96459 42.9057 4.39766C42.9057 4.52442 42.9691 4.64061 43.0536 4.73567C43.1275 4.86242 43.2543 4.96805 43.4021 5.02087C43.6662 5.1265 43.962 5.06312 44.1521 4.85186C44.4901 4.4716 44.2894 3.78502 43.793 3.67939L43.793 3.66883Z" fill="url(#paint93_linear_25_189)"/>
</g>
</g>
<defs>
<linearGradient id="paint0_linear_25_189" x1="0.66284" y1="32.449" x2="184.512" y2="32.449" gradientUnits="userSpaceOnUse">
<stop stop-color="#957237"/>
<stop offset="0.5" stop-color="#F1CB73"/>
<stop offset="1" stop-color="#98703B"/>
</linearGradient>
<linearGradient id="paint1_linear_25_189" x1="0.713378" y1="32.428" x2="183.166" y2="32.428" gradientUnits="userSpaceOnUse">
<stop stop-color="#957237"/>
<stop offset="0.5" stop-color="#F1CB73"/>
<stop offset="1" stop-color="#98703B"/>
</linearGradient>
<linearGradient id="paint2_linear_25_189" x1="0.871825" y1="31.2126" x2="184.207" y2="31.2126" gradientUnits="userSpaceOnUse">
<stop stop-color="#957237"/>
<stop offset="0.5" stop-color="#F1CB73"/>
<stop offset="1" stop-color="#98703B"/>
</linearGradient>
<linearGradient id="paint3_linear_25_189" x1="178.957" y1="57.0816" x2="184.512" y2="57.0816" gradientUnits="userSpaceOnUse">
<stop stop-color="#957237"/>
<stop offset="0.5" stop-color="#F1CB73"/>
<stop offset="1" stop-color="#98703B"/>
</linearGradient>
<linearGradient id="paint4_linear_25_189" x1="0.776367" y1="12.9161" x2="26.5049" y2="12.9161" gradientUnits="userSpaceOnUse">
<stop stop-color="#957237"/>
<stop offset="0.5" stop-color="#F1CB73"/>
<stop offset="1" stop-color="#98703B"/>
</linearGradient>
<linearGradient id="paint5_linear_25_189" x1="0.618774" y1="2.81292" x2="22.3183" y2="2.81292" gradientUnits="userSpaceOnUse">
<stop stop-color="#957237"/>
<stop offset="0.5" stop-color="#F1CB73"/>
<stop offset="1" stop-color="#98703B"/>
</linearGradient>
<linearGradient id="paint6_linear_25_189" x1="29.7872" y1="35.2626" x2="63.9166" y2="35.2626" gradientUnits="userSpaceOnUse">
<stop stop-color="#957237"/>
<stop offset="0.5" stop-color="#F1CB73"/>
<stop offset="1" stop-color="#98703B"/>
</linearGradient>
<linearGradient id="paint7_linear_25_189" x1="67.8046" y1="52.6805" x2="91.1168" y2="52.6805" gradientUnits="userSpaceOnUse">
<stop stop-color="#957237"/>
<stop offset="0.5" stop-color="#F1CB73"/>
<stop offset="1" stop-color="#98703B"/>
</linearGradient>
<linearGradient id="paint8_linear_25_189" x1="97.2499" y1="61.2143" x2="175.543" y2="61.2143" gradientUnits="userSpaceOnUse">
<stop stop-color="#957237"/>
<stop offset="0.5" stop-color="#F1CB73"/>
<stop offset="1" stop-color="#98703B"/>
</linearGradient>
<linearGradient id="paint9_linear_25_189" x1="27.4297" y1="3.53244" x2="67.2462" y2="3.53244" gradientUnits="userSpaceOnUse">
<stop stop-color="#957237"/>
<stop offset="0.5" stop-color="#F1CB73"/>
<stop offset="1" stop-color="#98703B"/>
</linearGradient>
<linearGradient id="paint10_linear_25_189" x1="70.5222" y1="9.291" x2="81.8633" y2="9.291" gradientUnits="userSpaceOnUse">
<stop stop-color="#957237"/>
<stop offset="0.5" stop-color="#F1CB73"/>
<stop offset="1" stop-color="#98703B"/>
</linearGradient>
<linearGradient id="paint11_linear_25_189" x1="85.514" y1="28.806" x2="132.497" y2="28.806" gradientUnits="userSpaceOnUse">
<stop stop-color="#957237"/>
<stop offset="0.5" stop-color="#F1CB73"/>
<stop offset="1" stop-color="#98703B"/>
</linearGradient>
<linearGradient id="paint12_linear_25_189" x1="136.472" y1="51.9315" x2="172.505" y2="51.9315" gradientUnits="userSpaceOnUse">
<stop stop-color="#957237"/>
<stop offset="0.5" stop-color="#F1CB73"/>
<stop offset="1" stop-color="#98703B"/>
</linearGradient>
<linearGradient id="paint13_linear_25_189" x1="25.8971" y1="19.2217" x2="43.138" y2="19.2217" gradientUnits="userSpaceOnUse">
<stop stop-color="#957237"/>
<stop offset="0.5" stop-color="#F1CB73"/>
<stop offset="1" stop-color="#98703B"/>
</linearGradient>
<linearGradient id="paint14_linear_25_189" x1="29.6622" y1="20.9552" x2="43.5289" y2="20.9552" gradientUnits="userSpaceOnUse">
<stop stop-color="#957237"/>
<stop offset="0.5" stop-color="#F1CB73"/>
<stop offset="1" stop-color="#98703B"/>
</linearGradient>
<linearGradient id="paint15_linear_25_189" x1="21.4088" y1="5.93297" x2="30.8535" y2="5.93297" gradientUnits="userSpaceOnUse">
<stop stop-color="#957237"/>
<stop offset="0.5" stop-color="#F1CB73"/>
<stop offset="1" stop-color="#98703B"/>
</linearGradient>
<linearGradient id="paint16_linear_25_189" x1="27.2444" y1="5.9376" x2="31.5749" y2="5.9376" gradientUnits="userSpaceOnUse">
<stop stop-color="#957237"/>
<stop offset="0.5" stop-color="#F1CB73"/>
<stop offset="1" stop-color="#98703B"/>
</linearGradient>
<linearGradient id="paint17_linear_25_189" x1="66.2811" y1="16.8527" x2="74.0798" y2="16.8527" gradientUnits="userSpaceOnUse">
<stop stop-color="#957237"/>
<stop offset="0.5" stop-color="#F1CB73"/>
<stop offset="1" stop-color="#98703B"/>
</linearGradient>
<linearGradient id="paint18_linear_25_189" x1="70.4491" y1="17.6319" x2="74.9399" y2="17.6319" gradientUnits="userSpaceOnUse">
<stop stop-color="#957237"/>
<stop offset="0.5" stop-color="#F1CB73"/>
<stop offset="1" stop-color="#98703B"/>
</linearGradient>
<linearGradient id="paint19_linear_25_189" x1="80.8367" y1="21.3126" x2="83.4297" y2="21.3126" gradientUnits="userSpaceOnUse">
<stop stop-color="#957237"/>
<stop offset="0.5" stop-color="#F1CB73"/>
<stop offset="1" stop-color="#98703B"/>
</linearGradient>
<linearGradient id="paint20_linear_25_189" x1="80.7522" y1="22.5416" x2="86.2808" y2="22.5416" gradientUnits="userSpaceOnUse">
<stop stop-color="#957237"/>
<stop offset="0.5" stop-color="#F1CB73"/>
<stop offset="1" stop-color="#98703B"/>
</linearGradient>
<linearGradient id="paint21_linear_25_189" x1="62.9235" y1="40.7705" x2="85.3259" y2="40.7705" gradientUnits="userSpaceOnUse">
<stop stop-color="#957237"/>
<stop offset="0.5" stop-color="#F1CB73"/>
<stop offset="1" stop-color="#98703B"/>
</linearGradient>
<linearGradient id="paint22_linear_25_189" x1="67.6565" y1="42.3024" x2="85.8117" y2="42.3024" gradientUnits="userSpaceOnUse">
<stop stop-color="#957237"/>
<stop offset="0.5" stop-color="#F1CB73"/>
<stop offset="1" stop-color="#98703B"/>
</linearGradient>
<linearGradient id="paint23_linear_25_189" x1="89.8334" y1="52.1496" x2="111.585" y2="52.1496" gradientUnits="userSpaceOnUse">
<stop stop-color="#957237"/>
<stop offset="0.5" stop-color="#F1CB73"/>
<stop offset="1" stop-color="#98703B"/>
</linearGradient>
<linearGradient id="paint24_linear_25_189" x1="97.1708" y1="52.851" x2="112.662" y2="52.851" gradientUnits="userSpaceOnUse">
<stop stop-color="#957237"/>
<stop offset="0.5" stop-color="#F1CB73"/>
<stop offset="1" stop-color="#98703B"/>
</linearGradient>
<linearGradient id="paint25_linear_25_189" x1="131.615" y1="48.2794" x2="136.302" y2="48.2794" gradientUnits="userSpaceOnUse">
<stop stop-color="#957237"/>
<stop offset="0.5" stop-color="#F1CB73"/>
<stop offset="1" stop-color="#98703B"/>
</linearGradient>
<linearGradient id="paint26_linear_25_189" x1="135.552" y1="49.7972" x2="137.502" y2="49.7972" gradientUnits="userSpaceOnUse">
<stop stop-color="#957237"/>
<stop offset="0.5" stop-color="#F1CB73"/>
<stop offset="1" stop-color="#98703B"/>
</linearGradient>
<linearGradient id="paint27_linear_25_189" x1="22.9948" y1="17.3418" x2="39.8424" y2="17.3418" gradientUnits="userSpaceOnUse">
<stop stop-color="#957237"/>
<stop offset="0.5" stop-color="#F1CB73"/>
<stop offset="1" stop-color="#98703B"/>
</linearGradient>
<linearGradient id="paint28_linear_25_189" x1="22.2976" y1="16.6926" x2="38.1841" y2="16.6926" gradientUnits="userSpaceOnUse">
<stop stop-color="#957237"/>
<stop offset="0.5" stop-color="#F1CB73"/>
<stop offset="1" stop-color="#98703B"/>
</linearGradient>
<linearGradient id="paint29_linear_25_189" x1="20.84" y1="15.7578" x2="36.2828" y2="15.7578" gradientUnits="userSpaceOnUse">
<stop stop-color="#957237"/>
<stop offset="0.5" stop-color="#F1CB73"/>
<stop offset="1" stop-color="#98703B"/>
</linearGradient>
<linearGradient id="paint30_linear_25_189" x1="19.4985" y1="14.464" x2="33.2619" y2="14.464" gradientUnits="userSpaceOnUse">
<stop stop-color="#957237"/>
<stop offset="0.5" stop-color="#F1CB73"/>
<stop offset="1" stop-color="#98703B"/>
</linearGradient>
<linearGradient id="paint31_linear_25_189" x1="17.9141" y1="13.3872" x2="31.2126" y2="13.3872" gradientUnits="userSpaceOnUse">
<stop stop-color="#957237"/>
<stop offset="0.5" stop-color="#F1CB73"/>
<stop offset="1" stop-color="#98703B"/>
</linearGradient>
<linearGradient id="paint32_linear_25_189" x1="17.0162" y1="12.8161" x2="29.7022" y2="12.8161" gradientUnits="userSpaceOnUse">
<stop stop-color="#957237"/>
<stop offset="0.5" stop-color="#F1CB73"/>
<stop offset="1" stop-color="#98703B"/>
</linearGradient>
<linearGradient id="paint33_linear_25_189" x1="23.8715" y1="18.3198" x2="42.0078" y2="18.3198" gradientUnits="userSpaceOnUse">
<stop stop-color="#957237"/>
<stop offset="0.5" stop-color="#F1CB73"/>
<stop offset="1" stop-color="#98703B"/>
</linearGradient>
<linearGradient id="paint34_linear_25_189" x1="57.25" y1="37.4856" x2="79.1784" y2="37.4856" gradientUnits="userSpaceOnUse">
<stop stop-color="#957237"/>
<stop offset="0.5" stop-color="#F1CB73"/>
<stop offset="1" stop-color="#98703B"/>
</linearGradient>
<linearGradient id="paint35_linear_25_189" x1="55.9507" y1="36.8623" x2="77.2875" y2="36.8623" gradientUnits="userSpaceOnUse">
<stop stop-color="#957237"/>
<stop offset="0.5" stop-color="#F1CB73"/>
<stop offset="1" stop-color="#98703B"/>
</linearGradient>
<linearGradient id="paint36_linear_25_189" x1="54.1445" y1="35.9699" x2="74.6786" y2="35.9699" gradientUnits="userSpaceOnUse">
<stop stop-color="#957237"/>
<stop offset="0.5" stop-color="#F1CB73"/>
<stop offset="1" stop-color="#98703B"/>
</linearGradient>
<linearGradient id="paint37_linear_25_189" x1="52.8241" y1="35.1301" x2="73.2842" y2="35.1301" gradientUnits="userSpaceOnUse">
<stop stop-color="#957237"/>
<stop offset="0.5" stop-color="#F1CB73"/>
<stop offset="1" stop-color="#98703B"/>
</linearGradient>
<linearGradient id="paint38_linear_25_189" x1="51.1447" y1="33.9366" x2="71.4252" y2="33.9366" gradientUnits="userSpaceOnUse">
<stop stop-color="#957237"/>
<stop offset="0.5" stop-color="#F1CB73"/>
<stop offset="1" stop-color="#98703B"/>
</linearGradient>
<linearGradient id="paint39_linear_25_189" x1="49.3595" y1="32.9066" x2="69.6612" y2="32.9066" gradientUnits="userSpaceOnUse">
<stop stop-color="#957237"/>
<stop offset="0.5" stop-color="#F1CB73"/>
<stop offset="1" stop-color="#98703B"/>
</linearGradient>
<linearGradient id="paint40_linear_25_189" x1="47.3632" y1="31.6655" x2="67.9078" y2="31.6655" gradientUnits="userSpaceOnUse">
<stop stop-color="#957237"/>
<stop offset="0.5" stop-color="#F1CB73"/>
<stop offset="1" stop-color="#98703B"/>
</linearGradient>
<linearGradient id="paint41_linear_25_189" x1="46.2013" y1="31.0159" x2="66.6509" y2="31.0159" gradientUnits="userSpaceOnUse">
<stop stop-color="#957237"/>
<stop offset="0.5" stop-color="#F1CB73"/>
<stop offset="1" stop-color="#98703B"/>
</linearGradient>
<linearGradient id="paint42_linear_25_189" x1="44.5323" y1="30.097" x2="64.6017" y2="30.097" gradientUnits="userSpaceOnUse">
<stop stop-color="#957237"/>
<stop offset="0.5" stop-color="#F1CB73"/>
<stop offset="1" stop-color="#98703B"/>
</linearGradient>
<linearGradient id="paint43_linear_25_189" x1="141.161" y1="61.1146" x2="148.608" y2="61.1146" gradientUnits="userSpaceOnUse">
<stop stop-color="#957237"/>
<stop offset="0.5" stop-color="#F1CB73"/>
<stop offset="1" stop-color="#98703B"/>
</linearGradient>
<linearGradient id="paint44_linear_25_189" x1="139.608" y1="60.8346" x2="147.023" y2="60.8346" gradientUnits="userSpaceOnUse">
<stop stop-color="#957237"/>
<stop offset="0.5" stop-color="#F1CB73"/>
<stop offset="1" stop-color="#98703B"/>
</linearGradient>
<linearGradient id="paint45_linear_25_189" x1="137.284" y1="60.5917" x2="145.513" y2="60.5917" gradientUnits="userSpaceOnUse">
<stop stop-color="#957237"/>
<stop offset="0.5" stop-color="#F1CB73"/>
<stop offset="1" stop-color="#98703B"/>
</linearGradient>
<linearGradient id="paint46_linear_25_189" x1="134.453" y1="60.3434" x2="143.717" y2="60.3434" gradientUnits="userSpaceOnUse">
<stop stop-color="#957237"/>
<stop offset="0.5" stop-color="#F1CB73"/>
<stop offset="1" stop-color="#98703B"/>
</linearGradient>
<linearGradient id="paint47_linear_25_189" x1="131.792" y1="60.0213" x2="141.457" y2="60.0213" gradientUnits="userSpaceOnUse">
<stop stop-color="#957237"/>
<stop offset="0.5" stop-color="#F1CB73"/>
<stop offset="1" stop-color="#98703B"/>
</linearGradient>
<linearGradient id="paint48_linear_25_189" x1="128.834" y1="59.6252" x2="138.731" y2="59.6252" gradientUnits="userSpaceOnUse">
<stop stop-color="#957237"/>
<stop offset="0.5" stop-color="#F1CB73"/>
<stop offset="1" stop-color="#98703B"/>
</linearGradient>
<linearGradient id="paint49_linear_25_189" x1="126.521" y1="59.2713" x2="136.862" y2="59.2713" gradientUnits="userSpaceOnUse">
<stop stop-color="#957237"/>
<stop offset="0.5" stop-color="#F1CB73"/>
<stop offset="1" stop-color="#98703B"/>
</linearGradient>
<linearGradient id="paint50_linear_25_189" x1="125.158" y1="58.9281" x2="135.013" y2="58.9281" gradientUnits="userSpaceOnUse">
<stop stop-color="#957237"/>
<stop offset="0.5" stop-color="#F1CB73"/>
<stop offset="1" stop-color="#98703B"/>
</linearGradient>
<linearGradient id="paint51_linear_25_189" x1="121.736" y1="58.6271" x2="133.323" y2="58.6271" gradientUnits="userSpaceOnUse">
<stop stop-color="#957237"/>
<stop offset="0.5" stop-color="#F1CB73"/>
<stop offset="1" stop-color="#98703B"/>
</linearGradient>
<linearGradient id="paint52_linear_25_189" x1="119.56" y1="58.3471" x2="132.182" y2="58.3471" gradientUnits="userSpaceOnUse">
<stop stop-color="#957237"/>
<stop offset="0.5" stop-color="#F1CB73"/>
<stop offset="1" stop-color="#98703B"/>
</linearGradient>
<linearGradient id="paint53_linear_25_189" x1="117.004" y1="57.782" x2="130.302" y2="57.782" gradientUnits="userSpaceOnUse">
<stop stop-color="#957237"/>
<stop offset="0.5" stop-color="#F1CB73"/>
<stop offset="1" stop-color="#98703B"/>
</linearGradient>
<linearGradient id="paint54_linear_25_189" x1="114.648" y1="57.1483" x2="128.243" y2="57.1483" gradientUnits="userSpaceOnUse">
<stop stop-color="#957237"/>
<stop offset="0.5" stop-color="#F1CB73"/>
<stop offset="1" stop-color="#98703B"/>
</linearGradient>
<linearGradient id="paint55_linear_25_189" x1="111.765" y1="56.636" x2="126.204" y2="56.636" gradientUnits="userSpaceOnUse">
<stop stop-color="#957237"/>
<stop offset="0.5" stop-color="#F1CB73"/>
<stop offset="1" stop-color="#98703B"/>
</linearGradient>
<linearGradient id="paint56_linear_25_189" x1="110.096" y1="56.1975" x2="124.334" y2="56.1975" gradientUnits="userSpaceOnUse">
<stop stop-color="#957237"/>
<stop offset="0.5" stop-color="#F1CB73"/>
<stop offset="1" stop-color="#98703B"/>
</linearGradient>
<linearGradient id="paint57_linear_25_189" x1="43.6768" y1="9.67544" x2="50.1878" y2="9.67544" gradientUnits="userSpaceOnUse">
<stop stop-color="#957237"/>
<stop offset="0.5" stop-color="#F1CB73"/>
<stop offset="1" stop-color="#98703B"/>
</linearGradient>
<linearGradient id="paint58_linear_25_189" x1="45.0817" y1="10.3339" x2="52.5918" y2="10.3339" gradientUnits="userSpaceOnUse">
<stop stop-color="#957237"/>
<stop offset="0.5" stop-color="#F1CB73"/>
<stop offset="1" stop-color="#98703B"/>
</linearGradient>
<linearGradient id="paint59_linear_25_189" x1="47.6061" y1="10.936" x2="54.905" y2="10.936" gradientUnits="userSpaceOnUse">
<stop stop-color="#957237"/>
<stop offset="0.5" stop-color="#F1CB73"/>
<stop offset="1" stop-color="#98703B"/>
</linearGradient>
<linearGradient id="paint60_linear_25_189" x1="49.6448" y1="11.5222" x2="57.0493" y2="11.5222" gradientUnits="userSpaceOnUse">
<stop stop-color="#957237"/>
<stop offset="0.5" stop-color="#F1CB73"/>
<stop offset="1" stop-color="#98703B"/>
</linearGradient>
<linearGradient id="paint61_linear_25_189" x1="52.1798" y1="12.2352" x2="59.2569" y2="12.2352" gradientUnits="userSpaceOnUse">
<stop stop-color="#957237"/>
<stop offset="0.5" stop-color="#F1CB73"/>
<stop offset="1" stop-color="#98703B"/>
</linearGradient>
<linearGradient id="paint62_linear_25_189" x1="83.1605" y1="23.8543" x2="87.9983" y2="23.8543" gradientUnits="userSpaceOnUse">
<stop stop-color="#957237"/>
<stop offset="0.5" stop-color="#F1CB73"/>
<stop offset="1" stop-color="#98703B"/>
</linearGradient>
<linearGradient id="paint63_linear_25_189" x1="84.745" y1="24.8736" x2="89.7201" y2="24.8736" gradientUnits="userSpaceOnUse">
<stop stop-color="#957237"/>
<stop offset="0.5" stop-color="#F1CB73"/>
<stop offset="1" stop-color="#98703B"/>
</linearGradient>
<linearGradient id="paint64_linear_25_189" x1="86.9103" y1="25.9775" x2="91.3572" y2="25.9775" gradientUnits="userSpaceOnUse">
<stop stop-color="#957237"/>
<stop offset="0.5" stop-color="#F1CB73"/>
<stop offset="1" stop-color="#98703B"/>
</linearGradient>
<linearGradient id="paint65_linear_25_189" x1="88.1672" y1="26.8648" x2="93.2796" y2="26.8648" gradientUnits="userSpaceOnUse">
<stop stop-color="#957237"/>
<stop offset="0.5" stop-color="#F1CB73"/>
<stop offset="1" stop-color="#98703B"/>
</linearGradient>
<linearGradient id="paint66_linear_25_189" x1="90.2164" y1="27.8365" x2="95.276" y2="27.8365" gradientUnits="userSpaceOnUse">
<stop stop-color="#957237"/>
<stop offset="0.5" stop-color="#F1CB73"/>
<stop offset="1" stop-color="#98703B"/>
</linearGradient>
<linearGradient id="paint67_linear_25_189" x1="91.3573" y1="28.634" x2="97.1774" y2="28.634" gradientUnits="userSpaceOnUse">
<stop stop-color="#957237"/>
<stop offset="0.5" stop-color="#F1CB73"/>
<stop offset="1" stop-color="#98703B"/>
</linearGradient>
<linearGradient id="paint68_linear_25_189" x1="93.1952" y1="29.4156" x2="98.466" y2="29.4156" gradientUnits="userSpaceOnUse">
<stop stop-color="#957237"/>
<stop offset="0.5" stop-color="#F1CB73"/>
<stop offset="1" stop-color="#98703B"/>
</linearGradient>
<linearGradient id="paint69_linear_25_189" x1="94.9591" y1="30.1867" x2="100.093" y2="30.1867" gradientUnits="userSpaceOnUse">
<stop stop-color="#957237"/>
<stop offset="0.5" stop-color="#F1CB73"/>
<stop offset="1" stop-color="#98703B"/>
</linearGradient>
<linearGradient id="paint70_linear_25_189" x1="96.8076" y1="31.1215" x2="102.005" y2="31.1215" gradientUnits="userSpaceOnUse">
<stop stop-color="#957237"/>
<stop offset="0.5" stop-color="#F1CB73"/>
<stop offset="1" stop-color="#98703B"/>
</linearGradient>
<linearGradient id="paint71_linear_25_189" x1="97.6316" y1="31.5599" x2="102.913" y2="31.5599" gradientUnits="userSpaceOnUse">
<stop stop-color="#957237"/>
<stop offset="0.5" stop-color="#F1CB73"/>
<stop offset="1" stop-color="#98703B"/>
</linearGradient>
<linearGradient id="paint72_linear_25_189" x1="103.758" y1="34.8924" x2="107.972" y2="34.8924" gradientUnits="userSpaceOnUse">
<stop stop-color="#957237"/>
<stop offset="0.5" stop-color="#F1CB73"/>
<stop offset="1" stop-color="#98703B"/>
</linearGradient>
<linearGradient id="paint73_linear_25_189" x1="104.888" y1="35.5578" x2="109.377" y2="35.5578" gradientUnits="userSpaceOnUse">
<stop stop-color="#957237"/>
<stop offset="0.5" stop-color="#F1CB73"/>
<stop offset="1" stop-color="#98703B"/>
</linearGradient>
<linearGradient id="paint74_linear_25_189" x1="106.42" y1="36.5983" x2="111.236" y2="36.5983" gradientUnits="userSpaceOnUse">
<stop stop-color="#957237"/>
<stop offset="0.5" stop-color="#F1CB73"/>
<stop offset="1" stop-color="#98703B"/>
</linearGradient>
<linearGradient id="paint75_linear_25_189" x1="108.025" y1="37.4221" x2="112.779" y2="37.4221" gradientUnits="userSpaceOnUse">
<stop stop-color="#957237"/>
<stop offset="0.5" stop-color="#F1CB73"/>
<stop offset="1" stop-color="#98703B"/>
</linearGradient>
<linearGradient id="paint76_linear_25_189" x1="109.282" y1="37.9081" x2="113.602" y2="37.9081" gradientUnits="userSpaceOnUse">
<stop stop-color="#957237"/>
<stop offset="0.5" stop-color="#F1CB73"/>
<stop offset="1" stop-color="#98703B"/>
</linearGradient>
<linearGradient id="paint77_linear_25_189" x1="89.9242" y1="54.0906" x2="91.9699" y2="54.0906" gradientUnits="userSpaceOnUse">
<stop stop-color="#957237"/>
<stop offset="0.5" stop-color="#F1CB73"/>
<stop offset="1" stop-color="#98703B"/>
</linearGradient>
<linearGradient id="paint78_linear_25_189" x1="93.093" y1="53.2542" x2="95.1387" y2="53.2542" gradientUnits="userSpaceOnUse">
<stop stop-color="#957237"/>
<stop offset="0.5" stop-color="#F1CB73"/>
<stop offset="1" stop-color="#98703B"/>
</linearGradient>
<linearGradient id="paint79_linear_25_189" x1="96.3252" y1="52.3142" x2="98.3709" y2="52.3142" gradientUnits="userSpaceOnUse">
<stop stop-color="#957237"/>
<stop offset="0.5" stop-color="#F1CB73"/>
<stop offset="1" stop-color="#98703B"/>
</linearGradient>
<linearGradient id="paint80_linear_25_189" x1="99.2406" y1="51.2896" x2="101.286" y2="51.2896" gradientUnits="userSpaceOnUse">
<stop stop-color="#957237"/>
<stop offset="0.5" stop-color="#F1CB73"/>
<stop offset="1" stop-color="#98703B"/>
</linearGradient>
<linearGradient id="paint81_linear_25_189" x1="102.029" y1="49.9376" x2="104.064" y2="49.9376" gradientUnits="userSpaceOnUse">
<stop stop-color="#957237"/>
<stop offset="0.5" stop-color="#F1CB73"/>
<stop offset="1" stop-color="#98703B"/>
</linearGradient>
<linearGradient id="paint82_linear_25_189" x1="104.649" y1="48.3109" x2="106.694" y2="48.3109" gradientUnits="userSpaceOnUse">
<stop stop-color="#957237"/>
<stop offset="0.5" stop-color="#F1CB73"/>
<stop offset="1" stop-color="#98703B"/>
</linearGradient>
<linearGradient id="paint83_linear_25_189" x1="77.0247" y1="27.4447" x2="79.5558" y2="27.4447" gradientUnits="userSpaceOnUse">
<stop stop-color="#957237"/>
<stop offset="0.5" stop-color="#F1CB73"/>
<stop offset="1" stop-color="#98703B"/>
</linearGradient>
<linearGradient id="paint84_linear_25_189" x1="77.4471" y1="23.9008" x2="79.983" y2="23.9008" gradientUnits="userSpaceOnUse">
<stop stop-color="#957237"/>
<stop offset="0.5" stop-color="#F1CB73"/>
<stop offset="1" stop-color="#98703B"/>
</linearGradient>
<linearGradient id="paint85_linear_25_189" x1="77.4894" y1="20.2777" x2="80.0206" y2="20.2777" gradientUnits="userSpaceOnUse">
<stop stop-color="#957237"/>
<stop offset="0.5" stop-color="#F1CB73"/>
<stop offset="1" stop-color="#98703B"/>
</linearGradient>
<linearGradient id="paint86_linear_25_189" x1="77.1091" y1="16.5438" x2="79.6403" y2="16.5438" gradientUnits="userSpaceOnUse">
<stop stop-color="#957237"/>
<stop offset="0.5" stop-color="#F1CB73"/>
<stop offset="1" stop-color="#98703B"/>
</linearGradient>
<linearGradient id="paint87_linear_25_189" x1="76.7289" y1="12.9367" x2="79.2648" y2="12.9367" gradientUnits="userSpaceOnUse">
<stop stop-color="#957237"/>
<stop offset="0.5" stop-color="#F1CB73"/>
<stop offset="1" stop-color="#98703B"/>
</linearGradient>
<linearGradient id="paint88_linear_25_189" x1="46.5391" y1="14.6614" x2="47.9556" y2="14.6614" gradientUnits="userSpaceOnUse">
<stop stop-color="#957237"/>
<stop offset="0.5" stop-color="#F1CB73"/>
<stop offset="1" stop-color="#98703B"/>
</linearGradient>
<linearGradient id="paint89_linear_25_189" x1="45.9053" y1="12.6018" x2="47.3218" y2="12.6018" gradientUnits="userSpaceOnUse">
<stop stop-color="#957237"/>
<stop offset="0.5" stop-color="#F1CB73"/>
<stop offset="1" stop-color="#98703B"/>
</linearGradient>
<linearGradient id="paint90_linear_25_189" x1="45.3032" y1="10.4892" x2="46.7197" y2="10.4892" gradientUnits="userSpaceOnUse">
<stop stop-color="#957237"/>
<stop offset="0.5" stop-color="#F1CB73"/>
<stop offset="1" stop-color="#98703B"/>
</linearGradient>
<linearGradient id="paint91_linear_25_189" x1="44.6167" y1="8.39243" x2="46.0332" y2="8.39243" gradientUnits="userSpaceOnUse">
<stop stop-color="#957237"/>
<stop offset="0.5" stop-color="#F1CB73"/>
<stop offset="1" stop-color="#98703B"/>
</linearGradient>
<linearGradient id="paint92_linear_25_189" x1="43.8456" y1="6.34838" x2="45.2621" y2="6.34838" gradientUnits="userSpaceOnUse">
<stop stop-color="#957237"/>
<stop offset="0.5" stop-color="#F1CB73"/>
<stop offset="1" stop-color="#98703B"/>
</linearGradient>
<linearGradient id="paint93_linear_25_189" x1="42.9055" y1="4.36274" x2="44.3196" y2="4.36274" gradientUnits="userSpaceOnUse">
<stop stop-color="#957237"/>
<stop offset="0.5" stop-color="#F1CB73"/>
<stop offset="1" stop-color="#98703B"/>
</linearGradient>
<clipPath id="clip0_25_189">
<rect width="64" height="183.877" fill="white" transform="translate(0.622803 64.5) rotate(-90)"/>
</clipPath>
</defs>
</svg>
