<?xml version="1.0" encoding="UTF-8"?>
<svg id="Capa_2" xmlns="http://www.w3.org/2000/svg" viewBox="0 0 67.89 74.96">
  <defs>
    <style>
      .cls-1 {
        fill: #0e2025;
      }
    </style>
  </defs>
  <g id="OBJECTS">
    <g>
      <path class="cls-1" d="M43.28,15.64c-1.26,2.16-1.89,4.69-.76,7.08.48,1.02.55.22.21.84-.62,1.16-2.58,1.92-3.7,2.24-3.77,1.1-8.58.42-11.6-2.22-.24-.21-.71-.52-.82-.81-.27-.71-.07.17.11-.65.17-.77.66-1.27.76-2.12.41-3.5-2.32-5.73-3.58-8.66-.8-1.88-.6-1.87-2.41-2.85-1.03-.55-2.06-1.11-3.08-1.66-1.33-.71-1.81-.62-1.08-2.2.71-1.54,2.24-3.98,3.96-3.45,1.1.33,2.21,1.69,2.88,2.6.05.07.21.06.27.04,3.55-1.35,8.74-1.6,9.69,3.11.12.58.77-.1.85-.36,1.34-4.67,6-4.42,9.58-2.49.08.04.24-.01.31-.05.82-.55,1.65-1.09,2.49-1.61,1.26-.78,1.07-.99,2.06-.13,1.12.98,1.84,2.41,2.67,3.62.74,1.08.94.77-.34,1.45-1.63.86-4,1.62-5.38,2.85-1.44,1.28-2.08,3.84-3.1,5.45-.38.59.36.67.65.21.89-1.39,1.55-2.84,2.34-4.28.48-.89.16-.6,1.37-1.24,1.81-.96,3.63-1.92,5.44-2.88.19-.1.45-.38.4-.62-.48-2.36-2.51-4.49-4.11-6.2-.1-.1-.28-.05-.38,0-1.05.59-2.04,1.42-3.12,1.92-.26.12-.66.62-.94.62-.34,0-1.88-1-2.3-1.13-1.59-.5-3.29-.57-4.81.16-1.8.86-3.12,2.7-3.66,4.6.28-.12.56-.24.85-.36-.92-4.54-5.26-4.8-9-4.01-1.26.26-.82.38-1.76-.24-.85-.56-1.37-1.49-2.37-1.89-1.15-.46-.69-.33-1.52-.08-2.33.72-3.86,4.17-4.3,6.26-.03.14.02.24.14.31,1.76.95,4.69,1.83,6.06,3.26.75.78,1.07,2.51,1.69,3.58,1.58,2.71,4.24,5.53,1.69,8.81-.09.12-.27.38-.16.54,3.38,5.16,14.91,6.21,18.2.35.06-.11.16-.3.08-.43-1.4-2.22-1.13-4.83.18-7.07.35-.61-.37-.68-.65-.21Z"/>
      <path class="cls-1" d="M25.71,22.37C13.53,34.18,3.92,50.35.02,66.83c-.03.11-.05.31.08.38,6.08,3.35,13.21,5.24,19.99,6.45,15.98,2.87,32.31.9,47.37-5.07.27-.11.45-.44.43-.72-1.72-17.02-12.03-33.64-24.23-45.07-.31-.29-.94.56-.61.87,10.35,9.7,18.07,22,22.07,35.63.54,1.85,1.02,3.72,1.4,5.61.16.78.74,2.32.53,3.1-.17.63-5.11,1.75-6.44,2.17-4.6,1.43-9.33,2.48-14.11,3.12-12.83,1.72-26.11.46-38.34-3.82-1.61-.56-3.21-1.18-4.77-1.87-.54-.24-2.18-.67-2.52-1.2-.58-.89,1.73-6.16,2.16-7.39,1.36-3.88,3.05-7.65,4.96-11.29,4.7-8.94,10.79-17.71,18.08-24.77.4-.38.15-1.08-.35-.59h0Z"/>
      <path class="cls-1" d="M32.84,8.25c-.09,0-.17,0-.25-.02-.94-.13-1.75-.85-2.03-1.75-.65.5-1.58.62-2.33.27-.7-.33-1.19-1.03-1.28-1.79-.49.35-1.17.44-1.71.16-.72-.36-1.08-1.27-.81-2.02.04-.11.16-.17.27-.13.11.04.17.16.13.27-.2.55.07,1.24.6,1.5.53.26,1.24.07,1.56-.42.05-.08.16-.12.25-.08.09.03.15.13.13.23-.11.76.34,1.58,1.04,1.9.7.32,1.61.14,2.12-.44.06-.06.14-.08.22-.06.08.02.14.09.15.17.11.89.86,1.65,1.74,1.77.8.11,1.36-.29,1.75-1.21.03-.07.1-.12.18-.13.08,0,.16.03.2.1.36.61,1.16.99,1.9.91.72-.08,1.38-.61,1.61-1.3.02-.06.06-.11.12-.13.06-.02.12-.02.17,0,.57.28,1.37.18,1.93-.02.58-.2,1.09-.66,1.36-1.22.03-.05.07-.09.13-.11.06-.02.12-.01.17.02.48.27,1.15.17,1.6-.05.48-.23.83-.7.91-1.22.02-.11.12-.19.24-.17.11.02.19.13.17.24-.11.66-.55,1.24-1.15,1.53-.46.22-1.17.37-1.79.13-.33.58-.87,1.03-1.5,1.25-.28.1-1.22.38-2.04.09-.33.75-1.06,1.29-1.88,1.38-.78.08-1.59-.24-2.09-.81-.51.94-1.2,1.17-1.78,1.16Z"/>
      <path class="cls-1" d="M29.89,67.87c-1.98-.04-4.45-.74-5.85-2.08-.57.41-1.26.74-2.03.94-1.42.37-2.88.33-4.3.28-1.69-.06-2.58-.11-4.16-.65-1.46-.5-2.61-1.38-3.29-2.46-1.24.78-2.75,1.16-4.26,1.05-1.82-.13-3.43-.93-4.53-2.25-.07-.09-.06-.22.03-.3.09-.08.22-.06.3.03,1.03,1.23,2.54,1.98,4.24,2.1,1.43.1,2.85-.25,4.02-.99-.09-.17-.16-.35-.23-.54-.16-.46-.29-1.14,0-1.73.16-.32.46-.57.81-.68.29-.09.58-.06.82.08.29.17.46.43.5.78.07.64-.37,1.39-.83,1.81-.16.15-.33.28-.51.41.63,1,1.73,1.84,3.08,2.3,1.53.53,2.34.58,4.04.63,1.39.04,2.82.09,4.18-.26.69-.18,1.32-.47,1.84-.84-.49-.55-1.05-1.42-.87-2.39.11-.58.59-1.09,1.21-1.27.49-.15.94-.04,1.25.28.54.56.4,1.44.12,2.03-.25.52-.62.99-1.08,1.39,1.61,1.49,4.65,2.13,6.6,1.87,1.68-.23,3.27-1.12,4.39-2.4-.3-.45-.54-.96-.68-1.51-.15-.56-.09-1.18.15-1.57.15-.25.37-.42.64-.49.27-.07.56,0,.81.16.31.2.54.55.6.92.11.66-.2,1.29-.44,1.7-.16.28-.35.55-.55.8,1.29,1.66,3.67,2.46,5.65,2.26,2.17-.22,4.36-1.36,6.54-3.39-.09-.14-.17-.28-.24-.43-.34-.69-.41-1.36-.18-1.89.15-.36.49-.65.88-.76.32-.09.64-.05.89.13.26.18.41.44.44.75.06.64-.39,1.41-.87,1.89-.12.12-.24.24-.37.36,1.2,1.56,3.4,2.08,5.11,1.87,2.24-.27,4.27-1.54,5.97-2.75.03-.02.06-.05.1-.07-.64-.56-1-1.28-.98-1.97.02-.52.33-1.05.79-1.35.38-.25.82-.31,1.2-.16.33.13.58.38.73.74.19.44.19,1,0,1.45-.22.52-.61.93-1.04,1.28,1.02.67,2.22.93,3.3.72.95-.18,1.74-.71,2.28-1.52.06-.1.2-.12.29-.06.1.06.12.19.06.29-.6.91-1.49,1.49-2.55,1.7-1.24.24-2.59-.08-3.72-.86,0,0,0,0,0,0-.07.05-.13.1-.2.14-1.74,1.24-3.83,2.54-6.17,2.82-1.82.22-4.16-.34-5.47-2-2.23,2.07-4.49,3.24-6.74,3.47-2.13.22-4.59-.61-5.97-2.34-1.18,1.32-2.84,2.23-4.58,2.47-.35.05-.73.07-1.14.06ZM24.52,62.18c-.12,0-.24.02-.32.05-.46.14-.83.53-.91.95-.16.81.35,1.57.79,2.06.43-.37.77-.8,1-1.27.22-.47.34-1.16-.04-1.56-.16-.16-.34-.21-.51-.22ZM35.71,61.81s-.09,0-.14.02c-.16.04-.29.14-.38.29-.18.3-.22.8-.1,1.25.12.46.31.89.56,1.27.16-.21.31-.43.44-.66.33-.57.46-1.02.39-1.42-.04-.25-.2-.49-.42-.64-.08-.05-.2-.11-.35-.12ZM10.98,60.95c-.08,0-.16.01-.23.03-.24.07-.45.25-.56.46-.23.46-.11,1.01.02,1.4.05.15.11.29.18.43.15-.11.3-.23.44-.36.44-.39.73-1.01.69-1.45-.02-.21-.12-.36-.29-.45-.09-.05-.18-.07-.27-.07ZM48.88,61.17c-.07,0-.15,0-.22.03-.26.08-.5.28-.61.52-.24.55,0,1.2.17,1.54.05.11.11.22.18.32.1-.1.21-.2.31-.31.39-.4.79-1.05.75-1.55-.02-.19-.1-.34-.26-.45-.09-.06-.2-.1-.31-.1ZM60.4,59.85c-.23,0-.43.1-.55.17-.35.23-.58.62-.6,1.01-.02.59.31,1.2.9,1.69.43-.34.81-.71,1.01-1.18.14-.35.14-.78,0-1.12-.07-.17-.22-.41-.5-.51-.09-.04-.18-.05-.26-.05Z"/>
      <path class="cls-1" d="M28.21,25.23c-1.35,1.99-2.57,4.05-3.7,6.16-1.13,2.11-2.19,4.25-3.1,6.46-.25.54-.48,1.1-.69,1.65-.22.56-.45,1.11-.65,1.67-.4,1.13-.8,2.25-1.16,3.39-.76,2.27-1.31,4.6-1.89,6.93.08-.59.17-1.19.26-1.78.09-.59.18-1.19.31-1.78.25-1.18.51-2.35.85-3.51.62-2.33,1.47-4.59,2.39-6.82.96-2.21,2.03-4.38,3.26-6.45.61-1.04,1.26-2.05,1.93-3.05.7-.98,1.4-1.96,2.19-2.87Z"/>
      <path class="cls-1" d="M30.31,26.07l-1.42,3.72c-.46,1.24-.93,2.48-1.36,3.73-.45,1.24-.85,2.5-1.27,3.76-.2.63-.4,1.26-.57,1.9-.21.63-.35,1.28-.55,1.92.11-1.33.34-2.65.65-3.95.31-1.3.69-2.58,1.14-3.84.45-1.25.94-2.5,1.51-3.7.56-1.21,1.16-2.4,1.87-3.54Z"/>
      <path class="cls-1" d="M33.82,27.05c-.71,1.83-1.43,3.62-2.08,5.44-.34.9-.64,1.82-.95,2.74-.31.92-.58,1.85-.88,2.78.06-.98.17-1.96.4-2.91.21-.96.5-1.9.83-2.82.68-1.84,1.53-3.62,2.68-5.22Z"/>
      <path class="cls-1" d="M35.93,27.18c.66,1.38,1.08,2.84,1.41,4.32.31,1.48.52,3,.43,4.52-.41-1.47-.73-2.92-1.05-4.39-.31-1.47-.61-2.93-.79-4.45Z"/>
      <path class="cls-1" d="M38.6,27.04c.82.88,1.48,1.91,2.04,2.98.56,1.07,1,2.2,1.37,3.35.33,1.16.63,2.34.77,3.53.1.59.12,1.2.18,1.8.02.6.03,1.2.01,1.8-.22-1.18-.42-2.35-.68-3.51-.25-1.16-.56-2.3-.89-3.43-.35-1.13-.75-2.24-1.21-3.33-.47-1.08-.97-2.17-1.59-3.19Z"/>
      <path class="cls-1" d="M40.98,25.91c1.27,1.83,2.28,3.83,3.15,5.89.88,2.05,1.57,4.19,2.09,6.36.28,1.08.46,2.19.66,3.29.13,1.11.32,2.21.35,3.33.03.56.08,1.11.08,1.67v1.67c0,.56-.06,1.11-.11,1.67-.04.56-.1,1.11-.15,1.66-.02-2.22-.02-4.44-.31-6.63-.23-2.19-.62-4.37-1.14-6.51-.5-2.15-1.16-4.26-1.93-6.33-.38-1.04-.8-2.06-1.25-3.07-.44-1.02-.93-2.01-1.45-2.99Z"/>
      <path class="cls-1" d="M23.34,9.82c1.04.8,1.99,1.74,2.83,2.76.84,1.02,1.57,2.15,2.06,3.41.25.62.38,1.3.45,1.97.03.66.06,1.33-.01,1.99-.13,1.31-.4,2.68-1.19,3.75.33-.57.52-1.2.64-1.84.13-.64.2-1.28.22-1.93.02-.65,0-1.3-.05-1.95-.08-.63-.21-1.26-.46-1.85-.43-1.21-1.15-2.31-1.92-3.36-.78-1.05-1.65-2.03-2.58-2.96Z"/>
      <path class="cls-1" d="M46.47,10.3c-.97.89-1.88,1.84-2.7,2.85-.82,1.01-1.57,2.08-2.06,3.27-.28.58-.43,1.2-.53,1.83-.07.64-.12,1.29-.13,1.94,0,.65.03,1.3.14,1.94.1.64.27,1.28.57,1.86-.74-1.11-.96-2.48-1.03-3.8-.04-.67.01-1.33.07-1.99.1-.67.25-1.34.53-1.95.54-1.23,1.31-2.34,2.2-3.32.89-.98,1.86-1.88,2.94-2.64Z"/>
      <path class="cls-1" d="M16.94,53.13c.61.01.63-.94.02-.95-.61-.01-.63.94-.02.95h0Z"/>
      <path class="cls-1" d="M25.05,42.76c.61.01.63-.94.02-.95-.61-.01-.63.94-.02.95h0Z"/>
      <path class="cls-1" d="M25.01,44.45c.61.01.63-.94.02-.95-.61-.01-.63.94-.02.95h0Z"/>
      <path class="cls-1" d="M37.89,37.66c.61.01.63-.94.02-.95-.61-.01-.63.94-.02.95h0Z"/>
      <path class="cls-1" d="M64.07,59.99c.61.01.63-.94.02-.95-.61-.01-.63.94-.02.95h0Z"/>
      <path class="cls-1" d="M63.05,58.6c.61.01.63-.94.02-.95-.61-.01-.63.94-.02.95h0Z"/>
      <path class="cls-1" d="M46.94,53.32c.61.01.63-.94.02-.95-.61-.01-.63.94-.02.95h0Z"/>
      <path class="cls-1" d="M22.26,4.17c.61.01.63-.94.02-.95-.61-.01-.63.94-.02.95h0Z"/>
      <path class="cls-1" d="M50.85,6.86c.61.01.63-.94.02-.95-.61-.01-.63.94-.02.95h0Z"/>
      <path class="cls-1" d="M50.03,5.58c.61.01.63-.94.02-.95-.61-.01-.63.94-.02.95h0Z"/>
      <path class="cls-1" d="M8.12,49.9c.61.01.63-.94.02-.95-.61-.01-.63.94-.02.95h0Z"/>
      <path class="cls-1" d="M3.38,66.96c.61.01.63-.94.02-.95-.61-.01-.63.94-.02.95h0Z"/>
      <path class="cls-1" d="M65.7,67.82c.61.01.63-.94.02-.95-.61-.01-.63.94-.02.95h0Z"/>
      <g>
        <line class="cls-1" x1="29.61" y1="23.03" x2="29.56" y2="25.48"/>
        <line class="cls-1" x1="30.53" y1="23.56" x2="30.49" y2="25.4"/>
        <line class="cls-1" x1="31.45" y1="24.09" x2="31.41" y2="25.93"/>
        <line class="cls-1" x1="32.37" y1="24.62" x2="32.33" y2="26.46"/>
        <line class="cls-1" x1="33.29" y1="25.12" x2="33.25" y2="26.96"/>
        <line class="cls-1" x1="34.28" y1="25.45" x2="34.25" y2="26.91"/>
        <line class="cls-1" x1="40.12" y1="23.25" x2="40.06" y2="26.17"/>
        <line class="cls-1" x1="39.18" y1="23.74" x2="39.13" y2="26.31"/>
        <line class="cls-1" x1="38.24" y1="24.23" x2="38.2" y2="26.07"/>
        <line class="cls-1" x1="37.3" y1="24.72" x2="37.26" y2="26.56"/>
        <line class="cls-1" x1="36.36" y1="25.18" x2="36.32" y2="27.02"/>
        <line class="cls-1" x1="35.35" y1="25.47" x2="35.32" y2="26.93"/>
      </g>
      <g>
        <line class="cls-1" x1="5.79" y1="66.18" x2="5.34" y2="69.19"/>
        <line class="cls-1" x1="7.49" y1="66.95" x2="7.04" y2="69.96"/>
        <line class="cls-1" x1="9.19" y1="67.73" x2="8.81" y2="70.18"/>
        <line class="cls-1" x1="10.9" y1="68.5" x2="10.57" y2="70.88"/>
        <line class="cls-1" x1="12.61" y1="69.06" x2="12.31" y2="71.54"/>
        <line class="cls-1" x1="14.31" y1="69.83" x2="13.98" y2="72.04"/>
        <line class="cls-1" x1="16.02" y1="70.6" x2="15.73" y2="72.53"/>
        <line class="cls-1" x1="18.13" y1="71.25" x2="17.99" y2="72.74"/>
        <line class="cls-1" x1="20.28" y1="71.67" x2="20.06" y2="73.39"/>
        <line class="cls-1" x1="21.96" y1="72.09" x2="21.78" y2="73.38"/>
      </g>
      <g>
        <line class="cls-1" x1="62.54" y1="66.82" x2="62.86" y2="69.85"/>
        <line class="cls-1" x1="60.8" y1="67.52" x2="61.13" y2="70.55"/>
        <line class="cls-1" x1="59.07" y1="68.23" x2="59.39" y2="71.04"/>
        <line class="cls-1" x1="57.33" y1="68.93" x2="57.57" y2="71.32"/>
        <line class="cls-1" x1="55.6" y1="69.42" x2="55.8" y2="71.91"/>
        <line class="cls-1" x1="53.87" y1="70.12" x2="54.11" y2="72.34"/>
        <line class="cls-1" x1="52.14" y1="70.82" x2="52.34" y2="72.76"/>
        <line class="cls-1" x1="49.99" y1="71.38" x2="50.19" y2="73.06"/>
        <line class="cls-1" x1="47.83" y1="71.71" x2="47.98" y2="73.44"/>
        <line class="cls-1" x1="46.14" y1="72.06" x2="46.28" y2="73.79"/>
      </g>
    </g>
  </g>
</svg>