<svg width="41" height="41" viewBox="0 0 41 41" fill="none" xmlns="http://www.w3.org/2000/svg">
<path d="M40.4219 30.6553L38.5469 38.5459C38.3125 39.7178 37.375 40.499 36.2031 40.499C16.5156 40.4209 0.5 24.4053 0.5 4.71777C0.5 3.5459 1.20312 2.6084 2.375 2.37402L10.2656 0.499023C11.3594 0.264648 12.5312 0.889648 13 1.90527L16.6719 10.4209C17.0625 11.4365 16.8281 12.6084 15.9688 13.2334L11.75 16.6709C14.4062 22.0615 18.7812 26.4365 24.25 29.0928L27.6875 24.874C28.3125 24.0928 29.4844 23.7803 30.5 24.1709L39.0156 27.8428C40.0312 28.3896 40.6562 29.5615 40.4219 30.6553Z" fill="white"/>
</svg>
