<?xml version="1.0" encoding="UTF-8"?>
<svg id="Capa_2" xmlns="http://www.w3.org/2000/svg" xmlns:xlink="http://www.w3.org/1999/xlink" viewBox="0 0 32 32">
  <defs>
    <style>
      .cls-1 {
        fill: none;
      }

      .cls-2 {
        fill: #84b7cc;
      }

      .cls-3 {
        fill: url(#linear-gradient-2);
      }

      .cls-4 {
        fill: #512c1f;
      }

      .cls-5 {
        fill: url(#linear-gradient);
      }

      .cls-6 {
        fill: #1b2529;
      }

      .cls-7 {
        clip-path: url(#clippath-1);
      }

      .cls-8 {
        fill: #fff;
      }

      .cls-9 {
        fill: #ffc7c7;
      }

      .cls-10 {
        opacity: .32;
      }

      .cls-11 {
        clip-path: url(#clippath);
      }
    </style>
    <linearGradient id="linear-gradient" x1="0" y1="16" x2="32" y2="16" gradientUnits="userSpaceOnUse">
      <stop offset="0" stop-color="#957237"/>
      <stop offset=".1" stop-color="#9d793c"/>
      <stop offset=".25" stop-color="#b38f4b"/>
      <stop offset=".44" stop-color="#d8b363"/>
      <stop offset=".55" stop-color="#f1cb73"/>
      <stop offset=".6" stop-color="#e0b968"/>
      <stop offset=".71" stop-color="#c09954"/>
      <stop offset=".81" stop-color="#aa8246"/>
      <stop offset=".91" stop-color="#9c743d"/>
      <stop offset="1" stop-color="#98703b"/>
    </linearGradient>
    <clipPath id="clippath">
      <circle class="cls-1" cx="16" cy="16" r="16"/>
    </clipPath>
    <linearGradient id="linear-gradient-2" x1="13.33" y1="15.93" x2="18.11" y2="15.93" xlink:href="#linear-gradient"/>
    <clipPath id="clippath-1">
      <circle class="cls-1" cx="16" cy="16" r="16" transform="translate(-1.19 30.71) rotate(-85.54)"/>
    </clipPath>
  </defs>
  <g id="OBJECTS">
    <g>
      <g>
        <circle class="cls-8" cx="16" cy="16" r="16" transform="translate(-5.39 23.38) rotate(-64.04)"/>
        <path class="cls-5" d="M16,.45c8.57,0,15.55,6.97,15.55,15.55s-6.97,15.55-15.55,15.55S.45,24.57.45,16,7.43.45,16,.45M16,0C7.17,0,0,7.17,0,16s7.16,16,16,16,16-7.16,16-16S24.83,0,16,0h0Z"/>
      </g>
      <g>
        <path class="cls-4" d="M9.87,25.26s-.03-.05-.03-.07c0-.03,0-.05,0-.08,0-.03.02-.05.03-.08.02-.02.04-.05.06-.06.02-.02.05-.03.07-.03.03,0,.05,0,.08,0,.03,0,.05.01.08.03s.05.04.06.06.03.05.03.07c0,.03,0,.06,0,.08s-.02.05-.03.08c-.02.02-.04.05-.06.06-.02.02-.05.03-.08.03-.03,0-.05,0-.08,0-.03,0-.05-.02-.08-.03-.02-.02-.04-.03-.06-.06Z"/>
        <path class="cls-4" d="M11.46,26.52c-.07,0-.14,0-.2-.04-.06-.03-.11-.07-.16-.12-.04-.06-.08-.12-.1-.19-.02-.07-.03-.15-.02-.23s.03-.17.07-.26c.04-.08.08-.15.14-.21.06-.06.12-.11.18-.14.07-.03.13-.05.21-.06.07,0,.15.01.22.04.07.03.13.08.18.14.04.06.07.12.09.19.02.07.02.15,0,.23s-.03.16-.07.24c-.04.09-.09.16-.15.22-.06.06-.12.1-.19.14-.07.03-.14.05-.21.05ZM11.19,26.28s.07.08.12.1c.05.02.1.03.15.03s.11-.02.16-.05c.05-.03.1-.07.15-.12.05-.05.09-.11.12-.18.02-.05.04-.11.05-.18s.01-.13,0-.19c0-.06-.03-.11-.06-.16-.03-.05-.08-.09-.14-.12-.06-.03-.12-.04-.18-.03-.06,0-.11.03-.16.06-.05.03-.1.07-.14.12-.04.05-.07.1-.1.16-.03.07-.05.14-.06.21,0,.07,0,.13,0,.19.01.06.04.11.07.15Z"/>
        <path class="cls-4" d="M12.47,26.91c-.05,0-.11,0-.16-.02-.05-.02-.1-.04-.14-.08-.04-.03-.07-.08-.1-.12l.11-.05s.04.06.06.08c.03.02.06.04.1.05.04.01.08.02.11.01s.08-.01.11-.03c.03-.02.06-.04.09-.07s.04-.06.06-.1c.01-.04.02-.08.01-.11,0-.04-.01-.07-.03-.11-.02-.03-.04-.06-.07-.09s-.06-.04-.1-.06c-.04-.01-.08-.02-.12-.02-.04,0-.08.02-.11.04l.21-.63.53.18-.07.21-.11-.04.03-.1-.3-.1-.11.33s.03,0,.05,0c.02,0,.03,0,.05.01.05.02.1.05.14.08.04.04.07.08.1.12.02.05.04.1.04.15,0,.05,0,.11-.02.16-.02.05-.05.1-.08.14s-.08.07-.13.09c-.05.02-.1.04-.15.04Z"/>
        <path class="cls-4" d="M12.93,27.11c.15-.22.29-.43.44-.65.14-.21.29-.43.44-.65l.12.03c-.15.22-.29.43-.44.65-.14.21-.29.43-.44.65l-.12-.03Z"/>
        <path class="cls-4" d="M14.44,27.35c-.07.02-.13.03-.2.02-.07-.01-.13-.04-.18-.08-.06-.04-.1-.09-.14-.16-.04-.06-.07-.14-.08-.22-.02-.08-.02-.17,0-.27.01-.09.04-.17.07-.24.04-.07.08-.14.14-.19.05-.05.11-.09.18-.11.07-.02.14-.03.22-.02.08.01.15.04.21.08s.1.1.14.16c.04.07.06.14.07.22.01.08,0,.17,0,.25-.01.09-.04.18-.08.25-.04.07-.09.13-.15.18-.06.05-.12.08-.18.11ZM14.11,27.19s.09.05.14.06c.05,0,.1,0,.15-.02.05-.02.1-.05.14-.09.04-.04.08-.09.11-.15.03-.06.05-.13.06-.2,0-.06.01-.12,0-.18,0-.06-.02-.12-.04-.18-.03-.05-.06-.1-.1-.14-.04-.04-.1-.06-.17-.07-.07-.01-.13,0-.18.02s-.1.06-.14.1c-.04.04-.07.1-.1.16s-.04.12-.05.18c-.01.08-.01.15,0,.21s.03.13.06.18c.03.05.06.09.11.13Z"/>
        <path class="cls-4" d="M15.43,27.47v-.12s.15,0,.15,0v-.24s-.57-.03-.57-.03l.75-.89-.04.8h.19s0,.13,0,.13h-.19s-.01.23-.01.23h.16s0,.12,0,.12l-.43-.02ZM15.26,26.99l.34.02.02-.44-.36.42Z"/>
        <path class="cls-4" d="M16.08,27.53c.08-.25.16-.5.24-.74.08-.25.16-.49.24-.74h.12c-.08.24-.16.49-.24.74-.08.25-.16.49-.24.74h-.12Z"/>
        <path class="cls-4" d="M16.9,27.46c.07-.09.14-.18.21-.26.07-.08.13-.17.17-.24.05-.08.09-.15.12-.22.03-.07.04-.14.03-.2,0-.06-.02-.1-.04-.14-.02-.04-.05-.06-.07-.08-.03-.02-.06-.04-.09-.04s-.06,0-.09,0c-.05,0-.1.02-.13.04-.03.02-.06.05-.07.08-.02.03-.03.06-.03.09s0,.06,0,.08c0,.04.02.08.03.11.02.03.04.06.07.08l-.06.08s-.08-.06-.1-.11-.05-.1-.05-.16c0-.05,0-.1,0-.15s.03-.09.06-.13c.03-.04.06-.07.11-.1.05-.03.1-.04.16-.05.06,0,.11,0,.16.01.05.02.09.04.13.07.04.03.07.07.09.12s.04.1.04.15c0,.07,0,.13-.02.2-.02.07-.05.13-.08.2-.04.07-.08.13-.13.2-.05.07-.1.14-.14.2l.42-.05-.02-.19h.12s.04.29.04.29l-.83.1Z"/>
        <path class="cls-4" d="M18.69,27.14c-.05.04-.11.07-.18.09-.07.01-.13.01-.2,0-.07-.02-.13-.05-.19-.09-.06-.05-.11-.1-.16-.18s-.08-.15-.1-.25c-.02-.09-.03-.17-.02-.25,0-.08.03-.16.06-.22.03-.07.08-.12.13-.17.06-.05.12-.08.2-.1.08-.02.15-.02.22,0s.13.05.19.1c.06.05.11.11.15.18.04.07.07.15.09.24.02.09.03.18.01.26-.01.08-.04.16-.07.22s-.08.12-.13.17ZM18.33,27.1c.05.02.1.02.16,0,.05-.01.1-.03.14-.07s.08-.08.1-.13c.03-.05.04-.11.05-.18,0-.07,0-.14-.01-.21-.01-.06-.03-.12-.06-.17-.03-.06-.06-.11-.11-.15-.04-.04-.09-.07-.15-.09-.06-.02-.12-.02-.18,0s-.12.04-.16.08c-.04.04-.07.09-.1.15-.02.06-.03.12-.03.18,0,.06,0,.13.02.18.02.07.04.14.08.2.03.06.07.11.12.14.05.04.09.06.15.08Z"/>
        <path class="cls-4" d="M19.27,27.02c.05-.1.1-.2.15-.3.05-.1.09-.19.12-.28.03-.09.06-.17.07-.24.01-.08,0-.14-.01-.2-.02-.05-.04-.09-.07-.12-.03-.03-.06-.05-.09-.07-.03-.02-.06-.02-.1-.02-.03,0-.06,0-.08.01-.05.02-.09.04-.12.07s-.04.06-.05.09c0,.03-.01.07-.01.1,0,.03,0,.06.02.08.01.04.03.08.06.1s.05.05.08.07l-.05.09s-.09-.04-.12-.08-.07-.09-.08-.15c-.02-.05-.02-.1-.02-.15,0-.05.01-.1.03-.14.02-.04.05-.08.09-.12.04-.04.09-.06.15-.08.05-.02.11-.02.16-.02s.1.02.14.04c.04.02.08.06.11.09.03.04.06.09.07.14.02.06.03.13.02.2,0,.07-.02.14-.04.22-.02.07-.05.15-.08.22-.03.08-.06.15-.1.23l.4-.13-.06-.18.11-.04.1.29-.79.27Z"/>
        <path class="cls-4" d="M20.77,26.43s-.08.07-.13.1c-.05.02-.1.03-.15.04s-.1,0-.15-.03l.05-.11s.07.02.1.02.07-.01.11-.03c.04-.02.07-.04.09-.07.03-.03.05-.06.06-.1s.02-.07.02-.11c0-.04,0-.08-.02-.11-.02-.04-.04-.07-.07-.09-.03-.03-.06-.05-.1-.06-.04-.01-.07-.02-.11-.02-.04,0-.08,0-.11.03-.04.02-.08.04-.1.07-.03.03-.05.06-.05.1l-.27-.61.51-.23.09.2-.11.05-.04-.09-.29.13.14.32s.02-.02.04-.03c.01,0,.03-.02.04-.02.05-.02.11-.04.16-.04.05,0,.11,0,.16.02.05.02.09.05.14.08.04.04.07.08.1.13.02.05.03.11.03.16s0,.11-.03.16c-.02.05-.05.09-.08.14Z"/>
        <path class="cls-4" d="M21.88,25.42s-.05,0-.08,0c-.03,0-.05-.02-.07-.03-.02-.02-.04-.04-.06-.06-.02-.03-.03-.05-.03-.08,0-.03,0-.05,0-.08,0-.03.02-.05.03-.07.02-.02.04-.04.06-.06.03-.02.05-.03.08-.03.03,0,.05,0,.08,0,.03,0,.05.02.08.03.02.02.04.04.06.06.02.03.03.05.03.08,0,.03,0,.05,0,.08,0,.03-.02.05-.03.07-.02.02-.04.04-.06.06-.02.02-.05.03-.08.03Z"/>
      </g>
      <g class="cls-10">
        <g class="cls-11">
          <g>
            <g>
              <path class="cls-9" d="M32.75,8.04c-.61-.34-1.21-.68-1.79-1.06-2.43-1.59-5.08-2.88-7.86-3.73-.84-.25-1.69-.45-2.54-.61-.8-.15-1.67-.19-2.41-.54-.03-.01-.01-.05.02-.04.69.2,1.43.28,2.14.4.7.11,1.4.24,2.09.42,1.42.37,2.78.9,4.12,1.48,1.29.56,2.56,1.21,3.76,1.96,1.23.77,2.43,1.6,3.78,2.18.77.33,1.59.51,2.4.7.77.18,1.53.27,2.32.34.05,0,.05.08,0,.09-1.37.06-2.76-.27-4.06-.68-.69-.21-1.34-.54-1.98-.89Z"/>
              <path class="cls-9" d="M21.39,2.72s0,0-.01,0c-.08-.07-.16-.13-.24-.2-.44-.39-.82-.87-.99-1.44,0-.03.03-.04.04-.02.29.52.65.98,1.11,1.37.16.14.33.26.5.37-.14-.02-.27-.04-.41-.08Z"/>
              <path class="cls-9" d="M26.77,4.54s-.01,0-.02,0c-.25-.29-.5-.59-.77-.88-.4-.42-.84-.8-1.3-1.16-.49-.37-1.01-.71-1.54-1.03-.28-.17-.58-.34-.88-.49-.26-.13-.53-.22-.8-.34-.02,0,0-.04.01-.03.28.09.56.14.83.26.29.12.57.29.85.44.56.32,1.11.67,1.63,1.05.83.6,1.64,1.37,2.21,2.24-.08-.02-.16-.03-.23-.06Z"/>
              <path class="cls-9" d="M25.26,2.88c-.17-.31-.28-.67-.4-.97-.23-.6-.46-1.2-.88-1.69-.01-.02,0-.04.03-.03.46.39.71.92.93,1.47.11.28.22.56.34.84.09.21.21.4.32.59-.11-.08-.23-.14-.35-.22Z"/>
              <path class="cls-9" d="M23.04,2.14s-.02-.05.01-.04c.45.06.91.12,1.36.19.05,0,.09.01.13.02.11.1.21.19.33.28-.19-.04-.37-.07-.56-.1-.43-.07-.88-.14-1.27-.34Z"/>
              <path class="cls-9" d="M19.68,4.17s0-.03,0-.02c1.16.31,2.32.18,3.48-.06.57-.12,1.15-.25,1.73-.31,0,0,.01,0,.02.01.12.05.25.09.37.13-.22.01-.43.03-.65.06-.53.07-1.06.2-1.59.31-1.08.22-2.36.41-3.38-.12Z"/>
              <path class="cls-9" d="M20.87,6.01c.29-.04.47-.31.62-.54.17-.26.37-.5.57-.73.15-.17.3-.33.47-.48.11.02.21.01.32,0-.31.25-.6.54-.86.86-.3.37-.57.93-1.12.92-.02,0-.02-.03,0-.03Z"/>
              <path class="cls-9" d="M23.93,6.47c-.35-.21-.67-.47-1.04-.64-.02-.01-.02-.05.01-.04.32.08.58.24.85.41.33.21.69.37,1.06.51.81.31,1.62.38,2.48.36.39-.01.77-.04,1.16-.09.37-.04.72-.16,1.08-.26.31-.09.62-.13.94-.15,0,0,.01.01.02.02.08.06.15.13.23.18-.45.03-.89.07-1.33.21-.72.21-1.44.28-2.18.29-.8.01-1.55-.08-2.31-.35-.33-.12-.67-.26-.97-.44Z"/>
              <path class="cls-9" d="M27.34,6.7c.38.17.79.28,1.2.35-.15.04-.3.09-.45.11-.25-.06-.5-.14-.75-.25-.39-.17-.76-.41-1.07-.68-.13-.11-.27-.25-.36-.4-.13-.22-.23-.47-.41-.64-.02-.02,0-.04.02-.03.32.21.45.6.73.86.32.28.71.51,1.09.69Z"/>
              <path class="cls-9" d="M23.68,8.03c.46-.44,1.07-.62,1.69-.74.27-.05.53-.11.8-.17,0,0,.02,0,.03.01.16.04.31.05.47.06-.99.27-2.07.3-2.94.91-.04.03-.09-.03-.05-.06Z"/>
              <path class="cls-9" d="M34.47,8.8c-.29-.23-.55-.49-.8-.73-.54-.55-1.01-1.15-1.51-1.73-.55-.63-1.14-1.21-1.82-1.7-.36-.26-.75-.48-1.15-.69-.35-.19-.72-.35-1.03-.61-.01,0,0-.03.01-.02.73.33,1.47.65,2.14,1.09.67.44,1.26,1,1.8,1.59.52.57.99,1.17,1.51,1.74.27.29.56.56.86.82.14.12.29.22.43.33-.15-.03-.31-.05-.46-.08Z"/>
              <path class="cls-9" d="M31.47,5.48c-.1-.23-.18-.47-.24-.71-.13-.46-.21-.93-.38-1.37-.16-.41-.4-.8-.63-1.18-.01-.02.02-.03.03-.02.55.62.83,1.35,1.04,2.15.12.44.25.87.44,1.28.04.09.09.18.14.26-.13-.15-.27-.28-.4-.41Z"/>
              <path class="cls-9" d="M32.17,6.25c.07.09.14.18.22.25-.61-.07-1.2-.31-1.73-.59-.49-.26-1.14-.59-1.38-1.12-.01-.02.02-.04.04-.02.36.47.95.77,1.48,1.02.45.21.9.34,1.37.46Z"/>
              <path class="cls-9" d="M30.11,10.02c.39-.25.85-.38,1.29-.53.54-.18,1.05-.26,1.62-.28.61-.03,1.23-.02,1.84-.06.24-.02.48-.04.72-.07.19.09.4.1.61.1-.43.06-.87.12-1.3.16-.58.05-1.17.03-1.76.05-.58.02-1.1.09-1.66.27-.25.08-.52.15-.77.24-.18.07-.37.2-.57.19-.03,0-.04-.05-.02-.06Z"/>
              <path class="cls-9" d="M28.58,8.35c.43.01.87-.05,1.3-.06.43,0,.84.09,1.25.21.44.13.88.3,1.31.45.44.15.88.23,1.33.34-.03,0-.05,0-.08,0-.23.02-.45,0-.68.04-.14-.03-.28-.08-.42-.12-.44-.14-.87-.31-1.31-.47-.44-.16-.89-.29-1.35-.31-.46-.02-.91,0-1.36-.06-.02,0-.01-.03,0-.03Z"/>
            </g>
            <g>
              <path class="cls-9" d="M18.5,2.63c-.38.14-.78-.19-.77-.58,0-.19.09-.39.27-.49.13-.06.3-.09.44-.05.12.03.22.09.31.18.3.3.11.8-.25.94Z"/>
              <path class="cls-9" d="M20.58,1.07c.01.15-.07.29-.19.37-.13.09-.3.06-.44,0-.27-.14-.32-.53-.12-.75.1-.11.25-.12.38-.07.05.02.12.05.17.1.11.08.17.22.18.35Z"/>
              <path class="cls-9" d="M20.06,4.65c-.26.13-.68-.06-.74-.34-.04-.19.06-.41.23-.48.19-.14.48-.05.64.11.23.22.15.58-.12.72Z"/>
              <path class="cls-9" d="M21.42,5.85c.16.27-.07.53-.34.57-.29.04-.57-.27-.47-.55.05-.14.16-.25.3-.29.08-.02.21,0,.28.06.09.04.17.12.22.21Z"/>
              <path class="cls-9" d="M22.19.56c.11.42-.3.74-.69.72-.45-.02-.6-.59-.44-.93.06-.13.18-.22.31-.27,0,0,0,0,0,0,.35-.16.72.15.81.49Z"/>
              <path class="cls-9" d="M22.6,1.89c.12-.2.52-.3.71-.13.18.11.29.35.26.57-.05.33-.41.42-.68.3-.28-.13-.46-.45-.29-.73Z"/>
              <path class="cls-9" d="M23.77.81c-.32-.23-.43-.69-.16-1.01.18-.22.61-.25.82-.04.2.13.28.41.25.66-.05.38-.6.61-.9.39Z"/>
              <path class="cls-9" d="M23.07,5.31c.14.04.28.14.36.26.2.31-.03.73-.37.8-.41.08-.72-.32-.63-.7.06-.26.41-.48.64-.36Z"/>
              <path class="cls-9" d="M23.13,7.97c.01-.25.25-.58.51-.54.22-.04.46.07.58.3.18.36.03.77-.36.88-.37.1-.74-.27-.72-.63Z"/>
              <path class="cls-9" d="M24.9,4.83c.12-.19.29-.29.51-.29.08,0,.2.03.3.08.12.06.23.15.28.26.21.44-.09.88-.57.88-.42,0-.74-.58-.52-.93Z"/>
              <path class="cls-9" d="M29,3.19c.1.39-.19.8-.59.85-.24.03-.47-.13-.62-.3-.15-.17-.15-.44-.09-.65.1-.35.64-.56.93-.34.18.08.32.23.37.43Z"/>
              <path class="cls-9" d="M28.88,4.67c.1-.27.48-.4.72-.26.13.06.23.18.28.33.14.38-.18.69-.55.69-.39,0-.57-.45-.45-.77Z"/>
              <path class="cls-9" d="M29.73,2.02c.09-.16.23-.27.4-.31.13-.05.27-.04.4,0,.08.03.16.07.21.13.13.11.23.27.27.44.11.45-.34.83-.76.8-.49-.03-.75-.67-.52-1.06Z"/>
              <path class="cls-9" d="M28.19,8.16c.07-.28.5-.47.71-.27.09.05.17.12.22.22.2.34-.09.73-.45.76-.4.03-.57-.39-.49-.72Z"/>
              <path class="cls-9" d="M30.23,10.82c-.48-.13-.81-.63-.58-1.11.1-.22.31-.38.54-.45.02,0,.04,0,.06-.01.4-.11.89.24.94.67.05.51-.42,1.05-.95.9Z"/>
              <path class="cls-9" d="M31.5,10.82c.07-.23.21-.42.42-.53.11-.06.25-.06.37-.05.05,0,.09.02.12.04.19.06.35.25.41.43.15.42-.17.88-.58.97-.46.09-.88-.43-.75-.86Z"/>
            </g>
          </g>
        </g>
      </g>
      <g>
        <path class="cls-8" d="M14.92,13.75c.16,0,.29.02.39.05.1.04.19.08.26.13.05.04.1.09.13.14.03.05.06.1.08.15.02.05.03.1.03.14,0,.1-.04.19-.11.24-.07.06-.15.09-.24.09s-.16-.03-.23-.08c-.07-.05-.1-.13-.1-.23,0-.09.03-.17.09-.23.06-.06.14-.1.24-.11-.02-.05-.07-.1-.15-.14-.09-.04-.19-.06-.32-.06-.21,0-.39.06-.52.19-.14.13-.2.31-.2.55,0,.12.02.24.07.36s.13.24.25.36c.07-.01.14-.02.22-.03.08,0,.13,0,.17,0,.08,0,.14.01.18.04.05.03.07.06.07.11,0,.04-.02.07-.05.09s-.07.03-.13.03c-.08,0-.16-.02-.25-.05-.09-.04-.16-.06-.21-.08-.24.07-.44.19-.59.35s-.23.39-.23.68.08.53.23.73.35.35.6.46c.25.11.54.16.85.16.22,0,.43-.03.63-.08.2-.05.37-.13.53-.23.15-.1.27-.22.36-.36.09-.14.13-.3.13-.48,0-.08-.02-.18-.05-.3-.03-.12-.1-.24-.21-.36-.1-.12-.27-.21-.48-.28l.08-.06c.3.09.52.24.65.44.13.2.19.43.19.68s-.08.49-.23.72-.37.42-.65.56-.63.22-1.03.22c-.27,0-.53-.04-.77-.11s-.46-.17-.65-.31-.34-.3-.44-.49c-.11-.19-.16-.41-.16-.65,0-.23.04-.42.13-.58.09-.16.2-.29.33-.4.13-.1.26-.18.39-.24.13-.06.23-.1.31-.12-.14-.06-.25-.14-.35-.22s-.16-.18-.21-.28c-.05-.1-.07-.2-.07-.3s.02-.2.07-.29c.05-.09.11-.18.2-.25.09-.08.2-.13.33-.18.13-.04.28-.06.46-.06ZM17.2,13.62c.26,0,.48.07.65.22.18.15.26.36.26.62,0,.14-.03.27-.08.38s-.12.21-.21.29c-.09.08-.19.15-.3.21-.1.05-.22.1-.38.15-.16.05-.32.11-.5.16-.18.05-.35.11-.51.16-.16.05-.29.1-.39.13-.15.06-.28.13-.39.22-.11.09-.16.2-.16.33,0,.11.03.2.09.28s.14.13.23.17c.09.04.17.06.25.06.04,0,.08,0,.14-.02.06-.01.11-.03.15-.05s.07-.05.08-.08c-.07-.01-.13-.04-.2-.09s-.1-.12-.1-.23.03-.18.1-.24c.07-.06.15-.09.24-.09s.18.03.24.09c.06.06.09.14.09.24,0,.12-.04.22-.12.3-.08.08-.17.14-.29.18s-.23.06-.34.06-.24-.03-.36-.08c-.12-.05-.22-.13-.3-.23-.08-.11-.12-.25-.12-.42,0-.15.03-.28.1-.39.06-.11.16-.21.29-.3.13-.09.29-.16.48-.23.13-.04.28-.09.46-.14.18-.05.36-.1.55-.16.19-.06.36-.12.52-.19.21-.1.35-.19.43-.29s.11-.2.11-.31c0-.12-.03-.23-.1-.32s-.16-.17-.27-.23c-.11-.06-.23-.08-.36-.08-.05,0-.09,0-.13.01-.03,0-.05.02-.06.04.06.03.1.07.13.13s.04.11.04.16c0,.09-.03.16-.1.22-.07.06-.15.09-.25.09-.08,0-.15-.03-.23-.08-.07-.05-.11-.13-.11-.23s.04-.19.11-.26.16-.11.27-.13c.11-.03.21-.04.31-.04Z"/>
        <path class="cls-3" d="M17.2,13.62c-.1,0-.2.01-.31.04-.11.03-.2.07-.27.13s-.11.15-.11.26.04.18.11.23c.07.05.15.08.23.08.1,0,.18-.03.25-.09.07-.06.1-.13.1-.22,0-.05-.01-.11-.04-.16s-.07-.1-.13-.13c0-.02.03-.04.06-.04.03,0,.07-.01.13-.01.13,0,.25.03.36.08.11.06.2.13.27.23s.1.2.1.32c0,.1-.04.21-.11.31s-.22.2-.43.29c-.15.07-.33.14-.52.19-.19.06-.37.11-.55.16-.18.05-.33.1-.46.14-.19.06-.35.14-.48.23-.13.09-.23.19-.29.3-.06.11-.1.24-.1.39,0,.18.04.32.12.42.08.11.18.18.3.23.12.05.24.08.36.08s.23-.02.34-.06.21-.1.29-.18c.08-.08.12-.18.12-.3,0-.1-.03-.18-.09-.24-.06-.06-.14-.09-.24-.09s-.18.03-.24.09c-.07.06-.1.14-.1.24s.03.18.1.23.13.08.2.09c0,.03-.04.05-.08.08s-.1.04-.15.05c-.06.01-.1.02-.14.02-.08,0-.16-.02-.25-.06-.09-.04-.17-.09-.23-.17s-.09-.17-.09-.28c0-.13.05-.24.16-.33.11-.09.24-.16.39-.22.1-.04.23-.08.39-.13.11-.03.22-.07.33-.1-.03-.01-.07-.02-.11-.04l.08-.06c.06.02.11.04.16.06.02,0,.03,0,.05-.01.18-.05.34-.11.5-.16.16-.05.28-.1.38-.15.11-.05.21-.12.3-.21.09-.08.16-.18.21-.29s.08-.24.08-.38c0-.27-.09-.47-.26-.62-.18-.15-.39-.22-.65-.22h0ZM14.92,13.75c-.18,0-.33.02-.46.06-.13.04-.24.1-.33.18-.09.08-.15.16-.2.25-.05.09-.07.19-.07.29s.02.2.07.3c.05.1.12.2.21.28s.21.16.35.22c-.08.02-.18.06-.31.12-.13.06-.26.14-.39.24-.13.1-.24.24-.33.4-.09.16-.13.35-.13.58,0,.24.05.46.16.65.11.19.26.36.44.49s.4.24.65.31.5.11.77.11c.4,0,.75-.07,1.03-.22s.5-.33.65-.56.23-.47.23-.72-.06-.48-.19-.68c-.11-.16-.27-.29-.49-.38-.04.01-.09.03-.13.04.16.06.29.14.38.24.1.12.17.24.21.36.03.12.05.22.05.3,0,.18-.04.34-.13.48-.09.14-.21.26-.36.36-.15.1-.33.18-.53.23-.2.05-.41.08-.63.08-.31,0-.6-.05-.85-.16-.25-.11-.45-.26-.6-.46s-.23-.44-.23-.73.08-.52.23-.68.35-.28.59-.35c.05.02.12.05.21.08.09.04.17.05.25.05.05,0,.1-.01.13-.03s.05-.05.05-.09c0-.05-.02-.08-.07-.11-.05-.02-.11-.04-.18-.04-.04,0-.09,0-.17,0-.08,0-.15.02-.22.03-.13-.12-.21-.24-.25-.36s-.07-.24-.07-.36c0-.24.07-.43.2-.55.14-.13.31-.19.52-.19.13,0,.24.02.32.06.09.04.14.09.15.14-.1,0-.18.04-.24.11-.06.06-.09.14-.09.23,0,.1.03.18.1.23.07.05.14.08.23.08.09,0,.17-.03.24-.09.07-.06.11-.14.11-.24,0-.05,0-.09-.03-.14-.02-.05-.04-.1-.08-.15-.03-.05-.08-.1-.13-.14-.07-.05-.15-.1-.26-.13-.1-.04-.24-.05-.39-.05h0Z"/>
      </g>
      <g>
        <path class="cls-6" d="M11.89,17.4c.21,0,.38.03.52.09.14.06.26.13.36.22.06.05.11.05.15.02.03-.04.06-.12.07-.26h.11c0,.12-.01.26-.01.43s0,.39,0,.67h-.11c-.02-.14-.04-.25-.06-.33-.02-.08-.04-.15-.07-.21-.03-.06-.06-.11-.11-.17-.1-.13-.22-.23-.37-.28-.15-.06-.31-.09-.47-.09-.16,0-.3.04-.42.12-.13.08-.23.19-.32.34-.09.15-.16.32-.21.53-.05.21-.07.44-.07.7s.03.5.08.71c.05.21.13.38.23.52s.21.25.34.32c.13.07.27.11.43.11.14,0,.29-.03.45-.09.16-.06.28-.15.37-.28.07-.09.12-.19.15-.3.03-.11.05-.26.07-.45h.11c0,.29,0,.52,0,.7,0,.18,0,.33.01.45h-.11c-.01-.14-.03-.22-.06-.26-.03-.04-.08-.03-.15.01-.12.08-.24.16-.37.22-.13.06-.3.09-.51.09-.3,0-.57-.07-.79-.21-.23-.14-.4-.33-.53-.59-.13-.26-.19-.57-.19-.93s.07-.67.2-.94c.13-.27.31-.48.54-.63.23-.15.49-.22.79-.22Z"/>
        <path class="cls-6" d="M14.22,20.88c-.13,0-.24-.02-.34-.07s-.17-.12-.22-.21c-.05-.09-.07-.19-.07-.31,0-.14.03-.25.1-.34.07-.09.15-.16.25-.22.1-.05.21-.1.32-.14.11-.04.22-.07.32-.1s.19-.07.25-.12.1-.1.1-.18v-.3c0-.13-.02-.24-.06-.31s-.09-.12-.16-.14c-.07-.02-.14-.04-.22-.04s-.16.01-.26.03c-.09.02-.16.07-.22.14.06.01.11.04.16.1.04.05.07.12.07.2s-.03.14-.08.19c-.05.05-.12.07-.2.07-.09,0-.16-.03-.2-.09s-.06-.13-.06-.2c0-.08.02-.15.06-.2.04-.05.09-.1.16-.14.07-.05.17-.09.28-.13.12-.04.25-.06.39-.06.13,0,.24.02.33.05.09.03.17.07.23.13.08.08.14.17.16.28s.04.24.04.39v1.33c0,.08.01.14.04.17s.06.05.11.05c.03,0,.07,0,.1-.02.03-.02.07-.04.11-.08l.05.08c-.07.05-.13.09-.19.13s-.14.05-.24.05c-.09,0-.17-.02-.23-.05s-.11-.08-.14-.14-.05-.14-.05-.24c-.09.14-.19.25-.31.32-.12.07-.25.11-.4.11ZM14.39,20.69c.11,0,.2-.03.29-.09.09-.06.17-.15.25-.27v-.94c-.04.05-.09.1-.17.14-.07.04-.15.07-.24.11s-.17.08-.25.13c-.08.05-.14.11-.19.19-.05.08-.08.18-.08.31s.03.23.1.31c.07.08.16.11.28.11Z"/>
        <path class="cls-6" d="M17.4,18.32c.09,0,.16.02.23.05.07.04.12.08.15.14.04.06.05.12.05.19,0,.08-.02.15-.07.21-.05.06-.12.09-.2.09-.07,0-.13-.02-.18-.06-.05-.04-.08-.1-.08-.18,0-.06.02-.11.05-.16.03-.04.07-.08.11-.1-.02-.03-.06-.05-.1-.05-.1,0-.19.03-.27.09-.08.06-.15.13-.21.23-.06.09-.1.19-.13.29-.03.1-.05.2-.05.29v1.01c0,.16.05.26.14.31.09.05.21.08.37.08v.1c-.07,0-.18,0-.31-.01-.13,0-.28,0-.42,0-.11,0-.22,0-.32,0-.11,0-.19,0-.24.01v-.1c.13,0,.22-.02.28-.07.06-.05.08-.14.08-.27v-1.49c0-.14-.03-.25-.08-.32s-.15-.1-.29-.1v-.1c.1,0,.2.01.3.01s.18,0,.27-.02c.08-.01.16-.03.23-.05v.6c.03-.09.09-.19.15-.28.07-.09.14-.17.24-.24.09-.06.19-.1.31-.1Z"/>
        <path class="cls-6" d="M18.8,17.1v3.3c0,.13.03.22.08.27.06.05.15.07.28.07v.1c-.05,0-.14,0-.25-.01-.11,0-.22,0-.33,0s-.22,0-.33,0c-.11,0-.19,0-.25.01v-.1c.13,0,.22-.02.28-.07.06-.05.08-.14.08-.27v-2.73c0-.14-.03-.25-.08-.32-.05-.07-.15-.1-.29-.1v-.1c.1,0,.2.01.3.01s.18,0,.26-.02c.08-.01.16-.03.23-.05Z"/>
        <path class="cls-6" d="M20.58,18.32c.2,0,.39.04.55.13s.29.23.39.42c.1.19.15.44.15.74s-.05.55-.15.74c-.1.19-.23.33-.39.42s-.35.13-.55.13-.38-.04-.55-.13-.29-.23-.39-.42c-.1-.19-.15-.44-.15-.74s.05-.55.15-.74c.1-.19.23-.33.39-.42s.35-.13.55-.13ZM20.58,18.41c-.18,0-.33.09-.45.28-.12.19-.17.5-.17.92s.06.73.17.92c.12.19.26.28.45.28s.33-.09.45-.28c.12-.19.17-.49.17-.92s-.06-.73-.17-.92c-.12-.19-.26-.28-.45-.28Z"/>
      </g>
      <g>
        <path class="cls-6" d="M11.24,9.84c-.01.12-.02.24-.03.35,0,.11,0,.2,0,.26,0,.08,0,.15,0,.21,0,.07,0,.13,0,.18h-.11c-.02-.22-.05-.4-.09-.53-.04-.13-.1-.22-.2-.28-.1-.06-.24-.09-.44-.09h-.3c-.11,0-.19,0-.25.03-.06.02-.09.05-.11.11-.02.06-.03.14-.03.26v2.37c0,.11.01.2.04.26.02.06.07.1.14.11.07.02.17.03.31.04v.1c-.08,0-.19-.01-.32-.01-.13,0-.26,0-.39,0s-.24,0-.35,0c-.11,0-.2,0-.26.01v-.1c.11,0,.19-.02.25-.04s.09-.06.11-.11c.02-.06.03-.14.03-.26v-2.37c0-.12,0-.2-.03-.26-.02-.06-.06-.09-.11-.11s-.14-.03-.25-.04v-.1c.12,0,.24,0,.37,0s.26,0,.39,0c.13,0,.25,0,.36,0h.27c.15,0,.31,0,.5,0,.19,0,.35,0,.5-.01ZM10.5,11.52v.1h-.96v-.1h.96ZM10.59,10.89c-.01.18-.02.32-.02.42,0,.1,0,.18,0,.26s0,.17,0,.26c0,.1.01.23.02.42h-.11c-.01-.1-.03-.2-.05-.3-.02-.1-.06-.18-.11-.24s-.16-.09-.3-.09v-.1c.11,0,.19-.02.24-.06.06-.04.1-.1.12-.16.03-.07.04-.14.05-.21s.02-.14.03-.19h.11Z"/>
        <path class="cls-6" d="M12.13,13.25c-.13,0-.24-.02-.34-.07s-.17-.12-.22-.21c-.05-.09-.07-.19-.07-.31,0-.14.03-.25.1-.34.07-.09.15-.16.25-.21s.21-.1.32-.14c.11-.04.22-.07.32-.11s.19-.07.25-.12c.07-.04.1-.1.1-.18v-.3c0-.13-.02-.24-.06-.31-.04-.07-.09-.12-.16-.14-.07-.02-.14-.04-.22-.04s-.16.01-.26.03c-.09.02-.16.07-.22.14.06.01.11.04.16.1.04.05.07.12.07.2s-.03.14-.08.19c-.05.05-.12.07-.2.07-.09,0-.16-.03-.2-.09s-.06-.13-.06-.2c0-.08.02-.15.06-.2.04-.05.09-.1.16-.14.07-.05.17-.09.28-.13.12-.04.25-.05.39-.05.13,0,.24.02.33.05.09.03.17.07.23.13.08.08.14.17.16.28.03.11.04.24.04.39v1.33c0,.08.01.14.04.17s.06.05.11.05c.03,0,.07,0,.1-.02.03-.02.07-.04.11-.08l.05.08c-.07.05-.13.09-.19.13-.06.03-.14.05-.24.05-.09,0-.17-.02-.23-.05s-.11-.08-.14-.14-.05-.14-.05-.24c-.09.14-.19.25-.31.32-.12.07-.25.11-.4.11ZM12.3,13.06c.11,0,.2-.03.29-.09.09-.06.17-.15.25-.27v-.94c-.04.05-.09.1-.17.14-.07.04-.15.07-.24.11s-.17.08-.25.13c-.08.05-.14.11-.19.19-.05.08-.08.18-.08.31s.03.23.1.31c.07.08.16.11.28.11ZM13,9.34s.06.07.06.12c0,.05-.02.11-.06.17-.05.06-.11.12-.18.18-.07.06-.15.13-.25.22-.09.08-.2.19-.33.33l-.05-.04c.1-.16.18-.29.24-.4.06-.11.11-.21.15-.29.04-.08.09-.15.13-.21.05-.06.1-.1.15-.11.05,0,.1,0,.14.03Z"/>
        <path class="cls-6" d="M14.6,9.97v.8h.71v.1h-.71v1.85c0,.15.03.25.08.32s.13.09.22.09.18-.04.25-.12.13-.21.18-.39l.1.02c-.03.18-.09.34-.19.47-.09.13-.24.19-.43.19-.11,0-.2-.01-.27-.04-.07-.03-.13-.07-.19-.12-.07-.07-.12-.16-.15-.26-.03-.1-.04-.24-.04-.41v-1.6h-.46v-.1h.46v-.73c.08,0,.16,0,.23-.02.07,0,.14-.03.2-.05Z"/>
        <path class="cls-6" d="M16.31,10.71v2.07c0,.13.03.22.08.27.06.05.15.07.28.07v.1c-.05,0-.14,0-.25-.01-.11,0-.22,0-.33,0s-.22,0-.33,0c-.11,0-.19,0-.25.01v-.1c.13,0,.22-.02.28-.07.06-.05.08-.14.08-.27v-1.49c0-.14-.03-.25-.08-.32-.05-.07-.15-.1-.29-.1v-.1c.1,0,.2.01.3.01s.18,0,.26-.02c.08-.01.16-.03.23-.05ZM16.06,9.56c.08,0,.15.03.21.09s.09.13.09.21-.03.15-.09.21c-.06.06-.13.09-.21.09s-.15-.03-.21-.09c-.06-.06-.09-.13-.09-.21s.03-.15.09-.21.13-.09.21-.09Z"/>
        <path class="cls-6" d="M18.49,10.69c.11,0,.21.02.29.05.08.03.15.08.21.13.06.06.1.15.12.25.02.1.03.23.03.38v1.27c0,.13.03.22.08.27.06.05.15.07.28.07v.1c-.05,0-.14,0-.25-.01-.11,0-.22,0-.32,0s-.21,0-.31,0c-.1,0-.18,0-.23.01v-.1c.11,0,.2-.02.24-.07s.07-.14.07-.27v-1.38c0-.1,0-.19-.02-.27-.01-.08-.04-.15-.1-.2s-.13-.08-.25-.08c-.12,0-.23.04-.33.11-.1.08-.17.18-.23.31s-.08.28-.08.44v1.06c0,.13.02.22.07.27.05.05.13.07.24.07v.1c-.05,0-.13,0-.23-.01-.1,0-.2,0-.31,0s-.21,0-.32,0c-.11,0-.19,0-.25.01v-.1c.13,0,.22-.02.28-.07.06-.05.08-.14.08-.27v-1.49c0-.14-.03-.25-.08-.32-.05-.07-.15-.1-.29-.1v-.1c.1,0,.2.01.3.01s.18,0,.27-.02c.08-.01.16-.03.23-.05v.56c.08-.21.2-.35.34-.44s.29-.13.44-.13ZM19.93,10.69c.11,0,.21.02.29.05.08.03.15.08.21.13.06.06.1.15.12.25.02.1.03.23.03.38v1.27c0,.13.03.22.08.27.06.05.15.07.28.07v.1c-.05,0-.14,0-.25-.01-.11,0-.22,0-.32,0s-.21,0-.31,0c-.1,0-.18,0-.23.01v-.1c.11,0,.2-.02.24-.07s.07-.14.07-.27v-1.38c0-.1,0-.19-.02-.27-.01-.08-.04-.15-.1-.2-.05-.05-.13-.08-.25-.08-.12,0-.23.04-.33.11-.1.08-.17.18-.23.31-.06.13-.08.28-.08.44v-.44c.07-.22.19-.37.33-.45.15-.08.3-.12.45-.12Z"/>
        <path class="cls-6" d="M21.83,13.25c-.13,0-.24-.02-.34-.07-.1-.05-.17-.12-.22-.21-.05-.09-.07-.19-.07-.31,0-.14.03-.25.1-.34.07-.09.15-.16.25-.21s.21-.1.32-.14c.11-.04.22-.07.32-.11.1-.03.19-.07.25-.12.07-.04.1-.1.1-.18v-.3c0-.13-.02-.24-.06-.31-.04-.07-.09-.12-.16-.14-.07-.02-.14-.04-.22-.04s-.16.01-.26.03c-.09.02-.16.07-.22.14.06.01.11.04.16.1.04.05.07.12.07.2s-.03.14-.08.19c-.05.05-.12.07-.2.07-.09,0-.16-.03-.2-.09s-.06-.13-.06-.2c0-.08.02-.15.06-.2.04-.05.09-.1.16-.14.07-.05.17-.09.28-.13.12-.04.25-.05.39-.05.13,0,.24.02.33.05.09.03.17.07.23.13.08.08.14.17.16.28.03.11.04.24.04.39v1.33c0,.08.01.14.04.17.02.03.06.05.11.05.03,0,.07,0,.1-.02.03-.02.07-.04.11-.08l.05.08c-.07.05-.13.09-.19.13-.06.03-.14.05-.24.05-.09,0-.17-.02-.23-.05s-.11-.08-.14-.14c-.03-.06-.05-.14-.05-.24-.09.14-.19.25-.31.32s-.25.11-.4.11ZM22.01,13.06c.11,0,.2-.03.29-.09.09-.06.17-.15.25-.27v-.94c-.04.05-.09.1-.17.14-.07.04-.15.07-.24.11-.09.04-.17.08-.25.13-.08.05-.14.11-.19.19-.05.08-.08.18-.08.31s.03.23.1.31c.07.08.16.11.28.11Z"/>
      </g>
      <g class="cls-10">
        <g class="cls-7">
          <g>
            <path class="cls-2" d="M7.76,30.08c-.72-2.57-1.93-4.99-3.4-7.21-1.29-1.96-2.89-3.7-3.94-5.8-.11-.07-.21-.14-.31-.22.32.71.69,1.4,1.14,2.06.75,1.13,1.62,2.17,2.4,3.28.79,1.12,1.51,2.3,2.14,3.52,1.25,2.41,2.12,5.03,2.38,7.74.25,2.58-.04,5.24-.77,7.73-.38,1.29-.91,2.53-1.53,3.73-.03.05.06.1.09.05,1.33-2.13,2.04-4.63,2.34-7.1.32-2.6.15-5.24-.56-7.77Z"/>
            <path class="cls-2" d="M6.37,32.89c-1-2.11-2.43-4.01-4.15-5.58-.45-.41-.91-.79-1.4-1.14.09.14.19.28.27.43.74.6,1.43,1.24,2.07,1.94,1.67,1.83,2.94,3.99,3.74,6.33.58,1.69.85,3.45.93,5.22,0-.02,0-.04.01-.07.05-.32.09-.65.17-.96-.09-2.13-.75-4.28-1.64-6.18Z"/>
            <path class="cls-2" d="M0,15.35c-.19-.73-.2-1.46-.19-2.21,0-.64.1-1.41-.17-2.01-.1-.22-.3-.36-.54-.28-.4.15-.65.54-.78.93-.36,1.07.03,2.3.54,3.26.22.41.48.8.76,1.18.14.2.28.4.42.6.13.19.31.38.4.59,0,.02.03.03.05.02.01.03.03.06.04.09.03.07.14.02.11-.05-.27-.69-.45-1.4-.64-2.11ZM.13,16.73c-.19-.3-.4-.58-.6-.87-.4-.57-.72-1.2-.94-1.86-.18-.57-.28-1.18-.2-1.78.06-.48.29-1.03.77-1.21.52-.19.47,1.34.46,1.6-.02.61-.03,1.22.02,1.83.07.73.31,1.45.51,2.15.04.13.08.26.13.39-.06-.08-.12-.16-.17-.23Z"/>
            <path class="cls-2" d="M1.84,19.46c-.19-.21-.41-.39-.63-.58-.28-.24-.49-.52-.71-.81-.39-.51-.83-.99-1.29-1.44-.42-.42-.91-.74-1.42-1.04-.28-.16-.8-.42-1.07-.11-.19.22.01.63.13.84.26.44.7.76,1.14.99.26.13.55.23.82.34.33.13.62.31.9.53.51.4,1,.84,1.56,1.19.14.09.3.15.46.18,0,0,.01,0,.02,0,.05.05.14-.02.09-.08ZM1.02,19c-.23-.18-.46-.36-.68-.54-.44-.36-.86-.72-1.39-.94-.52-.23-1.04-.39-1.49-.76-.31-.24-.61-.62-.65-1.03-.06-.6,1.03.05,1.2.16.5.33.94.67,1.35,1.11.39.41.77.84,1.12,1.29.16.22.33.42.53.61.17.15.35.28.53.43-.18-.08-.35-.21-.51-.33Z"/>
            <path class="cls-2" d="M3.35,17.49c-.21-1.07-.68-2.25-1.79-2.63-.17-.06-.39-.11-.57-.06-.17.04-.19.27-.19.4,0,.23.08.44.19.64.16.3.34.59.5.89.32.61.6,1.24.88,1.87.3.68.46,1.38.64,2.1.07.28.21.54.27.82,0,.01,0,.02.01.03,0,0,0,.01,0,.02.02.09.16.07.15-.02-.04-.34-.04-.63,0-.97.04-.36.04-.72.04-1.08,0-.68,0-1.35-.13-2.02ZM3.3,19.74c0,.33-.02.65-.06.98-.01.09-.02.17-.02.25-.03-.09-.06-.19-.09-.28-.1-.34-.15-.7-.23-1.04-.13-.59-.4-1.15-.66-1.7-.27-.57-.52-1.16-.83-1.71-.16-.28-.36-.53-.43-.85-.02-.1-.02-.21-.01-.32.02-.2.28-.13.41-.1,1.23.24,1.66,1.7,1.84,2.76.11.67.09,1.34.09,2.02Z"/>
            <path class="cls-2" d="M6.09,18.65c-.08-.24-.32-.34-.56-.24-.42.17-.61.67-.75,1.07-.2.56-.25,1.21-.22,1.8.04.67.05,1.37.18,2.02.05.23.12.45.2.66.09.23.24.42.29.67.01.05.06.05.09.03,0,0,0,.01.02.03.04.04.09,0,.06-.05,0,0,0-.02-.01-.03,0,0,0-.02,0-.02-.09-.31-.16-.67-.19-.99-.04-.38.04-.79.07-1.18.05-.67.25-1.31.49-1.93.11-.29.19-.58.27-.87.07-.29.16-.66.06-.95ZM5.85,19.79c-.09.32-.21.63-.32.94-.23.66-.36,1.3-.41,2-.02.32-.07.64-.04.96.02.13.05.25.08.37-.02-.05-.05-.11-.07-.16-.14-.33-.22-.68-.26-1.03-.04-.32-.05-.65-.07-.98-.02-.37-.07-.73-.06-1.09.02-.58.14-1.17.39-1.7.11-.24.28-.52.56-.58.17-.03.27.07.31.22.07.33-.03.72-.12,1.04Z"/>
            <path class="cls-2" d="M4.54,23.26s0-.05-.02-.07c-.02-.01-.03-.02-.05-.03-.15-.15-.33-.25-.51-.36-.26-.15-.51-.31-.76-.48-.55-.36-1.12-.7-1.58-1.17-.39-.4-.68-.91-1.09-1.28-.27-.24-.73-.41-1.04-.17-.36.27.02.86.18,1.13.3.5.76.86,1.26,1.14.57.31,1.14.57,1.75.77.32.1.64.2.96.3.27.08.56.14.82.27.03.01.05,0,.07-.02,0,0,0,0,0-.01ZM3.14,22.71c-.55-.17-1.08-.34-1.59-.6-.49-.25-.97-.49-1.37-.88-.21-.2-.37-.44-.51-.69-.12-.22-.33-.61-.04-.79.44-.27.91.31,1.14.6.32.41.65.83,1.04,1.18.42.37.91.65,1.38.95.26.17.54.33.81.49-.03,0-.06-.02-.09-.03-.26-.07-.51-.16-.77-.23Z"/>
            <path class="cls-2" d="M7.04,28.19c-.22-.32-.43-.64-.63-.97-.35-.59-.71-1.18-1.11-1.74-.62-.86-1.45-2.06-2.66-2.02-.36.01-.67.3-.42.63.28.36.84.52,1.22.72.61.32,1.21.82,1.64,1.35.21.25.38.54.58.8.22.29.47.57.71.84.17.19.33.38.5.56.11.12.17.3.3.4.01,0,.02.01.03.01.03.04.1.04.11-.02.02-.19-.18-.42-.28-.57ZM6.09,27.27c-.41-.48-.73-1.05-1.18-1.49-.4-.39-.85-.78-1.35-1.05-.25-.14-.51-.26-.77-.39-.19-.09-.42-.23-.52-.42-.08-.15.11-.25.21-.3.17-.08.38-.03.55.02.29.08.55.23.79.4.5.36.88.93,1.25,1.42.4.54.76,1.1,1.11,1.68.17.27.33.55.51.81.02.03.05.06.07.09,0,0,0,0,0,0-.22-.26-.45-.5-.67-.76Z"/>
            <path class="cls-2" d="M1.42,26.72c-.19-.2-.4-.38-.58-.59-.23-.27-.45-.55-.69-.8-.2-.21-.47-.38-.7-.56-.26-.2-.51-.42-.77-.63-.43-.35-.95-.6-1.5-.65-.34-.03-.73-.02-1.04.14-.31.16-.38.5-.29.82.11.38.4.62.75.78.38.18.8.25,1.21.33.58.11,1.15.28,1.7.48.29.1.57.21.85.32.27.1.6.19.83.36.02.02.05.01.07,0,.04.02.07.04.11.06.03.01.06-.03.04-.05ZM-.35,25.92c-.55-.2-1.11-.38-1.68-.5-.7-.14-2.12-.33-2-1.35.05-.44.7-.46,1.02-.45.6.02,1.13.28,1.6.64.24.19.46.4.7.58.29.22.6.43.85.7.22.23.43.49.64.74.03.04.07.08.11.12-.11-.05-.22-.09-.32-.13-.3-.12-.61-.24-.92-.35Z"/>
            <path class="cls-2" d="M2.11,26.08c-.19-.54-.45-1.06-.66-1.59-.2-.51-.35-1.03-.65-1.49-.2-.3-.48-.6-.86-.39-.33.19-.3.66-.2.96.14.45.49.81.8,1.15.38.42.75.84,1.04,1.33.31.53.55,1.09.87,1.61.02.03.05.03.07.01,0,.01,0,.03.01.04.02.06.11.04.09-.01-.15-.55-.34-1.09-.53-1.62ZM1.12,25.17c-.27-.33-.58-.64-.84-.98-.26-.33-.54-.78-.41-1.22.04-.14.15-.24.3-.28.15-.04.27.1.36.2.14.17.25.36.35.55.22.43.34.9.53,1.35.19.45.4.9.57,1.36.17.46.37.91.51,1.38-.42-.81-.78-1.65-1.36-2.36Z"/>
            <path class="cls-2" d="M4.3,29.63c-.12-.2-.16-.42-.22-.63-.08-.27-.17-.53-.24-.8-.13-.49-.24-.99-.33-1.5-.05-.26-.06-.51-.04-.77.01-.18.02-.35-.02-.53-.06-.31-.35-.52-.66-.48-.33.04-.44.32-.38.61.1.46.29.89.47,1.32.38.95.76,1.96,1.33,2.81.02.02.04.01.06,0,0,0,0,0,0,0,.02.02.05,0,.04-.02ZM3.21,27.26c-.16-.39-.32-.77-.47-1.17-.07-.2-.14-.39-.19-.6-.03-.11-.04-.23.02-.33.09-.15.33-.15.47-.1.43.16.27.78.27,1.12,0,.4.1.81.19,1.2.08.39.2.78.31,1.17.01.05.03.09.04.14-.22-.48-.45-.95-.65-1.43Z"/>
            <path class="cls-2" d="M7.67,30.83c-.13-.24-.27-.47-.43-.7-.16-.24-.35-.46-.5-.7-.17-.27-.33-.53-.53-.78-.28-.34-.59-.66-.93-.94-.21-.18-.53-.43-.83-.36-.37.09-.22.59-.12.83.21.49.7.83,1.11,1.13.91.68,1.86,1.28,2.53,2.21.01.02.03.02.04,0,0,0,0,.01,0,.02,0,.02.03,0,.03-.01-.08-.26-.26-.48-.39-.71ZM6.12,29.64c-.4-.29-.81-.58-1.17-.91-.21-.19-.39-.41-.51-.67-.08-.17-.18-.58.12-.59.29,0,.58.29.78.47.34.3.64.63.91.99.15.21.28.44.41.65.14.22.31.42.46.63.1.14.2.29.29.45-.4-.39-.87-.71-1.3-1.02Z"/>
            <path class="cls-2" d="M7.53,23.33c-.13-.43-.42-.96-.94-.96-.47,0-.58.63-.57.98,0,.3.09.6.15.89.07.34.18.67.29,1,.25.71.48,1.43.65,2.16.07.32.16.64.21.97.04.24.12.58.05.81,0,.01-.01.02-.02.03-.02.05.02.09.06.09.03.01.07,0,.08-.04,0-.01,0-.03,0-.04.02-.04.03-.09.03-.14.06-.2.16-.4.2-.6.07-.35.1-.71.1-1.07.01-.68-.08-1.35-.1-2.02-.02-.68,0-1.39-.2-2.05ZM7.59,25.67c.02.63.11,1.25.09,1.88,0,.3-.04.61-.09.91-.02.1-.05.19-.08.28-.03-.24-.05-.49-.11-.73-.13-.59-.27-1.18-.45-1.76-.19-.63-.45-1.24-.61-1.88-.13-.53-.35-1.24-.01-1.74.23-.33.61-.06.8.16.2.24.27.59.33.88.13.65.11,1.32.13,1.98Z"/>
            <path class="cls-2" d="M9.97,26.28c-.33-.03-.66.31-.86.52-.38.41-.62.99-.78,1.52-.18.6-.25,1.25-.28,1.87-.03.65-.05,1.3,0,1.95,0,.01,0,.02.02.03.02.03.07.04.09.02,0,0,.02-.01.03-.02.03-.02.03-.05.01-.08.08-.27.13-.54.22-.8.1-.31.22-.6.34-.9.26-.61.55-1.19.88-1.76.26-.45.61-.92.74-1.43.08-.34.04-.89-.4-.93ZM10.25,26.98c-.02.25-.14.49-.25.7-.26.48-.56.95-.82,1.43-.26.47-.47.95-.67,1.45-.16.41-.26.82-.37,1.24.02-.45,0-.89.03-1.34.02-.55.08-1.09.18-1.63.1-.54.29-1.07.57-1.54.2-.35.55-.78.97-.87.31-.07.38.34.36.56Z"/>
            <path class="cls-2" d="M4.72,30.21c-.19-.19-.35-.4-.56-.58-.23-.2-.5-.37-.76-.54-.27-.18-.55-.36-.8-.56-.27-.21-.52-.44-.8-.63-.48-.33-1.05-.62-1.62-.73-.27-.05-.56-.04-.82.03-.18.05-.44.14-.52.32-.15.32.19.62.44.77.51.3,1.15.42,1.72.55,1.24.27,2.6.54,3.57,1.42.01.01.02.01.04.01.01.01.02.02.03.03.05.05.13-.04.08-.09ZM.19,28.48c-.4-.11-1.12-.28-1.25-.75-.08-.28.39-.39.57-.43.3-.06.61,0,.9.08.54.17,1.09.48,1.54.83.23.17.44.37.67.54.24.18.5.34.75.51.15.1.3.21.45.31-.58-.32-1.24-.51-1.88-.68-.58-.15-1.17-.26-1.75-.42Z"/>
            <path class="cls-2" d="M6.48,33.26c-.09-.24-.28-.42-.46-.61-.24-.25-.47-.52-.71-.78-.42-.44-.87-.8-1.4-1.11-.52-.3-1.01-.54-1.6-.64-.59-.09-1.23-.17-1.82,0-.18.05-.4.17-.44.37-.04.24.12.42.31.54.43.27,1.04.23,1.53.29.66.08,1.32.16,1.97.31.33.08.63.19.91.39.26.18.5.38.75.57.14.1.27.2.41.31.14.1.32.2.39.36,0,.01.01.02.02.02,0,0,0,.02.01.03.03.08.15.03.12-.05ZM5.24,32.21c-.2-.16-.41-.33-.64-.46-.25-.14-.52-.21-.8-.28-.59-.15-1.21-.22-1.81-.29-.27-.03-.55-.06-.82-.09-.29-.03-.59-.07-.83-.26-.22-.17-.16-.43.08-.55.13-.06.3-.08.44-.1.35-.06.71,0,1.06.04.32.04.63.08.93.18.29.09.56.27.83.42.53.3,1.03.64,1.44,1.09.23.25.47.49.69.74.02.02.03.04.05.05-.21-.16-.42-.32-.63-.49Z"/>
            <path class="cls-2" d="M7.21,31.37c-.14-.29-.44-.61-.77-.68-.81-.16.14,1.72.22,1.92.22.56.32,1.18.42,1.77.05.3.09.6.13.9.02.16.01.4.11.54,0,.01.02.02.03.02.04.02.1-.01.1-.07-.03-.28.07-.56.11-.84.04-.28.04-.57.04-.85-.01-.5-.06-1-.11-1.5-.04-.41-.1-.83-.28-1.21ZM7.35,32.95c.04.49.09.97.08,1.47,0,.25-.03.5-.06.75,0,.05-.02.11-.02.16,0-.05-.01-.09-.02-.14-.03-.25-.06-.49-.1-.73-.08-.5-.17-.99-.31-1.48-.13-.46-.35-.88-.51-1.33-.06-.17-.12-.35-.15-.53-.02-.09-.05-.29.11-.28.11,0,.23.08.32.14.62.39.61,1.34.66,1.99Z"/>
            <path class="cls-2" d="M10.18,29.41c-.33-.06-.51.34-.57.59-.09.42-.08.84-.2,1.26-.18.66-.4,1.3-.6,1.96-.19.63-.44,1.27-.52,1.93,0,0,0,.01,0,.02,0,0,0,0,0,.01-.03.09.1.14.13.05.17-.55.58-.99.94-1.43.37-.45.65-.94.88-1.47.23-.55.38-1.13.47-1.71.06-.42-.01-1.11-.53-1.2ZM10.45,31.06c-.11.53-.3,1.05-.53,1.55-.23.48-.54.9-.87,1.31-.2.25-.4.51-.56.79.11-.43.26-.85.39-1.28.17-.57.37-1.13.55-1.7.12-.39.22-.76.25-1.16.03-.3.04-.79.33-.97.31-.19.5.29.55.51.06.31-.04.66-.1.96Z"/>
          </g>
        </g>
      </g>
      <path class="cls-5" d="M16,.45c8.57,0,15.55,6.97,15.55,15.55s-6.97,15.55-15.55,15.55S.45,24.57.45,16,7.43.45,16,.45M16,0C7.17,0,0,7.17,0,16s7.16,16,16,16,16-7.16,16-16S24.83,0,16,0h0Z"/>
    </g>
  </g>
</svg>