<svg width="185" height="65" viewBox="0 0 185 65" fill="none" xmlns="http://www.w3.org/2000/svg">
<g clip-path="url(#clip0_25_294)">
<path opacity="0.08" d="M184.282 4.29208C184.282 4.29208 184.303 4.39771 184.24 4.41883C184.219 4.41883 184.198 4.41884 184.176 4.4294C184.166 4.45053 184.155 4.47165 184.124 4.49277C181.779 5.7075 179.318 6.58421 177.047 7.93625C174.892 9.22491 172.874 10.7882 170.888 12.3304C168.86 13.9148 166.959 15.6577 164.91 17.2104C162.998 18.6681 161.065 20.094 159.153 21.5411C159.1 21.5834 159.037 21.6045 158.974 21.6151C158.953 21.6256 158.931 21.6468 158.9 21.6468C157.431 21.8791 155.752 21.2559 154.294 21.0552C152.625 20.8334 150.946 20.77 149.288 20.4637C147.714 20.1785 146.15 19.6715 144.682 18.9744C145.633 19.7771 146.636 20.5271 147.798 21.1292C148.95 21.7313 150.175 22.2383 151.379 22.7242C152.647 23.2417 154.146 23.5903 155.224 24.4459C155.435 24.6149 155.298 24.9529 155.034 24.9318C155.013 24.9318 154.991 24.9318 154.97 24.9212C149.467 28.5548 144.017 32.2941 138.598 36.065C135.778 38.0191 132.947 39.9415 130.021 41.7372C128.722 42.5294 127.401 43.2794 126.06 44.0082C124.655 44.7582 123.06 45.6666 121.476 45.9306C121.37 45.9412 121.296 45.9095 121.222 45.8567C119.448 46.0046 117.303 45.0434 115.719 44.5469C113.205 43.7653 110.744 42.9625 108.346 41.8851C106.308 40.9767 104.258 39.8148 102.368 38.4627C103.603 39.8993 104.892 41.283 106.403 42.5083C109.645 45.149 113.321 46.7123 117.187 48.1699C117.451 48.2756 117.325 48.6453 117.06 48.6347C117.039 48.6347 117.008 48.6347 116.987 48.6347C115.465 49.7438 113.606 50.4304 111.895 51.1803C109.973 52.0254 108.029 52.807 106.065 53.5675C104.11 54.3175 102.125 55.0146 100.128 55.6484C98.3432 56.2188 96.3574 56.9793 94.4666 57.011C93.7906 57.1378 93.0618 56.9582 92.3963 56.8103C91.3083 56.5674 90.2309 56.2822 89.1641 55.9864C86.7241 55.3104 84.3686 54.402 82.0976 53.2929C79.0872 51.8247 76.4254 50.1029 74.0065 47.9693C73.9854 47.9693 73.9748 47.9798 73.9537 47.9904C74.1015 48.1594 74.2494 48.339 74.3973 48.508C75.6754 49.9022 77.1542 51.117 78.6436 52.3C80.0907 53.4513 81.6223 54.4548 83.2067 55.3949C84.0517 55.8914 84.9179 56.335 85.8051 56.7575C86.5128 57.0849 87.2945 57.254 87.7909 57.8772C87.8649 57.9722 87.8121 58.0884 87.7064 58.1412C87.6959 58.1624 87.6747 58.194 87.6536 58.2046C86.3755 58.9123 85.0024 59.0496 83.5869 59.3031C81.9603 59.5989 80.3336 60.0531 78.7175 60.3911C75.2635 61.1094 71.7883 61.7643 68.3026 62.3452C61.2466 63.5388 54.1273 63.824 46.9974 64.1409C40.3428 64.4367 33.8362 64.743 27.1922 64.0564C23.9916 63.7184 20.7911 63.2853 17.6645 62.5353C16.1963 62.1868 14.7492 61.7431 13.3232 61.2256C12.4993 60.9298 11.7493 60.4439 10.9783 60.0214C8.20026 59.7573 5.57013 59.3982 3.3625 58.9651C2.9928 58.944 2.61253 58.9123 2.2534 58.8278C1.39781 58.6377 1.10207 57.6342 0.806305 56.9265C0.595047 56.4089 0.193665 55.4371 0.837983 55.0569C1.16544 54.8668 1.53513 55.0569 1.84145 55.1942C1.85202 55.1942 1.87314 55.1942 1.8837 55.2048C4.69341 55.4688 9.37271 56.1977 13.1542 56.6413C14.5168 56.3244 15.9005 56.2505 17.2948 56.0709C18.8476 55.8702 20.4003 55.6062 21.9319 55.2893C25.1007 54.6344 28.259 53.821 31.3433 52.8598C34.4699 51.888 37.512 50.6522 40.5224 49.3847C41.9273 48.7931 43.3321 48.2016 44.7159 47.5784C45.7721 47.1031 46.9552 46.8285 48.0009 46.332C48.0748 46.2581 48.1382 46.1736 48.2227 46.1208C48.4657 45.9729 48.7508 46.163 48.6663 46.4482C48.191 48.0538 48.4973 49.7015 48.9304 51.3282C49.4269 48.4763 50.536 45.5926 52.4901 43.6068C52.5006 43.4484 52.5851 43.2899 52.7753 43.1843C56.7574 41.0717 60.391 38.2198 64.1091 35.6847C68.0702 32.9806 72.0101 30.2343 75.9184 27.4669C79.6787 24.805 83.4496 22.2277 87.3684 19.7983C91.0971 17.485 94.7096 14.8971 98.8819 13.5028C98.8819 13.4712 98.8924 13.45 98.903 13.4183C99.1248 12.9113 99.8853 13.2176 99.6952 13.7352C99.315 14.8338 99.9487 16.7773 100.149 17.8653C100.456 19.5553 100.857 21.2454 101.301 22.9037C101.428 23.3791 101.575 23.8438 101.723 24.3086C101.618 23.115 101.554 21.9214 101.544 20.7595C101.512 18.9004 101.628 17.0519 101.871 15.214C102.051 13.8409 102.273 12.2036 103.16 11.084C103.17 11.0523 103.16 11.0311 103.192 10.9995C103.255 10.9361 103.318 10.8727 103.382 10.8093C103.392 10.7882 103.413 10.7776 103.424 10.7565C103.424 10.7565 103.434 10.7565 103.445 10.7565C104.734 9.52066 106.825 8.9714 108.452 8.43269C110.237 7.84118 112.054 7.3236 113.881 6.89053C113.944 6.81659 114.008 6.74265 114.082 6.66871C114.272 6.47858 114.568 6.74265 114.483 6.96447C114.462 7.01728 114.441 7.05953 114.42 7.11234C114.43 7.21797 114.42 7.3236 114.325 7.39754C114.314 7.4081 114.293 7.41867 114.282 7.42923C113.649 8.90802 112.93 10.3129 112.476 11.8762C111.885 13.9042 111.621 16.0379 111.399 18.1399C111.188 20.1468 111.029 22.1643 111.071 24.1818C111.23 22.0376 111.663 19.925 112.202 17.8547C112.814 15.5203 113.659 13.2282 114.694 11.0523C115.18 10.0277 115.73 9.03478 116.31 8.063C116.722 7.37642 117.325 6.7849 117.747 6.09832C117.673 5.86594 117.747 5.60187 118.032 5.49624C118.053 5.49624 118.064 5.49624 118.074 5.48568C118.159 5.38005 118.296 5.34836 118.423 5.36948C124.666 3.27805 131.32 2.21121 137.837 1.37675C141.281 0.933111 144.746 0.626791 148.21 0.447226C151.263 0.299345 154.263 0.985922 157.305 1.05986C157.4 1.05986 157.453 1.10212 157.495 1.1655C157.643 1.20775 157.748 1.37675 157.685 1.54576C157.442 2.16896 156.998 2.67597 156.618 3.22524C156.058 4.03858 155.667 4.95754 155.34 5.88706C154.907 7.0701 154.717 8.29538 154.527 9.52067C155.287 8.04188 156.322 6.7004 157.442 5.51737C158.266 4.64065 159.185 3.84844 160.136 3.10905C160.991 2.43303 161.741 1.99996 162.66 1.59857C162.681 1.47182 162.776 1.34506 162.945 1.31337C164.561 1.01762 166.378 1.51407 167.994 1.71476C169.917 1.95771 171.85 2.19009 173.783 2.33797C175.547 2.47528 177.311 2.80273 179.085 2.95061C180.807 3.09849 182.486 3.72169 184.208 3.94351C184.367 3.96463 184.377 4.17589 184.25 4.22871L184.282 4.29208Z" fill="url(#paint0_linear_25_294)"/>
<g opacity="0.32">
<path d="M2.20061 58.0461C5.95039 58.2468 14.6541 59.6306 18.4039 59.6306C22.3016 59.6306 26.2099 59.3348 30.0758 58.8595C37.9557 57.8877 45.7193 55.9758 53.3351 53.7682C68.9047 49.2368 83.8827 42.9097 98.5333 36.0227C105.452 32.7799 112.233 29.2625 119.131 25.9881C126.218 22.6291 133.507 19.7138 140.795 16.8195C144.365 15.4041 147.936 13.9782 151.485 12.5099C155.118 11.01 158.688 9.48897 162.459 8.39044C169.526 6.33069 176.909 5.15822 184.208 4.27094C184.303 4.27094 184.314 4.3977 184.229 4.41882C176.381 6.47857 168.29 7.47147 160.558 10.0171C156.65 11.3058 152.911 13.0592 149.119 14.6225C145.263 16.2069 141.387 17.7596 137.531 19.3335C129.82 22.4706 122.183 25.7451 114.747 29.4843C107.501 33.1179 100.223 36.667 92.8505 40.0366C78.9605 46.3848 64.6901 51.9725 49.955 55.997C42.8885 57.9194 35.7269 59.4932 28.4386 60.2855C21.4566 61.046 9.02419 60.296 2.12668 58.7433C1.6936 58.6482 1.75696 58.0356 2.21117 58.0567L2.20061 58.0461Z" fill="url(#paint1_linear_25_294)"/>
<path d="M1.18657 55.1837C4.93637 55.4478 13.6084 56.9688 17.3688 57.0427C21.2664 57.1061 25.1747 56.8737 29.0512 56.4618C36.9416 55.6168 44.737 53.8316 52.3845 51.7402C68.0174 47.4623 83.1222 40.3746 97.889 33.7306C104.85 30.5935 111.695 27.1923 118.645 24.034C125.785 20.7912 133.126 17.9921 140.457 15.2141C144.048 13.8515 147.64 12.4889 151.21 11.0734C154.865 9.62634 159.84 8.07361 163.632 7.02789C170.73 5.08433 176.73 5.12659 184.05 4.36607C184.145 4.36607 184.155 4.49282 184.071 4.51394C176.18 6.44694 169.04 6.32018 161.266 8.73906C157.336 9.95378 152.636 11.6438 148.812 13.1438C144.936 14.6648 141.038 16.1541 137.14 17.6646C129.377 20.675 121.698 23.8333 114.187 27.4458C106.889 30.9632 99.5368 34.3961 92.1217 37.6494C78.1366 43.7653 63.7606 50.1347 48.9515 53.9162C41.8639 55.7224 34.6706 57.1801 27.3717 57.8561C20.3792 58.5004 7.95732 57.5498 1.08095 55.8808C0.647873 55.7752 0.721802 55.1626 1.17599 55.1942L1.18657 55.1837Z" fill="url(#paint2_linear_25_294)"/>
<path d="M1.84149 55.2259C2.19006 55.3844 2.62313 55.3632 2.99283 55.4689C3.40478 55.585 3.81673 55.7329 4.21812 55.8808C4.366 55.9336 4.29206 56.1343 4.15475 56.1238C3.32028 56.1238 2.47525 56.1238 1.64079 55.9864C1.37672 55.9442 1.37672 55.7012 1.5246 56.2083C1.61967 56.5146 1.74642 56.8103 1.87318 57.1061C2.1795 57.8138 2.433 58.1096 3.22521 58.2152C4.13361 58.3419 5.09484 58.5638 5.97155 58.8173C6.06661 58.8384 6.06661 58.9863 5.97155 59.018C5.34834 59.2398 4.75682 59.1447 4.10193 59.0602C3.48929 58.9757 2.85552 58.9968 2.25344 58.8595C1.39785 58.6694 1.1021 57.6659 0.80634 56.9582C0.595084 56.4406 0.193696 55.4689 0.838027 55.0886C1.16547 54.8985 1.53517 55.0886 1.84149 55.2259Z" fill="url(#paint3_linear_25_294)"/>
<path d="M184.007 4.2076C184.197 4.14422 184.314 4.4083 184.134 4.50336C181.789 5.71808 179.328 6.59479 177.057 7.94683C174.902 9.23549 172.885 10.7988 170.899 12.341C168.871 13.9254 166.969 15.6682 164.92 17.221C163.008 18.6786 161.075 20.1046 159.164 21.5517C158.804 21.8263 158.287 21.3616 158.583 20.9919C160.009 19.1434 161.92 17.9076 163.801 16.5344C165.998 14.9288 168.026 13.1015 170.17 11.4326C172.198 9.86926 174.279 8.30597 176.487 7.01731C178.884 5.60189 181.377 5.05263 183.997 4.21817L184.007 4.2076Z" fill="url(#paint4_linear_25_294)"/>
<path d="M162.987 1.37678C164.604 1.08102 166.42 1.57747 168.036 1.77817C169.959 2.02111 171.892 2.25349 173.825 2.40137C175.589 2.53869 177.353 2.86614 179.127 3.01402C180.849 3.16189 182.529 3.7851 184.25 4.00692C184.419 4.02804 184.43 4.29211 184.25 4.31324C182.761 4.42943 181.335 4.1548 179.856 3.98579C177.976 3.76397 176.064 3.74285 174.173 3.56328C172.24 3.37315 170.297 3.32034 168.364 3.08795C166.61 2.8767 164.498 2.8767 162.903 2.08449C162.575 1.92605 162.618 1.46128 162.987 1.3979L162.987 1.37678Z" fill="url(#paint5_linear_25_294)"/>
<path d="M155.044 24.562C155.182 24.5304 155.277 24.7416 155.16 24.8261C149.594 28.502 144.08 32.2835 138.609 36.0966C135.788 38.0507 132.957 39.9732 130.032 41.7688C128.732 42.5611 127.412 43.311 126.071 44.0398C124.666 44.7898 123.071 45.6982 121.486 45.9623C121.138 46.0151 120.937 45.5503 121.212 45.3285C122.384 44.4201 123.863 43.8603 125.162 43.1526C126.831 42.2442 128.479 41.3041 130.105 40.3006C133.01 38.4944 135.831 36.5297 138.651 34.5861C141.45 32.6532 144.27 30.773 147.122 28.9139C149.647 27.2556 152.076 25.3226 155.055 24.562L155.044 24.562Z" fill="url(#paint6_linear_25_294)"/>
<path d="M99.6634 54.5921C101.67 53.9794 103.656 53.2823 105.621 52.5534C107.596 51.8246 109.54 51.043 111.483 50.2613C113.279 49.543 115.127 48.6241 117.05 48.3178C117.177 48.2966 117.25 48.4762 117.145 48.5501C115.603 49.7332 113.659 50.4303 111.885 51.212C109.962 52.057 108.019 52.8386 106.054 53.5992C104.1 54.3491 102.114 55.0463 100.118 55.68C98.2586 56.2715 96.1777 57.0954 94.2024 57.0426C93.7905 57.0321 93.8011 56.4828 94.0968 56.3244C95.7763 55.4371 97.8361 55.1413 99.6423 54.5921L99.6634 54.5921Z" fill="url(#paint7_linear_25_294)"/>
<path d="M12.3303 59.5777C12.5309 59.6728 12.7316 59.7678 12.9429 59.8629C14.4851 60.5389 16.1751 60.9825 17.8123 61.3734C20.9389 62.1233 24.15 62.5036 27.3506 62.831C34.0262 63.4965 40.5857 63.1374 47.272 62.831C54.2646 62.5036 61.2043 62.1656 68.123 61.0248C71.4502 60.4755 74.767 59.8418 78.0942 59.3136C79.7526 59.0496 81.4004 58.7644 83.0588 58.4897C84.5587 58.2362 86.1008 58.2785 87.5796 57.9299C87.7592 57.8877 87.812 58.1517 87.6641 58.2362C86.386 58.9439 85.0129 59.0812 83.5975 59.3348C81.9708 59.6305 80.3441 60.0847 78.728 60.4227C75.274 61.141 71.7988 61.7959 68.3131 62.3768C61.2571 63.5704 54.1378 63.8556 47.0079 64.1725C40.3534 64.4683 33.8467 64.7746 27.2027 64.088C24.0021 63.75 20.8016 63.3169 17.675 62.567C16.2068 62.2184 14.7597 61.7748 13.3337 61.2572C12.0134 60.7819 10.8937 59.8206 9.56281 59.4193C9.52055 59.4087 9.48886 59.3876 9.45717 59.3664C10.4078 59.5883 11.369 59.7361 12.3408 59.5777L12.3303 59.5777Z" fill="url(#paint8_linear_25_294)"/>
<path d="M137.869 1.45063C141.312 1.00699 144.777 0.700671 148.242 0.521103C151.294 0.373224 154.294 1.0598 157.336 1.13374C157.664 1.13374 157.632 1.6302 157.336 1.68301C154.368 2.23228 151.4 1.60907 148.411 1.75695C144.946 1.93652 141.481 2.30622 138.049 2.74985C134.785 3.17237 131.542 3.73219 128.32 4.40821C125.003 5.11592 121.74 6.33064 118.349 6.56302C117.789 6.60528 117.483 5.77081 118.074 5.55956C124.433 3.38362 131.236 2.29565 137.88 1.44007L137.869 1.45063Z" fill="url(#paint9_linear_25_294)"/>
<path d="M108.494 8.48552C110.342 7.87288 112.223 7.33418 114.124 6.9011C114.441 6.82716 114.599 7.28136 114.367 7.46093C112.973 8.59115 111.124 8.99253 109.445 9.53124C108.388 9.86925 107.353 10.2601 106.329 10.6826C105.431 11.0523 104.554 11.5382 103.582 11.686C103.265 11.7283 102.991 11.3375 103.223 11.0734C104.469 9.65799 106.751 9.07704 108.494 8.49608L108.494 8.48552Z" fill="url(#paint10_linear_25_294)"/>
<path d="M99.2304 13.4183C99.4628 13.3444 99.5895 13.6401 99.3782 13.7669C95.4172 16.0379 91.6463 18.668 87.7697 21.0869C83.7242 23.6114 79.8476 26.3366 75.9605 29.0935C72.1896 31.7764 68.3764 34.4171 64.5527 37.0261C62.6936 38.2937 60.8135 39.5401 58.9755 40.8499C57.1587 42.1385 55.3102 43.3955 53.2083 44.1666C52.5745 44.399 52.2154 43.5223 52.7963 43.2159C56.7785 41.1034 60.4121 38.2514 64.1302 35.7164C68.0912 33.0123 72.0312 30.266 75.9394 27.4985C79.6998 24.8367 83.4707 22.2594 87.3895 19.8299C91.2132 17.4533 94.9102 14.7915 99.2198 13.4183L99.2304 13.4183Z" fill="url(#paint11_linear_25_294)"/>
<path d="M12.8478 56.7469C14.316 56.3666 15.8054 56.3033 17.3053 56.1026C18.858 55.9019 20.4107 55.6378 21.9423 55.3209C25.1112 54.666 28.2695 53.8527 31.3538 52.8915C34.4804 51.9197 37.5225 50.6838 40.5329 49.4163C41.9377 48.8248 43.3426 48.2333 44.7263 47.6101C45.8776 47.0925 47.1769 46.8284 48.2648 46.2369C48.4233 46.1524 48.6134 46.3848 48.4867 46.5221C47.7367 47.3566 46.8494 47.758 45.8777 48.2755C44.42 49.0466 42.9729 49.7754 41.4624 50.4409C38.3252 51.8352 35.167 53.1239 31.9031 54.1696C28.8504 55.1414 25.7133 55.9336 22.5867 56.6201C19.3756 57.3278 16.1328 57.856 12.8478 57.5602C12.3408 57.518 12.4147 56.842 12.8478 56.7363L12.8478 56.7469Z" fill="url(#paint12_linear_25_294)"/>
<path d="M142.823 16.735C143.636 17.1681 144.429 17.654 145.253 18.0765C146.721 18.837 148.252 19.2912 149.879 19.587C151.537 19.8933 153.217 19.9461 154.886 20.1785C156.217 20.3686 157.886 20.5059 159.016 21.2876C159.174 21.3932 159.1 21.6362 158.921 21.6678C157.453 21.9002 155.773 21.277 154.315 21.0763C152.647 20.8545 150.967 20.7911 149.309 20.4848C146.657 20.0095 144.017 18.9215 141.862 17.2737C142.2 17.1258 142.527 16.9357 142.834 16.7244L142.823 16.735Z" fill="url(#paint13_linear_25_294)"/>
<path d="M142.453 16.9674C144.133 18.5202 145.717 20.0518 147.809 21.1503C148.96 21.7524 150.185 22.2594 151.389 22.7453C152.657 23.2629 154.157 23.6114 155.234 24.467C155.446 24.636 155.308 24.974 155.044 24.9529C153.682 24.8367 152.308 24.1184 151.041 23.622C149.699 23.0939 148.379 22.5023 147.09 21.858C144.957 20.7806 142.971 19.3018 141.471 17.4216C141.809 17.2949 142.136 17.1364 142.443 16.9569L142.453 16.9674Z" fill="url(#paint14_linear_25_294)"/>
<path d="M163.167 1.46126C163.452 1.34507 163.706 1.67251 163.537 1.92602C163.093 2.60204 162.142 3.02455 161.509 3.53157C160.505 4.32378 159.544 5.17936 158.614 6.06664C157.357 7.2708 156.512 8.74959 155.572 10.1439C155.086 10.2073 154.611 10.3023 154.146 10.4291C154.907 8.62284 156.143 6.9856 157.484 5.58075C158.308 4.70404 159.227 3.91183 160.178 3.17243C161.181 2.39078 162.016 1.91546 163.178 1.46126L163.167 1.46126Z" fill="url(#paint15_linear_25_294)"/>
<path d="M157.727 1.61969C157.484 2.24289 157.04 2.74991 156.66 3.29917C156.1 4.11251 155.71 5.03147 155.382 5.961C154.854 7.39754 154.685 8.87633 154.453 10.3657C154.104 10.4502 153.766 10.5453 153.428 10.6509C153.386 9.0559 153.777 7.45035 154.262 5.92931C154.759 4.37657 155.773 1.96826 157.357 1.24999C157.59 1.14436 157.822 1.38731 157.738 1.61969L157.727 1.61969Z" fill="url(#paint16_linear_25_294)"/>
<path d="M118.719 5.80252C118.624 6.41516 118.349 6.93274 118.022 7.43975C117.335 8.48547 116.701 9.54175 116.12 10.6614C115.064 12.6895 114.272 14.8443 113.596 17.0202C112.909 19.2595 112.476 21.5516 112.212 23.886C112.075 25.143 112.128 26.4528 112.138 27.7415C111.737 27.921 111.325 28.09 110.923 28.2802C110.902 27.0549 110.987 25.8085 111.05 24.6465C111.187 22.365 111.642 20.1151 112.223 17.918C112.835 15.5837 113.68 13.2915 114.715 11.1156C115.201 10.091 115.751 9.09811 116.332 8.12633C116.839 7.28131 117.684 6.56304 118.043 5.63351C118.191 5.27438 118.772 5.41169 118.708 5.80252L118.719 5.80252Z" fill="url(#paint17_linear_25_294)"/>
<path d="M114.515 7.02788C113.849 8.68624 113.015 10.2073 112.508 11.9396C111.916 13.9676 111.652 16.1013 111.43 18.2033C111.209 20.2314 111.05 22.2911 111.114 24.3403C111.145 25.5761 111.335 26.8331 111.409 28.0795C111.05 28.238 110.691 28.407 110.343 28.5865C110.131 27.0761 110.1 25.5128 110.068 24.034C110.015 21.9003 110.237 19.756 110.469 17.6329C110.86 14.0733 111.494 9.41507 114.135 6.74268C114.325 6.55255 114.62 6.81662 114.536 7.03844L114.515 7.02788Z" fill="url(#paint18_linear_25_294)"/>
<path d="M103.899 11.0734C103.825 12.6684 103.181 14.2528 102.991 15.8689C102.769 17.7597 102.674 19.6504 102.705 21.5623C102.779 24.9846 103.624 28.2169 104.163 31.5441C103.888 31.6498 103.614 31.7554 103.35 31.8716C102.061 28.3964 101.628 24.4776 101.575 20.8123C101.544 18.9533 101.66 17.1048 101.903 15.2669C102.103 13.7669 102.346 11.9396 103.455 10.8199C103.646 10.6404 103.91 10.8622 103.899 11.0629L103.899 11.0734Z" fill="url(#paint19_linear_25_294)"/>
<path d="M99.7375 13.7774C99.3572 14.876 99.991 16.8195 100.192 17.9075C100.498 19.5975 100.899 21.2876 101.343 22.9459C101.818 24.7627 102.42 26.5267 103.086 28.2802C103.477 29.3259 103.941 30.3927 104.248 31.4912C103.899 31.618 103.561 31.7448 103.234 31.9032C102.706 30.5406 102.283 29.1357 101.787 27.7731C101.163 26.0831 100.667 24.3508 100.223 22.6079C99.7586 20.7911 99.3784 18.9426 99.072 17.0942C98.8925 15.9851 98.4594 14.5168 98.9347 13.4394C99.1565 12.9324 99.9171 13.2387 99.7269 13.7563L99.7375 13.7774Z" fill="url(#paint20_linear_25_294)"/>
<path d="M100.635 35.6636C101.343 36.2657 102.051 36.8572 102.801 37.417C104.649 38.8007 106.645 39.9626 108.747 40.9027C110.871 41.8534 113.057 42.6139 115.275 43.2793C117.43 43.9237 119.585 44.737 121.803 45.149C122.173 45.2123 122.162 45.6982 121.803 45.7827C119.933 46.2369 117.472 45.1067 115.719 44.5574C113.205 43.7758 110.744 42.973 108.346 41.8956C105.283 40.533 102.209 38.6212 99.674 36.2868C100.012 36.1072 100.329 35.8854 100.635 35.653L100.635 35.6636Z" fill="url(#paint21_linear_25_294)"/>
<path d="M100.234 35.9487C102.167 38.2514 104.015 40.5858 106.413 42.5294C109.656 45.1701 113.332 46.7334 117.198 48.191C117.462 48.2966 117.335 48.6663 117.071 48.6558C115.074 48.5924 113.152 47.7263 111.388 46.839C109.423 45.8566 107.554 44.6736 105.832 43.3216C103.424 41.4308 101.058 39.107 99.188 36.5403C99.5577 36.3818 99.9063 36.1811 100.244 35.9487L100.234 35.9487Z" fill="url(#paint22_linear_25_294)"/>
<path d="M74.355 47.2192C75.0522 47.8213 75.7599 48.3917 76.4887 48.9515C78.3372 50.3458 80.3864 51.381 82.4673 52.3844C84.4848 53.3562 86.5551 54.1273 88.6888 54.7716C89.8084 55.1096 90.9492 55.4159 92.0794 55.6906C93.0406 55.923 94.1075 55.9969 95.0159 56.3772C95.2271 56.4722 95.206 56.7363 95.0159 56.8419C94.2131 57.275 93.2413 57.0215 92.3857 56.8314C91.2978 56.5884 90.2204 56.3032 89.1535 56.0075C86.7135 55.3314 84.358 54.423 82.087 53.3139C78.8337 51.7295 75.9923 49.8705 73.415 47.5044C73.7318 47.4305 74.0382 47.3354 74.3445 47.2192L74.355 47.2192Z" fill="url(#paint23_linear_25_294)"/>
<path d="M73.4995 47.4834C73.7952 47.8425 74.091 48.1911 74.3973 48.5291C75.6754 49.9234 77.1542 51.1381 78.6436 52.3211C80.0907 53.4725 81.6223 54.476 83.2067 55.416C84.0517 55.9125 84.9179 56.3561 85.8051 56.7786C86.5128 57.1061 87.2945 57.2751 87.7909 57.8983C87.8754 58.0039 87.8121 58.1624 87.6748 58.1835C86.2699 58.4581 84.3475 57.0638 83.1539 56.4089C81.3793 55.4372 79.6893 54.307 78.0732 53.1028C76.5944 51.9937 75.1473 50.8212 73.8481 49.5114C73.2882 48.9516 72.7918 48.3495 72.3376 47.7369C72.7284 47.663 73.1192 47.589 73.4995 47.4939L73.4995 47.4834Z" fill="url(#paint24_linear_25_294)"/>
<path d="M53.3667 43.7229C53.1343 44.4095 52.6907 44.9377 52.2787 45.5292C51.6661 46.4059 51.3175 47.5467 50.9584 48.5501C50.4197 50.0501 50.0183 51.6028 49.6592 53.1555C49.3423 53.1555 49.0043 53.2189 48.6979 53.3351C48.9831 49.7649 50.1873 45.7404 52.8174 43.311C53.0921 43.0575 53.4723 43.4061 53.3667 43.7229Z" fill="url(#paint25_linear_25_294)"/>
<path d="M48.6873 46.4799C48.0325 48.6875 48.8564 50.9691 49.4479 53.1661C49.0571 53.1978 48.6662 53.314 48.3493 53.5042C48.0008 52.3739 47.8001 51.1803 47.6522 50.0396C47.5254 49.0255 47.1874 46.7862 48.2332 46.1419C48.4761 45.994 48.7613 46.1841 48.6768 46.4693L48.6873 46.4799Z" fill="url(#paint26_linear_25_294)"/>
<path d="M146.288 15.4253C146.9 15.6788 147.513 15.9218 148.136 16.1541C149.953 16.8302 151.823 17.4006 153.713 17.8548C156.396 18.4991 159.227 18.8582 162.005 18.7632C161.804 18.911 161.614 19.0695 161.424 19.2279C158.826 19.3547 156.238 19.08 153.629 18.5519C150.851 17.9921 147.809 17.1999 145.157 15.9006C145.538 15.7633 145.918 15.6049 146.288 15.4253Z" fill="url(#paint27_linear_25_294)"/>
<path d="M147.893 14.6436C147.893 14.6436 147.914 14.633 147.925 14.6224C148.4 14.8548 148.875 15.0766 149.372 15.2773C151.22 15.9956 153.153 16.4604 155.086 16.8618C156.766 17.2103 158.456 17.4955 160.135 17.8124C160.97 17.9708 161.836 18.1293 162.702 18.2455C162.47 18.4145 162.248 18.5941 162.026 18.7631C161.625 18.7208 161.223 18.6786 160.811 18.6257C158.868 18.3617 156.924 17.9814 155.002 17.6117C152.467 17.1364 149.309 16.5343 146.816 15.1823C147.185 15.0027 147.555 14.8126 147.904 14.6541L147.893 14.6436Z" fill="url(#paint28_linear_25_294)"/>
<path d="M149.71 13.788C151.759 14.5908 153.861 15.2668 156.016 15.7843C158.657 16.4181 161.414 16.9568 164.16 17.1469C164.075 17.2103 164.001 17.2737 163.917 17.3371C163.748 17.4638 163.568 17.6012 163.399 17.7279C160.864 17.6223 158.266 17.0519 155.921 16.5554C153.47 16.0379 150.999 15.3407 148.717 14.2633C149.045 14.1049 149.372 13.957 149.71 13.7985L149.71 13.788Z" fill="url(#paint29_linear_25_294)"/>
<path d="M152.731 12.4466C156.808 14.2739 161.044 15.4253 165.501 15.9957C165.322 16.1541 165.142 16.3126 164.963 16.4816C160.379 16.1647 155.805 14.9922 151.738 12.8691C152.066 12.7212 152.393 12.5839 152.731 12.4466Z" fill="url(#paint30_linear_25_294)"/>
<path d="M154.791 11.6861C158.773 13.2494 162.839 14.2845 167.086 14.612C166.896 14.7704 166.705 14.9288 166.515 15.0873C162.121 15.1295 157.664 14.0733 153.787 12.0346C154.115 11.9079 154.442 11.8022 154.78 11.6861L154.791 11.6861Z" fill="url(#paint31_linear_25_294)"/>
<path d="M156.248 11.2529C160.083 12.531 163.959 13.6612 167.984 13.9359C167.772 14.0732 167.572 14.2211 167.371 14.3795C163.209 14.2422 159.09 13.207 155.298 11.517C155.615 11.4219 155.931 11.3374 156.248 11.2529Z" fill="url(#paint32_linear_25_294)"/>
<path d="M143.953 16.3442C144.619 16.6822 145.284 17.0308 145.95 17.3266C147.872 18.1716 149.858 18.5413 151.928 18.8159C153.935 19.08 155.942 19.3124 157.96 19.5236C158.984 19.6293 160.072 19.5025 161.128 19.5765C160.875 19.756 160.632 19.9567 160.421 20.1891C160.336 20.1997 160.252 20.2102 160.167 20.2313C159.259 20.3687 158.319 20.2525 157.41 20.1891C155.403 20.0307 153.386 19.83 151.379 19.6187C149.53 19.418 147.766 19.0483 146.045 18.3512C145.062 17.9498 144.006 17.5167 142.992 16.9886C143.341 16.8301 143.658 16.6083 143.953 16.3654L143.953 16.3442Z" fill="url(#paint33_linear_25_294)"/>
<path d="M106.878 32.5792C107.628 33.1073 108.367 33.6355 109.128 34.1319C111.325 35.579 113.617 36.8466 115.994 37.9662C118.328 39.0647 120.779 39.8781 123.208 40.7125C124.687 41.2196 126.208 41.7266 127.75 42.1174C127.56 42.2125 127.359 42.3075 127.169 42.4026C123.356 41.7371 119.606 40.3851 116.089 38.8746C113.744 37.8711 111.504 36.6036 109.339 35.2621C108.167 34.5333 106.962 33.7728 105.822 32.9383C106.17 32.8116 106.529 32.6954 106.878 32.5686L106.878 32.5792Z" fill="url(#paint34_linear_25_294)"/>
<path d="M108.8 31.882C111.969 33.815 115.064 35.8642 118.402 37.5331C121.771 39.2231 125.363 40.628 129.049 41.5258C128.806 41.6315 128.574 41.7476 128.331 41.8533C124.93 41.1561 121.655 39.9625 118.465 38.4732C114.789 36.7514 111.05 34.7023 107.712 32.2834C108.082 32.1566 108.441 32.0193 108.8 31.8714L108.8 31.882Z" fill="url(#paint35_linear_25_294)"/>
<path d="M111.082 30.8998C114.219 32.9806 117.325 35.0721 120.673 36.8149C122.828 37.9346 125.067 38.8641 127.359 39.6669C128.5 40.0683 129.672 40.3429 130.855 40.607C130.591 40.7548 130.327 40.9027 130.063 41.04C129.218 40.8922 128.373 40.7126 127.539 40.4696C125.067 39.7408 122.69 38.674 120.398 37.5121C116.881 35.7375 113.459 33.6566 110.321 31.2483C110.575 31.1321 110.839 31.0159 111.092 30.8998L111.082 30.8998Z" fill="url(#paint36_linear_25_294)"/>
<path d="M112.656 30.0758C113.554 30.6885 114.462 31.2694 115.423 31.8081C117.472 32.9489 119.606 33.9207 121.719 34.9347C125.152 36.5825 128.532 38.5895 132.176 39.7619C131.975 39.9098 131.764 40.0471 131.553 40.1844C128.014 39.2127 124.74 37.2691 121.412 35.6847C118.286 34.1953 114.599 32.7799 111.716 30.5829C112.033 30.4244 112.339 30.2554 112.645 30.0758L112.656 30.0758Z" fill="url(#paint37_linear_25_294)"/>
<path d="M114.568 28.9245C115.17 29.3365 115.782 29.7484 116.416 30.1392C118.708 31.5547 121.074 32.8539 123.504 34.0369C125.754 35.1354 128.046 36.0861 130.306 37.1529C131.447 37.6916 132.641 38.2092 133.855 38.5789C133.676 38.6951 133.507 38.8219 133.327 38.9486C132.471 38.7162 131.626 38.4205 130.792 38.1036C128.215 37.1212 125.627 36.1495 123.123 34.977C120.747 33.8573 118.423 32.5898 116.184 31.2061C115.318 30.6674 114.43 30.1181 113.575 29.5266C113.902 29.3259 114.24 29.1252 114.568 28.9245Z" fill="url(#paint38_linear_25_294)"/>
<path d="M116.279 27.9421C119.268 30.2131 122.352 32.1566 125.891 33.6882C129.028 35.0403 132.281 36.5507 135.64 37.3852C135.397 37.5436 135.154 37.7127 134.912 37.8711C134.003 37.6493 133.105 37.3535 132.26 37.0578C130.01 36.2867 127.761 35.41 125.563 34.5121C122.046 33.0756 118.191 31.1848 115.339 28.4808C115.656 28.3012 115.972 28.1216 116.289 27.9421L116.279 27.9421Z" fill="url(#paint39_linear_25_294)"/>
<path d="M118.201 26.9281C118.951 27.488 119.712 28.0478 120.504 28.5548C122.511 29.8435 124.602 30.9631 126.768 31.9666C130.306 33.6038 133.982 34.7552 137.637 36.0649C137.468 36.1811 137.299 36.2868 137.119 36.403C133.338 35.4946 129.598 34.1636 126.081 32.6003C123.071 31.2694 119.786 29.6322 117.092 27.4985C117.462 27.2978 117.831 27.1183 118.201 26.9281Z" fill="url(#paint40_linear_25_294)"/>
<path d="M119.416 26.3577C119.955 26.7696 120.504 27.1605 121.095 27.509C123.134 28.7343 125.31 29.7061 127.475 30.6567C131.193 32.294 134.922 34.058 138.799 35.2938C138.598 35.4206 138.397 35.5473 138.207 35.6741C134.404 34.6284 130.813 33.0439 127.148 31.4806C124.887 30.5194 122.638 29.5265 120.525 28.2696C119.828 27.847 119.067 27.3823 118.349 26.8436C118.698 26.6746 119.057 26.5056 119.405 26.3577L119.416 26.3577Z" fill="url(#paint41_linear_25_294)"/>
<path d="M121.053 25.6923C121.138 25.6923 121.222 25.6923 121.317 25.65L121.465 25.5867C124.433 27.3823 127.38 29.2308 130.517 30.7413C133.739 32.3046 137.056 33.3503 140.468 34.2376C140.277 34.3644 140.077 34.4805 139.887 34.6073C136.675 34.0475 133.633 33.1179 130.581 31.7553C127.032 30.1709 123.578 28.2062 120.398 25.9458C120.62 25.8613 120.842 25.7662 121.064 25.6923L121.053 25.6923Z" fill="url(#paint42_linear_25_294)"/>
<path d="M36.8782 58.511C36.9839 58.4793 37.0789 58.4476 37.1845 58.4159C39.2865 60.37 41.5047 62.134 43.8391 63.7818C43.5011 63.7924 43.1525 63.8029 42.8145 63.8135C40.4696 62.3558 38.2514 60.6446 36.3923 58.6271C36.5508 58.5955 36.7198 58.5532 36.8782 58.5004L36.8782 58.511Z" fill="url(#paint43_linear_25_294)"/>
<path d="M38.9168 57.9088C39.9943 59.1236 41.0822 60.3066 42.3392 61.3946C43.3004 62.229 44.325 63.0001 45.3918 63.7184C45.0855 63.7289 44.7792 63.7501 44.4729 63.7606C43.5962 63.2114 42.7406 62.6093 41.9167 61.9649C40.533 60.8875 39.107 59.6094 37.9768 58.1729C38.2831 58.0778 38.6 57.9933 38.9063 57.9088L38.9168 57.9088Z" fill="url(#paint44_linear_25_294)"/>
<path d="M40.4485 57.5497C40.7548 57.8877 41.0506 58.2152 41.378 58.5321C42.4871 59.6306 43.6913 60.6235 44.9271 61.553C45.8461 62.2502 46.7756 62.9051 47.7157 63.5705C47.3988 63.5917 47.0819 63.6128 46.7651 63.6339C45.8778 63.0741 45.0011 62.4931 44.156 61.8805C42.6139 60.7608 40.7337 59.3982 39.4873 57.7716C39.8042 57.6976 40.1316 57.6237 40.4485 57.5603L40.4485 57.5497Z" fill="url(#paint45_linear_25_294)"/>
<path d="M42.2441 57.2222C43.6173 58.4158 45.0538 59.546 46.5432 60.6129C47.853 61.553 49.2156 62.4508 50.5465 63.3803C50.1662 63.412 49.786 63.4332 49.3952 63.4648C46.4904 61.7114 43.6067 59.7784 41.2829 57.4018C41.5998 57.349 41.9273 57.2856 42.2441 57.2328L42.2441 57.2222Z" fill="url(#paint46_linear_25_294)"/>
<path d="M44.5996 56.7998C45.0855 57.3068 45.5819 57.8138 46.1312 58.2786C47.2614 59.2504 48.4972 60.0954 49.7014 60.9615C50.8211 61.7643 52.0252 62.4615 53.2083 63.1797C52.8491 63.2008 52.5005 63.2325 52.1414 63.2537C51.0323 62.6516 49.9338 62.0389 48.8775 61.3312C47.1769 60.1693 44.8953 58.7856 43.5433 56.9899C43.8919 56.9265 44.251 56.8632 44.5996 56.7892L44.5996 56.7998Z" fill="url(#paint47_linear_25_294)"/>
<path d="M47.1347 56.2189C48.5607 57.6765 50.1134 58.9969 51.7612 60.201C53.0076 61.12 54.3174 61.9545 55.68 62.7044C55.8384 62.7889 56.0075 62.884 56.1659 62.9685C55.8701 62.9896 55.5849 63.0107 55.2892 63.0319C53.821 62.2502 52.3527 61.4686 50.9796 60.5179C49.2684 59.3349 47.6311 58.004 46.2685 56.4301C46.5537 56.3667 46.8389 56.2928 47.1347 56.2189Z" fill="url(#paint48_linear_25_294)"/>
<path d="M48.3811 55.8702C48.6029 55.7963 48.8142 55.7329 49.036 55.659C50.6521 57.1906 52.2893 58.6482 54.1273 59.9475C55.5427 60.9615 57.0109 61.891 58.4791 62.8205C58.1306 62.8417 57.7714 62.8628 57.4228 62.8839C56.1553 62.134 54.9089 61.3629 53.6942 60.539C51.7401 59.2186 49.7226 57.7293 48.1382 55.9336C48.2227 55.9125 48.3071 55.8913 48.3916 55.8596L48.3811 55.8702Z" fill="url(#paint49_linear_25_294)"/>
<path d="M50.9902 55.0464C51.2965 55.3633 51.5923 55.6802 51.888 55.9759C53.1133 57.1906 54.3491 58.3948 55.6378 59.5462C56.9582 60.7081 58.363 61.796 59.8418 62.7572C59.4615 62.7678 59.0813 62.7889 58.701 62.8101C57.4546 62.0495 56.2821 61.1623 55.1414 60.2116C53.9689 59.2398 52.8281 58.1941 51.7507 57.1167C51.1803 56.5463 50.5571 55.9654 49.9867 55.3633C50.3247 55.2577 50.6522 55.152 51.0007 55.0464L50.9902 55.0464Z" fill="url(#paint50_linear_25_294)"/>
<path d="M52.4162 54.6133C54.3809 56.3879 56.2927 58.1519 58.4581 59.694C59.9897 60.782 61.6375 61.6693 63.2642 62.6094C63.0423 62.6305 62.81 62.641 62.5881 62.6516C61.046 61.9122 59.5038 61.1834 58.0461 60.2644C55.7223 58.7962 53.4725 56.9371 51.6768 54.8351C51.9303 54.7612 52.1732 54.6873 52.4267 54.6028L52.4162 54.6133Z" fill="url(#paint51_linear_25_294)"/>
<path d="M53.7258 54.2014C55.6799 55.9337 57.6657 57.5709 59.8628 59.0497C61.6056 60.2222 63.4964 61.4158 65.4399 62.3664C65.1336 62.4087 64.8379 62.4509 64.5315 62.4932C62.8626 61.7538 61.2571 60.8454 59.736 59.9158C57.3277 58.437 54.6553 56.7364 52.8174 54.4866C53.1237 54.3915 53.4195 54.2964 53.7258 54.2014Z" fill="url(#paint52_linear_25_294)"/>
<path d="M55.8491 53.5358C57.7715 55.078 59.6095 56.7575 61.6481 58.1623C63.6656 59.5566 65.8627 60.634 67.9963 61.8065C67.7111 61.8804 67.4154 61.9544 67.1302 62.0283C65.2183 61.141 63.3276 60.2221 61.5319 59.0919C59.1975 57.6131 56.7153 55.9125 54.6978 53.9055C55.078 53.7893 55.4583 53.6626 55.8386 53.5464L55.8491 53.5358Z" fill="url(#paint53_linear_25_294)"/>
<path d="M57.856 52.8388C58.2363 53.2296 58.6165 53.5993 59.0285 53.9584C60.3277 55.0675 61.7537 56.0393 63.1691 56.9899C65.4824 58.5321 67.9224 59.9053 70.3518 61.2679C70.0138 61.3207 69.6969 61.3841 69.3589 61.458C67.0034 60.4229 64.7535 59.1342 62.5881 57.7716C61.141 56.8526 59.7467 55.8492 58.437 54.7506C57.8877 54.2964 57.2962 53.7894 56.7575 53.2296C57.1166 53.1028 57.4757 52.9761 57.8454 52.8388L57.856 52.8388Z" fill="url(#paint54_linear_25_294)"/>
<path d="M59.641 52.1944C61.7642 53.9373 63.7711 55.6907 66.1371 57.159C68.4187 58.5744 70.827 59.7997 73.2354 60.9933C72.9185 61.0249 72.6016 61.0566 72.2847 61.0778C70.1299 60.201 68.0173 59.2293 65.9787 58.0885C63.4331 56.6625 60.6339 54.8563 58.796 52.5008C59.0812 52.3951 59.3664 52.2895 59.6516 52.1944L59.641 52.1944Z" fill="url(#paint55_linear_25_294)"/>
<path d="M61.8064 51.5606C62.662 52.2894 63.4859 53.0711 64.3309 53.8105C65.5879 54.909 66.9399 55.8808 68.2709 56.8842C70.3095 58.437 72.6016 59.5461 74.9043 60.634C74.598 60.6974 74.3022 60.7608 74.0065 60.8347C71.9467 60.0425 69.9503 59.1024 68.0702 57.9088C65.4717 56.2399 62.7571 54.2118 60.6656 51.8563C61.0459 51.7401 61.4262 51.6451 61.8064 51.5606Z" fill="url(#paint56_linear_25_294)"/>
<path d="M141.323 1.56695C140.193 3.59501 139.316 5.82376 138.45 7.92575C137.161 11.0207 136.306 14.2423 135.503 17.4957C135.397 17.9182 134.753 17.8653 134.816 17.4111C135.313 14.0416 136.411 10.7777 137.732 7.64056C138.577 5.65475 139.496 3.47882 140.742 1.6092C140.932 1.58808 141.133 1.57751 141.323 1.56695Z" fill="url(#paint57_linear_25_294)"/>
<path d="M139.918 1.67249C138.323 4.15475 137.193 7.08065 136.147 9.74247C135.017 12.6156 134.278 15.6048 133.433 18.573C133.095 18.7103 132.746 18.8582 132.408 18.9955C133.126 15.5837 134.14 12.2142 135.482 9.00308C136.253 7.15459 137.214 5.34835 138.154 3.58436C138.492 2.9506 138.862 2.32739 139.263 1.73587C139.485 1.71475 139.696 1.69362 139.918 1.68306L139.918 1.67249Z" fill="url(#paint58_linear_25_294)"/>
<path d="M137.394 1.9683C136.042 4.64069 134.911 7.42926 133.844 10.2073C132.672 13.2705 131.869 16.4182 130.992 19.5554C130.697 19.6716 130.39 19.7877 130.095 19.9039C130.475 16.4499 131.732 13.0592 132.978 9.85871C133.992 7.27082 135.07 4.57731 136.496 2.1373C136.791 2.07393 137.087 2.02111 137.383 1.9683L137.394 1.9683Z" fill="url(#paint59_linear_25_294)"/>
<path d="M135.355 2.41192C133.686 4.98924 132.714 8.09471 131.785 10.9572C130.771 14.0627 129.799 17.1681 128.954 20.3053C128.922 20.3053 128.891 20.3264 128.859 20.337C128.553 20.4426 128.257 20.5377 127.95 20.6433C128.553 17.2104 129.757 13.862 130.887 10.5981C131.764 8.05246 132.704 4.99981 134.352 2.65487C134.69 2.57036 135.017 2.48586 135.344 2.40136L135.355 2.41192Z" fill="url(#paint60_linear_25_294)"/>
<path d="M132.82 2.97175C132.492 3.70058 132.154 4.41886 131.816 5.14769C130.876 7.19687 130.179 9.33056 129.493 11.4854C128.489 14.6225 127.729 17.823 126.947 21.013C126.535 21.1609 126.134 21.3193 125.743 21.4989C126.345 18.1294 127.422 14.7915 128.489 11.591C129.207 9.44675 129.915 7.28137 130.897 5.25331C131.267 4.49279 131.69 3.76396 132.112 3.03513C132.345 3.03513 132.587 3.00344 132.82 2.97175Z" fill="url(#paint61_linear_25_294)"/>
<path d="M97.403 14.5485C97.7727 17.2209 98.4698 19.8405 99.0191 22.5023C99.4205 24.4775 99.8535 26.4528 100.403 28.3963C100.825 29.8646 101.375 31.28 101.839 32.7271C101.639 32.875 101.427 33.0228 101.216 33.1602C99.674 30.0758 98.9557 26.3788 98.3431 23.0516C97.8361 20.3369 97.2868 17.6223 97.0016 14.876C97.1283 14.7703 97.2657 14.6647 97.3924 14.5485L97.403 14.5485Z" fill="url(#paint62_linear_25_294)"/>
<path d="M95.8079 15.7632C96.1776 18.9109 96.9593 22.0586 97.6353 25.1324C98.2796 28.0794 99.2197 30.8785 100.255 33.6671C99.9908 33.7728 99.7267 33.8784 99.4627 33.984C98.2691 31.3539 97.498 28.5125 96.8748 25.7239C96.1882 22.6607 95.3221 19.3334 95.2798 16.1223C95.4594 16.0061 95.6284 15.8899 95.8079 15.7737L95.8079 15.7632Z" fill="url(#paint63_linear_25_294)"/>
<path d="M94.0229 16.9251C94.6673 20.2313 95.0686 23.5797 95.8292 26.8753C96.4418 29.5054 97.2551 32.0616 98.0896 34.6178C97.815 34.7552 97.5403 34.8925 97.2763 35.0298C96.4101 32.5475 95.7552 29.9808 95.1637 27.4457C94.3609 24.0233 94.0124 20.6116 93.6427 17.1575C93.7694 17.0836 93.8962 16.9991 94.0229 16.9251Z" fill="url(#paint64_linear_25_294)"/>
<path d="M92.1743 18.066C92.5123 19.4391 92.7447 20.8123 92.9982 22.2171C93.3574 24.2769 93.9489 26.3049 94.5298 28.3119C95.2058 30.6568 96.0086 32.9701 96.8325 35.2727C96.5896 35.3995 96.3361 35.5263 96.0931 35.6636C95.1742 33.3714 94.4031 31.0371 93.7165 28.671C93.1989 26.8965 92.7236 25.1008 92.375 23.284C92.0687 21.6573 91.9314 20.0095 91.7201 18.3723C91.868 18.2772 92.0264 18.1821 92.1743 18.0871L92.1743 18.066Z" fill="url(#paint65_linear_25_294)"/>
<path d="M90.421 19.1539C90.7696 21.6784 91.1921 24.1817 91.7942 26.6534C92.5864 29.9068 93.8645 33.0017 94.7834 36.2128C94.5299 36.3184 94.2659 36.424 94.0124 36.5297C92.5758 33.646 91.7308 30.3187 90.9914 27.2344C90.3893 24.7205 89.9246 22.1537 89.7239 19.5658C89.9562 19.4285 90.1886 19.2912 90.4316 19.1433L90.421 19.1539Z" fill="url(#paint66_linear_25_294)"/>
<path d="M88.5196 20.263C88.5196 20.263 88.5196 20.263 88.5302 20.263C88.583 21.2453 88.8576 22.2382 89.1323 23.1466C89.5653 24.6254 90.0195 26.1148 90.4843 27.5936C91.4455 30.6568 92.618 33.6566 93.6426 36.6987C93.5264 36.7409 93.4102 36.7937 93.3046 36.836C93.1673 36.8888 93.0299 36.9522 92.8926 37.005C91.5511 33.7517 90.3787 30.4138 89.3963 27.0443C88.9738 25.6077 88.5408 24.1818 88.1605 22.7347C87.9809 22.0692 87.833 21.3615 87.8225 20.6644C88.0549 20.527 88.2978 20.4003 88.5302 20.263L88.5196 20.263Z" fill="url(#paint67_linear_25_294)"/>
<path d="M86.9775 21.1291C87.5479 23.7804 88.0232 26.4528 88.7943 29.0512C89.6499 31.8926 90.6745 34.6918 91.8047 37.4486C91.604 37.5331 91.4033 37.6176 91.192 37.7021C89.9351 35.0086 88.9105 32.2306 88.0971 29.3575C87.3472 26.738 86.9881 24.055 86.5339 21.3826C86.6817 21.2981 86.819 21.2136 86.9669 21.1397L86.9775 21.1291Z" fill="url(#paint68_linear_25_294)"/>
<path d="M85.6466 21.8685C85.7628 22.6607 85.8579 23.4423 85.9847 24.224C86.3121 26.2098 86.8614 28.1428 87.4423 30.0758C88.2557 32.7904 89.2274 35.4522 90.0408 38.1669C89.7661 38.2831 89.4809 38.3887 89.2063 38.5049C87.136 33.3291 85.4248 27.8153 84.9073 22.2804C85.1502 22.1431 85.3931 22.0058 85.6361 21.8685L85.6466 21.8685Z" fill="url(#paint69_linear_25_294)"/>
<path d="M83.629 23.0093C84.0093 25.1852 84.5374 27.3506 85.0867 29.4526C85.9317 32.6848 87.1253 35.7797 88.1921 38.9274C87.9386 39.0331 87.6851 39.1387 87.4211 39.2338C86.0584 36.3184 85.1712 33.1285 84.3473 30.0441C83.7769 27.8999 83.2487 25.6394 82.9952 23.3684C83.2065 23.2523 83.4072 23.1255 83.6184 23.0093L83.629 23.0093Z" fill="url(#paint70_linear_25_294)"/>
<path d="M82.2983 23.7804C82.425 23.7065 82.5412 23.6431 82.668 23.5691C83.3968 26.4845 83.7559 29.4843 84.6643 32.3785C85.4037 34.7235 86.3649 37.005 87.3684 39.2549C87.1149 39.35 86.8614 39.445 86.6079 39.5507C84.1362 34.6601 82.6046 29.4209 82.087 23.9388C82.1609 23.886 82.2349 23.8438 82.3088 23.791L82.2983 23.7804Z" fill="url(#paint71_linear_25_294)"/>
<path d="M77.2598 27.488C77.7773 30.3927 78.4428 33.2658 79.1928 36.1178C79.6681 37.924 80.2807 39.6985 81.0201 41.4203C81.0941 41.5787 81.1574 41.7477 81.2419 41.9062C80.9567 42.0329 80.6821 42.1702 80.3969 42.297C79.6364 40.6069 79.0871 38.8113 78.6224 37.1529C77.7562 34.0369 77.376 30.868 77.0274 27.6781C77.1119 27.6147 77.1858 27.5513 77.2703 27.488L77.2598 27.488Z" fill="url(#paint72_linear_25_294)"/>
<path d="M76.193 28.2907C76.5416 31.2377 77.2915 34.1636 78.2105 36.9733C78.7281 38.5578 79.1295 40.2056 79.7844 41.7266C79.89 41.9695 79.9956 42.2019 80.1118 42.4343C79.8372 42.5716 79.5625 42.6984 79.2985 42.8357C79.1717 42.5927 79.0555 42.3392 78.9288 42.0963C78.1471 40.4696 77.7563 38.6211 77.2176 36.91C76.362 34.2481 75.686 31.4807 75.6226 28.6815C75.8128 28.5548 76.0029 28.4175 76.193 28.2802L76.193 28.2907Z" fill="url(#paint73_linear_25_294)"/>
<path d="M74.2916 29.6006C74.8092 32.3681 75.3373 35.1355 76.2668 37.7973C76.9112 39.6247 77.809 41.3887 78.5801 43.1949C78.2843 43.3322 77.978 43.4696 77.6717 43.5963C76.7527 41.6633 75.9922 39.6247 75.3267 37.6706C74.4923 35.1989 74.0275 32.5793 73.7634 29.9703C73.9324 29.8436 74.112 29.7274 74.281 29.6006L74.2916 29.6006Z" fill="url(#paint74_linear_25_294)"/>
<path d="M72.8023 30.6568C73.4044 32.8116 73.9853 34.977 74.6402 37.1212C75.3374 39.4028 76.1507 41.6421 76.9746 43.892C76.7845 43.9659 76.5838 44.0399 76.3831 44.1138C76.3092 44.1349 76.2458 44.1561 76.1718 44.1877C74.355 40.0366 72.9607 35.5474 72.2214 31.0687C72.4115 30.9314 72.6016 30.8047 72.7917 30.6674L72.8023 30.6568Z" fill="url(#paint75_linear_25_294)"/>
<path d="M72.0311 31.1955C72.6332 33.6778 72.9395 36.2234 73.6789 38.6846C74.2493 40.607 74.9887 42.466 75.7175 44.3251C75.4112 44.4202 75.1154 44.5152 74.8091 44.6208C74.0275 42.8146 73.3515 40.9661 72.7705 39.0754C72.01 36.6248 71.7037 34.132 71.3973 31.618C71.6086 31.4807 71.8199 31.3328 72.0311 31.1955Z" fill="url(#paint76_linear_25_294)"/>
<path d="M93.6955 53.2084C93.8856 53.1239 94.1074 53.145 94.2975 53.2084C94.6672 53.3352 94.963 53.6204 95.0581 54.0006C95.1531 54.3809 94.8468 54.7083 94.5405 54.8879C93.9278 55.2365 93.0406 54.9196 93.03 54.138C93.03 53.6943 93.2729 53.3457 93.6955 53.219L93.6955 53.2084Z" fill="url(#paint77_linear_25_294)"/>
<path d="M90.516 52.374C90.7061 52.2895 90.9279 52.3 91.1286 52.374C91.4983 52.5007 91.7941 52.7859 91.8891 53.1662C91.9842 53.5464 91.6779 53.8844 91.3715 54.0534C90.7589 54.402 89.8716 54.0851 89.8611 53.3035C89.8611 52.8598 90.104 52.5113 90.5265 52.3845L90.516 52.374Z" fill="url(#paint78_linear_25_294)"/>
<path d="M87.2943 51.4338C87.4845 51.3493 87.7063 51.3598 87.8964 51.4338C88.2661 51.55 88.5619 51.8457 88.6569 52.226C88.752 52.6062 88.4457 52.9442 88.1394 53.1133C87.5267 53.4618 86.6394 53.1449 86.6289 52.3633C86.6289 51.9091 86.8718 51.5711 87.2943 51.4443L87.2943 51.4338Z" fill="url(#paint79_linear_25_294)"/>
<path d="M84.3791 50.4092C84.5692 50.3247 84.791 50.3353 84.9811 50.4092C85.3508 50.5254 85.6466 50.8212 85.7417 51.2014C85.8367 51.5817 85.5304 51.9197 85.2241 52.0887C84.6114 52.4373 83.7242 52.1204 83.7136 51.3388C83.7136 50.8951 83.9565 50.5465 84.3791 50.4198L84.3791 50.4092Z" fill="url(#paint80_linear_25_294)"/>
<path d="M81.5905 49.0572C81.7806 48.9727 82.0024 48.9832 82.1925 49.0572C82.5622 49.1839 82.858 49.4691 82.9531 49.8494C83.0481 50.2297 82.7418 50.5677 82.446 50.7367C81.8334 51.0852 80.9461 50.7684 80.9356 49.9867C80.9356 49.5431 81.1785 49.1945 81.601 49.0677L81.5905 49.0572Z" fill="url(#paint81_linear_25_294)"/>
<path d="M78.9709 47.4305C79.161 47.346 79.3828 47.3565 79.5729 47.4305C79.9426 47.5572 80.2384 47.8424 80.3335 48.2227C80.4285 48.6029 80.1222 48.9304 79.8159 49.11C79.2032 49.4585 78.316 49.1416 78.3054 48.36C78.3054 47.9058 78.5483 47.5678 78.9709 47.441L78.9709 47.4305Z" fill="url(#paint82_linear_25_294)"/>
<path d="M106.381 26.1782C106.857 26.0725 107.438 26.3049 107.754 26.6746C108.071 27.0443 108.019 27.5725 107.776 27.9633C107.691 28.1006 107.585 28.2062 107.469 28.3013C107.342 28.4703 107.142 28.6076 106.962 28.671C106.497 28.8189 106.012 28.7238 105.705 28.3224C105.177 27.6147 105.473 26.3894 106.381 26.1782Z" fill="url(#paint83_linear_25_294)"/>
<path d="M105.959 22.6397C106.445 22.534 107.015 22.7664 107.332 23.1361C107.649 23.5058 107.596 24.034 107.353 24.4248C107.269 24.5621 107.163 24.6677 107.047 24.7628C106.92 24.9318 106.719 25.0691 106.54 25.1219C106.075 25.2698 105.589 25.1747 105.283 24.7733C104.744 24.0656 105.051 22.8404 105.959 22.6291L105.959 22.6397Z" fill="url(#paint84_linear_25_294)"/>
<path d="M105.917 19.0166C106.392 18.911 106.973 19.1434 107.29 19.5131C107.607 19.8828 107.554 20.4109 107.311 20.8017C107.226 20.939 107.121 21.0447 107.005 21.1397C106.878 21.3087 106.677 21.4461 106.498 21.4989C106.033 21.6468 105.536 21.5517 105.241 21.1503C104.713 20.4426 105.008 19.2173 105.917 19.0061L105.917 19.0166Z" fill="url(#paint85_linear_25_294)"/>
<path d="M106.297 15.2774C106.772 15.1718 107.353 15.4042 107.67 15.7739C107.987 16.1436 107.934 16.6717 107.691 17.0625C107.607 17.1998 107.512 17.316 107.385 17.4005C107.258 17.5695 107.057 17.7069 106.878 17.7702C106.413 17.9181 105.917 17.8231 105.621 17.4217C105.093 16.714 105.388 15.4887 106.297 15.2774Z" fill="url(#paint86_linear_25_294)"/>
<path d="M106.677 11.6754C107.163 11.5698 107.733 11.8022 108.05 12.1719C108.367 12.5416 108.314 13.0697 108.071 13.4605C107.987 13.5979 107.881 13.7141 107.765 13.7986C107.628 13.9676 107.438 14.1049 107.258 14.1577C106.804 14.3056 106.307 14.2105 106.001 13.8091C105.462 13.1014 105.769 11.8761 106.677 11.6754Z" fill="url(#paint87_linear_25_294)"/>
<path d="M137.573 13.9675C138.006 13.8725 138.471 14.2633 138.461 14.6964C138.461 14.8231 138.397 14.9393 138.302 15.0344C138.228 15.1611 138.101 15.2668 137.964 15.3196C137.7 15.4252 137.404 15.3618 137.214 15.1506C136.876 14.7703 137.066 14.0837 137.573 13.9781L137.573 13.9675Z" fill="url(#paint88_linear_25_294)"/>
<path d="M138.207 11.9078C138.64 11.8128 139.105 12.2036 139.094 12.6367C139.094 12.7634 139.031 12.8796 138.936 12.9747C138.862 13.1014 138.735 13.2071 138.598 13.2599C138.323 13.3655 138.049 13.3021 137.848 13.0909C137.51 12.7106 137.7 12.024 138.207 11.9184L138.207 11.9078Z" fill="url(#paint89_linear_25_294)"/>
<path d="M138.809 9.79529C139.242 9.70023 139.707 10.0911 139.696 10.5241C139.696 10.6509 139.633 10.7671 139.538 10.8621C139.464 10.9889 139.337 11.0945 139.2 11.1473C138.925 11.253 138.64 11.1896 138.45 10.9783C138.112 10.5981 138.302 9.91148 138.809 9.80586L138.809 9.79529Z" fill="url(#paint90_linear_25_294)"/>
<path d="M139.496 7.70381C139.929 7.60874 140.394 7.99956 140.383 8.42208C140.383 8.54883 140.32 8.66502 140.235 8.76009C140.161 8.88684 140.035 8.99247 139.887 9.04528C139.623 9.15091 139.327 9.08753 139.137 8.87628C138.799 8.49602 138.989 7.80943 139.496 7.70381Z" fill="url(#paint91_linear_25_294)"/>
<path d="M140.267 5.65464C140.7 5.55958 141.165 5.9504 141.154 6.38347C141.154 6.51023 141.091 6.62642 140.996 6.72148C140.922 6.84824 140.795 6.95386 140.647 7.00668C140.383 7.11231 140.098 7.04893 139.908 6.82711C139.57 6.44685 139.76 5.76027 140.267 5.65464Z" fill="url(#paint92_linear_25_294)"/>
<path d="M141.207 3.66883C141.64 3.57377 142.105 3.96459 142.094 4.39766C142.094 4.52442 142.031 4.64061 141.946 4.73567C141.872 4.86242 141.746 4.96805 141.598 5.02087C141.334 5.1265 141.038 5.06312 140.848 4.85186C140.51 4.4716 140.711 3.78502 141.207 3.67939L141.207 3.66883Z" fill="url(#paint93_linear_25_294)"/>
</g>
</g>
<defs>
<linearGradient id="paint0_linear_25_294" x1="184.337" y1="32.449" x2="0.487596" y2="32.449" gradientUnits="userSpaceOnUse">
<stop stop-color="#957237"/>
<stop offset="0.5" stop-color="#F1CB73"/>
<stop offset="1" stop-color="#98703B"/>
</linearGradient>
<linearGradient id="paint1_linear_25_294" x1="184.287" y1="32.428" x2="1.83388" y2="32.428" gradientUnits="userSpaceOnUse">
<stop stop-color="#957237"/>
<stop offset="0.5" stop-color="#F1CB73"/>
<stop offset="1" stop-color="#98703B"/>
</linearGradient>
<linearGradient id="paint2_linear_25_294" x1="184.128" y1="31.2126" x2="0.792741" y2="31.2126" gradientUnits="userSpaceOnUse">
<stop stop-color="#957237"/>
<stop offset="0.5" stop-color="#F1CB73"/>
<stop offset="1" stop-color="#98703B"/>
</linearGradient>
<linearGradient id="paint3_linear_25_294" x1="6.04285" y1="57.0816" x2="0.487639" y2="57.0816" gradientUnits="userSpaceOnUse">
<stop stop-color="#957237"/>
<stop offset="0.5" stop-color="#F1CB73"/>
<stop offset="1" stop-color="#98703B"/>
</linearGradient>
<linearGradient id="paint4_linear_25_294" x1="184.223" y1="12.9163" x2="158.495" y2="12.9163" gradientUnits="userSpaceOnUse">
<stop stop-color="#957237"/>
<stop offset="0.5" stop-color="#F1CB73"/>
<stop offset="1" stop-color="#98703B"/>
</linearGradient>
<linearGradient id="paint5_linear_25_294" x1="184.381" y1="2.81305" x2="162.682" y2="2.81304" gradientUnits="userSpaceOnUse">
<stop stop-color="#957237"/>
<stop offset="0.5" stop-color="#F1CB73"/>
<stop offset="1" stop-color="#98703B"/>
</linearGradient>
<linearGradient id="paint6_linear_25_294" x1="155.213" y1="35.2626" x2="121.083" y2="35.2626" gradientUnits="userSpaceOnUse">
<stop stop-color="#957237"/>
<stop offset="0.5" stop-color="#F1CB73"/>
<stop offset="1" stop-color="#98703B"/>
</linearGradient>
<linearGradient id="paint7_linear_25_294" x1="117.195" y1="52.6805" x2="93.883" y2="52.6805" gradientUnits="userSpaceOnUse">
<stop stop-color="#957237"/>
<stop offset="0.5" stop-color="#F1CB73"/>
<stop offset="1" stop-color="#98703B"/>
</linearGradient>
<linearGradient id="paint8_linear_25_294" x1="87.75" y1="61.2143" x2="9.45717" y2="61.2143" gradientUnits="userSpaceOnUse">
<stop stop-color="#957237"/>
<stop offset="0.5" stop-color="#F1CB73"/>
<stop offset="1" stop-color="#98703B"/>
</linearGradient>
<linearGradient id="paint9_linear_25_294" x1="157.57" y1="3.53244" x2="117.754" y2="3.53244" gradientUnits="userSpaceOnUse">
<stop stop-color="#957237"/>
<stop offset="0.5" stop-color="#F1CB73"/>
<stop offset="1" stop-color="#98703B"/>
</linearGradient>
<linearGradient id="paint10_linear_25_294" x1="114.478" y1="9.29112" x2="103.136" y2="9.29112" gradientUnits="userSpaceOnUse">
<stop stop-color="#957237"/>
<stop offset="0.5" stop-color="#F1CB73"/>
<stop offset="1" stop-color="#98703B"/>
</linearGradient>
<linearGradient id="paint11_linear_25_294" x1="99.4858" y1="28.806" x2="52.5032" y2="28.806" gradientUnits="userSpaceOnUse">
<stop stop-color="#957237"/>
<stop offset="0.5" stop-color="#F1CB73"/>
<stop offset="1" stop-color="#98703B"/>
</linearGradient>
<linearGradient id="paint12_linear_25_294" x1="48.5281" y1="51.9315" x2="12.4947" y2="51.9315" gradientUnits="userSpaceOnUse">
<stop stop-color="#957237"/>
<stop offset="0.5" stop-color="#F1CB73"/>
<stop offset="1" stop-color="#98703B"/>
</linearGradient>
<linearGradient id="paint13_linear_25_294" x1="159.103" y1="19.2217" x2="141.862" y2="19.2217" gradientUnits="userSpaceOnUse">
<stop stop-color="#957237"/>
<stop offset="0.5" stop-color="#F1CB73"/>
<stop offset="1" stop-color="#98703B"/>
</linearGradient>
<linearGradient id="paint14_linear_25_294" x1="155.338" y1="20.9554" x2="141.471" y2="20.9554" gradientUnits="userSpaceOnUse">
<stop stop-color="#957237"/>
<stop offset="0.5" stop-color="#F1CB73"/>
<stop offset="1" stop-color="#98703B"/>
</linearGradient>
<linearGradient id="paint15_linear_25_294" x1="163.591" y1="5.9331" x2="154.146" y2="5.9331" gradientUnits="userSpaceOnUse">
<stop stop-color="#957237"/>
<stop offset="0.5" stop-color="#F1CB73"/>
<stop offset="1" stop-color="#98703B"/>
</linearGradient>
<linearGradient id="paint16_linear_25_294" x1="157.755" y1="5.93772" x2="153.425" y2="5.93772" gradientUnits="userSpaceOnUse">
<stop stop-color="#957237"/>
<stop offset="0.5" stop-color="#F1CB73"/>
<stop offset="1" stop-color="#98703B"/>
</linearGradient>
<linearGradient id="paint17_linear_25_294" x1="118.719" y1="16.8527" x2="110.92" y2="16.8527" gradientUnits="userSpaceOnUse">
<stop stop-color="#957237"/>
<stop offset="0.5" stop-color="#F1CB73"/>
<stop offset="1" stop-color="#98703B"/>
</linearGradient>
<linearGradient id="paint18_linear_25_294" x1="114.551" y1="17.632" x2="110.06" y2="17.632" gradientUnits="userSpaceOnUse">
<stop stop-color="#957237"/>
<stop offset="0.5" stop-color="#F1CB73"/>
<stop offset="1" stop-color="#98703B"/>
</linearGradient>
<linearGradient id="paint19_linear_25_294" x1="104.163" y1="21.3127" x2="101.57" y2="21.3127" gradientUnits="userSpaceOnUse">
<stop stop-color="#957237"/>
<stop offset="0.5" stop-color="#F1CB73"/>
<stop offset="1" stop-color="#98703B"/>
</linearGradient>
<linearGradient id="paint20_linear_25_294" x1="104.248" y1="22.5416" x2="98.7192" y2="22.5416" gradientUnits="userSpaceOnUse">
<stop stop-color="#957237"/>
<stop offset="0.5" stop-color="#F1CB73"/>
<stop offset="1" stop-color="#98703B"/>
</linearGradient>
<linearGradient id="paint21_linear_25_294" x1="122.076" y1="40.7705" x2="99.674" y2="40.7705" gradientUnits="userSpaceOnUse">
<stop stop-color="#957237"/>
<stop offset="0.5" stop-color="#F1CB73"/>
<stop offset="1" stop-color="#98703B"/>
</linearGradient>
<linearGradient id="paint22_linear_25_294" x1="117.343" y1="42.3024" x2="99.188" y2="42.3024" gradientUnits="userSpaceOnUse">
<stop stop-color="#957237"/>
<stop offset="0.5" stop-color="#F1CB73"/>
<stop offset="1" stop-color="#98703B"/>
</linearGradient>
<linearGradient id="paint23_linear_25_294" x1="95.1665" y1="52.1496" x2="73.4149" y2="52.1496" gradientUnits="userSpaceOnUse">
<stop stop-color="#957237"/>
<stop offset="0.5" stop-color="#F1CB73"/>
<stop offset="1" stop-color="#98703B"/>
</linearGradient>
<linearGradient id="paint24_linear_25_294" x1="87.8291" y1="52.8511" x2="72.3376" y2="52.8511" gradientUnits="userSpaceOnUse">
<stop stop-color="#957237"/>
<stop offset="0.5" stop-color="#F1CB73"/>
<stop offset="1" stop-color="#98703B"/>
</linearGradient>
<linearGradient id="paint25_linear_25_294" x1="53.3848" y1="48.2794" x2="48.6979" y2="48.2794" gradientUnits="userSpaceOnUse">
<stop stop-color="#957237"/>
<stop offset="0.5" stop-color="#F1CB73"/>
<stop offset="1" stop-color="#98703B"/>
</linearGradient>
<linearGradient id="paint26_linear_25_294" x1="49.4479" y1="49.7973" x2="47.498" y2="49.7973" gradientUnits="userSpaceOnUse">
<stop stop-color="#957237"/>
<stop offset="0.5" stop-color="#F1CB73"/>
<stop offset="1" stop-color="#98703B"/>
</linearGradient>
<linearGradient id="paint27_linear_25_294" x1="162.005" y1="17.3419" x2="145.157" y2="17.3419" gradientUnits="userSpaceOnUse">
<stop stop-color="#957237"/>
<stop offset="0.5" stop-color="#F1CB73"/>
<stop offset="1" stop-color="#98703B"/>
</linearGradient>
<linearGradient id="paint28_linear_25_294" x1="162.702" y1="16.6928" x2="146.816" y2="16.6928" gradientUnits="userSpaceOnUse">
<stop stop-color="#957237"/>
<stop offset="0.5" stop-color="#F1CB73"/>
<stop offset="1" stop-color="#98703B"/>
</linearGradient>
<linearGradient id="paint29_linear_25_294" x1="164.16" y1="15.7579" x2="148.717" y2="15.7579" gradientUnits="userSpaceOnUse">
<stop stop-color="#957237"/>
<stop offset="0.5" stop-color="#F1CB73"/>
<stop offset="1" stop-color="#98703B"/>
</linearGradient>
<linearGradient id="paint30_linear_25_294" x1="165.501" y1="14.4641" x2="151.738" y2="14.4641" gradientUnits="userSpaceOnUse">
<stop stop-color="#957237"/>
<stop offset="0.5" stop-color="#F1CB73"/>
<stop offset="1" stop-color="#98703B"/>
</linearGradient>
<linearGradient id="paint31_linear_25_294" x1="167.086" y1="13.3873" x2="153.787" y2="13.3873" gradientUnits="userSpaceOnUse">
<stop stop-color="#957237"/>
<stop offset="0.5" stop-color="#F1CB73"/>
<stop offset="1" stop-color="#98703B"/>
</linearGradient>
<linearGradient id="paint32_linear_25_294" x1="167.984" y1="12.8162" x2="155.298" y2="12.8162" gradientUnits="userSpaceOnUse">
<stop stop-color="#957237"/>
<stop offset="0.5" stop-color="#F1CB73"/>
<stop offset="1" stop-color="#98703B"/>
</linearGradient>
<linearGradient id="paint33_linear_25_294" x1="161.128" y1="18.3199" x2="142.992" y2="18.3199" gradientUnits="userSpaceOnUse">
<stop stop-color="#957237"/>
<stop offset="0.5" stop-color="#F1CB73"/>
<stop offset="1" stop-color="#98703B"/>
</linearGradient>
<linearGradient id="paint34_linear_25_294" x1="127.75" y1="37.4856" x2="105.822" y2="37.4856" gradientUnits="userSpaceOnUse">
<stop stop-color="#957237"/>
<stop offset="0.5" stop-color="#F1CB73"/>
<stop offset="1" stop-color="#98703B"/>
</linearGradient>
<linearGradient id="paint35_linear_25_294" x1="129.049" y1="36.8623" x2="107.712" y2="36.8623" gradientUnits="userSpaceOnUse">
<stop stop-color="#957237"/>
<stop offset="0.5" stop-color="#F1CB73"/>
<stop offset="1" stop-color="#98703B"/>
</linearGradient>
<linearGradient id="paint36_linear_25_294" x1="130.855" y1="35.9699" x2="110.321" y2="35.9699" gradientUnits="userSpaceOnUse">
<stop stop-color="#957237"/>
<stop offset="0.5" stop-color="#F1CB73"/>
<stop offset="1" stop-color="#98703B"/>
</linearGradient>
<linearGradient id="paint37_linear_25_294" x1="132.176" y1="35.1301" x2="111.716" y2="35.1301" gradientUnits="userSpaceOnUse">
<stop stop-color="#957237"/>
<stop offset="0.5" stop-color="#F1CB73"/>
<stop offset="1" stop-color="#98703B"/>
</linearGradient>
<linearGradient id="paint38_linear_25_294" x1="133.855" y1="33.9366" x2="113.575" y2="33.9366" gradientUnits="userSpaceOnUse">
<stop stop-color="#957237"/>
<stop offset="0.5" stop-color="#F1CB73"/>
<stop offset="1" stop-color="#98703B"/>
</linearGradient>
<linearGradient id="paint39_linear_25_294" x1="135.64" y1="32.9066" x2="115.339" y2="32.9066" gradientUnits="userSpaceOnUse">
<stop stop-color="#957237"/>
<stop offset="0.5" stop-color="#F1CB73"/>
<stop offset="1" stop-color="#98703B"/>
</linearGradient>
<linearGradient id="paint40_linear_25_294" x1="137.637" y1="31.6655" x2="117.092" y2="31.6655" gradientUnits="userSpaceOnUse">
<stop stop-color="#957237"/>
<stop offset="0.5" stop-color="#F1CB73"/>
<stop offset="1" stop-color="#98703B"/>
</linearGradient>
<linearGradient id="paint41_linear_25_294" x1="138.799" y1="31.0159" x2="118.349" y2="31.0159" gradientUnits="userSpaceOnUse">
<stop stop-color="#957237"/>
<stop offset="0.5" stop-color="#F1CB73"/>
<stop offset="1" stop-color="#98703B"/>
</linearGradient>
<linearGradient id="paint42_linear_25_294" x1="140.468" y1="30.097" x2="120.398" y2="30.097" gradientUnits="userSpaceOnUse">
<stop stop-color="#957237"/>
<stop offset="0.5" stop-color="#F1CB73"/>
<stop offset="1" stop-color="#98703B"/>
</linearGradient>
<linearGradient id="paint43_linear_25_294" x1="43.8391" y1="61.1147" x2="36.3923" y2="61.1147" gradientUnits="userSpaceOnUse">
<stop stop-color="#957237"/>
<stop offset="0.5" stop-color="#F1CB73"/>
<stop offset="1" stop-color="#98703B"/>
</linearGradient>
<linearGradient id="paint44_linear_25_294" x1="45.3918" y1="60.8347" x2="37.9768" y2="60.8347" gradientUnits="userSpaceOnUse">
<stop stop-color="#957237"/>
<stop offset="0.5" stop-color="#F1CB73"/>
<stop offset="1" stop-color="#98703B"/>
</linearGradient>
<linearGradient id="paint45_linear_25_294" x1="47.7157" y1="60.5918" x2="39.4873" y2="60.5918" gradientUnits="userSpaceOnUse">
<stop stop-color="#957237"/>
<stop offset="0.5" stop-color="#F1CB73"/>
<stop offset="1" stop-color="#98703B"/>
</linearGradient>
<linearGradient id="paint46_linear_25_294" x1="50.5465" y1="60.3435" x2="41.2829" y2="60.3435" gradientUnits="userSpaceOnUse">
<stop stop-color="#957237"/>
<stop offset="0.5" stop-color="#F1CB73"/>
<stop offset="1" stop-color="#98703B"/>
</linearGradient>
<linearGradient id="paint47_linear_25_294" x1="53.2083" y1="60.0214" x2="43.5433" y2="60.0214" gradientUnits="userSpaceOnUse">
<stop stop-color="#957237"/>
<stop offset="0.5" stop-color="#F1CB73"/>
<stop offset="1" stop-color="#98703B"/>
</linearGradient>
<linearGradient id="paint48_linear_25_294" x1="56.1659" y1="59.6254" x2="46.2685" y2="59.6254" gradientUnits="userSpaceOnUse">
<stop stop-color="#957237"/>
<stop offset="0.5" stop-color="#F1CB73"/>
<stop offset="1" stop-color="#98703B"/>
</linearGradient>
<linearGradient id="paint49_linear_25_294" x1="58.4791" y1="59.2714" x2="48.1382" y2="59.2714" gradientUnits="userSpaceOnUse">
<stop stop-color="#957237"/>
<stop offset="0.5" stop-color="#F1CB73"/>
<stop offset="1" stop-color="#98703B"/>
</linearGradient>
<linearGradient id="paint50_linear_25_294" x1="59.8418" y1="58.9282" x2="49.9867" y2="58.9282" gradientUnits="userSpaceOnUse">
<stop stop-color="#957237"/>
<stop offset="0.5" stop-color="#F1CB73"/>
<stop offset="1" stop-color="#98703B"/>
</linearGradient>
<linearGradient id="paint51_linear_25_294" x1="63.2642" y1="58.6272" x2="51.6768" y2="58.6272" gradientUnits="userSpaceOnUse">
<stop stop-color="#957237"/>
<stop offset="0.5" stop-color="#F1CB73"/>
<stop offset="1" stop-color="#98703B"/>
</linearGradient>
<linearGradient id="paint52_linear_25_294" x1="65.4399" y1="58.3473" x2="52.8174" y2="58.3473" gradientUnits="userSpaceOnUse">
<stop stop-color="#957237"/>
<stop offset="0.5" stop-color="#F1CB73"/>
<stop offset="1" stop-color="#98703B"/>
</linearGradient>
<linearGradient id="paint53_linear_25_294" x1="67.9963" y1="57.7821" x2="54.6978" y2="57.7821" gradientUnits="userSpaceOnUse">
<stop stop-color="#957237"/>
<stop offset="0.5" stop-color="#F1CB73"/>
<stop offset="1" stop-color="#98703B"/>
</linearGradient>
<linearGradient id="paint54_linear_25_294" x1="70.3518" y1="57.1484" x2="56.7575" y2="57.1484" gradientUnits="userSpaceOnUse">
<stop stop-color="#957237"/>
<stop offset="0.5" stop-color="#F1CB73"/>
<stop offset="1" stop-color="#98703B"/>
</linearGradient>
<linearGradient id="paint55_linear_25_294" x1="73.2354" y1="56.6361" x2="58.796" y2="56.6361" gradientUnits="userSpaceOnUse">
<stop stop-color="#957237"/>
<stop offset="0.5" stop-color="#F1CB73"/>
<stop offset="1" stop-color="#98703B"/>
</linearGradient>
<linearGradient id="paint56_linear_25_294" x1="74.9043" y1="56.1976" x2="60.6656" y2="56.1976" gradientUnits="userSpaceOnUse">
<stop stop-color="#957237"/>
<stop offset="0.5" stop-color="#F1CB73"/>
<stop offset="1" stop-color="#98703B"/>
</linearGradient>
<linearGradient id="paint57_linear_25_294" x1="141.323" y1="9.67556" x2="134.812" y2="9.67556" gradientUnits="userSpaceOnUse">
<stop stop-color="#957237"/>
<stop offset="0.5" stop-color="#F1CB73"/>
<stop offset="1" stop-color="#98703B"/>
</linearGradient>
<linearGradient id="paint58_linear_25_294" x1="139.918" y1="10.334" x2="132.408" y2="10.334" gradientUnits="userSpaceOnUse">
<stop stop-color="#957237"/>
<stop offset="0.5" stop-color="#F1CB73"/>
<stop offset="1" stop-color="#98703B"/>
</linearGradient>
<linearGradient id="paint59_linear_25_294" x1="137.394" y1="10.9361" x2="130.095" y2="10.9361" gradientUnits="userSpaceOnUse">
<stop stop-color="#957237"/>
<stop offset="0.5" stop-color="#F1CB73"/>
<stop offset="1" stop-color="#98703B"/>
</linearGradient>
<linearGradient id="paint60_linear_25_294" x1="135.355" y1="11.5223" x2="127.95" y2="11.5223" gradientUnits="userSpaceOnUse">
<stop stop-color="#957237"/>
<stop offset="0.5" stop-color="#F1CB73"/>
<stop offset="1" stop-color="#98703B"/>
</linearGradient>
<linearGradient id="paint61_linear_25_294" x1="132.82" y1="12.2353" x2="125.743" y2="12.2353" gradientUnits="userSpaceOnUse">
<stop stop-color="#957237"/>
<stop offset="0.5" stop-color="#F1CB73"/>
<stop offset="1" stop-color="#98703B"/>
</linearGradient>
<linearGradient id="paint62_linear_25_294" x1="101.839" y1="23.8543" x2="97.0016" y2="23.8543" gradientUnits="userSpaceOnUse">
<stop stop-color="#957237"/>
<stop offset="0.5" stop-color="#F1CB73"/>
<stop offset="1" stop-color="#98703B"/>
</linearGradient>
<linearGradient id="paint63_linear_25_294" x1="100.255" y1="24.8736" x2="95.2798" y2="24.8736" gradientUnits="userSpaceOnUse">
<stop stop-color="#957237"/>
<stop offset="0.5" stop-color="#F1CB73"/>
<stop offset="1" stop-color="#98703B"/>
</linearGradient>
<linearGradient id="paint64_linear_25_294" x1="98.0896" y1="25.9775" x2="93.6427" y2="25.9775" gradientUnits="userSpaceOnUse">
<stop stop-color="#957237"/>
<stop offset="0.5" stop-color="#F1CB73"/>
<stop offset="1" stop-color="#98703B"/>
</linearGradient>
<linearGradient id="paint65_linear_25_294" x1="96.8325" y1="26.8648" x2="91.7201" y2="26.8648" gradientUnits="userSpaceOnUse">
<stop stop-color="#957237"/>
<stop offset="0.5" stop-color="#F1CB73"/>
<stop offset="1" stop-color="#98703B"/>
</linearGradient>
<linearGradient id="paint66_linear_25_294" x1="94.7834" y1="27.8365" x2="89.7239" y2="27.8365" gradientUnits="userSpaceOnUse">
<stop stop-color="#957237"/>
<stop offset="0.5" stop-color="#F1CB73"/>
<stop offset="1" stop-color="#98703B"/>
</linearGradient>
<linearGradient id="paint67_linear_25_294" x1="93.6426" y1="28.634" x2="87.8225" y2="28.634" gradientUnits="userSpaceOnUse">
<stop stop-color="#957237"/>
<stop offset="0.5" stop-color="#F1CB73"/>
<stop offset="1" stop-color="#98703B"/>
</linearGradient>
<linearGradient id="paint68_linear_25_294" x1="91.8047" y1="29.4156" x2="86.5339" y2="29.4156" gradientUnits="userSpaceOnUse">
<stop stop-color="#957237"/>
<stop offset="0.5" stop-color="#F1CB73"/>
<stop offset="1" stop-color="#98703B"/>
</linearGradient>
<linearGradient id="paint69_linear_25_294" x1="90.0408" y1="30.1867" x2="84.9073" y2="30.1867" gradientUnits="userSpaceOnUse">
<stop stop-color="#957237"/>
<stop offset="0.5" stop-color="#F1CB73"/>
<stop offset="1" stop-color="#98703B"/>
</linearGradient>
<linearGradient id="paint70_linear_25_294" x1="88.1921" y1="31.1215" x2="82.9952" y2="31.1215" gradientUnits="userSpaceOnUse">
<stop stop-color="#957237"/>
<stop offset="0.5" stop-color="#F1CB73"/>
<stop offset="1" stop-color="#98703B"/>
</linearGradient>
<linearGradient id="paint71_linear_25_294" x1="87.3684" y1="31.5599" x2="82.087" y2="31.5599" gradientUnits="userSpaceOnUse">
<stop stop-color="#957237"/>
<stop offset="0.5" stop-color="#F1CB73"/>
<stop offset="1" stop-color="#98703B"/>
</linearGradient>
<linearGradient id="paint72_linear_25_294" x1="81.2419" y1="34.8925" x2="77.0274" y2="34.8925" gradientUnits="userSpaceOnUse">
<stop stop-color="#957237"/>
<stop offset="0.5" stop-color="#F1CB73"/>
<stop offset="1" stop-color="#98703B"/>
</linearGradient>
<linearGradient id="paint73_linear_25_294" x1="80.1118" y1="35.5579" x2="75.6226" y2="35.5579" gradientUnits="userSpaceOnUse">
<stop stop-color="#957237"/>
<stop offset="0.5" stop-color="#F1CB73"/>
<stop offset="1" stop-color="#98703B"/>
</linearGradient>
<linearGradient id="paint74_linear_25_294" x1="78.5801" y1="36.5985" x2="73.7634" y2="36.5985" gradientUnits="userSpaceOnUse">
<stop stop-color="#957237"/>
<stop offset="0.5" stop-color="#F1CB73"/>
<stop offset="1" stop-color="#98703B"/>
</linearGradient>
<linearGradient id="paint75_linear_25_294" x1="76.9746" y1="37.4223" x2="72.2214" y2="37.4223" gradientUnits="userSpaceOnUse">
<stop stop-color="#957237"/>
<stop offset="0.5" stop-color="#F1CB73"/>
<stop offset="1" stop-color="#98703B"/>
</linearGradient>
<linearGradient id="paint76_linear_25_294" x1="75.7175" y1="37.9082" x2="71.3973" y2="37.9082" gradientUnits="userSpaceOnUse">
<stop stop-color="#957237"/>
<stop offset="0.5" stop-color="#F1CB73"/>
<stop offset="1" stop-color="#98703B"/>
</linearGradient>
<linearGradient id="paint77_linear_25_294" x1="95.0757" y1="54.0907" x2="93.03" y2="54.0907" gradientUnits="userSpaceOnUse">
<stop stop-color="#957237"/>
<stop offset="0.5" stop-color="#F1CB73"/>
<stop offset="1" stop-color="#98703B"/>
</linearGradient>
<linearGradient id="paint78_linear_25_294" x1="91.9067" y1="53.2543" x2="89.8611" y2="53.2543" gradientUnits="userSpaceOnUse">
<stop stop-color="#957237"/>
<stop offset="0.5" stop-color="#F1CB73"/>
<stop offset="1" stop-color="#98703B"/>
</linearGradient>
<linearGradient id="paint79_linear_25_294" x1="88.6746" y1="52.3142" x2="86.6289" y2="52.3142" gradientUnits="userSpaceOnUse">
<stop stop-color="#957237"/>
<stop offset="0.5" stop-color="#F1CB73"/>
<stop offset="1" stop-color="#98703B"/>
</linearGradient>
<linearGradient id="paint80_linear_25_294" x1="85.7593" y1="51.2896" x2="83.7136" y2="51.2896" gradientUnits="userSpaceOnUse">
<stop stop-color="#957237"/>
<stop offset="0.5" stop-color="#F1CB73"/>
<stop offset="1" stop-color="#98703B"/>
</linearGradient>
<linearGradient id="paint81_linear_25_294" x1="82.9707" y1="49.9376" x2="80.9356" y2="49.9376" gradientUnits="userSpaceOnUse">
<stop stop-color="#957237"/>
<stop offset="0.5" stop-color="#F1CB73"/>
<stop offset="1" stop-color="#98703B"/>
</linearGradient>
<linearGradient id="paint82_linear_25_294" x1="80.3511" y1="48.3109" x2="78.3054" y2="48.3109" gradientUnits="userSpaceOnUse">
<stop stop-color="#957237"/>
<stop offset="0.5" stop-color="#F1CB73"/>
<stop offset="1" stop-color="#98703B"/>
</linearGradient>
<linearGradient id="paint83_linear_25_294" x1="107.975" y1="27.4447" x2="105.444" y2="27.4447" gradientUnits="userSpaceOnUse">
<stop stop-color="#957237"/>
<stop offset="0.5" stop-color="#F1CB73"/>
<stop offset="1" stop-color="#98703B"/>
</linearGradient>
<linearGradient id="paint84_linear_25_294" x1="107.553" y1="23.9009" x2="105.017" y2="23.9009" gradientUnits="userSpaceOnUse">
<stop stop-color="#957237"/>
<stop offset="0.5" stop-color="#F1CB73"/>
<stop offset="1" stop-color="#98703B"/>
</linearGradient>
<linearGradient id="paint85_linear_25_294" x1="107.51" y1="20.2779" x2="104.979" y2="20.2779" gradientUnits="userSpaceOnUse">
<stop stop-color="#957237"/>
<stop offset="0.5" stop-color="#F1CB73"/>
<stop offset="1" stop-color="#98703B"/>
</linearGradient>
<linearGradient id="paint86_linear_25_294" x1="107.891" y1="16.5439" x2="105.359" y2="16.5439" gradientUnits="userSpaceOnUse">
<stop stop-color="#957237"/>
<stop offset="0.5" stop-color="#F1CB73"/>
<stop offset="1" stop-color="#98703B"/>
</linearGradient>
<linearGradient id="paint87_linear_25_294" x1="108.271" y1="12.9367" x2="105.735" y2="12.9367" gradientUnits="userSpaceOnUse">
<stop stop-color="#957237"/>
<stop offset="0.5" stop-color="#F1CB73"/>
<stop offset="1" stop-color="#98703B"/>
</linearGradient>
<linearGradient id="paint88_linear_25_294" x1="138.461" y1="14.6614" x2="137.044" y2="14.6614" gradientUnits="userSpaceOnUse">
<stop stop-color="#957237"/>
<stop offset="0.5" stop-color="#F1CB73"/>
<stop offset="1" stop-color="#98703B"/>
</linearGradient>
<linearGradient id="paint89_linear_25_294" x1="139.094" y1="12.6018" x2="137.678" y2="12.6018" gradientUnits="userSpaceOnUse">
<stop stop-color="#957237"/>
<stop offset="0.5" stop-color="#F1CB73"/>
<stop offset="1" stop-color="#98703B"/>
</linearGradient>
<linearGradient id="paint90_linear_25_294" x1="139.697" y1="10.4892" x2="138.28" y2="10.4892" gradientUnits="userSpaceOnUse">
<stop stop-color="#957237"/>
<stop offset="0.5" stop-color="#F1CB73"/>
<stop offset="1" stop-color="#98703B"/>
</linearGradient>
<linearGradient id="paint91_linear_25_294" x1="140.383" y1="8.39243" x2="138.967" y2="8.39243" gradientUnits="userSpaceOnUse">
<stop stop-color="#957237"/>
<stop offset="0.5" stop-color="#F1CB73"/>
<stop offset="1" stop-color="#98703B"/>
</linearGradient>
<linearGradient id="paint92_linear_25_294" x1="141.154" y1="6.34838" x2="139.738" y2="6.34838" gradientUnits="userSpaceOnUse">
<stop stop-color="#957237"/>
<stop offset="0.5" stop-color="#F1CB73"/>
<stop offset="1" stop-color="#98703B"/>
</linearGradient>
<linearGradient id="paint93_linear_25_294" x1="142.094" y1="4.36274" x2="140.68" y2="4.36274" gradientUnits="userSpaceOnUse">
<stop stop-color="#957237"/>
<stop offset="0.5" stop-color="#F1CB73"/>
<stop offset="1" stop-color="#98703B"/>
</linearGradient>
<clipPath id="clip0_25_294">
<rect width="64" height="183.877" fill="white" transform="matrix(4.37114e-08 -1 -1 -4.37114e-08 184.377 64.5)"/>
</clipPath>
</defs>
</svg>
